M48
;Layer_Color=9474304
;FILE_FORMAT=2:4
INCH,TZ
;TYPE=PLATED
T1F00S00C0.0118
T2F00S00C0.0354
T3F00S00C0.0472
;TYPE=NON_PLATED
T4F00S00C0.0551
%
T01
X380Y270
Y2330
Y4410
X2860
Y2330
Y270
X4940
Y2010
X7020
X7500Y2550
X6944Y3770
X6940Y4538
X5944Y4540
X5160Y5553
X7760
X9100Y5210
X8264Y4273
X10150Y3830
X10414Y4063
X10634Y4276
X11150Y3790
X11480Y3999
X12410Y4410
X12900Y4803
X12840Y5197
X13900
X14360Y5340
X14810
X16000Y5200
X15900Y4090
X15150Y4030
X13900Y4000
X14150Y2320
X15150
X15970Y2419
X16530
X16970
X17150Y2150
X16750Y2149
X17730Y2219
X18032
X18240Y2439
X18640Y2350
X19100Y2999
X19410Y3400
X19380Y5160
X18700Y5252
X18200Y4860
Y4000
X17100
X17190Y5430
X16900Y5600
X11700
X11650Y2149
X11150
X10650
Y2509
X10140Y2260
Y867
X11180Y270
X12650Y870
X13260Y270
X14650Y600
X15340Y270
X16300Y600
X17420Y270
X18150Y840
X19020Y1510
X13150Y2440
X12650Y2330
X12150Y2170
X9100Y270
X7020
X19620
X21580
X20760Y2220
X20080Y3950
X21460Y3950
X21580Y5210
Y7460
X20900Y7600
X20500Y7200
X20780Y9540
X21100Y9600
X21580Y9490
Y11450
X21500Y13600
X20260Y13650
X20230Y13320
X20090Y12820
X19500Y12600
X19500Y15590
X19003Y14607
X17650Y13509
Y13151
X17150
X17150Y13509
X16660Y13509
X16650Y13149
X16150
Y13509
X15630Y13320
X15150Y13509
X14150Y13320
X12650
X12150Y13509
X11650Y13400
X11150
X10640
X10150Y13350
Y11450
X9170Y11750
X8500Y12800
X6400Y12850
X6620Y11760
X7440Y11700
X7430Y11300
X6129Y11089
X5656
Y10616
X6129
Y10144
Y9671
X5656
Y10144
X5184
Y9671
X4711
Y10144
Y10616
X5184
Y11089
X4711
X4400Y8730
X4010Y8130
X5490Y8190
X5410Y7461
X7520Y7231
X7730Y8250
X7370Y8330
X7010Y8270
X6620Y9090
X7370Y9160
X8320Y8710
X9510Y9360
X10700Y8800
X10720Y7390
X9100Y7290
X12350Y9100
X12960Y9930
X12400Y11250
X13740
X14850Y10540
X17200Y11290
X17760Y10770
X18060Y11690
X18330Y11520
X19130Y11445
X19399Y9030
X17430Y9280
X17220Y8300
X18060Y7790
X17020Y6180
X14900Y6200
Y6970
X15150Y7470
X13850Y8250
X13900Y5840
X19390Y6270
X17420Y15590
X15340
X13260
X11180
X9100
X7020
X7390Y14600
X7700
X4940Y15590
X2860
Y13530
X3760Y13180
X3760Y11920
X2860Y11920
Y9650
Y8830
Y8050
X1690Y8050
Y8830
X390
Y8050
X380Y11450
Y13530
Y15590
X3630Y7500
X3350Y6980
X2920Y6480
T02
X21360Y6961
Y7961
Y8961
X21360Y14260
Y15260
X16500Y11030
Y10030
X15500
Y9030
Y8030
Y7030
X16500
Y8030
Y9030
X15500Y11030
T03
X6434Y3766
Y4554
T04
X8550Y2330
X19250
Y13330
X8550
M30
