M48
;Layer_Color=9474304
;FILE_FORMAT=2:4
INCH,TZ
;TYPE=PLATED
T1F00S00C0.0039
;TYPE=NON_PLATED
%
T01
X3250Y2080
X6010Y2674
X6560Y2490
X6910Y2170
X7110Y2220
X7690Y2150
X7370Y1700
X6710Y1790
X6800Y3090
X6550Y3360
X6020Y4140
X6660Y4580
X7030Y4570
X7520
X7490Y5014
X6390Y5650
X6140Y6080
X5470
X4940Y5980
X4730Y5990
X4800Y5150
X4630
X4460
X4290
X8320Y3960
X8070Y3140
X9290Y2810
M30
