M48
;Layer_Color=9474304
;FILE_FORMAT=2:4
INCH,TZ
;TYPE=PLATED
T2F00S00C0.0118
T4F00S00C0.0433
;TYPE=NON_PLATED
T5F00S00C0.0200
T6F00S00C0.0390
%
T02
X1760Y960
X2710Y820
X2860Y240
X3930Y250
X4420
X4390Y750
X4640Y900
X4510Y1180
X4710Y1390
X5300Y630
X5230Y220
X5480Y250
X5910Y610
X6850Y1400
X7110Y1390
X7123Y1137
X7380Y1410
X7810Y1420
X8380
X8320Y910
X8670Y740
X7870Y200
X10474Y1050
X10076Y1483
X9770Y1780
X9360Y1730
X9060Y2170
X9050Y2440
X8760Y2360
X8890Y3110
X8640Y3150
X9129Y3550
X8910Y3990
X8645Y4115
X9260Y4250
X9820Y3650
X9870Y3160
X9500Y3180
X10306Y2380
X10316Y4804
X10060Y4890
X8670
X7540Y4790
X7709Y4393
X7709Y4086
X7385Y4095
X7069Y4094
X7070Y3780
Y3465
X6755
X6134Y3456
X6140Y3760
X5810Y3470
X5810Y4087
X5448Y4784
X4979Y4439
X4506
X4034
X3561
Y3966
X4034
X4506
Y3494
X4979
X4506Y3021
X4034
Y3494
X3561
Y3021
X3260Y1800
X2980Y1500
X4460Y1580
X4540Y2040
X4450Y2270
X5330Y2660
X6124Y2204
Y1889
X6240Y1480
X6448Y2835
X6125Y3150
X7385Y3150
X7700
X7384Y2834
X7070Y2520
X8015Y2205
X7040Y4900
X6830Y4770
X6470Y4760
X6575Y5004
X6370Y6120
X6200Y6900
X5640Y7400
X5140Y7400
X4950Y6990
X4470Y6970
X4210Y7050
X4140Y7400
X3830Y7470
X3550Y7510
Y8490
X4140Y8600
X4640
X5140
X5640
X6140Y8590
X6530Y7980
X7350Y5610
X5600Y5590
X4700Y5660
X4230Y5680
X3720Y5690
X3470Y5640
X3350Y5910
X3140Y4840
X2750Y4950
X2380Y5250
X3940Y5200
X9050Y6120
X2160Y5870
X2070Y5250
X1740Y2990
T04
X9584Y2264
Y4035
T05
X3860Y6369
X4220
X4580
X4940
X5300
X5660
X6020
X6380
T06
X3640Y8000
X6640Y7600
Y8400
M30
