M48
;Layer_Color=9474304
;FILE_FORMAT=2:4
INCH,TZ
;TYPE=PLATED
T1F00S00C0.0039
;TYPE=NON_PLATED
%
T01
X8160Y180
X8150Y570
X9270Y140
X8006Y1584
X8023Y3456
X7376
X7061Y2826
X6764Y2844
X5380Y3980
X5183Y5480
X5910Y5500
X5890Y6060
X5490Y6110
X4830Y5910
X3740Y6110
X3060Y5730
X2500Y6060
X6240Y5809
X6520Y5220
X7280Y5240
X7030Y5600
X7900Y5640
X8570Y5760
X8330Y6090
X7490Y6060
X8023Y4401
X10410Y4600
X10574Y5220
M30
