%FSLAX24Y24*%
%MOIN*%
G70*
G01*
G75*
G04 Layer_Color=8421504*
%ADD10C,0.0060*%
%ADD11O,0.0256X0.0079*%
%ADD12O,0.0079X0.0256*%
%ADD13R,0.1850X0.1850*%
%ADD14R,0.0295X0.0315*%
%ADD15R,0.0197X0.0256*%
%ADD16C,0.0394*%
%ADD17R,0.1181X0.0300*%
%ADD18R,0.2000X0.0950*%
%ADD19R,0.0299X0.0945*%
%ADD20R,0.0400X0.0300*%
%ADD21C,0.0098*%
G04:AMPARAMS|DCode=22|XSize=47.2mil|YSize=43.3mil|CornerRadius=0mil|HoleSize=0mil|Usage=FLASHONLY|Rotation=45.000|XOffset=0mil|YOffset=0mil|HoleType=Round|Shape=Rectangle|*
%AMROTATEDRECTD22*
4,1,4,-0.0014,-0.0320,-0.0320,-0.0014,0.0014,0.0320,0.0320,0.0014,-0.0014,-0.0320,0.0*
%
%ADD22ROTATEDRECTD22*%

%ADD23R,0.1083X0.0350*%
%ADD24R,0.0197X0.0236*%
%ADD25R,0.0315X0.0295*%
%ADD26R,0.0236X0.0157*%
%ADD27R,0.0236X0.0217*%
%ADD28C,0.0079*%
G04:AMPARAMS|DCode=29|XSize=19.7mil|YSize=23.6mil|CornerRadius=0mil|HoleSize=0mil|Usage=FLASHONLY|Rotation=45.000|XOffset=0mil|YOffset=0mil|HoleType=Round|Shape=Rectangle|*
%AMROTATEDRECTD29*
4,1,4,0.0014,-0.0153,-0.0153,0.0014,-0.0014,0.0153,0.0153,-0.0014,0.0014,-0.0153,0.0*
%
%ADD29ROTATEDRECTD29*%

%ADD30R,0.0217X0.0236*%
%ADD31R,0.0394X0.0709*%
%ADD32R,0.0236X0.0197*%
%ADD33C,0.0090*%
%ADD34C,0.0080*%
%ADD35C,0.0300*%
%ADD36C,0.0150*%
%ADD37C,0.0100*%
%ADD38C,0.0591*%
%ADD39R,0.0591X0.0591*%
%ADD40C,0.0354*%
%ADD41C,0.0236*%
%ADD42R,0.0354X0.1043*%
%ADD43R,0.0394X0.0394*%
%ADD44R,0.0394X0.0394*%
%ADD45C,0.0098*%
%ADD46C,0.0039*%
%ADD47C,0.0079*%
%ADD48C,0.0118*%
%ADD49C,0.0059*%
%ADD50C,0.0050*%
%ADD51R,0.0420X0.1300*%
D11*
X6611Y9514D02*
D03*
Y9671D02*
D03*
Y9829D02*
D03*
Y9986D02*
D03*
Y10144D02*
D03*
Y10301D02*
D03*
Y10459D02*
D03*
Y10616D02*
D03*
Y10774D02*
D03*
Y10931D02*
D03*
Y11089D02*
D03*
Y11246D02*
D03*
X4229D02*
D03*
Y11089D02*
D03*
Y10931D02*
D03*
Y10774D02*
D03*
Y10616D02*
D03*
Y10459D02*
D03*
Y10301D02*
D03*
Y10144D02*
D03*
Y9986D02*
D03*
Y9829D02*
D03*
Y9671D02*
D03*
Y9514D02*
D03*
D12*
X6286Y11571D02*
D03*
X6129D02*
D03*
X5971D02*
D03*
X5814D02*
D03*
X5656D02*
D03*
X5499D02*
D03*
X5341D02*
D03*
X5184D02*
D03*
X5026D02*
D03*
X4869D02*
D03*
X4711D02*
D03*
X4554D02*
D03*
Y9189D02*
D03*
X4711D02*
D03*
X4869D02*
D03*
X5026D02*
D03*
X5184D02*
D03*
X5341D02*
D03*
X5499D02*
D03*
X5656D02*
D03*
X5814D02*
D03*
X5971D02*
D03*
X6129D02*
D03*
X6286D02*
D03*
D13*
X5420Y10380D02*
D03*
D14*
X7726Y9580D02*
D03*
X7194D02*
D03*
D15*
X8060Y9233D02*
D03*
Y9607D02*
D03*
X3630Y8613D02*
D03*
Y8987D02*
D03*
X3350Y10483D02*
D03*
Y10857D02*
D03*
X3630Y10033D02*
D03*
Y10407D02*
D03*
D19*
X13340Y4678D02*
D03*
X14340D02*
D03*
X14840D02*
D03*
X15340D02*
D03*
X13340Y3142D02*
D03*
X13840D02*
D03*
X14340D02*
D03*
X14840D02*
D03*
X15340D02*
D03*
D20*
X19127Y5626D02*
D03*
X18300Y5252D02*
D03*
Y6000D02*
D03*
D21*
X19871Y14011D02*
D03*
Y14169D02*
D03*
X20029Y14011D02*
D03*
Y14169D02*
D03*
D22*
X4197Y7594D02*
D03*
X4587Y7205D02*
D03*
X4670Y8068D02*
D03*
X5060Y7678D02*
D03*
D23*
X5558Y4947D02*
D03*
Y4160D02*
D03*
Y3373D02*
D03*
X7310Y4947D02*
D03*
Y4160D02*
D03*
Y3373D02*
D03*
D24*
X17850Y4863D02*
D03*
Y5257D02*
D03*
X19820Y13143D02*
D03*
Y13537D02*
D03*
X7384Y5553D02*
D03*
Y5947D02*
D03*
X5524Y5553D02*
D03*
Y5947D02*
D03*
X7140Y11697D02*
D03*
Y11303D02*
D03*
X3580Y11577D02*
D03*
Y11183D02*
D03*
X4130Y8463D02*
D03*
Y8857D02*
D03*
X3630Y7893D02*
D03*
Y8287D02*
D03*
Y9313D02*
D03*
Y9707D02*
D03*
X3250Y11577D02*
D03*
Y11183D02*
D03*
D25*
X7720Y8597D02*
D03*
Y9128D02*
D03*
X7010Y9136D02*
D03*
Y8604D02*
D03*
D26*
X16326Y4344D02*
D03*
Y4600D02*
D03*
Y4856D02*
D03*
X17074D02*
D03*
Y4600D02*
D03*
Y4344D02*
D03*
D27*
X16327Y3800D02*
D03*
X15933D02*
D03*
X19097Y11030D02*
D03*
X18703D02*
D03*
X19097Y10530D02*
D03*
X18703D02*
D03*
X19097Y10030D02*
D03*
X18703D02*
D03*
X19097Y9530D02*
D03*
X18703D02*
D03*
X19097Y9030D02*
D03*
X18703D02*
D03*
X19097Y8530D02*
D03*
X18703D02*
D03*
X19097Y8030D02*
D03*
X18703D02*
D03*
X18707Y7530D02*
D03*
X19101D02*
D03*
X18707Y7030D02*
D03*
X19101D02*
D03*
X18603Y4750D02*
D03*
X18997D02*
D03*
X15347Y600D02*
D03*
X14953D02*
D03*
X14347D02*
D03*
X13953D02*
D03*
D29*
X5269Y8441D02*
D03*
X4991Y8719D02*
D03*
X5289Y8021D02*
D03*
X5011Y8299D02*
D03*
X3961Y7249D02*
D03*
X4239Y6971D02*
D03*
D30*
X17500Y4053D02*
D03*
Y4447D02*
D03*
X19150Y13893D02*
D03*
Y14287D02*
D03*
X19510Y13893D02*
D03*
Y14287D02*
D03*
X17850Y5643D02*
D03*
Y6037D02*
D03*
X12500Y4803D02*
D03*
Y5197D02*
D03*
D31*
X6946Y5750D02*
D03*
X5962D02*
D03*
D32*
X3317Y9290D02*
D03*
X2923D02*
D03*
M02*
