G75*
%MOIN*%
%OFA0B0*%
%FSLAX25Y25*%
%IPPOS*%
%LPD*%
%AMOC8*
5,1,8,0,0,1.08239X$1,22.5*
%
%ADD10C,0.00000*%
%ADD11C,0.00300*%
%ADD12C,0.00200*%
%ADD13C,0.00600*%
%ADD14C,0.00500*%
%ADD15C,0.00400*%
D10*
X0001020Y0001310D02*
X0119130Y0001310D01*
X0119130Y0080050D01*
X0001020Y0080050D01*
X0001020Y0001310D01*
D11*
X0054713Y0053231D02*
X0056565Y0053231D01*
X0057182Y0053849D01*
X0057182Y0054466D01*
X0056565Y0055083D01*
X0054713Y0055083D01*
X0054713Y0053231D02*
X0054713Y0056935D01*
X0056565Y0056935D01*
X0057182Y0056317D01*
X0057182Y0055700D01*
X0056565Y0055083D01*
X0058396Y0053231D02*
X0059631Y0053231D01*
X0059013Y0053231D02*
X0059013Y0056935D01*
X0058396Y0056935D01*
X0060852Y0055700D02*
X0060852Y0053849D01*
X0061469Y0053231D01*
X0063320Y0053231D01*
X0063320Y0055700D01*
X0064535Y0055083D02*
X0065152Y0055700D01*
X0066386Y0055700D01*
X0067003Y0055083D01*
X0067003Y0054466D01*
X0064535Y0054466D01*
X0064535Y0053849D02*
X0064535Y0055083D01*
X0064535Y0053849D02*
X0065152Y0053231D01*
X0066386Y0053231D01*
X0068218Y0053231D02*
X0068218Y0056935D01*
X0070687Y0053231D01*
X0070687Y0056935D01*
X0071901Y0055700D02*
X0072518Y0055700D01*
X0072518Y0053231D01*
X0071901Y0053231D02*
X0073135Y0053231D01*
X0074356Y0053231D02*
X0074356Y0055700D01*
X0076208Y0055700D01*
X0076825Y0055083D01*
X0076825Y0053231D01*
X0078040Y0053849D02*
X0078657Y0053231D01*
X0080508Y0053231D01*
X0080508Y0055700D02*
X0078657Y0055700D01*
X0078040Y0055083D01*
X0078040Y0053849D01*
X0072518Y0056935D02*
X0072518Y0057552D01*
D12*
X0078290Y0050585D02*
X0077923Y0050218D01*
X0077923Y0048750D01*
X0078290Y0048383D01*
X0079024Y0048383D01*
X0079391Y0048750D01*
X0080133Y0048383D02*
X0081601Y0048383D01*
X0080867Y0048383D02*
X0080867Y0050585D01*
X0080133Y0049851D01*
X0079391Y0050218D02*
X0079024Y0050585D01*
X0078290Y0050585D01*
X0082343Y0049851D02*
X0083077Y0050585D01*
X0083077Y0048383D01*
X0082343Y0048383D02*
X0083811Y0048383D01*
X0093324Y0047273D02*
X0093324Y0045071D01*
X0094792Y0045071D01*
X0095534Y0045438D02*
X0095901Y0045071D01*
X0096635Y0045071D01*
X0097002Y0045438D01*
X0097002Y0046172D01*
X0096635Y0046539D01*
X0096268Y0046539D01*
X0095534Y0046172D01*
X0095534Y0047273D01*
X0097002Y0047273D01*
X0102844Y0046391D02*
X0102844Y0044923D01*
X0103211Y0044556D01*
X0103945Y0044556D01*
X0104312Y0044923D01*
X0105054Y0044556D02*
X0106522Y0044556D01*
X0105788Y0044556D02*
X0105788Y0046758D01*
X0105054Y0046024D01*
X0104312Y0046391D02*
X0103945Y0046758D01*
X0103211Y0046758D01*
X0102844Y0046391D01*
X0107264Y0046391D02*
X0107631Y0046758D01*
X0108365Y0046758D01*
X0108732Y0046391D01*
X0108732Y0046024D01*
X0107264Y0044556D01*
X0108732Y0044556D01*
X0108483Y0036719D02*
X0107749Y0036719D01*
X0107382Y0036352D01*
X0108116Y0035618D02*
X0108483Y0035618D01*
X0108850Y0035251D01*
X0108850Y0034884D01*
X0108483Y0034517D01*
X0107749Y0034517D01*
X0107382Y0034884D01*
X0106640Y0034517D02*
X0105172Y0034517D01*
X0105906Y0034517D02*
X0105906Y0036719D01*
X0105172Y0035985D01*
X0104430Y0036352D02*
X0104063Y0036719D01*
X0103329Y0036719D01*
X0102962Y0036352D01*
X0102962Y0034884D01*
X0103329Y0034517D01*
X0104063Y0034517D01*
X0104430Y0034884D01*
X0108483Y0035618D02*
X0108850Y0035985D01*
X0108850Y0036352D01*
X0108483Y0036719D01*
X0087632Y0031355D02*
X0087632Y0030988D01*
X0087265Y0030621D01*
X0087632Y0030254D01*
X0087632Y0029887D01*
X0087265Y0029520D01*
X0086531Y0029520D01*
X0086164Y0029887D01*
X0085422Y0029520D02*
X0083954Y0029520D01*
X0083954Y0031722D01*
X0083662Y0032863D02*
X0083662Y0035065D01*
X0082928Y0034331D01*
X0082186Y0034698D02*
X0081819Y0035065D01*
X0081085Y0035065D01*
X0080718Y0034698D01*
X0080718Y0033230D01*
X0081085Y0032863D01*
X0081819Y0032863D01*
X0082186Y0033230D01*
X0082928Y0032863D02*
X0084396Y0032863D01*
X0085138Y0033230D02*
X0086606Y0034698D01*
X0086606Y0033230D01*
X0086239Y0032863D01*
X0085505Y0032863D01*
X0085138Y0033230D01*
X0085138Y0034698D01*
X0085505Y0035065D01*
X0086239Y0035065D01*
X0086606Y0034698D01*
X0086531Y0031722D02*
X0086164Y0031355D01*
X0086531Y0031722D02*
X0087265Y0031722D01*
X0087632Y0031355D01*
X0087265Y0030621D02*
X0086898Y0030621D01*
X0073643Y0039559D02*
X0073643Y0041761D01*
X0072542Y0040660D01*
X0074010Y0040660D01*
X0071800Y0039559D02*
X0070332Y0039559D01*
X0070332Y0041761D01*
X0069656Y0031924D02*
X0068922Y0031924D01*
X0068555Y0031557D01*
X0068555Y0030089D01*
X0068922Y0029722D01*
X0069656Y0029722D01*
X0070023Y0030089D01*
X0070765Y0030089D02*
X0071132Y0029722D01*
X0071866Y0029722D01*
X0072233Y0030089D01*
X0072233Y0031557D01*
X0071866Y0031924D01*
X0071132Y0031924D01*
X0070765Y0031557D01*
X0070765Y0031190D01*
X0071132Y0030823D01*
X0072233Y0030823D01*
X0070023Y0031557D02*
X0069656Y0031924D01*
X0069538Y0019160D02*
X0068804Y0019160D01*
X0068437Y0018793D01*
X0068437Y0017325D01*
X0068804Y0016958D01*
X0069538Y0016958D01*
X0069905Y0017325D01*
X0070647Y0018059D02*
X0072115Y0018059D01*
X0071748Y0019160D02*
X0070647Y0018059D01*
X0069905Y0018793D02*
X0069538Y0019160D01*
X0071748Y0019160D02*
X0071748Y0016958D01*
X0069047Y0015665D02*
X0069047Y0014197D01*
X0069047Y0015298D02*
X0067579Y0015298D01*
X0067579Y0015665D02*
X0067579Y0014197D01*
X0066837Y0014564D02*
X0066837Y0016032D01*
X0066470Y0016399D01*
X0065369Y0016399D01*
X0065369Y0014197D01*
X0066470Y0014197D01*
X0066837Y0014564D01*
X0067579Y0015665D02*
X0068313Y0016399D01*
X0069047Y0015665D01*
X0064627Y0016032D02*
X0064260Y0016399D01*
X0063526Y0016399D01*
X0063159Y0016032D01*
X0063159Y0015665D01*
X0063526Y0015298D01*
X0064260Y0015298D01*
X0064627Y0014931D01*
X0064627Y0014564D01*
X0064260Y0014197D01*
X0063526Y0014197D01*
X0063159Y0014564D01*
X0056592Y0014637D02*
X0056592Y0013903D01*
X0056225Y0013536D01*
X0056592Y0012794D02*
X0055858Y0012060D01*
X0055858Y0012427D02*
X0055858Y0011326D01*
X0056592Y0011326D02*
X0054390Y0011326D01*
X0054390Y0012427D01*
X0054757Y0012794D01*
X0055491Y0012794D01*
X0055858Y0012427D01*
X0054757Y0013536D02*
X0054390Y0013903D01*
X0054390Y0014637D01*
X0054757Y0015004D01*
X0055124Y0015004D01*
X0055491Y0014637D01*
X0055858Y0015004D01*
X0056225Y0015004D01*
X0056592Y0014637D01*
X0055491Y0014637D02*
X0055491Y0014270D01*
X0040757Y0011067D02*
X0040757Y0009599D01*
X0039290Y0011067D01*
X0038923Y0011067D01*
X0038556Y0010700D01*
X0038556Y0009966D01*
X0038923Y0009599D01*
X0038923Y0008857D02*
X0039657Y0008857D01*
X0040024Y0008490D01*
X0040024Y0007389D01*
X0040757Y0007389D02*
X0038556Y0007389D01*
X0038556Y0008490D01*
X0038923Y0008857D01*
X0040024Y0008123D02*
X0040757Y0008857D01*
X0008631Y0022402D02*
X0008631Y0023136D01*
X0008265Y0023503D01*
X0008265Y0024244D02*
X0008631Y0024611D01*
X0008631Y0025345D01*
X0008265Y0025712D01*
X0007898Y0025712D01*
X0007531Y0025345D01*
X0007531Y0024978D01*
X0007531Y0025345D02*
X0007164Y0025712D01*
X0006797Y0025712D01*
X0006430Y0025345D01*
X0006430Y0024611D01*
X0006797Y0024244D01*
X0006797Y0023503D02*
X0006430Y0023136D01*
X0006430Y0022402D01*
X0006797Y0022035D01*
X0008265Y0022035D01*
X0008631Y0022402D01*
X0009191Y0037197D02*
X0010658Y0037197D01*
X0011400Y0037197D02*
X0012868Y0038665D01*
X0012868Y0039032D01*
X0012501Y0039399D01*
X0011767Y0039399D01*
X0011400Y0039032D01*
X0011400Y0037197D02*
X0012868Y0037197D01*
X0009191Y0037197D02*
X0009191Y0039399D01*
X0012576Y0047237D02*
X0014044Y0047237D01*
X0014786Y0047237D02*
X0016254Y0047237D01*
X0015520Y0047237D02*
X0015520Y0049438D01*
X0014786Y0048705D01*
X0012576Y0049438D02*
X0012576Y0047237D01*
X0036981Y0064341D02*
X0037348Y0063974D01*
X0038082Y0063974D01*
X0038449Y0064341D01*
X0039191Y0064341D02*
X0039558Y0063974D01*
X0040291Y0063974D01*
X0040658Y0064341D01*
X0040658Y0064708D01*
X0040291Y0065075D01*
X0039191Y0065075D01*
X0039191Y0064341D01*
X0039191Y0065075D02*
X0039925Y0065809D01*
X0040658Y0066175D01*
X0038449Y0065809D02*
X0038082Y0066175D01*
X0037348Y0066175D01*
X0036981Y0065809D01*
X0036981Y0064341D01*
X0048516Y0064341D02*
X0048883Y0063974D01*
X0049617Y0063974D01*
X0049984Y0064341D01*
X0050726Y0064341D02*
X0050726Y0064708D01*
X0051093Y0065075D01*
X0051827Y0065075D01*
X0052194Y0064708D01*
X0052194Y0064341D01*
X0051827Y0063974D01*
X0051093Y0063974D01*
X0050726Y0064341D01*
X0051093Y0065075D02*
X0050726Y0065442D01*
X0050726Y0065809D01*
X0051093Y0066175D01*
X0051827Y0066175D01*
X0052194Y0065809D01*
X0052194Y0065442D01*
X0051827Y0065075D01*
X0049984Y0065809D02*
X0049617Y0066175D01*
X0048883Y0066175D01*
X0048516Y0065809D01*
X0048516Y0064341D01*
X0059776Y0064144D02*
X0060143Y0063777D01*
X0060877Y0063777D01*
X0061244Y0064144D01*
X0061986Y0064144D02*
X0061986Y0063777D01*
X0061986Y0064144D02*
X0063454Y0065612D01*
X0063454Y0065979D01*
X0061986Y0065979D01*
X0061244Y0065612D02*
X0060877Y0065979D01*
X0060143Y0065979D01*
X0059776Y0065612D01*
X0059776Y0064144D01*
X0082186Y0061027D02*
X0082186Y0059559D01*
X0083286Y0059559D01*
X0082919Y0060293D01*
X0082919Y0060660D01*
X0083286Y0061027D01*
X0084020Y0061027D01*
X0084387Y0060660D01*
X0084387Y0059926D01*
X0084020Y0059559D01*
X0084020Y0058817D02*
X0084387Y0058450D01*
X0084387Y0057717D01*
X0084020Y0057350D01*
X0082553Y0057350D01*
X0082186Y0057717D01*
X0082186Y0058450D01*
X0082553Y0058817D01*
X0114466Y0062065D02*
X0115200Y0061331D01*
X0116668Y0061331D01*
X0115567Y0061331D02*
X0115567Y0062799D01*
X0115200Y0062799D02*
X0114466Y0062065D01*
X0115200Y0062799D02*
X0116668Y0062799D01*
X0116668Y0063541D02*
X0114466Y0063541D01*
X0116668Y0065009D01*
X0114466Y0065009D01*
X0114466Y0065751D02*
X0114466Y0067219D01*
X0114466Y0066485D02*
X0116668Y0066485D01*
X0116668Y0067961D02*
X0114466Y0067961D01*
X0114466Y0069429D01*
X0114466Y0070171D02*
X0116668Y0071639D01*
X0114466Y0071639D01*
X0114466Y0072380D02*
X0116668Y0073848D01*
X0114466Y0073848D01*
X0115200Y0074590D02*
X0114466Y0075324D01*
X0115200Y0076058D01*
X0116668Y0076058D01*
X0115567Y0076058D02*
X0115567Y0074590D01*
X0115200Y0074590D02*
X0116668Y0074590D01*
X0116668Y0072380D02*
X0114466Y0072380D01*
X0114466Y0070171D02*
X0116668Y0070171D01*
X0116668Y0069429D02*
X0116668Y0067961D01*
X0115567Y0067961D02*
X0115567Y0068695D01*
X0108940Y0019199D02*
X0108940Y0016997D01*
X0108206Y0016997D02*
X0109674Y0016997D01*
X0108206Y0018465D02*
X0108940Y0019199D01*
X0107464Y0018832D02*
X0107097Y0019199D01*
X0106363Y0019199D01*
X0105996Y0018832D01*
X0105996Y0017364D01*
X0106363Y0016997D01*
X0107097Y0016997D01*
X0107464Y0017364D01*
X0100293Y0014676D02*
X0098091Y0014676D01*
X0099192Y0013575D01*
X0099192Y0015043D01*
X0099192Y0012833D02*
X0098458Y0012833D01*
X0098091Y0012466D01*
X0098091Y0011365D01*
X0100293Y0011365D01*
X0099559Y0011365D02*
X0099559Y0012466D01*
X0099192Y0012833D01*
X0099559Y0012099D02*
X0100293Y0012833D01*
X0105839Y0008399D02*
X0105839Y0006931D01*
X0106206Y0006564D01*
X0106940Y0006564D01*
X0107307Y0006931D01*
X0108049Y0006564D02*
X0109517Y0008032D01*
X0109517Y0008399D01*
X0109150Y0008766D01*
X0108416Y0008766D01*
X0108049Y0008399D01*
X0107307Y0008399D02*
X0106940Y0008766D01*
X0106206Y0008766D01*
X0105839Y0008399D01*
X0108049Y0006564D02*
X0109517Y0006564D01*
X0088464Y0016000D02*
X0086996Y0016000D01*
X0086996Y0018202D01*
X0086254Y0017835D02*
X0085887Y0018202D01*
X0085153Y0018202D01*
X0084786Y0017835D01*
X0084786Y0016367D01*
X0085153Y0016000D01*
X0085887Y0016000D01*
X0086254Y0016367D01*
X0084044Y0016367D02*
X0083677Y0016000D01*
X0082943Y0016000D01*
X0082576Y0016367D01*
X0082943Y0017101D02*
X0082576Y0017468D01*
X0082576Y0017835D01*
X0082943Y0018202D01*
X0083677Y0018202D01*
X0084044Y0017835D01*
X0083677Y0017101D02*
X0084044Y0016734D01*
X0084044Y0016367D01*
X0083677Y0017101D02*
X0082943Y0017101D01*
X0078597Y0014910D02*
X0078597Y0014176D01*
X0078230Y0013809D01*
X0077496Y0013809D01*
X0077496Y0014910D01*
X0077863Y0015277D01*
X0078230Y0015277D01*
X0078597Y0014910D01*
X0077496Y0013809D02*
X0076762Y0014543D01*
X0076395Y0015277D01*
X0076762Y0013067D02*
X0078230Y0011599D01*
X0078597Y0011966D01*
X0078597Y0012700D01*
X0078230Y0013067D01*
X0076762Y0013067D01*
X0076395Y0012700D01*
X0076395Y0011966D01*
X0076762Y0011599D01*
X0078230Y0011599D01*
X0078230Y0010857D02*
X0078597Y0010490D01*
X0078597Y0009756D01*
X0078230Y0009389D01*
X0076762Y0010857D01*
X0078230Y0010857D01*
X0078230Y0009389D02*
X0076762Y0009389D01*
X0076395Y0009756D01*
X0076395Y0010490D01*
X0076762Y0010857D01*
X0076762Y0008648D02*
X0078230Y0007180D01*
X0078597Y0007180D01*
X0078597Y0006440D02*
X0078597Y0005706D01*
X0078597Y0006073D02*
X0076395Y0006073D01*
X0076395Y0005706D02*
X0076395Y0006440D01*
X0076395Y0007180D02*
X0076395Y0008648D01*
X0076762Y0008648D01*
X0076762Y0004964D02*
X0076395Y0004597D01*
X0076395Y0003863D01*
X0076762Y0003496D01*
X0077129Y0003496D01*
X0077496Y0003863D01*
X0077496Y0004597D01*
X0077863Y0004964D01*
X0078230Y0004964D01*
X0078597Y0004597D01*
X0078597Y0003863D01*
X0078230Y0003496D01*
D13*
X0033854Y0008337D02*
X0033854Y0013337D01*
X0031354Y0015837D01*
X0026354Y0015837D01*
X0023854Y0013337D01*
X0021354Y0015837D01*
X0016354Y0015837D01*
X0013854Y0013337D01*
X0011354Y0015837D01*
X0006354Y0015837D01*
X0003854Y0013337D01*
X0003854Y0008337D01*
X0006354Y0005837D01*
X0011354Y0005837D01*
X0013854Y0008337D01*
X0016354Y0005837D01*
X0021354Y0005837D01*
X0023854Y0008337D01*
X0026354Y0005837D01*
X0031354Y0005837D01*
X0033854Y0008337D01*
X0031118Y0067452D02*
X0026118Y0067452D01*
X0023618Y0069952D01*
X0021118Y0067452D01*
X0016118Y0067452D01*
X0013618Y0069952D01*
X0011118Y0067452D01*
X0006118Y0067452D01*
X0003618Y0069952D01*
X0003618Y0074952D01*
X0006118Y0077452D01*
X0011118Y0077452D01*
X0013618Y0074952D01*
X0016118Y0077452D01*
X0021118Y0077452D01*
X0023618Y0074952D01*
X0026118Y0077452D01*
X0031118Y0077452D01*
X0033618Y0074952D01*
X0033618Y0069952D01*
X0031118Y0067452D01*
D14*
X0031690Y0051230D02*
X0033980Y0051230D01*
X0031690Y0051230D02*
X0031690Y0048930D01*
X0033025Y0049066D02*
X0033027Y0049083D01*
X0033032Y0049100D01*
X0033042Y0049115D01*
X0033054Y0049128D01*
X0033068Y0049138D01*
X0033084Y0049144D01*
X0033102Y0049147D01*
X0033119Y0049146D01*
X0033136Y0049141D01*
X0033151Y0049133D01*
X0033165Y0049122D01*
X0033175Y0049108D01*
X0033183Y0049092D01*
X0033187Y0049075D01*
X0033187Y0049057D01*
X0033183Y0049040D01*
X0033175Y0049024D01*
X0033165Y0049010D01*
X0033151Y0048999D01*
X0033136Y0048991D01*
X0033119Y0048986D01*
X0033102Y0048985D01*
X0033084Y0048988D01*
X0033068Y0048994D01*
X0033054Y0049004D01*
X0033042Y0049017D01*
X0033032Y0049032D01*
X0033027Y0049049D01*
X0033025Y0049066D01*
X0053020Y0051240D02*
X0055310Y0051240D01*
X0055310Y0048930D01*
X0055310Y0029900D02*
X0055310Y0027610D01*
X0053010Y0027610D01*
X0033980Y0027610D02*
X0031690Y0027610D01*
X0031690Y0029910D01*
D15*
X0062518Y0071746D02*
X0062518Y0074048D01*
X0064053Y0075583D01*
X0064053Y0076350D01*
X0065587Y0074815D02*
X0067122Y0076350D01*
X0067122Y0071746D01*
X0065587Y0071746D02*
X0068657Y0071746D01*
X0062518Y0074048D02*
X0060983Y0075583D01*
X0060983Y0076350D01*
M02*
