G75*
%MOIN*%
%OFA0B0*%
%FSLAX25Y25*%
%IPPOS*%
%LPD*%
%AMOC8*
5,1,8,0,0,1.08239X$1,22.5*
%
%ADD10C,0.00300*%
%ADD11C,0.00100*%
%ADD12C,0.00400*%
D10*
X0004504Y0021342D02*
X0003887Y0021959D01*
X0003887Y0023193D01*
X0005121Y0023193D01*
X0006356Y0021959D02*
X0006356Y0024428D01*
X0005738Y0025045D01*
X0004504Y0025045D01*
X0003887Y0024428D01*
X0004504Y0021342D02*
X0005738Y0021342D01*
X0006356Y0021959D01*
X0007570Y0021342D02*
X0007570Y0023811D01*
X0008804Y0025045D01*
X0010039Y0023811D01*
X0010039Y0021342D01*
X0010039Y0023193D02*
X0007570Y0023193D01*
X0011253Y0025045D02*
X0013722Y0025045D01*
X0014936Y0025045D02*
X0016171Y0025045D01*
X0015554Y0025045D02*
X0015554Y0021959D01*
X0016171Y0021342D01*
X0016788Y0021342D01*
X0017405Y0021959D01*
X0012488Y0021342D02*
X0012488Y0025045D01*
X0010729Y0061893D02*
X0009761Y0062860D01*
X0009761Y0064795D01*
X0008750Y0064795D02*
X0007299Y0064795D01*
X0006815Y0064312D01*
X0006815Y0062377D01*
X0007299Y0061893D01*
X0008750Y0061893D01*
X0008750Y0064795D01*
X0011696Y0064795D02*
X0011696Y0062860D01*
X0010729Y0061893D01*
X0005803Y0061893D02*
X0005803Y0064795D01*
X0004352Y0064795D01*
X0003868Y0064312D01*
X0003868Y0062377D01*
X0004352Y0061893D01*
X0005803Y0061893D01*
X0016067Y0064115D02*
X0018002Y0062180D01*
X0018002Y0061696D01*
X0019013Y0063147D02*
X0019497Y0062664D01*
X0020948Y0062664D01*
X0020948Y0061696D02*
X0020948Y0064599D01*
X0019497Y0064599D01*
X0019013Y0064115D01*
X0019013Y0063147D01*
X0018002Y0064599D02*
X0016067Y0064599D01*
X0016067Y0064115D01*
X0034768Y0072416D02*
X0034768Y0072900D01*
X0035251Y0073384D01*
X0036703Y0073384D01*
X0036703Y0072416D01*
X0036219Y0071932D01*
X0035251Y0071932D01*
X0034768Y0072416D01*
X0035735Y0074351D02*
X0036703Y0073384D01*
X0037714Y0073384D02*
X0038198Y0072900D01*
X0039649Y0072900D01*
X0039649Y0071932D02*
X0039649Y0074835D01*
X0038198Y0074835D01*
X0037714Y0074351D01*
X0037714Y0073384D01*
X0035735Y0074351D02*
X0034768Y0074835D01*
D11*
X0010815Y0017411D02*
X0010315Y0016911D01*
X0010565Y0017411D02*
X0011316Y0017411D01*
X0011316Y0016911D02*
X0011316Y0018412D01*
X0010565Y0018412D01*
X0010315Y0018162D01*
X0010315Y0017662D01*
X0010565Y0017411D01*
X0011788Y0016911D02*
X0011788Y0018412D01*
X0012789Y0018412D02*
X0011788Y0016911D01*
X0012789Y0016911D02*
X0012789Y0018412D01*
X0013261Y0018412D02*
X0014262Y0016911D01*
X0014735Y0017161D02*
X0014735Y0018162D01*
X0014985Y0018412D01*
X0015485Y0018412D01*
X0015736Y0018162D01*
X0015736Y0017161D01*
X0015485Y0016911D01*
X0014985Y0016911D01*
X0014735Y0017161D01*
X0016217Y0016911D02*
X0016718Y0016911D01*
X0016468Y0016911D02*
X0016468Y0018412D01*
X0016718Y0018412D02*
X0016217Y0018412D01*
X0023597Y0017965D02*
X0023597Y0016964D01*
X0023847Y0016714D01*
X0024598Y0016714D01*
X0024598Y0018215D01*
X0023847Y0018215D01*
X0023597Y0017965D01*
X0025070Y0018215D02*
X0025070Y0016714D01*
X0026071Y0018215D01*
X0026071Y0016714D01*
X0026544Y0016964D02*
X0026544Y0017465D01*
X0027044Y0017465D01*
X0026544Y0017965D02*
X0026794Y0018215D01*
X0027294Y0018215D01*
X0027544Y0017965D01*
X0027544Y0016964D01*
X0027294Y0016714D01*
X0026794Y0016714D01*
X0026544Y0016964D01*
X0008450Y0017555D02*
X0008200Y0017305D01*
X0007699Y0017305D01*
X0007449Y0017555D01*
X0006977Y0017305D02*
X0005976Y0017305D01*
X0005503Y0017305D02*
X0005503Y0018806D01*
X0005253Y0018055D02*
X0004503Y0017305D01*
X0005503Y0017805D02*
X0004503Y0018806D01*
X0006977Y0018806D02*
X0006977Y0017305D01*
X0007449Y0018556D02*
X0007699Y0018806D01*
X0008200Y0018806D01*
X0008450Y0018556D01*
X0008450Y0017555D01*
D12*
X0101220Y0056510D02*
X0101220Y0058812D01*
X0101987Y0059579D01*
X0102754Y0059579D01*
X0103522Y0058812D01*
X0103522Y0056510D01*
X0101220Y0056510D02*
X0105824Y0056510D01*
X0105824Y0058812D01*
X0105056Y0059579D01*
X0104289Y0059579D01*
X0103522Y0058812D01*
X0101987Y0061114D02*
X0102754Y0061881D01*
X0102754Y0064183D01*
X0103522Y0064183D02*
X0104289Y0063416D01*
X0104289Y0061881D01*
X0101987Y0061114D02*
X0101220Y0061881D01*
X0101220Y0064183D01*
X0103522Y0064183D01*
X0104289Y0065718D02*
X0104289Y0067252D01*
X0105056Y0066485D02*
X0101987Y0066485D01*
X0101220Y0067252D01*
X0104289Y0068787D02*
X0104289Y0070322D01*
X0105056Y0069554D02*
X0101987Y0069554D01*
X0101220Y0070322D01*
X0101987Y0071856D02*
X0103522Y0071856D01*
X0104289Y0072624D01*
X0104289Y0074158D01*
X0103522Y0074926D01*
X0102754Y0074926D01*
X0102754Y0071856D01*
X0101987Y0071856D02*
X0101220Y0072624D01*
X0101220Y0074158D01*
X0101220Y0076460D02*
X0104289Y0076460D01*
X0102754Y0076460D02*
X0104289Y0077995D01*
X0104289Y0078762D01*
X0104289Y0080297D02*
X0101987Y0080297D01*
X0101220Y0081064D01*
X0101220Y0083366D01*
X0100452Y0083366D02*
X0099685Y0082599D01*
X0099685Y0081831D01*
X0100452Y0083366D02*
X0104289Y0083366D01*
M02*
