G75*
%MOIN*%
%OFA0B0*%
%FSLAX25Y25*%
%IPPOS*%
%LPD*%
%AMOC8*
5,1,8,0,0,1.08239X$1,22.5*
%
%ADD10R,0.05354X0.02441*%
%ADD11R,0.03150X0.03150*%
%ADD12R,0.05118X0.03543*%
%ADD13R,0.03150X0.02756*%
%ADD14R,0.03346X0.01772*%
%ADD15R,0.05118X0.00889*%
%ADD16R,0.18346X0.18346*%
%ADD17R,0.00889X0.05118*%
%ADD18R,0.22000X0.08300*%
D10*
X0106768Y0059932D03*
X0106768Y0072530D03*
D11*
X0011531Y0021192D03*
X0011531Y0027097D03*
X0036138Y0061074D03*
X0042043Y0061074D03*
X0047673Y0061074D03*
X0053579Y0061074D03*
X0058933Y0060877D03*
X0064839Y0060877D03*
X0079287Y0062412D03*
X0079287Y0056507D03*
X0078185Y0045483D03*
X0084091Y0045483D03*
X0086886Y0037963D03*
X0080980Y0037963D03*
X0073618Y0026822D03*
X0073500Y0022058D03*
X0067594Y0022058D03*
X0067713Y0026822D03*
X0103224Y0039617D03*
X0109130Y0039617D03*
X0109012Y0049656D03*
X0103106Y0049656D03*
X0105154Y0022097D03*
X0111059Y0022097D03*
X0110902Y0011664D03*
X0104996Y0011664D03*
D12*
X0088382Y0026664D03*
X0080114Y0026664D03*
X0074760Y0036704D03*
X0066492Y0036704D03*
X0089484Y0042215D03*
X0097752Y0042215D03*
X0017004Y0044381D03*
X0008736Y0044381D03*
X0005350Y0034341D03*
X0013618Y0034341D03*
D13*
X0043657Y0012255D03*
X0051492Y0010680D03*
X0051492Y0016192D03*
X0043657Y0006743D03*
X0095193Y0010719D03*
X0095193Y0016231D03*
D14*
X0084406Y0014381D03*
X0084406Y0009459D03*
X0084406Y0004538D03*
X0072988Y0004538D03*
X0072988Y0009459D03*
X0072988Y0014381D03*
D15*
X0055980Y0030759D03*
X0055980Y0032333D03*
X0055980Y0033908D03*
X0055980Y0035483D03*
X0055980Y0037058D03*
X0055980Y0038633D03*
X0055980Y0040207D03*
X0055980Y0041782D03*
X0055980Y0043357D03*
X0055980Y0044932D03*
X0055980Y0046507D03*
X0055980Y0048081D03*
X0031020Y0048081D03*
X0031020Y0046507D03*
X0031020Y0044932D03*
X0031020Y0043357D03*
X0031020Y0041782D03*
X0031020Y0040207D03*
X0031020Y0038633D03*
X0031020Y0037058D03*
X0031020Y0035483D03*
X0031020Y0033908D03*
X0031020Y0032333D03*
X0031020Y0030759D03*
D16*
X0043500Y0039420D03*
D17*
X0042713Y0051900D03*
X0044287Y0051900D03*
X0045862Y0051900D03*
X0047437Y0051900D03*
X0049012Y0051900D03*
X0050587Y0051900D03*
X0052161Y0051900D03*
X0041138Y0051900D03*
X0039563Y0051900D03*
X0037988Y0051900D03*
X0036413Y0051900D03*
X0034839Y0051900D03*
X0034839Y0026940D03*
X0036413Y0026940D03*
X0037988Y0026940D03*
X0039563Y0026940D03*
X0041138Y0026940D03*
X0042713Y0026940D03*
X0044287Y0026940D03*
X0045862Y0026940D03*
X0047437Y0026940D03*
X0049012Y0026940D03*
X0050587Y0026940D03*
X0052161Y0026940D03*
D18*
X0047083Y0071546D03*
X0084483Y0071546D03*
M02*
