%FSLAX24Y24*%
%MOIN*%
G70*
G01*
G75*
G04 Layer_Color=32896*
%ADD10C,0.0060*%
%ADD11R,0.0197X0.0236*%
%ADD12C,0.0394*%
%ADD13R,0.0236X0.0217*%
%ADD14R,0.0394X0.0709*%
%ADD15R,0.0217X0.0236*%
G04:AMPARAMS|DCode=16|XSize=19.7mil|YSize=23.6mil|CornerRadius=0mil|HoleSize=0mil|Usage=FLASHONLY|Rotation=225.000|XOffset=0mil|YOffset=0mil|HoleType=Round|Shape=Rectangle|*
%AMROTATEDRECTD16*
4,1,4,-0.0014,0.0153,0.0153,-0.0014,0.0014,-0.0153,-0.0153,0.0014,-0.0014,0.0153,0.0*
%
%ADD16ROTATEDRECTD16*%

%ADD17R,0.0315X0.0295*%
%ADD18R,0.0197X0.0256*%
%ADD19C,0.0079*%
%ADD20R,0.0236X0.0157*%
%ADD21R,0.1083X0.0350*%
G04:AMPARAMS|DCode=22|XSize=47.2mil|YSize=43.3mil|CornerRadius=0mil|HoleSize=0mil|Usage=FLASHONLY|Rotation=45.000|XOffset=0mil|YOffset=0mil|HoleType=Round|Shape=Rectangle|*
%AMROTATEDRECTD22*
4,1,4,-0.0014,-0.0320,-0.0320,-0.0014,0.0014,0.0320,0.0320,0.0014,-0.0014,-0.0320,0.0*
%
%ADD22ROTATEDRECTD22*%

%ADD23C,0.0098*%
%ADD24R,0.0400X0.0300*%
%ADD25R,0.0299X0.0945*%
%ADD26R,0.0295X0.0315*%
%ADD27R,0.1850X0.1850*%
%ADD28O,0.0079X0.0256*%
%ADD29O,0.0256X0.0079*%
%ADD30R,0.0236X0.0197*%
%ADD31C,0.0090*%
%ADD32C,0.0100*%
%ADD33C,0.0500*%
%ADD34C,0.0080*%
%ADD35C,0.0150*%
%ADD36C,0.0354*%
%ADD37C,0.0591*%
%ADD38R,0.0591X0.0591*%
%ADD39C,0.0236*%
%ADD40R,0.0354X0.1043*%
%ADD41R,0.0394X0.0394*%
%ADD42R,0.0394X0.0394*%
%ADD43C,0.0039*%
%ADD44C,0.0098*%
%ADD45C,0.0079*%
%ADD46C,0.0059*%
%ADD47C,0.0118*%
%ADD48C,0.0050*%
%ADD49R,0.0420X0.1300*%
%ADD50C,0.0240*%
%ADD51R,0.0257X0.0296*%
%ADD52C,0.0787*%
%ADD53R,0.0296X0.0277*%
%ADD54R,0.0454X0.0769*%
%ADD55R,0.0277X0.0296*%
G04:AMPARAMS|DCode=56|XSize=25.7mil|YSize=29.6mil|CornerRadius=0mil|HoleSize=0mil|Usage=FLASHONLY|Rotation=225.000|XOffset=0mil|YOffset=0mil|HoleType=Round|Shape=Rectangle|*
%AMROTATEDRECTD56*
4,1,4,-0.0014,0.0196,0.0196,-0.0014,0.0014,-0.0196,-0.0196,0.0014,-0.0014,0.0196,0.0*
%
%ADD56ROTATEDRECTD56*%

%ADD57R,0.0375X0.0355*%
%ADD58R,0.0257X0.0316*%
%ADD59C,0.0139*%
%ADD60R,0.0296X0.0217*%
%ADD61R,0.1143X0.0410*%
G04:AMPARAMS|DCode=62|XSize=53.2mil|YSize=49.3mil|CornerRadius=0mil|HoleSize=0mil|Usage=FLASHONLY|Rotation=45.000|XOffset=0mil|YOffset=0mil|HoleType=Round|Shape=Rectangle|*
%AMROTATEDRECTD62*
4,1,4,-0.0014,-0.0363,-0.0363,-0.0014,0.0014,0.0363,0.0363,0.0014,-0.0014,-0.0363,0.0*
%
%ADD62ROTATEDRECTD62*%

%ADD63C,0.0158*%
%ADD64R,0.0460X0.0360*%
%ADD65R,0.0359X0.1005*%
%ADD66R,0.0355X0.0375*%
%ADD67R,0.1910X0.1910*%
%ADD68O,0.0139X0.0316*%
%ADD69O,0.0316X0.0139*%
%ADD70R,0.0296X0.0257*%
%ADD71C,0.0414*%
%ADD72C,0.0454*%
%ADD73C,0.0651*%
%ADD74R,0.0651X0.0651*%
%ADD75R,0.0414X0.1103*%
%ADD76R,0.0454X0.0454*%
%ADD77R,0.0454X0.0454*%
%ADD78C,0.0040*%
D10*
X17960Y14740D02*
Y15030D01*
X18920D01*
X18930Y15020D01*
Y14740D02*
Y15020D01*
X17960Y3740D02*
Y4030D01*
X18920D01*
X18930Y4020D01*
Y3740D02*
Y4020D01*
X13298Y4656D02*
Y4902D01*
Y5098D02*
Y5344D01*
X13002Y4656D02*
Y4902D01*
Y5098D02*
Y5344D01*
X13298D01*
X13002Y4656D02*
X13298D01*
X13798D02*
Y4902D01*
Y5098D02*
Y5344D01*
X13502Y4656D02*
Y4902D01*
Y5098D02*
Y5344D01*
X13798D01*
X13502Y4656D02*
X13798D01*
X19500Y14930D02*
Y15200D01*
X19365D01*
X19320Y15155D01*
Y15065D01*
X19365Y15020D01*
X19500D01*
X19230Y14930D02*
X19140D01*
X19185D01*
Y15200D01*
X19230Y15155D01*
X19510Y3930D02*
Y4200D01*
X19375D01*
X19330Y4155D01*
Y4065D01*
X19375Y4020D01*
X19510D01*
X19060Y3930D02*
X19240D01*
X19060Y4110D01*
Y4155D01*
X19105Y4200D01*
X19195D01*
X19240Y4155D01*
X13020Y5450D02*
X13290D01*
Y5585D01*
X13245Y5630D01*
X13155D01*
X13110Y5585D01*
Y5450D01*
Y5540D02*
X13020Y5630D01*
Y5900D02*
Y5720D01*
X13200Y5900D01*
X13245D01*
X13290Y5855D01*
Y5765D01*
X13245Y5720D01*
X13520Y5450D02*
X13790D01*
Y5585D01*
X13745Y5630D01*
X13655D01*
X13610Y5585D01*
Y5450D01*
Y5540D02*
X13520Y5630D01*
Y5720D02*
Y5810D01*
Y5765D01*
X13790D01*
X13745Y5720D01*
X16700Y4500D02*
X16750Y4550D01*
X16850D01*
X16900Y4500D01*
Y4450D01*
X16850Y4400D01*
X16750D01*
X16700Y4350D01*
Y4300D01*
X16750Y4250D01*
X16850D01*
X16900Y4300D01*
X16600Y4550D02*
Y4250D01*
X16500Y4350D01*
X16400Y4250D01*
Y4550D01*
X16300D02*
Y4250D01*
X16150D01*
X16100Y4300D01*
Y4500D01*
X16150Y4550D01*
X16300D01*
X16000D02*
X15900D01*
X15950D01*
Y4250D01*
X16000D01*
X15900D01*
X15600Y4550D02*
X15700D01*
X15750Y4500D01*
Y4300D01*
X15700Y4250D01*
X15600D01*
X15550Y4300D01*
Y4500D01*
X15600Y4550D01*
X15500Y5050D02*
X15333D01*
X15417D01*
Y4800D01*
X15250D02*
Y5050D01*
X15125D01*
X15083Y5008D01*
Y4925D01*
X15125Y4883D01*
X15250D01*
X15000Y4800D02*
X14917D01*
X14959D01*
Y5050D01*
X15000Y5008D01*
X13560Y4500D02*
X13610Y4550D01*
X13710D01*
X13760Y4500D01*
Y4450D01*
X13710Y4400D01*
X13610D01*
X13560Y4350D01*
Y4300D01*
X13610Y4250D01*
X13710D01*
X13760Y4300D01*
X13460Y4550D02*
Y4250D01*
X13360Y4350D01*
X13260Y4250D01*
Y4550D01*
X13160D02*
Y4250D01*
X13010D01*
X12960Y4300D01*
Y4500D01*
X13010Y4550D01*
X13160D01*
X12660Y4500D02*
X12710Y4550D01*
X12810D01*
X12860Y4500D01*
Y4300D01*
X12810Y4250D01*
X12710D01*
X12660Y4300D01*
X12560Y4550D02*
Y4250D01*
X12360D01*
X12260Y4550D02*
Y4250D01*
Y4350D01*
X12061Y4550D01*
X12211Y4400D01*
X12061Y4250D01*
X14600Y5050D02*
X14433D01*
X14517D01*
Y4800D01*
X14350D02*
Y5050D01*
X14225D01*
X14183Y5008D01*
Y4925D01*
X14225Y4883D01*
X14350D01*
X13934Y4800D02*
X14100D01*
X13934Y4967D01*
Y5008D01*
X13975Y5050D01*
X14059D01*
X14100Y5008D01*
X20960Y15510D02*
X20793D01*
X20877D01*
Y15260D01*
X20710D02*
Y15510D01*
X20585D01*
X20543Y15468D01*
Y15385D01*
X20585Y15343D01*
X20710D01*
X20460Y15468D02*
X20419Y15510D01*
X20335D01*
X20294Y15468D01*
Y15427D01*
X20335Y15385D01*
X20377D01*
X20335D01*
X20294Y15343D01*
Y15302D01*
X20335Y15260D01*
X20419D01*
X20460Y15302D01*
D45*
X8290Y14750D02*
X19510D01*
Y11908D02*
Y14750D01*
X8290Y11908D02*
X19510D01*
X8290D02*
Y14750D01*
X14874Y4676D02*
X15426D01*
X14874Y4124D02*
Y4676D01*
Y4124D02*
X15426D01*
Y4676D01*
X14426Y4124D02*
Y4676D01*
X13874D02*
X14426D01*
X13874Y4124D02*
Y4676D01*
Y4124D02*
X14426D01*
X8290Y3750D02*
X19510D01*
Y908D02*
Y3750D01*
X8290Y908D02*
X19510D01*
X8290D02*
Y3750D01*
X20424Y14524D02*
Y15076D01*
Y14524D02*
X20976D01*
Y15076D01*
X20424D02*
X20976D01*
D78*
X9078Y11720D02*
X9069Y11701D01*
X9040Y11672D01*
X9240D01*
X9078Y720D02*
X9069Y701D01*
X9040Y672D01*
X9240D01*
M02*
