%FSLAX24Y24*%
%MOIN*%
G70*
G01*
G75*
G04 Layer_Color=8388736*
%ADD10C,0.0060*%
%ADD11R,0.0197X0.0236*%
%ADD12C,0.0394*%
%ADD13R,0.0236X0.0217*%
%ADD14R,0.0394X0.0709*%
%ADD15R,0.0217X0.0236*%
G04:AMPARAMS|DCode=16|XSize=19.7mil|YSize=23.6mil|CornerRadius=0mil|HoleSize=0mil|Usage=FLASHONLY|Rotation=225.000|XOffset=0mil|YOffset=0mil|HoleType=Round|Shape=Rectangle|*
%AMROTATEDRECTD16*
4,1,4,-0.0014,0.0153,0.0153,-0.0014,0.0014,-0.0153,-0.0153,0.0014,-0.0014,0.0153,0.0*
%
%ADD16ROTATEDRECTD16*%

%ADD17R,0.0315X0.0295*%
%ADD18R,0.0197X0.0256*%
%ADD19C,0.0079*%
%ADD20R,0.0236X0.0157*%
%ADD21R,0.1083X0.0350*%
G04:AMPARAMS|DCode=22|XSize=47.2mil|YSize=43.3mil|CornerRadius=0mil|HoleSize=0mil|Usage=FLASHONLY|Rotation=45.000|XOffset=0mil|YOffset=0mil|HoleType=Round|Shape=Rectangle|*
%AMROTATEDRECTD22*
4,1,4,-0.0014,-0.0320,-0.0320,-0.0014,0.0014,0.0320,0.0320,0.0014,-0.0014,-0.0320,0.0*
%
%ADD22ROTATEDRECTD22*%

%ADD23C,0.0098*%
%ADD24R,0.0400X0.0300*%
%ADD25R,0.0299X0.0945*%
%ADD26R,0.0295X0.0315*%
%ADD27R,0.1850X0.1850*%
%ADD28O,0.0079X0.0256*%
%ADD29O,0.0256X0.0079*%
%ADD30R,0.0236X0.0197*%
%ADD31C,0.0090*%
%ADD32C,0.0100*%
%ADD33C,0.0500*%
%ADD34C,0.0080*%
%ADD35C,0.0150*%
%ADD36C,0.0354*%
%ADD37C,0.0591*%
%ADD38R,0.0591X0.0591*%
%ADD39C,0.0236*%
%ADD40R,0.0354X0.1043*%
%ADD41R,0.0394X0.0394*%
%ADD42R,0.0394X0.0394*%
%ADD43C,0.0039*%
%ADD44C,0.0098*%
%ADD45C,0.0079*%
%ADD46C,0.0059*%
%ADD47C,0.0118*%
%ADD48C,0.0050*%
%ADD49R,0.0420X0.1300*%
%ADD50C,0.0240*%
%ADD51R,0.0257X0.0296*%
%ADD52C,0.0787*%
%ADD53R,0.0296X0.0277*%
%ADD54R,0.0454X0.0769*%
%ADD55R,0.0277X0.0296*%
G04:AMPARAMS|DCode=56|XSize=25.7mil|YSize=29.6mil|CornerRadius=0mil|HoleSize=0mil|Usage=FLASHONLY|Rotation=225.000|XOffset=0mil|YOffset=0mil|HoleType=Round|Shape=Rectangle|*
%AMROTATEDRECTD56*
4,1,4,-0.0014,0.0196,0.0196,-0.0014,0.0014,-0.0196,-0.0196,0.0014,-0.0014,0.0196,0.0*
%
%ADD56ROTATEDRECTD56*%

%ADD57R,0.0375X0.0355*%
%ADD58R,0.0257X0.0316*%
%ADD59C,0.0139*%
%ADD60R,0.0296X0.0217*%
%ADD61R,0.1143X0.0410*%
G04:AMPARAMS|DCode=62|XSize=53.2mil|YSize=49.3mil|CornerRadius=0mil|HoleSize=0mil|Usage=FLASHONLY|Rotation=45.000|XOffset=0mil|YOffset=0mil|HoleType=Round|Shape=Rectangle|*
%AMROTATEDRECTD62*
4,1,4,-0.0014,-0.0363,-0.0363,-0.0014,0.0014,0.0363,0.0363,0.0014,-0.0014,-0.0363,0.0*
%
%ADD62ROTATEDRECTD62*%

%ADD63C,0.0158*%
%ADD64R,0.0460X0.0360*%
%ADD65R,0.0359X0.1005*%
%ADD66R,0.0355X0.0375*%
%ADD67R,0.1910X0.1910*%
%ADD68O,0.0139X0.0316*%
%ADD69O,0.0316X0.0139*%
%ADD70R,0.0296X0.0257*%
%ADD71C,0.0414*%
%ADD72C,0.0454*%
%ADD73C,0.0651*%
%ADD74R,0.0651X0.0651*%
D50*
X7492Y6220D02*
G03*
X7492Y6220I-110J0D01*
G01*
D51*
X3270Y6163D02*
D03*
Y6557D02*
D03*
X3170Y9453D02*
D03*
Y9847D02*
D03*
X3550Y7977D02*
D03*
Y7583D02*
D03*
Y6557D02*
D03*
Y6163D02*
D03*
X4050Y7127D02*
D03*
Y6733D02*
D03*
X3500Y9453D02*
D03*
Y9847D02*
D03*
X7060Y9573D02*
D03*
Y9967D02*
D03*
X5444Y4217D02*
D03*
Y3823D02*
D03*
X7304Y4217D02*
D03*
Y3823D02*
D03*
X19820Y13537D02*
D03*
Y13143D02*
D03*
X17850Y5257D02*
D03*
Y4863D02*
D03*
D52*
X20500Y700D02*
D03*
X4000Y15160D02*
D03*
D53*
X18997Y4750D02*
D03*
X18603D02*
D03*
X19101Y7030D02*
D03*
X18707D02*
D03*
X19101Y7530D02*
D03*
X18707D02*
D03*
X18703Y8030D02*
D03*
X19097D02*
D03*
X18703Y8530D02*
D03*
X19097D02*
D03*
X18703Y9030D02*
D03*
X19097D02*
D03*
X18703Y9530D02*
D03*
X19097D02*
D03*
X18703Y10030D02*
D03*
X19097D02*
D03*
X18703Y10530D02*
D03*
X19097D02*
D03*
X18703Y11030D02*
D03*
X19097D02*
D03*
X15933Y3800D02*
D03*
X16327D02*
D03*
X13953Y600D02*
D03*
X14347D02*
D03*
X14953D02*
D03*
X15347D02*
D03*
D54*
X5882Y4020D02*
D03*
X6866D02*
D03*
D55*
X17850Y6037D02*
D03*
Y5643D02*
D03*
X19510Y14287D02*
D03*
Y13893D02*
D03*
X19150Y14287D02*
D03*
Y13893D02*
D03*
X17500Y4447D02*
D03*
Y4053D02*
D03*
X12500Y4803D02*
D03*
Y5197D02*
D03*
D56*
X4159Y5241D02*
D03*
X3881Y5519D02*
D03*
X4931Y6569D02*
D03*
X5209Y6291D02*
D03*
X4911Y6989D02*
D03*
X5189Y6711D02*
D03*
D57*
X6930Y6874D02*
D03*
Y7406D02*
D03*
X7640Y7398D02*
D03*
Y6867D02*
D03*
D58*
X3550Y8677D02*
D03*
Y8303D02*
D03*
X3270Y9127D02*
D03*
Y8753D02*
D03*
X3550Y7257D02*
D03*
Y6883D02*
D03*
X7980Y7877D02*
D03*
Y7503D02*
D03*
D59*
X7506Y6220D02*
D03*
X7260D02*
D03*
D60*
X17074Y4344D02*
D03*
Y4600D02*
D03*
Y4856D02*
D03*
X16326D02*
D03*
Y4600D02*
D03*
Y4344D02*
D03*
D61*
X7230Y1643D02*
D03*
Y2430D02*
D03*
Y3217D02*
D03*
X5478Y1643D02*
D03*
Y2430D02*
D03*
Y3217D02*
D03*
D62*
X4980Y5948D02*
D03*
X4590Y6338D02*
D03*
X4507Y5475D02*
D03*
X4117Y5864D02*
D03*
D63*
X20029Y14169D02*
D03*
Y14011D02*
D03*
X19871Y14169D02*
D03*
Y14011D02*
D03*
D64*
X18300Y6000D02*
D03*
Y5252D02*
D03*
X19127Y5626D02*
D03*
D65*
X15340Y3142D02*
D03*
X14840D02*
D03*
X14340D02*
D03*
X13840D02*
D03*
X13340D02*
D03*
X15340Y4678D02*
D03*
X14840D02*
D03*
X14340D02*
D03*
X13340D02*
D03*
D66*
X7114Y7850D02*
D03*
X7646D02*
D03*
D67*
X5340Y8650D02*
D03*
D68*
X6206Y7459D02*
D03*
X6049D02*
D03*
X5891D02*
D03*
X5734D02*
D03*
X5576D02*
D03*
X5419D02*
D03*
X5261D02*
D03*
X5104D02*
D03*
X4946D02*
D03*
X4789D02*
D03*
X4631D02*
D03*
X4474D02*
D03*
Y9841D02*
D03*
X4631D02*
D03*
X4789D02*
D03*
X4946D02*
D03*
X5104D02*
D03*
X5261D02*
D03*
X5419D02*
D03*
X5576D02*
D03*
X5734D02*
D03*
X5891D02*
D03*
X6049D02*
D03*
X6206D02*
D03*
D69*
X4149Y7784D02*
D03*
Y7941D02*
D03*
Y8099D02*
D03*
Y8256D02*
D03*
Y8414D02*
D03*
Y8571D02*
D03*
Y8729D02*
D03*
Y8886D02*
D03*
Y9044D02*
D03*
Y9201D02*
D03*
Y9359D02*
D03*
Y9516D02*
D03*
X6531D02*
D03*
Y9359D02*
D03*
Y9201D02*
D03*
Y9044D02*
D03*
Y8886D02*
D03*
Y8729D02*
D03*
Y8571D02*
D03*
Y8414D02*
D03*
Y8256D02*
D03*
Y8099D02*
D03*
Y7941D02*
D03*
Y7784D02*
D03*
D70*
X3237Y7560D02*
D03*
X2843D02*
D03*
D71*
X19250Y13330D02*
D03*
X8550D02*
D03*
X19250Y2330D02*
D03*
X8550D02*
D03*
D72*
X6354Y2824D02*
D03*
Y2036D02*
D03*
D73*
X21360Y7961D02*
D03*
Y6961D02*
D03*
X21360Y15260D02*
D03*
X15500Y11030D02*
D03*
X16500D02*
D03*
X15500Y9030D02*
D03*
X16500D02*
D03*
X15500Y8030D02*
D03*
X16500D02*
D03*
X15500Y7030D02*
D03*
X16500Y10030D02*
D03*
X15500D02*
D03*
D74*
X21360Y8961D02*
D03*
X21360Y14260D02*
D03*
X16500Y7030D02*
D03*
M02*
