%FSLAX24Y24*%
%MOIN*%
G70*
G01*
G75*
G04 Layer_Color=16711935*
%ADD10C,0.0060*%
%ADD11R,0.0197X0.0236*%
%ADD12C,0.0394*%
%ADD13R,0.0236X0.0217*%
%ADD14R,0.0394X0.0709*%
%ADD15R,0.0217X0.0236*%
G04:AMPARAMS|DCode=16|XSize=19.7mil|YSize=23.6mil|CornerRadius=0mil|HoleSize=0mil|Usage=FLASHONLY|Rotation=225.000|XOffset=0mil|YOffset=0mil|HoleType=Round|Shape=Rectangle|*
%AMROTATEDRECTD16*
4,1,4,-0.0014,0.0153,0.0153,-0.0014,0.0014,-0.0153,-0.0153,0.0014,-0.0014,0.0153,0.0*
%
%ADD16ROTATEDRECTD16*%

%ADD17R,0.0315X0.0295*%
%ADD18R,0.0197X0.0256*%
%ADD19C,0.0079*%
%ADD20R,0.0236X0.0157*%
%ADD21R,0.1083X0.0350*%
G04:AMPARAMS|DCode=22|XSize=47.2mil|YSize=43.3mil|CornerRadius=0mil|HoleSize=0mil|Usage=FLASHONLY|Rotation=45.000|XOffset=0mil|YOffset=0mil|HoleType=Round|Shape=Rectangle|*
%AMROTATEDRECTD22*
4,1,4,-0.0014,-0.0320,-0.0320,-0.0014,0.0014,0.0320,0.0320,0.0014,-0.0014,-0.0320,0.0*
%
%ADD22ROTATEDRECTD22*%

%ADD23C,0.0098*%
%ADD24R,0.0400X0.0300*%
%ADD25R,0.0299X0.0945*%
%ADD26R,0.0295X0.0315*%
%ADD27R,0.1850X0.1850*%
%ADD28O,0.0079X0.0256*%
%ADD29O,0.0256X0.0079*%
%ADD30R,0.0236X0.0197*%
%ADD31C,0.0090*%
%ADD32C,0.0100*%
%ADD33C,0.0500*%
%ADD34C,0.0080*%
%ADD35C,0.0150*%
%ADD36C,0.0354*%
%ADD37C,0.0591*%
%ADD38R,0.0591X0.0591*%
%ADD39C,0.0236*%
%ADD40R,0.0354X0.1043*%
%ADD41R,0.0394X0.0394*%
%ADD42R,0.0394X0.0394*%
%ADD43C,0.0039*%
%ADD44C,0.0098*%
%ADD45C,0.0079*%
%ADD46C,0.0059*%
%ADD47C,0.0118*%
%ADD48C,0.0050*%
%ADD49R,0.0420X0.1300*%
%ADD50C,0.0240*%
%ADD51R,0.0257X0.0296*%
%ADD52C,0.0787*%
%ADD53R,0.0296X0.0277*%
%ADD54R,0.0454X0.0769*%
%ADD55R,0.0277X0.0296*%
G04:AMPARAMS|DCode=56|XSize=25.7mil|YSize=29.6mil|CornerRadius=0mil|HoleSize=0mil|Usage=FLASHONLY|Rotation=225.000|XOffset=0mil|YOffset=0mil|HoleType=Round|Shape=Rectangle|*
%AMROTATEDRECTD56*
4,1,4,-0.0014,0.0196,0.0196,-0.0014,0.0014,-0.0196,-0.0196,0.0014,-0.0014,0.0196,0.0*
%
%ADD56ROTATEDRECTD56*%

%ADD57R,0.0375X0.0355*%
%ADD58R,0.0257X0.0316*%
%ADD59C,0.0139*%
%ADD60R,0.0296X0.0217*%
%ADD61R,0.1143X0.0410*%
G04:AMPARAMS|DCode=62|XSize=53.2mil|YSize=49.3mil|CornerRadius=0mil|HoleSize=0mil|Usage=FLASHONLY|Rotation=45.000|XOffset=0mil|YOffset=0mil|HoleType=Round|Shape=Rectangle|*
%AMROTATEDRECTD62*
4,1,4,-0.0014,-0.0363,-0.0363,-0.0014,0.0014,0.0363,0.0363,0.0014,-0.0014,-0.0363,0.0*
%
%ADD62ROTATEDRECTD62*%

%ADD63C,0.0158*%
%ADD64R,0.0460X0.0360*%
%ADD65R,0.0359X0.1005*%
%ADD66R,0.0355X0.0375*%
%ADD67R,0.1910X0.1910*%
%ADD68O,0.0139X0.0316*%
%ADD69O,0.0316X0.0139*%
%ADD70R,0.0296X0.0257*%
%ADD71C,0.0414*%
%ADD72C,0.0454*%
%ADD73C,0.0651*%
%ADD74R,0.0651X0.0651*%
%ADD75R,0.0414X0.1103*%
%ADD76R,0.0454X0.0454*%
%ADD77R,0.0454X0.0454*%
D52*
X20500Y700D02*
D03*
X4000Y15160D02*
D03*
D55*
X13150Y5197D02*
D03*
Y4803D02*
D03*
X13650Y5197D02*
D03*
Y4803D02*
D03*
D71*
X19250Y13330D02*
D03*
X8550D02*
D03*
X19250Y2330D02*
D03*
X8550D02*
D03*
D72*
X6354Y2824D02*
D03*
Y2036D02*
D03*
D73*
X21360Y7961D02*
D03*
Y6961D02*
D03*
X21360Y15260D02*
D03*
X15500Y11030D02*
D03*
X16500D02*
D03*
X15500Y9030D02*
D03*
X16500D02*
D03*
X15500Y8030D02*
D03*
X16500D02*
D03*
X15500Y7030D02*
D03*
X16500Y10030D02*
D03*
X15500D02*
D03*
D74*
X21360Y8961D02*
D03*
X21360Y14260D02*
D03*
X16500Y7030D02*
D03*
D75*
X9150Y12511D02*
D03*
X9650D02*
D03*
X10150D02*
D03*
X10650D02*
D03*
X11150D02*
D03*
X11650D02*
D03*
X12150D02*
D03*
X12650D02*
D03*
X13150D02*
D03*
X13650D02*
D03*
X14150D02*
D03*
X14650D02*
D03*
X15150D02*
D03*
X15650D02*
D03*
X16150D02*
D03*
X16650D02*
D03*
X17150D02*
D03*
X17650D02*
D03*
X18150D02*
D03*
X18650D02*
D03*
X9150Y14149D02*
D03*
X9650D02*
D03*
X10150D02*
D03*
X10650D02*
D03*
X11150D02*
D03*
X11650D02*
D03*
X12150D02*
D03*
X12650D02*
D03*
X13150D02*
D03*
X13650D02*
D03*
X14150D02*
D03*
X14650D02*
D03*
X15150D02*
D03*
X15650D02*
D03*
X16150D02*
D03*
X16650D02*
D03*
X17150D02*
D03*
X17650D02*
D03*
X18150D02*
D03*
X18650D02*
D03*
X9150Y1511D02*
D03*
X9650D02*
D03*
X10150D02*
D03*
X10650D02*
D03*
X11150D02*
D03*
X11650D02*
D03*
X12150D02*
D03*
X12650D02*
D03*
X13150D02*
D03*
X13650D02*
D03*
X14150D02*
D03*
X14650D02*
D03*
X15150D02*
D03*
X15650D02*
D03*
X16150D02*
D03*
X16650D02*
D03*
X17150D02*
D03*
X17650D02*
D03*
X18150D02*
D03*
X18650D02*
D03*
X9150Y3149D02*
D03*
X9650D02*
D03*
X10150D02*
D03*
X10650D02*
D03*
X11150D02*
D03*
X11650D02*
D03*
X12150D02*
D03*
X12650D02*
D03*
X13150D02*
D03*
X13650D02*
D03*
X14150D02*
D03*
X14650D02*
D03*
X15150D02*
D03*
X15650D02*
D03*
X16150D02*
D03*
X16650D02*
D03*
X17150D02*
D03*
X17650D02*
D03*
X18150D02*
D03*
X18650D02*
D03*
D76*
X15150Y4400D02*
D03*
D77*
X14150D02*
D03*
X20700Y14800D02*
D03*
M02*
