%FSLAX24Y24*%
%MOIN*%
G70*
G01*
G75*
G04 Layer_Physical_Order=1*
G04 Layer_Color=255*
%ADD10R,0.0335X0.0256*%
%ADD11R,0.0177X0.0177*%
%ADD12R,0.0571X0.0217*%
%ADD13R,0.0571X0.0217*%
%ADD14R,0.0709X0.0394*%
G04:AMPARAMS|DCode=15|XSize=47.2mil|YSize=43.3mil|CornerRadius=0mil|HoleSize=0mil|Usage=FLASHONLY|Rotation=45.000|XOffset=0mil|YOffset=0mil|HoleType=Round|Shape=Rectangle|*
%AMROTATEDRECTD15*
4,1,4,-0.0014,-0.0320,-0.0320,-0.0014,0.0014,0.0320,0.0320,0.0014,-0.0014,-0.0320,0.0*
%
%ADD15ROTATEDRECTD15*%

%ADD16R,0.1850X0.1850*%
%ADD17O,0.0079X0.0256*%
%ADD18O,0.0256X0.0079*%
%ADD19R,0.0394X0.0394*%
%ADD20R,0.0236X0.0217*%
%ADD21R,0.0217X0.0236*%
%ADD22R,0.0256X0.0197*%
%ADD23R,0.0197X0.0256*%
%ADD24C,0.0394*%
%ADD25R,0.0197X0.0236*%
%ADD26R,0.0236X0.0197*%
%ADD27R,0.0315X0.0295*%
G04:AMPARAMS|DCode=28|XSize=19.7mil|YSize=23.6mil|CornerRadius=0mil|HoleSize=0mil|Usage=FLASHONLY|Rotation=45.000|XOffset=0mil|YOffset=0mil|HoleType=Round|Shape=Rectangle|*
%AMROTATEDRECTD28*
4,1,4,0.0014,-0.0153,-0.0153,0.0014,-0.0014,0.0153,0.0153,-0.0014,0.0014,-0.0153,0.0*
%
%ADD28ROTATEDRECTD28*%

%ADD29R,0.0787X0.0394*%
%ADD30C,0.0060*%
%ADD31C,0.0100*%
%ADD32C,0.0050*%
%ADD33C,0.0080*%
%ADD34C,0.0070*%
%ADD35C,0.0090*%
%ADD36C,0.0390*%
%ADD37O,0.1260X0.0709*%
%ADD38C,0.0433*%
%ADD39C,0.0200*%
%ADD40C,0.0197*%
%ADD41C,0.0118*%
G36*
X5335Y2750D02*
X5354Y2746D01*
X5372Y2744D01*
X5550D01*
X5568Y2746D01*
X5580Y2749D01*
X5652D01*
Y2659D01*
Y2513D01*
X5830D01*
Y2413D01*
X5652D01*
Y2265D01*
D01*
Y2265D01*
X5626Y2239D01*
X5177D01*
X5132Y2284D01*
X5133Y2288D01*
X5149Y2332D01*
X5155Y2332D01*
X5173Y2337D01*
X5191Y2344D01*
X5207Y2354D01*
X5221Y2366D01*
X5233Y2380D01*
X5243Y2396D01*
X5250Y2413D01*
X5254Y2432D01*
X5256Y2450D01*
Y2628D01*
X5254Y2646D01*
X5250Y2665D01*
X5243Y2682D01*
D01*
Y2682D01*
X5264Y2725D01*
D01*
X5275D01*
Y2736D01*
D01*
X5318Y2757D01*
D01*
D01*
X5318Y2757D01*
X5318D01*
D01*
X5335Y2750D01*
D02*
G37*
G36*
X6632Y2703D02*
Y2689D01*
Y2543D01*
X6810D01*
Y2493D01*
X6860D01*
Y2295D01*
X6900D01*
X6966Y2268D01*
X6976Y2256D01*
X6972Y2242D01*
X6971Y2220D01*
X6972Y2198D01*
X6977Y2177D01*
X6986Y2157D01*
X6997Y2138D01*
X7011Y2121D01*
X7028Y2107D01*
X7047Y2096D01*
X7067Y2087D01*
X7088Y2082D01*
X7110Y2081D01*
X7132Y2082D01*
X7132Y2082D01*
X7166Y2056D01*
X7172Y2043D01*
Y2023D01*
X7528D01*
Y2055D01*
X7577Y2069D01*
X7577Y2068D01*
X7591Y2051D01*
X7608Y2037D01*
X7627Y2026D01*
X7647Y2017D01*
X7668Y2012D01*
X7690Y2011D01*
X7712Y2012D01*
X7733Y2017D01*
X7753Y2026D01*
X7772Y2037D01*
X7789Y2051D01*
X7803Y2068D01*
X7814Y2087D01*
X7819Y2098D01*
X7869Y2103D01*
X7873Y2096D01*
X7888Y2079D01*
X7906Y2063D01*
X7925Y2050D01*
X7946Y2040D01*
X7969Y2032D01*
X7992Y2028D01*
X8015Y2026D01*
X8038Y2028D01*
X8048Y2030D01*
X8067Y2014D01*
X8087Y1956D01*
Y1822D01*
X8511D01*
Y2049D01*
X8175D01*
X8155Y2094D01*
X8157Y2096D01*
X8170Y2116D01*
X8180Y2137D01*
X8188Y2159D01*
X8192Y2182D01*
X8194Y2205D01*
X8209Y2222D01*
X8267D01*
Y2400D01*
X8367D01*
Y2222D01*
X8515D01*
Y2479D01*
X8837D01*
X8871Y2443D01*
X8871Y2440D01*
X8873Y2417D01*
X8877Y2394D01*
X8885Y2372D01*
X8895Y2351D01*
X8908Y2331D01*
X8924Y2314D01*
X8934Y2305D01*
Y2296D01*
X8918Y2279D01*
X8905Y2259D01*
X8895Y2238D01*
X8887Y2216D01*
X8883Y2193D01*
X8881Y2170D01*
X8883Y2147D01*
X8887Y2124D01*
X8895Y2102D01*
X8900Y2091D01*
X8885Y2067D01*
X8857Y2049D01*
X8611D01*
Y1822D01*
X9049D01*
X9060Y1991D01*
X9083Y1993D01*
X9106Y1997D01*
X9128Y2005D01*
X9149Y2015D01*
X9169Y2028D01*
X9170Y2026D01*
X9171Y2025D01*
X9171D01*
X9171Y2025D01*
X9171Y2025D01*
Y2025D01*
X9171D01*
X9171D01*
X9182Y2012D01*
X9470Y1724D01*
Y1626D01*
X9354Y1510D01*
X9034D01*
Y1600D01*
X9042Y1722D01*
X8087D01*
Y1495D01*
X8123D01*
X8193Y1471D01*
X8205Y1456D01*
X8203Y1443D01*
X8201Y1420D01*
X8203Y1397D01*
X8207Y1374D01*
X8215Y1352D01*
X8225Y1331D01*
X8238Y1311D01*
X8254Y1294D01*
X8271Y1278D01*
X8286Y1268D01*
X8276Y1236D01*
X8268Y1220D01*
X8058D01*
X8041Y1219D01*
X8024Y1215D01*
X8008Y1208D01*
X7993Y1199D01*
X7980Y1188D01*
X7597Y805D01*
X7298D01*
Y389D01*
Y110D01*
X7222D01*
Y389D01*
Y805D01*
X6758D01*
Y939D01*
Y1006D01*
X7001D01*
X7014Y995D01*
X7034Y982D01*
X7055Y972D01*
X7077Y964D01*
X7100Y960D01*
X7123Y958D01*
X7146Y960D01*
X7169Y964D01*
X7192Y972D01*
X7213Y982D01*
X7232Y995D01*
X7250Y1010D01*
X7265Y1028D01*
X7278Y1047D01*
X7288Y1068D01*
X7296Y1091D01*
X7300Y1114D01*
X7302Y1137D01*
X7300Y1160D01*
X7296Y1183D01*
X7288Y1205D01*
X7324Y1241D01*
X7334Y1237D01*
X7357Y1233D01*
X7380Y1231D01*
X7403Y1233D01*
X7426Y1237D01*
X7448Y1245D01*
X7469Y1255D01*
X7489Y1268D01*
X7506Y1284D01*
X7522Y1301D01*
X7535Y1321D01*
X7545Y1342D01*
X7553Y1364D01*
X7557Y1387D01*
X7559Y1410D01*
X7557Y1433D01*
X7553Y1456D01*
X7545Y1478D01*
X7535Y1499D01*
X7522Y1519D01*
X7506Y1536D01*
X7489Y1552D01*
X7469Y1565D01*
X7448Y1575D01*
X7426Y1583D01*
X7403Y1587D01*
X7380Y1589D01*
X7357Y1587D01*
X7334Y1583D01*
X7312Y1575D01*
X7291Y1565D01*
X7271Y1552D01*
X7254Y1536D01*
X7238Y1519D01*
X7219Y1532D01*
X7219Y1532D01*
Y1532D01*
X7199Y1545D01*
X7178Y1555D01*
X7156Y1563D01*
X7133Y1567D01*
X7110Y1569D01*
X7087Y1567D01*
X7082Y1566D01*
X6919Y1730D01*
X6906Y1741D01*
X6892Y1750D01*
X6877Y1756D01*
X6861Y1760D01*
X6844Y1761D01*
X6632D01*
X6519Y1874D01*
Y2311D01*
X6518Y2328D01*
X6514Y2344D01*
X6508Y2359D01*
X6499Y2373D01*
X6488Y2386D01*
X6349Y2525D01*
Y2609D01*
X6371Y2652D01*
X6390Y2666D01*
X6401Y2662D01*
X6424Y2658D01*
X6448Y2656D01*
X6471Y2658D01*
X6494Y2662D01*
X6516Y2670D01*
X6537Y2680D01*
X6557Y2693D01*
X6574Y2709D01*
X6585Y2721D01*
X6632Y2703D01*
D02*
G37*
G36*
X3358Y1932D02*
Y1705D01*
X3182Y1528D01*
X3171Y1515D01*
X3162Y1500D01*
X3155Y1484D01*
X3151Y1467D01*
X3150Y1450D01*
Y1370D01*
X3151Y1353D01*
X3155Y1336D01*
X3161Y1321D01*
X3034Y1193D01*
X3244Y984D01*
X3173Y913D01*
X2963Y1123D01*
X2775Y934D01*
X2900Y809D01*
X2866Y775D01*
X3006Y635D01*
X2971Y599D01*
X3006Y564D01*
X2880Y438D01*
X2983Y335D01*
X2985Y333D01*
X3161Y157D01*
X3142Y110D01*
X2378D01*
X2358Y156D01*
X2365Y164D01*
X2390Y197D01*
X2412Y232D01*
X2432Y269D01*
X2447Y307D01*
X2460Y347D01*
X2469Y387D01*
X2474Y428D01*
X2476Y470D01*
X2474Y512D01*
X2469Y553D01*
X2460Y593D01*
X2447Y633D01*
X2432Y671D01*
X2412Y708D01*
X2390Y743D01*
X2365Y776D01*
X2337Y807D01*
X2306Y835D01*
X2273Y860D01*
X2238Y882D01*
X2201Y902D01*
X2163Y917D01*
X2123Y930D01*
X2083Y939D01*
X2042Y944D01*
X2000Y946D01*
X1958Y944D01*
X1917Y939D01*
X1877Y930D01*
X1837Y917D01*
X1799Y902D01*
X1762Y882D01*
X1727Y860D01*
X1705Y843D01*
X1671Y860D01*
X1660Y872D01*
Y1052D01*
X1689D01*
Y1052D01*
X1847D01*
Y1230D01*
X1947D01*
Y1052D01*
X2022D01*
Y1045D01*
X2150D01*
Y1243D01*
X2250D01*
Y1045D01*
X2302D01*
Y1045D01*
X2430D01*
Y1243D01*
X2480D01*
Y1293D01*
X2658D01*
Y1439D01*
Y1755D01*
Y1870D01*
X2802D01*
Y1863D01*
X3158D01*
Y1910D01*
X3172Y1931D01*
X3200Y1950D01*
X3207Y1947D01*
X3228Y1942D01*
X3250Y1941D01*
X3272Y1942D01*
X3293Y1947D01*
X3313Y1956D01*
X3315Y1957D01*
X3358Y1932D01*
D02*
G37*
G36*
X7538Y4343D02*
X7544Y4325D01*
X7554Y4304D01*
X7567Y4284D01*
X7583Y4267D01*
X7600Y4251D01*
X7620Y4238D01*
X7641Y4228D01*
X7663Y4220D01*
X7686Y4216D01*
X7709Y4214D01*
X7715Y4209D01*
Y4180D01*
X7913D01*
Y4130D01*
X7963D01*
Y3952D01*
X8181D01*
X8182Y3938D01*
X8187Y3917D01*
X8196Y3897D01*
X8207Y3878D01*
X8218Y3866D01*
X8209Y3847D01*
X8186Y3820D01*
X8087D01*
Y3328D01*
X7715D01*
Y3328D01*
X7714Y3328D01*
X7700Y3329D01*
X7677Y3327D01*
X7654Y3323D01*
X7632Y3315D01*
X7611Y3305D01*
X7591Y3292D01*
X7574Y3276D01*
X7567Y3270D01*
X7517D01*
X7511Y3276D01*
X7494Y3292D01*
X7474Y3305D01*
X7453Y3315D01*
X7431Y3323D01*
X7408Y3327D01*
X7385Y3329D01*
X7362Y3327D01*
X7339Y3323D01*
X7317Y3315D01*
X7311Y3312D01*
X7303Y3317D01*
X7306Y3315D01*
X7295Y3344D01*
X7295Y3373D01*
X7300Y3376D01*
X7313Y3387D01*
X7339Y3413D01*
X7737D01*
Y3952D01*
X7863D01*
Y4080D01*
X7715D01*
Y3967D01*
X7598D01*
X7547Y4001D01*
X7542Y4009D01*
X7550Y4026D01*
X7558Y4049D01*
X7562Y4072D01*
X7564Y4095D01*
X7562Y4118D01*
X7558Y4141D01*
X7550Y4163D01*
X7540Y4184D01*
X7527Y4204D01*
X7511Y4221D01*
X7495Y4235D01*
Y4258D01*
X7494Y4275D01*
X7490Y4292D01*
X7483Y4308D01*
X7483Y4308D01*
X7512Y4349D01*
X7538Y4343D01*
D02*
G37*
G36*
X8750Y3221D02*
X8748Y3219D01*
X8735Y3199D01*
X8725Y3178D01*
X8717Y3156D01*
X8713Y3133D01*
X8711Y3110D01*
X8713Y3087D01*
X8716Y3071D01*
X8706Y3060D01*
X8626Y3033D01*
X8505D01*
Y3266D01*
X8729D01*
X8750Y3221D01*
D02*
G37*
G36*
X7574Y3024D02*
X7591Y3008D01*
X7611Y2995D01*
X7632Y2985D01*
X7654Y2977D01*
X7677Y2973D01*
X7700Y2971D01*
X7714Y2972D01*
X7715Y2972D01*
Y2972D01*
X8087D01*
Y2578D01*
X7725D01*
Y2484D01*
X7598Y2357D01*
X7584Y2341D01*
X7577Y2328D01*
X7534Y2340D01*
X7528Y2342D01*
Y2565D01*
X7308D01*
X7275Y2598D01*
X7268Y2604D01*
Y2743D01*
X7090D01*
Y2843D01*
X7268D01*
Y2955D01*
X7276Y2966D01*
X7311Y2988D01*
X7317Y2985D01*
X7339Y2977D01*
X7362Y2973D01*
X7385Y2971D01*
X7408Y2973D01*
X7431Y2977D01*
X7453Y2985D01*
X7474Y2995D01*
X7494Y3008D01*
X7511Y3024D01*
X7517Y3031D01*
X7567D01*
X7574Y3024D01*
D02*
G37*
G36*
X6059Y2378D02*
X6070Y2365D01*
X6209Y2226D01*
Y1786D01*
X6210Y1770D01*
X6214Y1754D01*
X6220Y1738D01*
X6229Y1724D01*
X6239Y1712D01*
X6570Y1381D01*
X6551Y1335D01*
X6082D01*
D01*
X6082D01*
X6048Y1368D01*
Y1435D01*
Y1583D01*
X5692D01*
Y1435D01*
Y1367D01*
X5870D01*
Y1267D01*
X5692D01*
Y1255D01*
X5243D01*
X4986Y1512D01*
Y1685D01*
X5692D01*
Y1683D01*
X6048D01*
Y1829D01*
Y2225D01*
X6008D01*
Y2265D01*
X6008D01*
Y2368D01*
X6057Y2382D01*
X6059Y2378D01*
D02*
G37*
G36*
X10633Y1260D02*
Y1005D01*
X10259Y631D01*
X10220Y662D01*
X10236Y688D01*
X10254Y722D01*
X10268Y757D01*
X10280Y793D01*
X10288Y830D01*
X10293Y868D01*
X10295Y906D01*
X10293Y943D01*
X10288Y980D01*
X10587Y1279D01*
X10633Y1260D01*
D02*
G37*
G36*
X8900Y757D02*
X8915Y722D01*
X8932Y688D01*
X8953Y656D01*
X8976Y626D01*
X9001Y598D01*
X9029Y572D01*
X9059Y549D01*
X9091Y529D01*
X9125Y512D01*
X9160Y497D01*
X9196Y486D01*
X9233Y477D01*
X9271Y472D01*
X9309Y471D01*
X9860D01*
X9898Y472D01*
X9935Y477D01*
X9972Y486D01*
X10009Y497D01*
X10044Y512D01*
X10077Y529D01*
X10104Y546D01*
X10135Y507D01*
X9738Y110D01*
X7793D01*
Y247D01*
X8156Y610D01*
X8548D01*
X8561Y598D01*
X8581Y585D01*
X8602Y575D01*
X8624Y567D01*
X8647Y563D01*
X8670Y561D01*
X8693Y563D01*
X8716Y567D01*
X8738Y575D01*
X8759Y585D01*
X8779Y598D01*
X8796Y614D01*
X8812Y631D01*
X8825Y651D01*
X8835Y672D01*
X8843Y694D01*
X8847Y717D01*
X8849Y740D01*
X8848Y758D01*
X8897Y768D01*
X8900Y757D01*
D02*
G37*
G36*
X6048Y725D02*
X6048D01*
X6082Y692D01*
Y545D01*
X6140D01*
Y540D01*
X6141Y520D01*
X6146Y500D01*
X6151Y489D01*
X6154Y481D01*
X6165Y463D01*
X6178Y448D01*
X6455Y170D01*
X6471Y157D01*
X6470Y157D01*
X6442Y110D01*
X5479D01*
X5395Y152D01*
X5403Y174D01*
X5407Y197D01*
X5409Y220D01*
X5407Y243D01*
X5403Y266D01*
X5395Y288D01*
X5385Y309D01*
X5372Y329D01*
X5356Y346D01*
X5339Y362D01*
X5319Y375D01*
X5298Y385D01*
X5276Y393D01*
X5253Y397D01*
X5230Y399D01*
X5207Y397D01*
X5205Y397D01*
X5183Y414D01*
X5188Y464D01*
X5210Y476D01*
X5211Y475D01*
X5232Y465D01*
X5254Y457D01*
X5277Y453D01*
X5300Y451D01*
X5323Y453D01*
X5346Y457D01*
X5368Y465D01*
X5389Y475D01*
X5409Y488D01*
X5426Y504D01*
X5442Y521D01*
X5455Y541D01*
X5465Y562D01*
X5473Y584D01*
X5477Y607D01*
X5479Y630D01*
X5477Y653D01*
X5475Y662D01*
X5492Y683D01*
X5546Y701D01*
X5744D01*
Y725D01*
X6048D01*
D01*
D02*
G37*
G36*
X9503Y3411D02*
X9502Y3384D01*
X9492Y3358D01*
X9477Y3357D01*
X9454Y3353D01*
X9432Y3345D01*
X9411Y3335D01*
X9391Y3322D01*
X9374Y3306D01*
X9358Y3289D01*
X9345Y3269D01*
X9335Y3248D01*
X9327Y3226D01*
X9323Y3203D01*
X9321Y3180D01*
X9323Y3157D01*
X9327Y3134D01*
X9335Y3112D01*
X9345Y3091D01*
X9358Y3071D01*
X9374Y3054D01*
X9391Y3038D01*
X9411Y3025D01*
X9417Y3022D01*
X9422Y3016D01*
X10010Y2429D01*
Y1649D01*
X10008Y1648D01*
X9987Y1638D01*
X9967Y1625D01*
X9950Y1610D01*
X9934Y1592D01*
X9921Y1573D01*
X9911Y1552D01*
X9904Y1529D01*
X9899Y1506D01*
X9897Y1483D01*
X9899Y1460D01*
X9904Y1437D01*
X9911Y1415D01*
X9921Y1394D01*
X9930Y1380D01*
X9904Y1338D01*
X9898Y1339D01*
X9860Y1340D01*
X9562D01*
X9542Y1386D01*
X9658Y1502D01*
X9669Y1515D01*
X9678Y1530D01*
X9681Y1537D01*
X9685Y1546D01*
X9689Y1563D01*
X9690Y1576D01*
X9701Y1584D01*
X9747Y1603D01*
X9770Y1601D01*
X9793Y1603D01*
X9816Y1607D01*
X9838Y1615D01*
X9859Y1625D01*
X9879Y1638D01*
X9896Y1654D01*
X9912Y1671D01*
X9925Y1691D01*
X9935Y1712D01*
X9943Y1734D01*
X9947Y1757D01*
X9949Y1780D01*
X9947Y1803D01*
X9943Y1826D01*
X9935Y1848D01*
X9925Y1869D01*
X9912Y1889D01*
X9896Y1906D01*
X9879Y1922D01*
X9859Y1935D01*
X9838Y1945D01*
X9816Y1953D01*
X9793Y1957D01*
X9770Y1959D01*
X9747Y1957D01*
X9744Y1957D01*
X9727Y2004D01*
X9742Y2012D01*
X9769Y2032D01*
X9794Y2054D01*
X9816Y2079D01*
X9836Y2106D01*
X9852Y2135D01*
X9865Y2166D01*
X9874Y2198D01*
X9879Y2231D01*
X9881Y2264D01*
X9879Y2297D01*
X9874Y2330D01*
X9865Y2362D01*
X9852Y2393D01*
X9836Y2422D01*
X9816Y2449D01*
X9794Y2474D01*
X9769Y2496D01*
X9742Y2515D01*
X9713Y2531D01*
X9682Y2544D01*
X9650Y2553D01*
X9617Y2559D01*
X9584Y2561D01*
X9551Y2559D01*
X9518Y2553D01*
X9486Y2544D01*
X9455Y2531D01*
X9426Y2515D01*
X9399Y2496D01*
X9374Y2474D01*
X9352Y2449D01*
X9333Y2422D01*
X9317Y2393D01*
X9315Y2389D01*
X9266Y2380D01*
X9227Y2419D01*
X9229Y2440D01*
X9227Y2463D01*
X9223Y2486D01*
X9215Y2508D01*
X9205Y2529D01*
X9192Y2549D01*
X9176Y2566D01*
X9159Y2582D01*
X9139Y2595D01*
X9135Y2597D01*
X9127Y2646D01*
X9207Y2726D01*
X9218Y2739D01*
X9227Y2754D01*
X9234Y2770D01*
X9238Y2786D01*
X9239Y2804D01*
X9239Y2804D01*
X9239Y2804D01*
Y2804D01*
Y3409D01*
X9255Y3424D01*
X9271Y3441D01*
X9284Y3461D01*
X9294Y3482D01*
X9301Y3504D01*
X9306Y3527D01*
X9307Y3543D01*
X9329Y3551D01*
X9361Y3554D01*
X9503Y3411D01*
D02*
G37*
G36*
X4455Y1686D02*
X4467Y1699D01*
X4534Y1632D01*
X4592Y1545D01*
X4591Y1523D01*
X4584Y1516D01*
X4568Y1499D01*
X4555Y1479D01*
X4545Y1458D01*
X4540Y1443D01*
X4523Y1439D01*
X4473Y1449D01*
X4461Y1462D01*
X4370Y1371D01*
X4478Y1263D01*
X4547Y1297D01*
X4559Y1295D01*
X4568Y1281D01*
X4584Y1264D01*
X4601Y1248D01*
X4621Y1235D01*
X4642Y1225D01*
X4664Y1217D01*
X4687Y1213D01*
X4710Y1211D01*
X4733Y1213D01*
X4756Y1217D01*
X4778Y1225D01*
X4799Y1235D01*
X4819Y1248D01*
X4830Y1258D01*
X4856Y1246D01*
X4876Y1229D01*
Y769D01*
X4830Y749D01*
X4782Y791D01*
X4795Y811D01*
X4805Y832D01*
X4813Y854D01*
X4817Y877D01*
X4819Y900D01*
X4817Y923D01*
X4813Y946D01*
X4805Y968D01*
X4795Y989D01*
X4782Y1009D01*
X4766Y1026D01*
X4749Y1042D01*
X4729Y1055D01*
X4708Y1065D01*
X4686Y1073D01*
X4663Y1077D01*
X4640Y1079D01*
X4617Y1077D01*
X4594Y1073D01*
X4572Y1065D01*
X4551Y1055D01*
X4531Y1042D01*
X4519Y1031D01*
X4505Y1046D01*
Y1046D01*
X4380Y1171D01*
X4404Y1195D01*
X4264Y1335D01*
X4299Y1371D01*
X4264Y1406D01*
X4390Y1532D01*
X4345Y1577D01*
X4384Y1615D01*
X4244Y1755D01*
X4315Y1826D01*
X4455Y1686D01*
D02*
G37*
G36*
X4317Y857D02*
X4421Y962D01*
X4426Y960D01*
X4466Y939D01*
X4463Y923D01*
X4461Y900D01*
X4463Y877D01*
X4467Y854D01*
X4475Y832D01*
X4485Y811D01*
X4498Y791D01*
X4514Y774D01*
D01*
D01*
Y774D01*
X4494Y746D01*
X4494D01*
Y505D01*
X4471Y438D01*
X4455Y425D01*
X4443Y427D01*
X4420Y429D01*
X4397Y427D01*
X4374Y423D01*
X4352Y415D01*
X4331Y405D01*
X4311Y392D01*
X4294Y376D01*
X4278Y359D01*
X4265Y339D01*
X4255Y318D01*
X4247Y296D01*
X4243Y273D01*
X4241Y250D01*
X4243Y227D01*
X4247Y204D01*
X4255Y182D01*
X4265Y161D01*
X4269Y154D01*
X4248Y115D01*
X4243Y110D01*
X3635D01*
X3616Y157D01*
X4032Y572D01*
X4032D01*
X4058Y598D01*
X4058Y598D01*
X4058Y598D01*
X4246Y787D01*
X4036Y996D01*
X4107Y1067D01*
X4317Y857D01*
D02*
G37*
G36*
X10270Y4631D02*
X10293Y4626D01*
X10316Y4625D01*
X10340Y4626D01*
X10346Y4628D01*
X10384Y4596D01*
Y2643D01*
X10369Y2597D01*
X10320Y2586D01*
X9802Y3104D01*
Y3379D01*
X9801Y3397D01*
X9797Y3413D01*
X9793Y3423D01*
X9790Y3429D01*
X9797Y3473D01*
D01*
X9797Y3473D01*
X9820Y3471D01*
X9843Y3473D01*
X9866Y3477D01*
X9888Y3485D01*
X9909Y3495D01*
X9929Y3508D01*
X9946Y3524D01*
X9962Y3541D01*
X9975Y3561D01*
X9985Y3582D01*
X9993Y3604D01*
X9997Y3627D01*
X9998Y3644D01*
X10152Y3798D01*
X10165Y3813D01*
X10176Y3831D01*
X10179Y3839D01*
X10184Y3850D01*
X10189Y3870D01*
X10190Y3890D01*
Y4571D01*
X10194Y4572D01*
X10201Y4575D01*
X10219Y4586D01*
X10234Y4599D01*
X10267Y4632D01*
X10270Y4631D01*
D02*
G37*
G36*
X2798Y6143D02*
X2702Y6048D01*
X2465D01*
Y5748D01*
X2465D01*
Y5610D01*
X2663D01*
Y5510D01*
X2465D01*
Y5372D01*
Y5300D01*
X2663D01*
Y5250D01*
X2713D01*
Y5062D01*
X3251D01*
X3285Y5025D01*
X3284Y5010D01*
Y4832D01*
X3286Y4814D01*
X3290Y4795D01*
X3297Y4778D01*
D01*
Y4778D01*
X3276Y4735D01*
X3265D01*
Y4724D01*
X3222Y4703D01*
D01*
D01*
X3222Y4703D01*
X3222D01*
D01*
X3205Y4710D01*
X3186Y4714D01*
X3168Y4716D01*
X2990D01*
X2972Y4714D01*
X2953Y4710D01*
X2936Y4703D01*
X2920Y4693D01*
X2906Y4681D01*
X2865Y4716D01*
X2860Y4800D01*
Y4800D01*
X2608D01*
Y4877D01*
X2430D01*
Y4977D01*
X2608D01*
Y5062D01*
X2613D01*
Y5200D01*
X2465D01*
Y5125D01*
X2252D01*
D01*
D01*
X2252Y5125D01*
X2248D01*
Y5125D01*
X2120D01*
Y4927D01*
X2070D01*
Y4877D01*
X1892D01*
Y4800D01*
X1840D01*
Y2818D01*
X1823D01*
Y2640D01*
X1723D01*
Y2818D01*
X1660D01*
Y6190D01*
X2779D01*
X2798Y6143D01*
D02*
G37*
G36*
X5305Y4926D02*
X5317Y4915D01*
X5331Y4906D01*
X5346Y4900D01*
X5363Y4896D01*
X5379Y4895D01*
X5612D01*
Y4744D01*
X5572Y4713D01*
X5568Y4714D01*
X5550Y4716D01*
X5372D01*
X5354Y4714D01*
X5335Y4710D01*
X5318Y4703D01*
D01*
X5318D01*
X5275Y4724D01*
Y4735D01*
X5264D01*
X5243Y4778D01*
D01*
D01*
X5243Y4778D01*
Y4778D01*
D01*
X5250Y4795D01*
X5254Y4814D01*
X5256Y4832D01*
Y4909D01*
X5302Y4928D01*
X5305Y4926D01*
D02*
G37*
G36*
X8078Y6156D02*
X8078D01*
Y5780D01*
Y5644D01*
X8444D01*
Y5544D01*
X8078D01*
Y5406D01*
Y5075D01*
X7963D01*
Y5408D01*
X7232D01*
Y5350D01*
X7104D01*
X6937Y5517D01*
Y5732D01*
X6507D01*
X6493Y5751D01*
X6480Y5776D01*
X6500Y5808D01*
X6650D01*
Y5986D01*
X6463D01*
Y5816D01*
X6423Y5785D01*
X6412Y5788D01*
X6390Y5789D01*
X6368Y5788D01*
X6347Y5783D01*
X6327Y5774D01*
X6308Y5763D01*
X6291Y5749D01*
X6245Y5788D01*
Y5989D01*
X6253Y5998D01*
X6264Y6017D01*
X6273Y6037D01*
X6278Y6058D01*
X6279Y6080D01*
X6278Y6102D01*
X6423Y6137D01*
X6463Y6106D01*
Y6086D01*
X6937D01*
Y6189D01*
X7232D01*
Y6189D01*
Y6156D01*
X7232Y6154D01*
X7232Y6154D01*
X7232D01*
Y5780D01*
X7963D01*
Y6154D01*
X7963Y6154D01*
D01*
D01*
X7963Y6156D01*
D01*
X7995Y6189D01*
X8078D01*
Y6156D01*
D02*
G37*
G36*
X6507Y8640D02*
X6493Y8633D01*
X6468Y8615D01*
X6445Y8595D01*
X6425Y8572D01*
X6407Y8547D01*
X6392Y8520D01*
X6380Y8491D01*
X6371Y8461D01*
X6366Y8431D01*
X6365Y8400D01*
X6366Y8369D01*
X6371Y8339D01*
X6380Y8309D01*
X6392Y8280D01*
X6407Y8253D01*
X6425Y8228D01*
X6445Y8205D01*
X6468Y8185D01*
X6493Y8167D01*
X6520Y8152D01*
X6549Y8140D01*
X6579Y8131D01*
X6609Y8126D01*
X6640Y8125D01*
X6671Y8126D01*
X6701Y8131D01*
X6731Y8140D01*
X6760Y8152D01*
X6764Y8154D01*
X6804Y8124D01*
X6801Y8113D01*
X6796Y8072D01*
X6794Y8030D01*
X6796Y7988D01*
X6801Y7947D01*
X6810Y7907D01*
X6823Y7867D01*
X6767Y7844D01*
X6760Y7848D01*
X6731Y7860D01*
X6701Y7869D01*
X6671Y7874D01*
X6640Y7875D01*
X6609Y7874D01*
X6579Y7869D01*
X6549Y7860D01*
X6520Y7848D01*
X6493Y7833D01*
X6468Y7815D01*
X6445Y7795D01*
X6425Y7772D01*
X6407Y7747D01*
X6392Y7720D01*
X6380Y7691D01*
X6371Y7661D01*
X6366Y7631D01*
X6365Y7600D01*
X6366Y7569D01*
X6371Y7539D01*
X6380Y7509D01*
X6392Y7480D01*
X6407Y7453D01*
X6425Y7428D01*
X6445Y7405D01*
X6468Y7385D01*
X6493Y7367D01*
X6498Y7364D01*
X6503Y7307D01*
X6486Y7303D01*
X6470Y7296D01*
X6455Y7287D01*
X6442Y7276D01*
X6431Y7263D01*
X6422Y7248D01*
X6415Y7232D01*
X6411Y7215D01*
X6410Y7198D01*
Y6760D01*
X5711D01*
X5692Y6806D01*
X6218Y7332D01*
X6229Y7345D01*
X6238Y7360D01*
X6245Y7376D01*
X6249Y7393D01*
X6250Y7410D01*
Y8449D01*
X6266Y8464D01*
X6282Y8481D01*
X6295Y8501D01*
X6305Y8522D01*
X6313Y8544D01*
X6317Y8567D01*
X6319Y8590D01*
X6317Y8613D01*
X6313Y8636D01*
X6309Y8648D01*
X6322Y8667D01*
X6367Y8689D01*
X6494D01*
X6507Y8640D01*
D02*
G37*
G36*
X5958Y8667D02*
X5971Y8648D01*
X5967Y8636D01*
X5963Y8613D01*
X5961Y8590D01*
X5963Y8567D01*
X5967Y8544D01*
X5975Y8522D01*
X5985Y8501D01*
X5998Y8481D01*
X6014Y8464D01*
X6030Y8449D01*
Y7456D01*
X5434Y6860D01*
X5165D01*
X5109Y6898D01*
X5106Y6903D01*
X5115Y6922D01*
X5123Y6944D01*
X5127Y6967D01*
X5129Y6990D01*
X5127Y7013D01*
X5123Y7036D01*
X5115Y7058D01*
X5105Y7079D01*
X5092Y7099D01*
X5076Y7116D01*
X5059Y7132D01*
X5039Y7145D01*
X5018Y7155D01*
X4996Y7163D01*
X4973Y7167D01*
X4950Y7169D01*
X4927Y7167D01*
X4904Y7163D01*
X4882Y7155D01*
X4861Y7145D01*
X4841Y7132D01*
X4824Y7116D01*
X4808Y7099D01*
X4795Y7079D01*
X4785Y7058D01*
X4777Y7036D01*
X4773Y7013D01*
X4771Y6990D01*
X4773Y6967D01*
X4777Y6944D01*
X4785Y6922D01*
X4794Y6903D01*
X4791Y6898D01*
X4735Y6860D01*
X4479D01*
X4370Y6970D01*
X4375Y6982D01*
X4383Y7004D01*
X4387Y7027D01*
X4389Y7050D01*
X4387Y7073D01*
X4383Y7096D01*
X4375Y7118D01*
X4365Y7139D01*
X4352Y7159D01*
X4336Y7176D01*
X4319Y7192D01*
X4299Y7205D01*
X4278Y7215D01*
X4269Y7218D01*
X4259Y7267D01*
X4266Y7274D01*
X4282Y7291D01*
X4295Y7311D01*
X4305Y7332D01*
X4313Y7354D01*
X4317Y7377D01*
X4319Y7400D01*
X4317Y7423D01*
X4313Y7446D01*
X4305Y7468D01*
X4295Y7489D01*
X4282Y7509D01*
X4266Y7526D01*
X4250Y7541D01*
Y8459D01*
X4266Y8474D01*
X4282Y8491D01*
X4295Y8511D01*
X4305Y8532D01*
X4313Y8554D01*
X4317Y8577D01*
X4319Y8600D01*
X4317Y8623D01*
X4313Y8646D01*
X4312Y8648D01*
X4341Y8689D01*
X4439D01*
X4468Y8648D01*
X4467Y8646D01*
X4463Y8623D01*
X4461Y8600D01*
X4463Y8577D01*
X4467Y8554D01*
X4475Y8532D01*
X4485Y8511D01*
X4498Y8491D01*
X4514Y8474D01*
X4531Y8458D01*
X4551Y8445D01*
X4572Y8435D01*
X4594Y8427D01*
X4617Y8423D01*
X4640Y8421D01*
X4663Y8423D01*
X4686Y8427D01*
X4708Y8435D01*
X4729Y8445D01*
X4749Y8458D01*
X4766Y8474D01*
X4782Y8491D01*
X4795Y8511D01*
X4805Y8532D01*
X4813Y8554D01*
X4817Y8577D01*
X4819Y8600D01*
X4817Y8623D01*
X4813Y8646D01*
X4812Y8648D01*
X4841Y8689D01*
X5439D01*
X5468Y8648D01*
X5467Y8646D01*
X5463Y8623D01*
X5461Y8600D01*
X5463Y8577D01*
X5467Y8554D01*
X5475Y8532D01*
X5485Y8511D01*
X5498Y8491D01*
X5514Y8474D01*
X5530Y8459D01*
Y7541D01*
X5514Y7526D01*
X5498Y7509D01*
X5485Y7489D01*
X5475Y7468D01*
X5467Y7446D01*
X5463Y7423D01*
X5461Y7400D01*
X5463Y7377D01*
X5467Y7354D01*
X5475Y7332D01*
X5485Y7311D01*
X5498Y7291D01*
X5514Y7274D01*
X5531Y7258D01*
X5551Y7245D01*
X5572Y7235D01*
X5594Y7227D01*
X5617Y7223D01*
X5640Y7221D01*
X5663Y7223D01*
X5686Y7227D01*
X5708Y7235D01*
X5729Y7245D01*
X5749Y7258D01*
X5766Y7274D01*
X5782Y7291D01*
X5795Y7311D01*
X5805Y7332D01*
X5813Y7354D01*
X5817Y7377D01*
X5819Y7400D01*
X5817Y7423D01*
X5813Y7446D01*
X5805Y7468D01*
X5795Y7489D01*
X5782Y7509D01*
X5766Y7526D01*
X5750Y7541D01*
Y8459D01*
X5766Y8474D01*
X5782Y8491D01*
X5795Y8511D01*
X5805Y8532D01*
X5813Y8554D01*
X5817Y8577D01*
X5819Y8600D01*
X5817Y8623D01*
X5813Y8646D01*
X5812Y8648D01*
X5841Y8689D01*
X5913D01*
X5958Y8667D01*
D02*
G37*
G36*
X6091Y4846D02*
Y4647D01*
X6093Y4630D01*
X6096Y4614D01*
X6103Y4599D01*
X6111Y4585D01*
X6122Y4572D01*
X6209Y4486D01*
Y4153D01*
X6159Y4151D01*
X6158Y4162D01*
X6153Y4183D01*
X6144Y4203D01*
X6133Y4222D01*
X6119Y4239D01*
X6102Y4253D01*
X6083Y4264D01*
X6076Y4267D01*
X5968Y4375D01*
Y4549D01*
Y4697D01*
X5790D01*
Y4797D01*
X5968D01*
Y4895D01*
X6042D01*
X6091Y4846D01*
D02*
G37*
G36*
X7017Y4723D02*
X7040Y4721D01*
X7063Y4723D01*
X7073Y4725D01*
X7093Y4708D01*
X7112Y4653D01*
Y4549D01*
Y4155D01*
X7202D01*
D01*
X7208Y4118D01*
X7208Y4118D01*
X7208D01*
X7206Y4095D01*
X7208Y4072D01*
X7212Y4049D01*
X7220Y4026D01*
X7228Y4009D01*
X7202Y3967D01*
X7183D01*
Y3967D01*
X7159Y3935D01*
X7159D01*
X7159D01*
X7138Y3945D01*
X7116Y3953D01*
X7093Y3957D01*
X7070Y3959D01*
D01*
D01*
D01*
X7070Y3959D01*
X7070Y3959D01*
X7038Y3964D01*
Y4069D01*
Y4217D01*
X6860D01*
Y4267D01*
X6810D01*
Y4465D01*
X6682D01*
Y4305D01*
X6640D01*
Y4107D01*
X6540D01*
Y4305D01*
X6519D01*
Y4571D01*
X6519Y4571D01*
D01*
X6538Y4595D01*
X6559Y4605D01*
X6579Y4618D01*
X6596Y4634D01*
X6612Y4651D01*
X6625Y4671D01*
X6627Y4675D01*
X6677Y4678D01*
X6688Y4661D01*
X6704Y4644D01*
X6721Y4628D01*
X6741Y4615D01*
X6762Y4605D01*
X6784Y4597D01*
X6807Y4593D01*
X6830Y4591D01*
X6853Y4593D01*
X6876Y4597D01*
X6898Y4605D01*
X6919Y4615D01*
X6939Y4628D01*
X6956Y4644D01*
X6972Y4661D01*
X6985Y4681D01*
X6995Y4702D01*
X7003Y4724D01*
X7005Y4725D01*
X7017Y4723D01*
D02*
G37*
G36*
X9930Y4470D02*
Y4066D01*
X9880Y4065D01*
X9879Y4069D01*
X9874Y4102D01*
X9865Y4134D01*
X9852Y4164D01*
X9836Y4193D01*
X9816Y4221D01*
X9794Y4245D01*
X9769Y4268D01*
X9742Y4287D01*
X9713Y4303D01*
X9682Y4316D01*
X9650Y4325D01*
X9617Y4331D01*
X9584Y4332D01*
X9551Y4331D01*
X9518Y4325D01*
X9486Y4316D01*
X9455Y4303D01*
X9426Y4287D01*
X9399Y4268D01*
X9374Y4245D01*
X9352Y4221D01*
X9333Y4193D01*
X9317Y4164D01*
X9304Y4134D01*
X9295Y4102D01*
X9289Y4069D01*
X9287Y4035D01*
X9289Y4004D01*
X9283Y4001D01*
X9234Y3993D01*
X9221Y4006D01*
X9208Y4017D01*
X9193Y4026D01*
X9177Y4033D01*
X9160Y4037D01*
X9143Y4038D01*
X9082D01*
X9075Y4058D01*
X9065Y4079D01*
X9052Y4099D01*
X9036Y4116D01*
X9019Y4132D01*
X8999Y4145D01*
X8978Y4155D01*
X8956Y4163D01*
X8933Y4167D01*
X8910Y4169D01*
X8887Y4167D01*
X8864Y4163D01*
X8842Y4155D01*
X8818Y4161D01*
X8815Y4169D01*
X8810Y4183D01*
X8800Y4204D01*
X8798Y4207D01*
X8798Y4207D01*
X8822Y4251D01*
X9034D01*
Y4450D01*
X9790D01*
X9810Y4451D01*
X9830Y4456D01*
X9841Y4461D01*
X9849Y4464D01*
X9867Y4475D01*
X9882Y4488D01*
X9883Y4489D01*
X9930Y4470D01*
D02*
G37*
G36*
X8924Y5192D02*
X8932Y5176D01*
X8953Y5144D01*
X8976Y5114D01*
X9001Y5086D01*
X9029Y5061D01*
X9059Y5038D01*
X9091Y5017D01*
X9125Y5000D01*
X9160Y4985D01*
X9196Y4974D01*
X9233Y4966D01*
X9271Y4961D01*
X9309Y4959D01*
X9860D01*
X9898Y4961D01*
X9935Y4966D01*
X9972Y4974D01*
X10009Y4985D01*
X10044Y5000D01*
X10077Y5017D01*
X10109Y5038D01*
X10139Y5061D01*
X10167Y5086D01*
X10183Y5087D01*
X10221Y5048D01*
X10246Y4975D01*
X10245Y4967D01*
X10227Y4958D01*
X10208Y4945D01*
X10190Y4930D01*
X10175Y4912D01*
X10165Y4899D01*
X10162Y4896D01*
X10088Y4822D01*
X10062D01*
X10042Y4820D01*
X9900D01*
X9880Y4819D01*
X9860Y4814D01*
X9849Y4809D01*
X9841Y4806D01*
X9823Y4796D01*
X9808Y4782D01*
X9736Y4710D01*
X9034D01*
Y4804D01*
X8118D01*
Y4827D01*
X7940D01*
Y4927D01*
X8118D01*
Y5032D01*
X8809D01*
Y5135D01*
X8874Y5200D01*
X8924Y5192D01*
D02*
G37*
%LPC*%
G36*
X2658Y1193D02*
X2530D01*
Y1045D01*
X2658D01*
Y1193D01*
D02*
G37*
G36*
X6937Y5986D02*
X6750D01*
Y5808D01*
X6937D01*
Y5986D01*
D02*
G37*
G36*
X2795Y704D02*
X2705Y613D01*
X2809Y508D01*
X2900Y599D01*
X2795Y704D01*
D02*
G37*
G36*
X5140Y7579D02*
X5117Y7577D01*
X5094Y7573D01*
X5072Y7565D01*
X5051Y7555D01*
X5031Y7542D01*
X5014Y7526D01*
X4998Y7509D01*
X4985Y7489D01*
X4975Y7468D01*
X4967Y7446D01*
X4963Y7423D01*
X4961Y7400D01*
X4963Y7377D01*
X4967Y7354D01*
X4975Y7332D01*
X4985Y7311D01*
X4998Y7291D01*
X5014Y7274D01*
X5031Y7258D01*
X5051Y7245D01*
X5072Y7235D01*
X5094Y7227D01*
X5117Y7223D01*
X5140Y7221D01*
X5163Y7223D01*
X5186Y7227D01*
X5208Y7235D01*
X5229Y7245D01*
X5249Y7258D01*
X5266Y7274D01*
X5282Y7291D01*
X5295Y7311D01*
X5305Y7332D01*
X5313Y7354D01*
X5317Y7377D01*
X5319Y7400D01*
X5317Y7423D01*
X5313Y7446D01*
X5305Y7468D01*
X5295Y7489D01*
X5282Y7509D01*
X5266Y7526D01*
X5249Y7542D01*
X5229Y7555D01*
X5208Y7565D01*
X5186Y7573D01*
X5163Y7577D01*
X5140Y7579D01*
D02*
G37*
G36*
X7038Y4465D02*
X6910D01*
Y4317D01*
X7038D01*
Y4465D01*
D02*
G37*
G36*
X7300Y1923D02*
X7172D01*
Y1775D01*
X7300D01*
Y1923D01*
D02*
G37*
G36*
X7528D02*
X7400D01*
Y1775D01*
X7528D01*
Y1923D01*
D02*
G37*
G36*
X6760Y2443D02*
X6632D01*
Y2295D01*
X6760D01*
Y2443D01*
D02*
G37*
G36*
X2020Y5125D02*
X1892D01*
Y4977D01*
X2020D01*
Y5125D01*
D02*
G37*
G36*
X2930Y1763D02*
X2802D01*
Y1615D01*
X2930D01*
Y1763D01*
D02*
G37*
G36*
X3158D02*
X3030D01*
Y1615D01*
X3158D01*
Y1763D01*
D02*
G37*
%LPD*%
D10*
X7545Y597D02*
D03*
X6975D02*
D03*
Y263D02*
D03*
X7545D02*
D03*
D11*
X4663Y577D02*
D03*
Y243D02*
D03*
X4997D02*
D03*
Y577D02*
D03*
D12*
X7597Y5220D02*
D03*
Y5968D02*
D03*
X8444D02*
D03*
Y5594D02*
D03*
D13*
X8444Y5220D02*
D03*
D14*
X5310Y1962D02*
D03*
Y978D02*
D03*
D15*
X3209Y948D02*
D03*
X3598Y558D02*
D03*
X3682Y1422D02*
D03*
X4072Y1032D02*
D03*
D16*
X4270Y3730D02*
D03*
D17*
X5136Y2539D02*
D03*
X4979D02*
D03*
X4821D02*
D03*
X4664D02*
D03*
X4506D02*
D03*
X4349D02*
D03*
X4191D02*
D03*
X4034D02*
D03*
X3876D02*
D03*
X3719D02*
D03*
X3561D02*
D03*
X3404D02*
D03*
Y4921D02*
D03*
X3561D02*
D03*
X3719D02*
D03*
X3876D02*
D03*
X4034D02*
D03*
X4191D02*
D03*
X4349D02*
D03*
X4506D02*
D03*
X4664D02*
D03*
X4821D02*
D03*
X4979D02*
D03*
X5136D02*
D03*
D18*
X3079Y2864D02*
D03*
Y3021D02*
D03*
Y3179D02*
D03*
Y3336D02*
D03*
Y3494D02*
D03*
Y3651D02*
D03*
Y3809D02*
D03*
Y3966D02*
D03*
Y4124D02*
D03*
Y4281D02*
D03*
Y4439D02*
D03*
Y4596D02*
D03*
X5461D02*
D03*
Y4439D02*
D03*
Y4281D02*
D03*
Y4124D02*
D03*
Y3966D02*
D03*
Y3809D02*
D03*
Y3651D02*
D03*
Y3494D02*
D03*
Y3336D02*
D03*
Y3179D02*
D03*
Y3021D02*
D03*
Y2864D02*
D03*
D19*
X7460Y3690D02*
D03*
D20*
X1907Y1640D02*
D03*
X1513D02*
D03*
X5173Y5860D02*
D03*
X5567D02*
D03*
X3057Y5560D02*
D03*
X2663D02*
D03*
X3057Y5250D02*
D03*
X2663D02*
D03*
X2663Y5860D02*
D03*
X3057D02*
D03*
D21*
X6270Y1137D02*
D03*
Y743D02*
D03*
X6570Y1137D02*
D03*
Y743D02*
D03*
X5920Y5593D02*
D03*
Y5987D02*
D03*
D22*
X1897Y1230D02*
D03*
X1523D02*
D03*
D23*
X2480Y2337D02*
D03*
Y1963D02*
D03*
X2200Y4207D02*
D03*
Y3833D02*
D03*
X2480Y3757D02*
D03*
Y3383D02*
D03*
D24*
X7270Y8030D02*
D03*
X2000Y470D02*
D03*
D25*
X7290Y4353D02*
D03*
Y4747D02*
D03*
X6810Y2887D02*
D03*
Y2493D02*
D03*
X7350Y2367D02*
D03*
Y1973D02*
D03*
X7090Y3187D02*
D03*
Y2793D02*
D03*
X6590Y3713D02*
D03*
Y4107D02*
D03*
X6860Y3873D02*
D03*
Y4267D02*
D03*
X7940Y4483D02*
D03*
Y4877D02*
D03*
X2200Y1243D02*
D03*
Y1637D02*
D03*
X5870Y1317D02*
D03*
Y923D02*
D03*
Y1633D02*
D03*
Y2027D02*
D03*
X5790Y4747D02*
D03*
Y4354D02*
D03*
X2430Y4927D02*
D03*
Y4533D02*
D03*
X2980Y1813D02*
D03*
Y2207D02*
D03*
X5830Y2463D02*
D03*
Y2857D02*
D03*
X2480Y1243D02*
D03*
Y1637D02*
D03*
Y2663D02*
D03*
Y3057D02*
D03*
X2070Y4927D02*
D03*
Y4533D02*
D03*
D26*
X8307Y4130D02*
D03*
X7913D02*
D03*
X7923Y2400D02*
D03*
X8317D02*
D03*
X8307Y3150D02*
D03*
X7913D02*
D03*
X1773Y2640D02*
D03*
X2167D02*
D03*
D27*
X6700Y5504D02*
D03*
Y6036D02*
D03*
D28*
X4279Y1791D02*
D03*
X4001Y2069D02*
D03*
X4299Y1371D02*
D03*
X4021Y1649D02*
D03*
X2971Y599D02*
D03*
X3249Y321D02*
D03*
D29*
X8561Y4528D02*
D03*
Y3543D02*
D03*
Y2756D02*
D03*
Y1772D02*
D03*
D30*
X8307Y3150D02*
X8640D01*
X7030Y4570D02*
X7207Y4747D01*
X7290D01*
X7333Y4790D02*
X7540D01*
X7290Y4747D02*
X7333Y4790D01*
X4663Y637D02*
Y877D01*
X4640Y900D02*
X4663Y877D01*
X4997Y637D02*
X5005Y630D01*
X5300D01*
X4997Y303D02*
X5147D01*
X5230Y220D01*
X7545Y263D02*
X7653D01*
X8110Y720D01*
X8650D01*
X8670Y740D01*
X9580Y1580D02*
Y1770D01*
X9400Y1400D02*
X9580Y1580D01*
X8900Y1400D02*
X9400D01*
X8610Y1110D02*
X8900Y1400D01*
X8058Y1110D02*
X8610D01*
X7545Y597D02*
X8058Y1110D01*
X4668Y2332D02*
Y2534D01*
X4664Y2539D02*
X4668Y2534D01*
Y2332D02*
X4876Y2124D01*
X4821Y2439D02*
X5298Y1962D01*
X4876Y1466D02*
X5359Y983D01*
X4876Y1466D02*
Y2124D01*
X5370Y2037D02*
X5870D01*
X4821Y2539D02*
Y2549D01*
X5298Y1962D02*
X5310D01*
X4821Y2439D02*
Y2539D01*
X5694Y5987D02*
X5920D01*
X5567Y5860D02*
X5694Y5987D01*
X5567Y5860D02*
X5600Y5827D01*
Y5590D02*
Y5827D01*
X5480Y6750D02*
X6140Y7410D01*
X4434Y6750D02*
X5480D01*
X6810Y2887D02*
Y3110D01*
X7460Y3690D02*
X7590Y3820D01*
X8307Y4130D02*
X8610D01*
X6758Y2835D02*
X6810Y2887D01*
X6448Y2835D02*
X6758D01*
X7235Y3465D02*
X7460Y3690D01*
X7070Y3465D02*
X7235D01*
X7127Y3150D02*
X7385D01*
X7090Y3187D02*
X7127Y3150D01*
X6860Y3873D02*
X6953Y3780D01*
X7070D01*
X7290Y4353D02*
X7385Y4258D01*
Y4095D02*
Y4258D01*
X3260Y1450D02*
X3469Y1659D01*
X3561Y2319D02*
X3589Y2291D01*
X3721Y1461D02*
X3749Y1489D01*
X3682Y1422D02*
X3721Y1461D01*
Y1440D02*
Y1461D01*
X3561Y2539D02*
Y2549D01*
X3561Y2319D02*
Y2539D01*
X3721Y1440D02*
X3812D01*
X3260Y1370D02*
Y1450D01*
X3812Y1440D02*
X4021Y1649D01*
X3249Y321D02*
X3620Y692D01*
Y1010D01*
X3260Y1370D02*
X3620Y1010D01*
X5359Y933D02*
X5870D01*
X5305Y2022D02*
X5370Y2087D01*
X5810Y3465D02*
X5810Y3465D01*
X5810Y3450D02*
Y3465D01*
X8015Y2205D02*
Y2308D01*
X7923Y2400D02*
X8015Y2308D01*
X7070Y2520D02*
X7197D01*
X7350Y2367D01*
X2928Y3966D02*
X3089D01*
X2430Y4465D02*
X2928Y3966D01*
X2430Y4465D02*
Y4533D01*
X4140Y7400D02*
Y8600D01*
X5640Y7400D02*
Y8600D01*
X6140Y7410D02*
Y8590D01*
X8850Y3928D02*
X9143D01*
X9129Y2804D02*
Y3550D01*
X9035Y2710D02*
X9129Y2804D01*
X8504Y2710D02*
X9035D01*
X9143Y3928D02*
X9692Y3379D01*
Y3058D02*
Y3379D01*
X9500Y3094D02*
Y3180D01*
X8561Y3543D02*
X8615D01*
X8890Y3110D02*
Y3268D01*
X8615Y3543D02*
X8890Y3268D01*
X10306Y2380D02*
Y2444D01*
X9692Y3058D02*
X10306Y2444D01*
X10120Y1527D02*
Y2474D01*
X10076Y1483D02*
X10120Y1527D01*
X9500Y3094D02*
X10120Y2474D01*
X9050Y2440D02*
X9260Y2230D01*
Y2090D02*
Y2230D01*
Y2090D02*
X9580Y1770D01*
X3404Y2306D02*
Y2539D01*
X3469Y1659D02*
Y2241D01*
X3404Y2306D02*
X3469Y2241D01*
X3589Y1489D02*
Y2291D01*
X4210Y6974D02*
X4434Y6750D01*
X4210Y6974D02*
Y7050D01*
X4040Y5870D02*
X4230Y5680D01*
X3067Y5870D02*
X4040D01*
X4506Y4921D02*
Y5024D01*
X4460Y5070D02*
X4506Y5024D01*
X4460Y5070D02*
Y5150D01*
X4821Y4921D02*
Y5129D01*
X4800Y5150D02*
X4821Y5129D01*
X4630Y5110D02*
X4664Y5076D01*
Y4921D02*
Y5076D01*
X4821Y3179D02*
X5461D01*
D31*
X4420Y250D02*
X4655D01*
X7597Y5220D02*
X7742Y5076D01*
Y4426D02*
Y5076D01*
X7709Y4393D02*
X7742Y4426D01*
X7490Y5014D02*
X7597Y5121D01*
Y5220D01*
X7050D02*
X7597D01*
X8444Y5220D02*
X8710D01*
X8829Y5339D01*
X7850Y4393D02*
X7940Y4483D01*
X7709Y4393D02*
X7850D01*
X7370Y4420D02*
X7520Y4570D01*
X8506Y6130D02*
X9050D01*
X8444Y6068D02*
X8506Y6130D01*
X8829Y5339D02*
Y5739D01*
X9050Y5960D01*
Y6120D01*
X6716Y597D02*
X6975D01*
X6570Y743D02*
X6716Y597D01*
X6547Y263D02*
X6975D01*
X6270Y540D02*
X6547Y263D01*
X6270Y540D02*
Y743D01*
Y1137D02*
X7123D01*
X8320Y3960D02*
Y4117D01*
X7700Y3150D02*
X7913D01*
X7290Y4353D02*
X7357Y4420D01*
X7370D01*
X7004Y3250D02*
X7067Y3187D01*
X6660Y3250D02*
X7004D01*
X6550Y3360D02*
X6660Y3250D01*
X7067Y3187D02*
X7090D01*
X6550Y3360D02*
Y3673D01*
X6590Y3713D01*
X4270Y3730D02*
X4979Y4439D01*
X5090Y4550D02*
X5306Y4766D01*
X4979Y4439D02*
X5136Y4596D01*
X5448Y4784D02*
X5754D01*
X5790Y4747D01*
X9584Y906D02*
X10029D01*
X6390Y5650D02*
X6536Y5504D01*
X6700D01*
X-227Y1230D02*
Y2103D01*
Y5203D02*
X374D01*
X-227Y1230D02*
X1523D01*
X-227Y2103D02*
X932D01*
Y2913D01*
X-227D02*
X932D01*
X-227D02*
Y3693D01*
X942D01*
Y4463D01*
X-227D02*
X942D01*
X-227D02*
Y5203D01*
X6766Y5504D02*
X7050Y5220D01*
X6700Y5504D02*
X6766D01*
X6590Y3713D02*
X6755Y3548D01*
Y3465D02*
Y3548D01*
X7690Y2150D02*
Y2264D01*
X7826Y2400D01*
X7923D01*
X7110Y2220D02*
X7203D01*
X7350Y2367D01*
X9584Y5394D02*
X10060D01*
X9790Y4580D02*
X9900Y4690D01*
X8219Y4580D02*
X9790D01*
X9900Y4690D02*
X10060D01*
X9820Y3650D02*
X10060Y3890D01*
Y4690D01*
X10515Y1391D02*
Y4939D01*
X10060Y5394D02*
X10515Y4939D01*
X10029Y906D02*
X10515Y1391D01*
X10254Y4804D02*
X10316D01*
X10142Y4692D02*
X10254Y4804D01*
X10062Y4692D02*
X10142D01*
X10060Y4690D02*
X10062Y4692D01*
X1910Y1637D02*
X2480D01*
D32*
X6700Y1400D02*
X6850D01*
X6314Y1786D02*
X6700Y1400D01*
X6844Y1656D02*
X7110Y1390D01*
X6588Y1656D02*
X6844D01*
X6414Y1830D02*
X6588Y1656D01*
X3404Y4921D02*
Y5101D01*
X6244Y2481D02*
X6414Y2311D01*
X6314Y1786D02*
Y2270D01*
X6144Y2440D02*
X6314Y2270D01*
X6244Y2481D02*
Y2882D01*
X6144Y2440D02*
Y2924D01*
X6244Y2882D02*
X6414Y3052D01*
X6197Y2977D02*
X6314Y3094D01*
X6197Y2977D02*
X6197D01*
X6144Y2924D02*
X6197Y2977D01*
X6414Y1830D02*
Y2311D01*
X4710Y1390D02*
Y1605D01*
X3876Y2439D02*
X4710Y1605D01*
X3876Y2439D02*
Y2539D01*
X4030Y2427D02*
X4417Y2040D01*
X4540D01*
X4030Y2427D02*
Y2539D01*
X4328Y2270D02*
X4450D01*
X4191Y2407D02*
X4328Y2270D01*
X4191Y2407D02*
Y2539D01*
X6812Y5282D02*
X7040Y5053D01*
X6140Y5653D02*
Y6080D01*
X7040Y4900D02*
Y5053D01*
X5980Y5653D02*
X6140D01*
X5920Y5593D02*
X5980Y5653D01*
X6718Y5182D02*
X6830Y5070D01*
X5781Y5400D02*
X6252D01*
X5764Y5417D02*
X5781Y5400D01*
X5528Y5417D02*
X5764D01*
X5173Y5860D02*
X5393Y6080D01*
X5470D01*
X6830Y4770D02*
Y5070D01*
X5739Y5300D02*
X6210D01*
X5723Y5317D02*
X5739Y5300D01*
X5487Y5317D02*
X5723D01*
X5127Y5677D02*
X5487Y5317D01*
X6252Y5400D02*
X6470Y5182D01*
X6210Y5300D02*
X6530Y4980D01*
X6590D01*
X6140Y5653D02*
X6511Y5282D01*
X6812D01*
X6470Y5182D02*
X6718D01*
X6400Y4830D02*
X6470Y4760D01*
X6400Y4830D02*
Y4969D01*
X6169Y5200D02*
X6400Y4969D01*
X5698Y5200D02*
X6169D01*
X5681Y5217D02*
X5698Y5200D01*
X5445Y5217D02*
X5681D01*
X3057Y5250D02*
X3254D01*
X3404Y5101D01*
X5085Y5577D02*
X5445Y5217D01*
X6575Y4995D02*
X6590Y4980D01*
X6575Y4995D02*
Y5004D01*
X6297Y4688D02*
X6414Y4571D01*
X6297Y4688D02*
Y4931D01*
X6127Y5100D02*
X6297Y4931D01*
X5656Y5100D02*
X6127D01*
X5640Y5117D02*
X5656Y5100D01*
X5404Y5117D02*
X5640D01*
X6197Y4647D02*
X6314Y4529D01*
X6197Y4647D02*
Y4889D01*
X6086Y5000D02*
X6197Y4889D01*
X5379Y5000D02*
X6086D01*
X3057Y5560D02*
X3150Y5467D01*
X3557D01*
X3720Y5630D01*
X6414Y3052D02*
Y4571D01*
X6314Y3094D02*
Y4529D01*
X3404Y5101D02*
X3780Y5476D01*
X3561Y4921D02*
Y5117D01*
X4796Y6124D02*
X4940Y5980D01*
X2927Y6124D02*
X4796D01*
X2663Y5860D02*
X2927Y6124D01*
X4940Y5980D02*
X4980Y5940D01*
X3780Y5476D02*
X3790Y5487D01*
X3561Y5117D02*
X3831Y5387D01*
X5173Y5772D02*
X5528Y5417D01*
X5173Y5772D02*
Y5860D01*
X4980Y5721D02*
Y5940D01*
X4735Y5995D02*
X4880Y5850D01*
Y5679D02*
Y5850D01*
X4979Y4921D02*
Y5251D01*
X4285Y5165D02*
X4407Y5287D01*
X4954Y5276D02*
X4979Y5251D01*
X4407Y5287D02*
X4841D01*
X5003Y5376D02*
X5379Y5000D01*
X3831Y5387D02*
X4882D01*
X5044Y5476D02*
X5404Y5117D01*
X3790Y5487D02*
X4923D01*
X4980Y5721D02*
X5024Y5677D01*
X5127D01*
X4880Y5679D02*
X4983Y5577D01*
X5085D01*
X4923Y5487D02*
X4934Y5476D01*
X5044D01*
X4882Y5387D02*
X4892Y5376D01*
X5003D01*
X4841Y5287D02*
X4851Y5276D01*
X4954D01*
D33*
X3876Y3336D02*
X4270Y3730D01*
X3719Y3179D02*
X3876Y3336D01*
X3079D02*
X3876D01*
X3079Y3179D02*
X3719D01*
X5136Y4921D02*
X5231D01*
X5368Y4784D01*
X5448D01*
X5136Y4596D02*
Y4921D01*
X2902Y3809D02*
X3089D01*
X2504Y4207D02*
X2902Y3809D01*
X2150Y4257D02*
X2200Y4207D01*
X2150Y4257D02*
Y4533D01*
X2200Y4207D02*
X2504D01*
X3719Y2351D02*
X4001Y2069D01*
X3719Y2351D02*
Y2549D01*
D34*
X5584Y4596D02*
X6030Y4150D01*
X5461Y4596D02*
X5584D01*
X5830Y2800D02*
Y2814D01*
X2980Y2207D02*
X3107Y2080D01*
X3250D01*
X3089Y2316D02*
Y3021D01*
X2980Y2207D02*
X3089Y2316D01*
X5830Y2864D02*
X6015Y2679D01*
X5461Y2864D02*
X5830D01*
D35*
X1523Y1230D02*
Y1630D01*
X1513Y1640D02*
X1523Y1630D01*
X2480Y2337D02*
Y2663D01*
X2137Y2660D02*
X2477D01*
X2586Y3651D02*
X3089D01*
X2591Y3494D02*
X3089D01*
X2480Y3047D02*
Y3383D01*
X2404Y3833D02*
X2586Y3651D01*
X2480Y3383D02*
X2591Y3494D01*
X2200Y3833D02*
X2404D01*
X2480Y1637D02*
Y1963D01*
D36*
X3640Y8000D02*
D03*
X6640Y7600D02*
D03*
Y8400D02*
D03*
D37*
X9584Y5394D02*
D03*
Y906D02*
D03*
D38*
Y4035D02*
D03*
Y2264D02*
D03*
D39*
X4220Y6369D02*
D03*
X6020D02*
D03*
X6380D02*
D03*
X5300D02*
D03*
X5660D02*
D03*
X4580D02*
D03*
X4940D02*
D03*
X3860D02*
D03*
D40*
X3561Y4439D02*
D03*
X4034D02*
D03*
X4506D02*
D03*
X4979D02*
D03*
X3561Y3966D02*
D03*
X4034D02*
D03*
X4506D02*
D03*
X3561Y3494D02*
D03*
X4034D02*
D03*
X4506D02*
D03*
X4979D02*
D03*
X3561Y3021D02*
D03*
X4034D02*
D03*
X4506D02*
D03*
X4420Y250D02*
D03*
X7540Y4790D02*
D03*
X7709Y4393D02*
D03*
X4640Y900D02*
D03*
X5230Y220D02*
D03*
X5300Y630D02*
D03*
X8670Y740D02*
D03*
X7123Y1137D02*
D03*
X6850Y1400D02*
D03*
X7110Y1390D02*
D03*
X4710D02*
D03*
X4540Y2040D02*
D03*
X6240Y1480D02*
D03*
X4470Y6970D02*
D03*
X6200Y6900D02*
D03*
X4950Y6990D02*
D03*
X4230Y5680D02*
D03*
X7870Y200D02*
D03*
X7385Y4095D02*
D03*
X7069Y4094D02*
D03*
X6448Y2835D02*
D03*
X6124Y2204D02*
D03*
X8380Y1420D02*
D03*
X8640Y3150D02*
D03*
X7810Y1420D02*
D03*
X7350Y5610D02*
D03*
X6470Y4760D02*
D03*
X6830Y4770D02*
D03*
X5330Y2660D02*
D03*
X3140Y4840D02*
D03*
X2750Y4950D02*
D03*
X2160Y5870D02*
D03*
X8670Y4890D02*
D03*
X9870Y3160D02*
D03*
X9360Y1730D02*
D03*
X10474Y1050D02*
D03*
X5910Y610D02*
D03*
X5480Y250D02*
D03*
X4460Y1580D02*
D03*
X4390Y750D02*
D03*
X4510Y1180D02*
D03*
X3930Y250D02*
D03*
X2860Y240D02*
D03*
X2710Y820D02*
D03*
X1760Y960D02*
D03*
X2980Y1500D02*
D03*
X3260Y1800D02*
D03*
X6755Y3465D02*
D03*
X7384Y2834D02*
D03*
X7385Y3150D02*
D03*
X10076Y1483D02*
D03*
X10306Y2380D02*
D03*
X6370Y6120D02*
D03*
X5448Y4784D02*
D03*
X6124Y1889D02*
D03*
X7380Y1410D02*
D03*
X7700Y3150D02*
D03*
X7040Y4900D02*
D03*
X9129Y3550D02*
D03*
X8015Y2205D02*
D03*
X8320Y910D02*
D03*
X8645Y4115D02*
D03*
X9050Y6120D02*
D03*
X7070Y2520D02*
D03*
X7709Y4086D02*
D03*
X7070Y3465D02*
D03*
X6134Y3456D02*
D03*
X7070Y3780D02*
D03*
X6125Y3150D02*
D03*
X2070Y5250D02*
D03*
X2380D02*
D03*
X6530Y7980D02*
D03*
X3550Y8490D02*
D03*
Y7510D02*
D03*
X5140Y7400D02*
D03*
X4140Y7400D02*
D03*
X4640Y8600D02*
D03*
X4140D02*
D03*
X5140D02*
D03*
X5640D02*
D03*
X3830Y7470D02*
D03*
X5640Y7400D02*
D03*
X6140Y8590D02*
D03*
X8910Y3990D02*
D03*
X9260Y4250D02*
D03*
X9500Y3180D02*
D03*
X9820Y3650D02*
D03*
X10316Y4804D02*
D03*
X10060Y4890D02*
D03*
X8890Y3110D02*
D03*
X9770Y1780D02*
D03*
X9060Y2170D02*
D03*
X8760Y2360D02*
D03*
X9050Y2440D02*
D03*
X1740Y2990D02*
D03*
X4450Y2270D02*
D03*
X5600Y5590D02*
D03*
X3720Y5690D02*
D03*
X6575Y5004D02*
D03*
X4210Y7050D02*
D03*
X3470Y5640D02*
D03*
X6140Y3760D02*
D03*
X4700Y5660D02*
D03*
X5810Y3470D02*
D03*
X5810Y4087D02*
D03*
X3350Y5910D02*
D03*
X3940Y5200D02*
D03*
D41*
X7370Y1700D02*
D03*
X6710Y1790D02*
D03*
X6910Y2170D02*
D03*
X6560Y2490D02*
D03*
X8320Y3960D02*
D03*
X7030Y4570D02*
D03*
X8070Y3140D02*
D03*
X7520Y4570D02*
D03*
X6800Y3090D02*
D03*
X7490Y5014D02*
D03*
X9290Y2810D02*
D03*
X6660Y4580D02*
D03*
X6390Y5650D02*
D03*
X6010Y2674D02*
D03*
X4940Y5980D02*
D03*
X5470Y6080D02*
D03*
X6140D02*
D03*
X6020Y4140D02*
D03*
X3250Y2080D02*
D03*
X6550Y3360D02*
D03*
X7690Y2150D02*
D03*
X7110Y2220D02*
D03*
X4730Y5990D02*
D03*
X4460Y5150D02*
D03*
X4630D02*
D03*
X4290D02*
D03*
X4800D02*
D03*
M02*
