%FSLAX24Y24*%
%MOIN*%
G70*
G01*
G75*
G04 Layer_Color=8388736*
%ADD10R,0.0335X0.0256*%
%ADD11R,0.0177X0.0177*%
%ADD12R,0.0571X0.0217*%
%ADD13R,0.0571X0.0217*%
%ADD14R,0.0709X0.0394*%
G04:AMPARAMS|DCode=15|XSize=47.2mil|YSize=43.3mil|CornerRadius=0mil|HoleSize=0mil|Usage=FLASHONLY|Rotation=45.000|XOffset=0mil|YOffset=0mil|HoleType=Round|Shape=Rectangle|*
%AMROTATEDRECTD15*
4,1,4,-0.0014,-0.0320,-0.0320,-0.0014,0.0014,0.0320,0.0320,0.0014,-0.0014,-0.0320,0.0*
%
%ADD15ROTATEDRECTD15*%

%ADD16R,0.1850X0.1850*%
%ADD17O,0.0079X0.0256*%
%ADD18O,0.0256X0.0079*%
%ADD19R,0.0394X0.0394*%
%ADD20R,0.0236X0.0217*%
%ADD21R,0.0217X0.0236*%
%ADD22R,0.0256X0.0197*%
%ADD23R,0.0197X0.0256*%
%ADD24C,0.0394*%
%ADD25R,0.0197X0.0236*%
%ADD26R,0.0236X0.0197*%
%ADD27R,0.0315X0.0295*%
G04:AMPARAMS|DCode=28|XSize=19.7mil|YSize=23.6mil|CornerRadius=0mil|HoleSize=0mil|Usage=FLASHONLY|Rotation=45.000|XOffset=0mil|YOffset=0mil|HoleType=Round|Shape=Rectangle|*
%AMROTATEDRECTD28*
4,1,4,0.0014,-0.0153,-0.0153,0.0014,-0.0014,0.0153,0.0153,-0.0014,0.0014,-0.0153,0.0*
%
%ADD28ROTATEDRECTD28*%

%ADD29R,0.0787X0.0394*%
%ADD30C,0.0060*%
%ADD31C,0.0100*%
%ADD32C,0.0050*%
%ADD33C,0.0080*%
%ADD34C,0.0070*%
%ADD35C,0.0090*%
%ADD36C,0.0390*%
%ADD37O,0.1260X0.0709*%
%ADD38C,0.0433*%
%ADD39C,0.0200*%
%ADD40C,0.0197*%
%ADD41C,0.0118*%
%ADD42R,0.0472X0.0433*%
%ADD43C,0.0138*%
%ADD44C,0.0310*%
%ADD45R,0.0236X0.0335*%
%ADD46R,0.0394X0.0335*%
%ADD47R,0.0295X0.0315*%
%ADD48C,0.0039*%
%ADD49C,0.0098*%
%ADD50C,0.0059*%
%ADD51C,0.0079*%
%ADD52R,0.0395X0.0316*%
%ADD53R,0.0237X0.0237*%
%ADD54R,0.0631X0.0277*%
%ADD55R,0.0631X0.0277*%
%ADD56R,0.0769X0.0454*%
G04:AMPARAMS|DCode=57|XSize=53.2mil|YSize=49.3mil|CornerRadius=0mil|HoleSize=0mil|Usage=FLASHONLY|Rotation=45.000|XOffset=0mil|YOffset=0mil|HoleType=Round|Shape=Rectangle|*
%AMROTATEDRECTD57*
4,1,4,-0.0014,-0.0363,-0.0363,-0.0014,0.0014,0.0363,0.0363,0.0014,-0.0014,-0.0363,0.0*
%
%ADD57ROTATEDRECTD57*%

%ADD58R,0.1910X0.1910*%
%ADD59O,0.0139X0.0316*%
%ADD60O,0.0316X0.0139*%
%ADD61R,0.0296X0.0277*%
%ADD62R,0.0277X0.0296*%
%ADD63R,0.0316X0.0257*%
%ADD64R,0.0257X0.0316*%
%ADD65C,0.0787*%
%ADD66R,0.0257X0.0296*%
%ADD67R,0.0296X0.0257*%
%ADD68R,0.0375X0.0355*%
G04:AMPARAMS|DCode=69|XSize=25.7mil|YSize=29.6mil|CornerRadius=0mil|HoleSize=0mil|Usage=FLASHONLY|Rotation=45.000|XOffset=0mil|YOffset=0mil|HoleType=Round|Shape=Rectangle|*
%AMROTATEDRECTD69*
4,1,4,0.0014,-0.0196,-0.0196,0.0014,-0.0014,0.0196,0.0196,-0.0014,0.0014,-0.0196,0.0*
%
%ADD69ROTATEDRECTD69*%

%ADD70R,0.0847X0.0454*%
%ADD71C,0.0450*%
%ADD72O,0.1320X0.0769*%
%ADD73C,0.0493*%
D52*
X7545Y597D02*
D03*
X6975D02*
D03*
Y263D02*
D03*
X7545D02*
D03*
D53*
X4663Y577D02*
D03*
Y243D02*
D03*
X4997D02*
D03*
Y577D02*
D03*
D54*
X7597Y5220D02*
D03*
Y5968D02*
D03*
X8444D02*
D03*
Y5594D02*
D03*
D55*
X8444Y5220D02*
D03*
D56*
X5310Y1962D02*
D03*
Y978D02*
D03*
D57*
X3209Y948D02*
D03*
X3598Y558D02*
D03*
X3682Y1422D02*
D03*
X4072Y1032D02*
D03*
D58*
X4270Y3730D02*
D03*
D59*
X5136Y2539D02*
D03*
X4979D02*
D03*
X4821D02*
D03*
X4664D02*
D03*
X4506D02*
D03*
X4349D02*
D03*
X4191D02*
D03*
X4034D02*
D03*
X3876D02*
D03*
X3719D02*
D03*
X3561D02*
D03*
X3404D02*
D03*
Y4921D02*
D03*
X3561D02*
D03*
X3719D02*
D03*
X3876D02*
D03*
X4034D02*
D03*
X4191D02*
D03*
X4349D02*
D03*
X4506D02*
D03*
X4664D02*
D03*
X4821D02*
D03*
X4979D02*
D03*
X5136D02*
D03*
D60*
X3079Y2864D02*
D03*
Y3021D02*
D03*
Y3179D02*
D03*
Y3336D02*
D03*
Y3494D02*
D03*
Y3651D02*
D03*
Y3809D02*
D03*
Y3966D02*
D03*
Y4124D02*
D03*
Y4281D02*
D03*
Y4439D02*
D03*
Y4596D02*
D03*
X5461D02*
D03*
Y4439D02*
D03*
Y4281D02*
D03*
Y4124D02*
D03*
Y3966D02*
D03*
Y3809D02*
D03*
Y3651D02*
D03*
Y3494D02*
D03*
Y3336D02*
D03*
Y3179D02*
D03*
Y3021D02*
D03*
Y2864D02*
D03*
D61*
X1907Y1640D02*
D03*
X1513D02*
D03*
X5173Y5860D02*
D03*
X5567D02*
D03*
X3057Y5560D02*
D03*
X2663D02*
D03*
X3057Y5250D02*
D03*
X2663D02*
D03*
X2663Y5860D02*
D03*
X3057D02*
D03*
D62*
X6270Y1137D02*
D03*
Y743D02*
D03*
X6570Y1137D02*
D03*
Y743D02*
D03*
X5920Y5593D02*
D03*
Y5987D02*
D03*
D63*
X1897Y1230D02*
D03*
X1523D02*
D03*
D64*
X2480Y2337D02*
D03*
Y1963D02*
D03*
X2200Y4207D02*
D03*
Y3833D02*
D03*
X2480Y3757D02*
D03*
Y3383D02*
D03*
D65*
X7270Y8030D02*
D03*
X2000Y470D02*
D03*
D66*
X7290Y4353D02*
D03*
Y4747D02*
D03*
X6810Y2887D02*
D03*
Y2493D02*
D03*
X7350Y2367D02*
D03*
Y1973D02*
D03*
X7090Y3187D02*
D03*
Y2793D02*
D03*
X6590Y3713D02*
D03*
Y4107D02*
D03*
X6860Y3873D02*
D03*
Y4267D02*
D03*
X7940Y4483D02*
D03*
Y4877D02*
D03*
X2200Y1243D02*
D03*
Y1637D02*
D03*
X5870Y1317D02*
D03*
Y923D02*
D03*
Y1633D02*
D03*
Y2027D02*
D03*
X5790Y4747D02*
D03*
Y4354D02*
D03*
X2430Y4927D02*
D03*
Y4533D02*
D03*
X2980Y1813D02*
D03*
Y2207D02*
D03*
X5830Y2463D02*
D03*
Y2857D02*
D03*
X2480Y1243D02*
D03*
Y1637D02*
D03*
Y2663D02*
D03*
Y3057D02*
D03*
X2070Y4927D02*
D03*
Y4533D02*
D03*
D67*
X8307Y4130D02*
D03*
X7913D02*
D03*
X7923Y2400D02*
D03*
X8317D02*
D03*
X8307Y3150D02*
D03*
X7913D02*
D03*
X1773Y2640D02*
D03*
X2167D02*
D03*
D68*
X6700Y5504D02*
D03*
Y6036D02*
D03*
D69*
X4279Y1791D02*
D03*
X4001Y2069D02*
D03*
X4299Y1371D02*
D03*
X4021Y1649D02*
D03*
X2971Y599D02*
D03*
X3249Y321D02*
D03*
D70*
X8561Y4528D02*
D03*
Y3543D02*
D03*
Y2756D02*
D03*
Y1772D02*
D03*
D71*
X3640Y8000D02*
D03*
X6640Y7600D02*
D03*
Y8400D02*
D03*
D72*
X9584Y5394D02*
D03*
Y906D02*
D03*
D73*
Y4035D02*
D03*
Y2264D02*
D03*
M02*
