%FSLAX24Y24*%
%MOIN*%
G70*
G01*
G75*
G04 Layer_Color=32896*
%ADD10R,0.0335X0.0256*%
%ADD11R,0.0177X0.0177*%
%ADD12R,0.0571X0.0217*%
%ADD13R,0.0571X0.0217*%
%ADD14R,0.0709X0.0394*%
G04:AMPARAMS|DCode=15|XSize=47.2mil|YSize=43.3mil|CornerRadius=0mil|HoleSize=0mil|Usage=FLASHONLY|Rotation=45.000|XOffset=0mil|YOffset=0mil|HoleType=Round|Shape=Rectangle|*
%AMROTATEDRECTD15*
4,1,4,-0.0014,-0.0320,-0.0320,-0.0014,0.0014,0.0320,0.0320,0.0014,-0.0014,-0.0320,0.0*
%
%ADD15ROTATEDRECTD15*%

%ADD16R,0.1850X0.1850*%
%ADD17O,0.0079X0.0256*%
%ADD18O,0.0256X0.0079*%
%ADD19R,0.0394X0.0394*%
%ADD20R,0.0236X0.0217*%
%ADD21R,0.0217X0.0236*%
%ADD22R,0.0256X0.0197*%
%ADD23R,0.0197X0.0256*%
%ADD24C,0.0394*%
%ADD25R,0.0197X0.0236*%
%ADD26R,0.0236X0.0197*%
%ADD27R,0.0315X0.0295*%
G04:AMPARAMS|DCode=28|XSize=19.7mil|YSize=23.6mil|CornerRadius=0mil|HoleSize=0mil|Usage=FLASHONLY|Rotation=45.000|XOffset=0mil|YOffset=0mil|HoleType=Round|Shape=Rectangle|*
%AMROTATEDRECTD28*
4,1,4,0.0014,-0.0153,-0.0153,0.0014,-0.0014,0.0153,0.0153,-0.0014,0.0014,-0.0153,0.0*
%
%ADD28ROTATEDRECTD28*%

%ADD29R,0.0787X0.0394*%
%ADD30C,0.0060*%
%ADD31C,0.0100*%
%ADD32C,0.0050*%
%ADD33C,0.0080*%
%ADD34C,0.0070*%
%ADD35C,0.0090*%
%ADD36C,0.0390*%
%ADD37O,0.1260X0.0709*%
%ADD38C,0.0433*%
%ADD39C,0.0200*%
%ADD40C,0.0197*%
%ADD41C,0.0118*%
%ADD42R,0.0472X0.0433*%
%ADD43C,0.0138*%
%ADD44C,0.0310*%
%ADD45R,0.0236X0.0335*%
%ADD46R,0.0394X0.0335*%
%ADD47R,0.0295X0.0315*%
%ADD48C,0.0039*%
%ADD49C,0.0098*%
%ADD50C,0.0059*%
%ADD51C,0.0079*%
%ADD52R,0.0395X0.0316*%
%ADD53R,0.0237X0.0237*%
%ADD54R,0.0631X0.0277*%
%ADD55R,0.0631X0.0277*%
%ADD56R,0.0769X0.0454*%
G04:AMPARAMS|DCode=57|XSize=53.2mil|YSize=49.3mil|CornerRadius=0mil|HoleSize=0mil|Usage=FLASHONLY|Rotation=45.000|XOffset=0mil|YOffset=0mil|HoleType=Round|Shape=Rectangle|*
%AMROTATEDRECTD57*
4,1,4,-0.0014,-0.0363,-0.0363,-0.0014,0.0014,0.0363,0.0363,0.0014,-0.0014,-0.0363,0.0*
%
%ADD57ROTATEDRECTD57*%

%ADD58R,0.1910X0.1910*%
%ADD59O,0.0139X0.0316*%
%ADD60O,0.0316X0.0139*%
%ADD61R,0.0296X0.0277*%
%ADD62R,0.0277X0.0296*%
%ADD63R,0.0316X0.0257*%
%ADD64R,0.0257X0.0316*%
%ADD65C,0.0787*%
%ADD66R,0.0257X0.0296*%
%ADD67R,0.0296X0.0257*%
%ADD68R,0.0375X0.0355*%
G04:AMPARAMS|DCode=69|XSize=25.7mil|YSize=29.6mil|CornerRadius=0mil|HoleSize=0mil|Usage=FLASHONLY|Rotation=45.000|XOffset=0mil|YOffset=0mil|HoleType=Round|Shape=Rectangle|*
%AMROTATEDRECTD69*
4,1,4,0.0014,-0.0196,-0.0196,0.0014,-0.0014,0.0196,0.0196,-0.0014,0.0014,-0.0196,0.0*
%
%ADD69ROTATEDRECTD69*%

%ADD70R,0.0847X0.0454*%
%ADD71C,0.0450*%
%ADD72O,0.1320X0.0769*%
%ADD73C,0.0493*%
%ADD74R,0.0532X0.0493*%
%ADD75C,0.0198*%
%ADD76C,0.0370*%
%ADD77R,0.0296X0.0395*%
%ADD78R,0.0454X0.0395*%
%ADD79R,0.0355X0.0375*%
%ADD80C,0.0110*%
G36*
X1371Y3867D02*
X1382Y3866D01*
X1392Y3864D01*
X1402Y3861D01*
X1411Y3858D01*
X1420Y3854D01*
X1428Y3850D01*
X1435Y3846D01*
X1441Y3843D01*
X1446Y3839D01*
X1451Y3835D01*
X1455Y3832D01*
X1459Y3829D01*
X1461Y3827D01*
X1462Y3826D01*
X1462Y3825D01*
X1470Y3817D01*
X1476Y3808D01*
X1480Y3798D01*
X1485Y3788D01*
X1489Y3778D01*
X1492Y3768D01*
X1495Y3758D01*
X1497Y3749D01*
X1499Y3740D01*
X1500Y3732D01*
X1501Y3724D01*
X1501Y3718D01*
Y3713D01*
X1502Y3708D01*
Y3706D01*
Y3705D01*
X1501Y3691D01*
X1500Y3679D01*
X1498Y3667D01*
X1496Y3656D01*
X1493Y3646D01*
X1490Y3636D01*
X1486Y3628D01*
X1482Y3619D01*
X1479Y3613D01*
X1475Y3607D01*
X1472Y3602D01*
X1469Y3597D01*
X1467Y3594D01*
X1465Y3592D01*
X1463Y3590D01*
X1463Y3590D01*
X1455Y3582D01*
X1447Y3576D01*
X1438Y3570D01*
X1429Y3566D01*
X1421Y3562D01*
X1412Y3558D01*
X1403Y3556D01*
X1395Y3553D01*
X1387Y3552D01*
X1379Y3551D01*
X1373Y3549D01*
X1367Y3549D01*
X1363D01*
X1359Y3548D01*
X1356D01*
X1346Y3549D01*
X1337Y3549D01*
X1320Y3552D01*
X1312Y3554D01*
X1305Y3557D01*
X1298Y3559D01*
X1292Y3562D01*
X1287Y3564D01*
X1283Y3566D01*
X1278Y3568D01*
X1275Y3570D01*
X1272Y3572D01*
X1270Y3573D01*
X1269Y3574D01*
X1269D01*
X1257Y3585D01*
X1247Y3597D01*
X1239Y3609D01*
X1232Y3620D01*
X1228Y3631D01*
X1226Y3636D01*
X1225Y3640D01*
X1223Y3643D01*
X1223Y3645D01*
X1222Y3647D01*
Y3647D01*
X1276Y3655D01*
X1280Y3643D01*
X1286Y3633D01*
X1291Y3624D01*
X1296Y3618D01*
X1301Y3613D01*
X1304Y3609D01*
X1307Y3607D01*
X1308Y3606D01*
X1315Y3601D01*
X1324Y3597D01*
X1332Y3595D01*
X1339Y3593D01*
X1346Y3592D01*
X1351Y3591D01*
X1356D01*
X1363Y3592D01*
X1370Y3592D01*
X1383Y3596D01*
X1394Y3600D01*
X1403Y3604D01*
X1410Y3609D01*
X1416Y3614D01*
X1418Y3615D01*
X1419Y3617D01*
X1420Y3617D01*
X1421Y3618D01*
X1425Y3623D01*
X1429Y3629D01*
X1435Y3641D01*
X1440Y3653D01*
X1444Y3666D01*
X1446Y3677D01*
X1447Y3682D01*
X1447Y3686D01*
X1448Y3690D01*
X1449Y3692D01*
Y3694D01*
Y3695D01*
X1220D01*
X1220Y3701D01*
Y3705D01*
Y3707D01*
Y3708D01*
X1220Y3722D01*
X1221Y3735D01*
X1224Y3747D01*
X1226Y3759D01*
X1229Y3769D01*
X1232Y3779D01*
X1236Y3788D01*
X1239Y3796D01*
X1243Y3803D01*
X1247Y3809D01*
X1250Y3814D01*
X1253Y3818D01*
X1255Y3822D01*
X1257Y3824D01*
X1258Y3826D01*
X1259Y3826D01*
X1267Y3833D01*
X1274Y3840D01*
X1283Y3845D01*
X1291Y3850D01*
X1300Y3854D01*
X1308Y3857D01*
X1316Y3861D01*
X1324Y3863D01*
X1331Y3865D01*
X1338Y3866D01*
X1344Y3867D01*
X1349Y3867D01*
X1353Y3868D01*
X1359D01*
X1371Y3867D01*
D02*
G37*
G36*
X2356D02*
X2367Y3866D01*
X2378Y3864D01*
X2387Y3861D01*
X2396Y3858D01*
X2405Y3854D01*
X2413Y3850D01*
X2420Y3846D01*
X2426Y3843D01*
X2431Y3839D01*
X2436Y3835D01*
X2440Y3832D01*
X2444Y3829D01*
X2446Y3827D01*
X2447Y3826D01*
X2447Y3825D01*
X2455Y3817D01*
X2461Y3808D01*
X2466Y3798D01*
X2471Y3788D01*
X2474Y3778D01*
X2477Y3768D01*
X2480Y3758D01*
X2482Y3749D01*
X2484Y3740D01*
X2485Y3732D01*
X2486Y3724D01*
X2486Y3718D01*
Y3713D01*
X2487Y3708D01*
Y3706D01*
Y3705D01*
X2486Y3691D01*
X2485Y3679D01*
X2483Y3667D01*
X2481Y3656D01*
X2478Y3646D01*
X2475Y3636D01*
X2471Y3628D01*
X2467Y3619D01*
X2464Y3613D01*
X2460Y3607D01*
X2457Y3602D01*
X2454Y3597D01*
X2452Y3594D01*
X2450Y3592D01*
X2448Y3590D01*
X2448Y3590D01*
X2440Y3582D01*
X2432Y3576D01*
X2423Y3570D01*
X2414Y3566D01*
X2406Y3562D01*
X2397Y3558D01*
X2388Y3556D01*
X2380Y3553D01*
X2372Y3552D01*
X2364Y3551D01*
X2358Y3549D01*
X2352Y3549D01*
X2348D01*
X2344Y3548D01*
X2341D01*
X2331Y3549D01*
X2322Y3549D01*
X2305Y3552D01*
X2297Y3554D01*
X2290Y3557D01*
X2283Y3559D01*
X2277Y3562D01*
X2272Y3564D01*
X2268Y3566D01*
X2263Y3568D01*
X2260Y3570D01*
X2257Y3572D01*
X2255Y3573D01*
X2254Y3574D01*
X2254D01*
X2242Y3585D01*
X2232Y3597D01*
X2224Y3609D01*
X2218Y3620D01*
X2213Y3631D01*
X2211Y3636D01*
X2210Y3640D01*
X2208Y3643D01*
X2208Y3645D01*
X2207Y3647D01*
Y3647D01*
X2261Y3655D01*
X2265Y3643D01*
X2271Y3633D01*
X2276Y3624D01*
X2281Y3618D01*
X2286Y3613D01*
X2290Y3609D01*
X2292Y3607D01*
X2293Y3606D01*
X2301Y3601D01*
X2309Y3597D01*
X2317Y3595D01*
X2324Y3593D01*
X2331Y3592D01*
X2336Y3591D01*
X2341D01*
X2348Y3592D01*
X2355Y3592D01*
X2368Y3596D01*
X2379Y3600D01*
X2388Y3604D01*
X2395Y3609D01*
X2401Y3614D01*
X2403Y3615D01*
X2404Y3617D01*
X2405Y3617D01*
X2406Y3618D01*
X2410Y3623D01*
X2414Y3629D01*
X2420Y3641D01*
X2425Y3653D01*
X2429Y3666D01*
X2431Y3677D01*
X2432Y3682D01*
X2433Y3686D01*
X2433Y3690D01*
X2434Y3692D01*
Y3694D01*
Y3695D01*
X2205D01*
X2205Y3701D01*
Y3705D01*
Y3707D01*
Y3708D01*
X2205Y3722D01*
X2207Y3735D01*
X2209Y3747D01*
X2211Y3759D01*
X2214Y3769D01*
X2217Y3779D01*
X2221Y3788D01*
X2224Y3796D01*
X2228Y3803D01*
X2232Y3809D01*
X2235Y3814D01*
X2238Y3818D01*
X2240Y3822D01*
X2242Y3824D01*
X2243Y3826D01*
X2244Y3826D01*
X2252Y3833D01*
X2259Y3840D01*
X2268Y3845D01*
X2276Y3850D01*
X2285Y3854D01*
X2293Y3857D01*
X2301Y3861D01*
X2309Y3863D01*
X2316Y3865D01*
X2323Y3866D01*
X2329Y3867D01*
X2334Y3867D01*
X2339Y3868D01*
X2345D01*
X2356Y3867D01*
D02*
G37*
G36*
X686D02*
X699Y3865D01*
X712Y3862D01*
X723Y3859D01*
X732Y3855D01*
X736Y3854D01*
X739Y3852D01*
X741Y3851D01*
X743Y3850D01*
X744Y3849D01*
X745D01*
X756Y3842D01*
X767Y3833D01*
X775Y3823D01*
X782Y3814D01*
X787Y3806D01*
X791Y3799D01*
X793Y3797D01*
X794Y3795D01*
X795Y3794D01*
Y3793D01*
X800Y3779D01*
X804Y3764D01*
X807Y3750D01*
X808Y3736D01*
X809Y3730D01*
Y3724D01*
X810Y3719D01*
X811Y3715D01*
Y3712D01*
Y3709D01*
Y3707D01*
Y3707D01*
X810Y3693D01*
X809Y3680D01*
X807Y3668D01*
X805Y3656D01*
X802Y3646D01*
X799Y3636D01*
X795Y3627D01*
X791Y3619D01*
X788Y3612D01*
X785Y3606D01*
X781Y3601D01*
X779Y3597D01*
X776Y3593D01*
X774Y3591D01*
X773Y3590D01*
X773Y3589D01*
X765Y3582D01*
X757Y3576D01*
X749Y3570D01*
X741Y3565D01*
X733Y3562D01*
X724Y3558D01*
X716Y3556D01*
X708Y3553D01*
X701Y3552D01*
X694Y3551D01*
X688Y3549D01*
X682Y3549D01*
X678D01*
X675Y3548D01*
X672D01*
X663Y3549D01*
X654Y3549D01*
X638Y3553D01*
X624Y3558D01*
X617Y3560D01*
X611Y3563D01*
X606Y3565D01*
X601Y3568D01*
X597Y3571D01*
X594Y3573D01*
X591Y3575D01*
X589Y3576D01*
X588Y3577D01*
X588Y3578D01*
X582Y3584D01*
X576Y3590D01*
X571Y3596D01*
X566Y3603D01*
X559Y3617D01*
X553Y3630D01*
X551Y3636D01*
X549Y3642D01*
X548Y3647D01*
X546Y3651D01*
X545Y3655D01*
X545Y3658D01*
X544Y3659D01*
Y3660D01*
X596Y3667D01*
X598Y3653D01*
X602Y3642D01*
X607Y3632D01*
X611Y3624D01*
X615Y3618D01*
X619Y3613D01*
X621Y3611D01*
X622Y3609D01*
X630Y3603D01*
X638Y3599D01*
X647Y3596D01*
X655Y3593D01*
X662Y3592D01*
X668Y3592D01*
X670Y3591D01*
X673D01*
X680Y3592D01*
X686Y3592D01*
X698Y3596D01*
X709Y3600D01*
X718Y3605D01*
X725Y3610D01*
X730Y3614D01*
X733Y3618D01*
X734Y3618D01*
X734Y3619D01*
X738Y3624D01*
X742Y3631D01*
X747Y3645D01*
X752Y3659D01*
X755Y3674D01*
X755Y3681D01*
X756Y3688D01*
X757Y3693D01*
Y3699D01*
X757Y3702D01*
Y3706D01*
Y3708D01*
Y3708D01*
X757Y3719D01*
X756Y3730D01*
X755Y3739D01*
X753Y3748D01*
X752Y3756D01*
X750Y3763D01*
X747Y3769D01*
X745Y3776D01*
X743Y3780D01*
X741Y3785D01*
X739Y3789D01*
X737Y3791D01*
X735Y3794D01*
X734Y3796D01*
X733Y3796D01*
Y3797D01*
X728Y3802D01*
X723Y3806D01*
X718Y3810D01*
X713Y3813D01*
X702Y3818D01*
X692Y3822D01*
X684Y3823D01*
X680Y3824D01*
X676Y3824D01*
X674Y3825D01*
X670D01*
X660Y3824D01*
X652Y3823D01*
X645Y3820D01*
X638Y3817D01*
X633Y3814D01*
X629Y3812D01*
X626Y3810D01*
X626Y3809D01*
X619Y3802D01*
X614Y3795D01*
X610Y3788D01*
X606Y3780D01*
X603Y3774D01*
X602Y3768D01*
X600Y3766D01*
Y3765D01*
X600Y3764D01*
Y3763D01*
X549Y3771D01*
X554Y3788D01*
X560Y3802D01*
X566Y3814D01*
X574Y3824D01*
X577Y3828D01*
X580Y3832D01*
X583Y3835D01*
X586Y3838D01*
X588Y3840D01*
X589Y3842D01*
X590Y3842D01*
X591Y3843D01*
X597Y3847D01*
X603Y3851D01*
X616Y3857D01*
X630Y3862D01*
X643Y3865D01*
X649Y3866D01*
X654Y3867D01*
X659Y3867D01*
X663D01*
X667Y3868D01*
X671D01*
X686Y3867D01*
D02*
G37*
G36*
X1050D02*
X1056Y3866D01*
X1063Y3865D01*
X1067Y3863D01*
X1071Y3861D01*
X1075Y3859D01*
X1077Y3858D01*
X1077Y3857D01*
X1083Y3853D01*
X1089Y3846D01*
X1094Y3839D01*
X1099Y3832D01*
X1103Y3825D01*
X1107Y3820D01*
X1108Y3817D01*
X1109Y3816D01*
X1110Y3815D01*
Y3861D01*
X1157D01*
Y3555D01*
X1105D01*
Y3714D01*
X1104Y3727D01*
X1104Y3738D01*
X1102Y3748D01*
X1100Y3757D01*
X1099Y3765D01*
X1098Y3770D01*
X1097Y3772D01*
Y3774D01*
X1097Y3774D01*
Y3775D01*
X1094Y3782D01*
X1091Y3787D01*
X1088Y3792D01*
X1085Y3796D01*
X1082Y3799D01*
X1080Y3802D01*
X1078Y3803D01*
X1077Y3804D01*
X1072Y3807D01*
X1067Y3810D01*
X1061Y3811D01*
X1057Y3813D01*
X1053Y3813D01*
X1049Y3814D01*
X1047D01*
X1039Y3813D01*
X1032Y3812D01*
X1026Y3811D01*
X1020Y3809D01*
X1015Y3806D01*
X1011Y3805D01*
X1009Y3804D01*
X1008Y3803D01*
X990Y3851D01*
X1000Y3856D01*
X1010Y3861D01*
X1019Y3864D01*
X1027Y3866D01*
X1034Y3867D01*
X1039Y3868D01*
X1044D01*
X1050Y3867D01*
D02*
G37*
G36*
X2914Y3555D02*
X2854D01*
Y3614D01*
X2914D01*
Y3555D01*
D02*
G37*
G36*
X3300D02*
X3246D01*
X3184Y3790D01*
X3172Y3738D01*
X3123Y3555D01*
X3069D01*
X2973Y3861D01*
X3024D01*
X3077Y3684D01*
X3094Y3625D01*
X3109Y3683D01*
X3155Y3861D01*
X3209D01*
X3257Y3681D01*
X3260Y3671D01*
X3262Y3662D01*
X3264Y3654D01*
X3266Y3647D01*
X3267Y3641D01*
X3269Y3636D01*
X3270Y3631D01*
X3271Y3628D01*
X3271Y3625D01*
X3272Y3623D01*
X3272Y3620D01*
X3273Y3619D01*
Y3618D01*
X3291Y3684D01*
X3340Y3861D01*
X3393D01*
X3300Y3555D01*
D02*
G37*
G36*
X1715Y3867D02*
X1729Y3865D01*
X1741Y3861D01*
X1751Y3858D01*
X1760Y3854D01*
X1763Y3853D01*
X1766Y3851D01*
X1768Y3849D01*
X1770Y3849D01*
X1771Y3848D01*
X1771D01*
X1782Y3839D01*
X1791Y3830D01*
X1799Y3821D01*
X1806Y3811D01*
X1811Y3803D01*
X1813Y3800D01*
X1814Y3796D01*
X1815Y3794D01*
X1817Y3792D01*
X1817Y3791D01*
Y3790D01*
X1823Y3776D01*
X1826Y3762D01*
X1829Y3749D01*
X1831Y3736D01*
X1832Y3730D01*
Y3725D01*
X1832Y3721D01*
X1833Y3717D01*
Y3714D01*
Y3712D01*
Y3710D01*
Y3710D01*
X1832Y3698D01*
X1831Y3686D01*
X1830Y3676D01*
X1828Y3666D01*
X1825Y3656D01*
X1822Y3647D01*
X1819Y3639D01*
X1815Y3631D01*
X1813Y3624D01*
X1809Y3618D01*
X1807Y3613D01*
X1804Y3608D01*
X1802Y3604D01*
X1800Y3602D01*
X1799Y3601D01*
X1798Y3600D01*
X1792Y3592D01*
X1784Y3585D01*
X1776Y3579D01*
X1769Y3574D01*
X1760Y3570D01*
X1752Y3566D01*
X1744Y3563D01*
X1736Y3560D01*
X1729Y3559D01*
X1723Y3557D01*
X1716Y3557D01*
X1711Y3556D01*
X1707D01*
X1703Y3555D01*
X1700D01*
X1691Y3556D01*
X1682Y3557D01*
X1674Y3559D01*
X1666Y3561D01*
X1652Y3568D01*
X1645Y3571D01*
X1639Y3575D01*
X1634Y3579D01*
X1629Y3582D01*
X1625Y3586D01*
X1622Y3589D01*
X1619Y3591D01*
X1617Y3593D01*
X1616Y3595D01*
X1616Y3595D01*
Y3586D01*
Y3578D01*
Y3570D01*
X1616Y3564D01*
Y3558D01*
X1617Y3552D01*
Y3547D01*
X1617Y3543D01*
X1618Y3540D01*
Y3537D01*
X1619Y3532D01*
X1620Y3530D01*
Y3529D01*
X1622Y3520D01*
X1627Y3512D01*
X1631Y3505D01*
X1635Y3499D01*
X1639Y3495D01*
X1643Y3492D01*
X1645Y3490D01*
X1646Y3489D01*
X1654Y3484D01*
X1663Y3480D01*
X1672Y3478D01*
X1681Y3476D01*
X1690Y3475D01*
X1696Y3474D01*
X1702D01*
X1714Y3475D01*
X1724Y3476D01*
X1733Y3479D01*
X1741Y3482D01*
X1747Y3484D01*
X1751Y3487D01*
X1753Y3488D01*
X1754Y3489D01*
X1759Y3493D01*
X1763Y3499D01*
X1767Y3504D01*
X1769Y3510D01*
X1770Y3515D01*
X1771Y3519D01*
X1772Y3522D01*
Y3523D01*
X1823Y3530D01*
Y3521D01*
X1822Y3513D01*
X1820Y3505D01*
X1818Y3498D01*
X1815Y3491D01*
X1813Y3485D01*
X1810Y3480D01*
X1807Y3475D01*
X1804Y3470D01*
X1801Y3466D01*
X1798Y3463D01*
X1795Y3460D01*
X1793Y3459D01*
X1792Y3457D01*
X1791Y3457D01*
X1790Y3456D01*
X1784Y3452D01*
X1776Y3448D01*
X1762Y3442D01*
X1747Y3437D01*
X1733Y3435D01*
X1726Y3433D01*
X1721Y3432D01*
X1715Y3432D01*
X1710D01*
X1707Y3431D01*
X1702D01*
X1685Y3432D01*
X1670Y3434D01*
X1656Y3437D01*
X1646Y3440D01*
X1641Y3442D01*
X1636Y3443D01*
X1633Y3445D01*
X1630Y3446D01*
X1627Y3447D01*
X1626Y3448D01*
X1625Y3449D01*
X1624D01*
X1613Y3456D01*
X1603Y3464D01*
X1595Y3471D01*
X1589Y3479D01*
X1584Y3486D01*
X1581Y3491D01*
X1579Y3493D01*
X1578Y3495D01*
X1578Y3496D01*
Y3496D01*
X1575Y3502D01*
X1573Y3509D01*
X1571Y3516D01*
X1569Y3524D01*
X1567Y3541D01*
X1565Y3558D01*
X1564Y3565D01*
X1564Y3573D01*
Y3579D01*
X1563Y3585D01*
Y3590D01*
Y3593D01*
Y3596D01*
Y3597D01*
Y3861D01*
X1611D01*
Y3823D01*
X1617Y3831D01*
X1625Y3838D01*
X1632Y3844D01*
X1639Y3849D01*
X1647Y3854D01*
X1655Y3857D01*
X1662Y3860D01*
X1669Y3862D01*
X1675Y3864D01*
X1681Y3866D01*
X1687Y3867D01*
X1691Y3867D01*
X1695D01*
X1698Y3868D01*
X1700D01*
X1715Y3867D01*
D02*
G37*
G36*
X2044D02*
X2057Y3865D01*
X2069Y3861D01*
X2079Y3858D01*
X2088Y3854D01*
X2092Y3853D01*
X2094Y3851D01*
X2096Y3849D01*
X2098Y3849D01*
X2099Y3848D01*
X2100D01*
X2110Y3839D01*
X2120Y3830D01*
X2127Y3821D01*
X2134Y3811D01*
X2139Y3803D01*
X2141Y3800D01*
X2143Y3796D01*
X2144Y3794D01*
X2145Y3792D01*
X2145Y3791D01*
Y3790D01*
X2151Y3776D01*
X2155Y3762D01*
X2158Y3749D01*
X2159Y3736D01*
X2160Y3730D01*
Y3725D01*
X2161Y3721D01*
X2161Y3717D01*
Y3714D01*
Y3712D01*
Y3710D01*
Y3710D01*
X2161Y3698D01*
X2160Y3686D01*
X2158Y3676D01*
X2156Y3666D01*
X2153Y3656D01*
X2150Y3647D01*
X2147Y3639D01*
X2144Y3631D01*
X2141Y3624D01*
X2138Y3618D01*
X2135Y3613D01*
X2132Y3608D01*
X2130Y3604D01*
X2128Y3602D01*
X2127Y3601D01*
X2127Y3600D01*
X2120Y3592D01*
X2112Y3585D01*
X2105Y3579D01*
X2097Y3574D01*
X2089Y3570D01*
X2081Y3566D01*
X2072Y3563D01*
X2065Y3560D01*
X2057Y3559D01*
X2051Y3557D01*
X2045Y3557D01*
X2039Y3556D01*
X2035D01*
X2032Y3555D01*
X2029D01*
X2019Y3556D01*
X2011Y3557D01*
X2002Y3559D01*
X1994Y3561D01*
X1980Y3568D01*
X1973Y3571D01*
X1967Y3575D01*
X1962Y3579D01*
X1957Y3582D01*
X1954Y3586D01*
X1950Y3589D01*
X1947Y3591D01*
X1946Y3593D01*
X1945Y3595D01*
X1944Y3595D01*
Y3586D01*
Y3578D01*
Y3570D01*
X1945Y3564D01*
Y3558D01*
X1945Y3552D01*
Y3547D01*
X1946Y3543D01*
X1946Y3540D01*
Y3537D01*
X1947Y3532D01*
X1948Y3530D01*
Y3529D01*
X1951Y3520D01*
X1955Y3512D01*
X1959Y3505D01*
X1963Y3499D01*
X1968Y3495D01*
X1971Y3492D01*
X1973Y3490D01*
X1974Y3489D01*
X1983Y3484D01*
X1991Y3480D01*
X2001Y3478D01*
X2010Y3476D01*
X2018Y3475D01*
X2024Y3474D01*
X2030D01*
X2042Y3475D01*
X2052Y3476D01*
X2061Y3479D01*
X2069Y3482D01*
X2075Y3484D01*
X2079Y3487D01*
X2082Y3488D01*
X2083Y3489D01*
X2088Y3493D01*
X2092Y3499D01*
X2095Y3504D01*
X2097Y3510D01*
X2099Y3515D01*
X2100Y3519D01*
X2100Y3522D01*
Y3523D01*
X2151Y3530D01*
Y3521D01*
X2150Y3513D01*
X2148Y3505D01*
X2147Y3498D01*
X2144Y3491D01*
X2141Y3485D01*
X2138Y3480D01*
X2135Y3475D01*
X2132Y3470D01*
X2129Y3466D01*
X2126Y3463D01*
X2123Y3460D01*
X2122Y3459D01*
X2120Y3457D01*
X2119Y3457D01*
X2119Y3456D01*
X2112Y3452D01*
X2105Y3448D01*
X2090Y3442D01*
X2076Y3437D01*
X2061Y3435D01*
X2055Y3433D01*
X2049Y3432D01*
X2044Y3432D01*
X2039D01*
X2035Y3431D01*
X2030D01*
X2013Y3432D01*
X1998Y3434D01*
X1985Y3437D01*
X1974Y3440D01*
X1969Y3442D01*
X1964Y3443D01*
X1961Y3445D01*
X1958Y3446D01*
X1956Y3447D01*
X1954Y3448D01*
X1953Y3449D01*
X1952D01*
X1941Y3456D01*
X1931Y3464D01*
X1924Y3471D01*
X1917Y3479D01*
X1912Y3486D01*
X1909Y3491D01*
X1908Y3493D01*
X1907Y3495D01*
X1906Y3496D01*
Y3496D01*
X1903Y3502D01*
X1901Y3509D01*
X1899Y3516D01*
X1897Y3524D01*
X1895Y3541D01*
X1893Y3558D01*
X1892Y3565D01*
X1892Y3573D01*
Y3579D01*
X1891Y3585D01*
Y3590D01*
Y3593D01*
Y3596D01*
Y3597D01*
Y3861D01*
X1939D01*
Y3823D01*
X1946Y3831D01*
X1953Y3838D01*
X1961Y3844D01*
X1968Y3849D01*
X1975Y3854D01*
X1983Y3857D01*
X1990Y3860D01*
X1997Y3862D01*
X2004Y3864D01*
X2010Y3866D01*
X2015Y3867D01*
X2019Y3867D01*
X2023D01*
X2027Y3868D01*
X2029D01*
X2044Y3867D01*
D02*
G37*
G36*
X44Y3867D02*
X54Y3866D01*
X63Y3864D01*
X71Y3861D01*
X78Y3859D01*
X83Y3856D01*
X86Y3855D01*
X87Y3854D01*
X87D01*
X96Y3849D01*
X103Y3843D01*
X110Y3837D01*
X115Y3831D01*
X120Y3826D01*
X123Y3822D01*
X125Y3819D01*
X126Y3818D01*
Y3861D01*
X172D01*
Y3555D01*
X120D01*
Y3713D01*
X120Y3728D01*
X119Y3741D01*
X118Y3752D01*
X116Y3761D01*
X115Y3768D01*
X113Y3773D01*
X113Y3776D01*
X112Y3777D01*
X108Y3785D01*
X104Y3792D01*
X99Y3798D01*
X95Y3802D01*
X91Y3806D01*
X88Y3809D01*
X85Y3811D01*
X85Y3811D01*
X77Y3815D01*
X70Y3818D01*
X64Y3820D01*
X57Y3821D01*
X52Y3822D01*
X48Y3823D01*
X44D01*
X34Y3822D01*
X25Y3820D01*
X18Y3817D01*
X13Y3814D01*
X8Y3811D01*
X5Y3808D01*
X3Y3806D01*
X3Y3805D01*
X-2Y3798D01*
X-4Y3790D01*
X-7Y3782D01*
X-8Y3773D01*
X-9Y3766D01*
X-10Y3759D01*
Y3757D01*
Y3755D01*
Y3754D01*
Y3754D01*
Y3555D01*
X-62D01*
Y3733D01*
Y3741D01*
X-63Y3749D01*
X-64Y3756D01*
X-65Y3763D01*
X-67Y3769D01*
X-68Y3775D01*
X-71Y3780D01*
X-73Y3784D01*
X-77Y3791D01*
X-80Y3797D01*
X-82Y3800D01*
X-83Y3801D01*
X-91Y3808D01*
X-101Y3813D01*
X-110Y3817D01*
X-118Y3820D01*
X-126Y3822D01*
X-132Y3822D01*
X-134Y3823D01*
X-138D01*
X-144Y3822D01*
X-150Y3822D01*
X-155Y3820D01*
X-160Y3818D01*
X-163Y3817D01*
X-166Y3816D01*
X-168Y3815D01*
X-168Y3814D01*
X-173Y3811D01*
X-177Y3807D01*
X-181Y3804D01*
X-183Y3800D01*
X-185Y3797D01*
X-186Y3794D01*
X-187Y3793D01*
Y3792D01*
X-189Y3786D01*
X-190Y3779D01*
X-191Y3772D01*
X-192Y3765D01*
X-192Y3758D01*
Y3752D01*
Y3750D01*
Y3749D01*
Y3748D01*
Y3747D01*
Y3555D01*
X-244D01*
Y3765D01*
Y3774D01*
X-243Y3783D01*
X-242Y3791D01*
X-240Y3799D01*
X-238Y3806D01*
X-236Y3812D01*
X-234Y3818D01*
X-232Y3823D01*
X-229Y3828D01*
X-227Y3832D01*
X-225Y3835D01*
X-223Y3838D01*
X-221Y3840D01*
X-220Y3842D01*
X-220Y3842D01*
X-219Y3843D01*
X-214Y3847D01*
X-209Y3851D01*
X-198Y3857D01*
X-186Y3862D01*
X-175Y3865D01*
X-165Y3867D01*
X-160Y3867D01*
X-156D01*
X-153Y3868D01*
X-149D01*
X-138Y3867D01*
X-128Y3866D01*
X-118Y3863D01*
X-109Y3860D01*
X-101Y3855D01*
X-93Y3851D01*
X-86Y3846D01*
X-79Y3841D01*
X-74Y3836D01*
X-69Y3831D01*
X-64Y3827D01*
X-61Y3822D01*
X-58Y3819D01*
X-56Y3816D01*
X-55Y3815D01*
X-54Y3814D01*
X-50Y3823D01*
X-45Y3831D01*
X-40Y3838D01*
X-35Y3843D01*
X-30Y3848D01*
X-26Y3851D01*
X-24Y3853D01*
X-23Y3854D01*
X-14Y3859D01*
X-5Y3862D01*
X4Y3865D01*
X13Y3866D01*
X21Y3867D01*
X27Y3868D01*
X33D01*
X44Y3867D01*
D02*
G37*
G36*
X3727Y3555D02*
X3673D01*
X3611Y3790D01*
X3599Y3738D01*
X3550Y3555D01*
X3496D01*
X3400Y3861D01*
X3451D01*
X3503Y3684D01*
X3521Y3625D01*
X3536Y3683D01*
X3582Y3861D01*
X3635D01*
X3684Y3681D01*
X3687Y3671D01*
X3689Y3662D01*
X3691Y3654D01*
X3693Y3647D01*
X3694Y3641D01*
X3695Y3636D01*
X3696Y3631D01*
X3698Y3628D01*
X3698Y3625D01*
X3699Y3623D01*
X3699Y3620D01*
X3700Y3619D01*
Y3618D01*
X3717Y3684D01*
X3766Y3861D01*
X3820D01*
X3727Y3555D01*
D02*
G37*
G36*
X4154D02*
X4100D01*
X4037Y3790D01*
X4025Y3738D01*
X3976Y3555D01*
X3923D01*
X3827Y3861D01*
X3877D01*
X3930Y3684D01*
X3948Y3625D01*
X3963Y3683D01*
X4009Y3861D01*
X4062D01*
X4111Y3681D01*
X4113Y3671D01*
X4116Y3662D01*
X4118Y3654D01*
X4119Y3647D01*
X4121Y3641D01*
X4122Y3636D01*
X4123Y3631D01*
X4124Y3628D01*
X4125Y3625D01*
X4125Y3623D01*
X4126Y3620D01*
X4127Y3619D01*
Y3618D01*
X4144Y3684D01*
X4193Y3861D01*
X4247D01*
X4154Y3555D01*
D02*
G37*
G36*
X1620Y5084D02*
X1629Y5084D01*
X1646Y5082D01*
X1654Y5080D01*
X1661Y5078D01*
X1668Y5076D01*
X1674Y5074D01*
X1680Y5073D01*
X1685Y5070D01*
X1690Y5069D01*
X1693Y5067D01*
X1696Y5065D01*
X1698Y5065D01*
X1700Y5064D01*
X1700Y5064D01*
X1707Y5060D01*
X1714Y5055D01*
X1726Y5045D01*
X1731Y5040D01*
X1736Y5035D01*
X1740Y5029D01*
X1744Y5024D01*
X1748Y5019D01*
X1751Y5015D01*
X1754Y5011D01*
X1756Y5007D01*
X1758Y5004D01*
X1759Y5002D01*
X1759Y5001D01*
X1760Y5000D01*
X1763Y4992D01*
X1766Y4984D01*
X1772Y4968D01*
X1775Y4952D01*
X1776Y4945D01*
X1777Y4938D01*
X1778Y4931D01*
X1779Y4926D01*
X1780Y4920D01*
Y4916D01*
X1780Y4912D01*
Y4910D01*
Y4908D01*
Y4908D01*
X1780Y4898D01*
X1779Y4890D01*
X1777Y4872D01*
X1775Y4864D01*
X1773Y4857D01*
X1772Y4850D01*
X1769Y4844D01*
X1768Y4838D01*
X1766Y4833D01*
X1764Y4828D01*
X1762Y4824D01*
X1761Y4821D01*
X1760Y4819D01*
X1759Y4818D01*
Y4817D01*
X1755Y4810D01*
X1751Y4803D01*
X1746Y4796D01*
X1741Y4791D01*
X1736Y4785D01*
X1731Y4780D01*
X1726Y4775D01*
X1721Y4771D01*
X1716Y4768D01*
X1712Y4764D01*
X1708Y4762D01*
X1705Y4759D01*
X1702Y4758D01*
X1700Y4756D01*
X1698Y4756D01*
X1698Y4755D01*
X1690Y4752D01*
X1682Y4748D01*
X1667Y4743D01*
X1651Y4740D01*
X1644Y4738D01*
X1637Y4737D01*
X1631Y4736D01*
X1625Y4736D01*
X1620Y4735D01*
X1616D01*
X1612Y4734D01*
X1607D01*
X1593Y4735D01*
X1580Y4736D01*
X1568Y4739D01*
X1557Y4741D01*
X1552Y4742D01*
X1548Y4744D01*
X1544Y4744D01*
X1541Y4745D01*
X1538Y4746D01*
X1537Y4747D01*
X1535Y4748D01*
X1535D01*
X1522Y4753D01*
X1509Y4759D01*
X1498Y4766D01*
X1487Y4772D01*
X1483Y4775D01*
X1479Y4778D01*
X1475Y4780D01*
X1472Y4782D01*
X1470Y4784D01*
X1468Y4785D01*
X1467Y4786D01*
X1466Y4787D01*
Y4913D01*
X1610D01*
Y4873D01*
X1511D01*
Y4809D01*
X1517Y4804D01*
X1523Y4800D01*
X1530Y4796D01*
X1537Y4792D01*
X1543Y4789D01*
X1548Y4787D01*
X1550Y4787D01*
X1552Y4786D01*
X1552Y4785D01*
X1553D01*
X1563Y4782D01*
X1574Y4779D01*
X1583Y4777D01*
X1592Y4776D01*
X1599Y4775D01*
X1602D01*
X1605Y4774D01*
X1610D01*
X1622Y4775D01*
X1634Y4777D01*
X1645Y4779D01*
X1654Y4782D01*
X1658Y4783D01*
X1662Y4785D01*
X1665Y4785D01*
X1668Y4787D01*
X1670Y4788D01*
X1672Y4789D01*
X1673Y4789D01*
X1673D01*
X1684Y4795D01*
X1693Y4802D01*
X1701Y4810D01*
X1707Y4817D01*
X1712Y4824D01*
X1714Y4827D01*
X1715Y4830D01*
X1717Y4831D01*
X1717Y4833D01*
X1718Y4834D01*
Y4834D01*
X1724Y4846D01*
X1727Y4859D01*
X1730Y4872D01*
X1732Y4884D01*
X1732Y4889D01*
X1733Y4894D01*
X1733Y4899D01*
Y4903D01*
X1734Y4906D01*
Y4908D01*
Y4910D01*
Y4910D01*
X1733Y4924D01*
X1731Y4937D01*
X1730Y4948D01*
X1727Y4958D01*
X1726Y4963D01*
X1725Y4967D01*
X1724Y4970D01*
X1723Y4973D01*
X1722Y4975D01*
X1721Y4977D01*
X1721Y4978D01*
Y4979D01*
X1718Y4985D01*
X1714Y4992D01*
X1711Y4998D01*
X1708Y5002D01*
X1705Y5006D01*
X1702Y5009D01*
X1700Y5011D01*
X1700Y5012D01*
X1694Y5017D01*
X1688Y5023D01*
X1682Y5027D01*
X1676Y5030D01*
X1672Y5033D01*
X1667Y5035D01*
X1664Y5036D01*
X1664Y5037D01*
X1664D01*
X1655Y5040D01*
X1646Y5043D01*
X1637Y5044D01*
X1628Y5045D01*
X1621Y5046D01*
X1618D01*
X1616Y5046D01*
X1610D01*
X1601Y5046D01*
X1592Y5045D01*
X1584Y5043D01*
X1578Y5042D01*
X1572Y5040D01*
X1567Y5039D01*
X1565Y5038D01*
X1564Y5037D01*
X1564D01*
X1556Y5034D01*
X1550Y5030D01*
X1544Y5026D01*
X1540Y5022D01*
X1536Y5019D01*
X1533Y5016D01*
X1532Y5014D01*
X1531Y5013D01*
X1527Y5008D01*
X1523Y5001D01*
X1520Y4994D01*
X1518Y4988D01*
X1515Y4982D01*
X1514Y4977D01*
X1513Y4975D01*
X1513Y4974D01*
X1512Y4973D01*
Y4973D01*
X1472Y4984D01*
X1475Y4996D01*
X1480Y5007D01*
X1484Y5017D01*
X1488Y5024D01*
X1492Y5031D01*
X1493Y5034D01*
X1495Y5035D01*
X1496Y5037D01*
X1497Y5039D01*
X1498Y5039D01*
Y5039D01*
X1504Y5047D01*
X1512Y5054D01*
X1520Y5059D01*
X1527Y5064D01*
X1534Y5068D01*
X1537Y5069D01*
X1539Y5070D01*
X1541Y5071D01*
X1543Y5072D01*
X1544Y5073D01*
X1544D01*
X1556Y5076D01*
X1567Y5080D01*
X1578Y5082D01*
X1589Y5084D01*
X1593Y5084D01*
X1597Y5084D01*
X1601D01*
X1604Y5085D01*
X1611D01*
X1620Y5084D01*
D02*
G37*
G36*
X1377Y4740D02*
X1124D01*
Y4780D01*
X1332D01*
Y4896D01*
X1145D01*
Y4936D01*
X1332D01*
Y5039D01*
X1132D01*
Y5079D01*
X1377D01*
Y4740D01*
D02*
G37*
G36*
X2010Y5084D02*
X2019Y5084D01*
X2036Y5082D01*
X2044Y5080D01*
X2051Y5078D01*
X2058Y5076D01*
X2064Y5074D01*
X2070Y5073D01*
X2075Y5070D01*
X2080Y5069D01*
X2083Y5067D01*
X2086Y5065D01*
X2088Y5065D01*
X2090Y5064D01*
X2090Y5064D01*
X2097Y5060D01*
X2104Y5055D01*
X2116Y5045D01*
X2121Y5040D01*
X2126Y5035D01*
X2130Y5029D01*
X2134Y5024D01*
X2138Y5019D01*
X2141Y5015D01*
X2144Y5011D01*
X2146Y5007D01*
X2148Y5004D01*
X2149Y5002D01*
X2149Y5001D01*
X2150Y5000D01*
X2153Y4992D01*
X2156Y4984D01*
X2162Y4968D01*
X2165Y4952D01*
X2166Y4945D01*
X2167Y4938D01*
X2168Y4931D01*
X2169Y4926D01*
X2170Y4920D01*
Y4916D01*
X2170Y4912D01*
Y4910D01*
Y4908D01*
Y4908D01*
X2170Y4898D01*
X2169Y4890D01*
X2167Y4872D01*
X2165Y4864D01*
X2163Y4857D01*
X2162Y4850D01*
X2159Y4844D01*
X2158Y4838D01*
X2156Y4833D01*
X2154Y4828D01*
X2152Y4824D01*
X2151Y4821D01*
X2150Y4819D01*
X2149Y4818D01*
Y4817D01*
X2145Y4810D01*
X2141Y4803D01*
X2136Y4796D01*
X2131Y4791D01*
X2126Y4785D01*
X2121Y4780D01*
X2116Y4775D01*
X2111Y4771D01*
X2106Y4768D01*
X2102Y4764D01*
X2098Y4762D01*
X2095Y4759D01*
X2092Y4758D01*
X2090Y4756D01*
X2088Y4756D01*
X2088Y4755D01*
X2080Y4752D01*
X2072Y4748D01*
X2057Y4743D01*
X2041Y4740D01*
X2034Y4738D01*
X2027Y4737D01*
X2021Y4736D01*
X2015Y4736D01*
X2010Y4735D01*
X2006D01*
X2002Y4734D01*
X1997D01*
X1983Y4735D01*
X1970Y4736D01*
X1958Y4739D01*
X1947Y4741D01*
X1942Y4742D01*
X1938Y4744D01*
X1934Y4744D01*
X1931Y4745D01*
X1928Y4746D01*
X1927Y4747D01*
X1925Y4748D01*
X1925D01*
X1912Y4753D01*
X1899Y4759D01*
X1888Y4766D01*
X1877Y4772D01*
X1873Y4775D01*
X1869Y4778D01*
X1865Y4780D01*
X1862Y4782D01*
X1860Y4784D01*
X1858Y4785D01*
X1857Y4786D01*
X1856Y4787D01*
Y4913D01*
X2000D01*
Y4873D01*
X1901D01*
Y4809D01*
X1907Y4804D01*
X1913Y4800D01*
X1920Y4796D01*
X1927Y4792D01*
X1933Y4789D01*
X1938Y4787D01*
X1940Y4787D01*
X1942Y4786D01*
X1942Y4785D01*
X1943D01*
X1953Y4782D01*
X1964Y4779D01*
X1973Y4777D01*
X1982Y4776D01*
X1989Y4775D01*
X1992D01*
X1995Y4774D01*
X2000D01*
X2012Y4775D01*
X2024Y4777D01*
X2035Y4779D01*
X2044Y4782D01*
X2048Y4783D01*
X2052Y4785D01*
X2055Y4785D01*
X2058Y4787D01*
X2060Y4788D01*
X2062Y4789D01*
X2063Y4789D01*
X2063D01*
X2074Y4795D01*
X2083Y4802D01*
X2091Y4810D01*
X2097Y4817D01*
X2102Y4824D01*
X2104Y4827D01*
X2105Y4830D01*
X2106Y4831D01*
X2107Y4833D01*
X2108Y4834D01*
Y4834D01*
X2114Y4846D01*
X2117Y4859D01*
X2120Y4872D01*
X2122Y4884D01*
X2122Y4889D01*
X2123Y4894D01*
X2123Y4899D01*
Y4903D01*
X2124Y4906D01*
Y4908D01*
Y4910D01*
Y4910D01*
X2123Y4924D01*
X2121Y4937D01*
X2120Y4948D01*
X2117Y4958D01*
X2116Y4963D01*
X2115Y4967D01*
X2114Y4970D01*
X2113Y4973D01*
X2112Y4975D01*
X2111Y4977D01*
X2111Y4978D01*
Y4979D01*
X2108Y4985D01*
X2104Y4992D01*
X2101Y4998D01*
X2098Y5002D01*
X2095Y5006D01*
X2092Y5009D01*
X2090Y5011D01*
X2090Y5012D01*
X2084Y5017D01*
X2078Y5023D01*
X2072Y5027D01*
X2066Y5030D01*
X2062Y5033D01*
X2057Y5035D01*
X2054Y5036D01*
X2054Y5037D01*
X2054D01*
X2045Y5040D01*
X2036Y5043D01*
X2027Y5044D01*
X2018Y5045D01*
X2011Y5046D01*
X2008D01*
X2006Y5046D01*
X2000D01*
X1991Y5046D01*
X1982Y5045D01*
X1974Y5043D01*
X1968Y5042D01*
X1962Y5040D01*
X1957Y5039D01*
X1955Y5038D01*
X1954Y5037D01*
X1954D01*
X1946Y5034D01*
X1940Y5030D01*
X1934Y5026D01*
X1930Y5022D01*
X1926Y5019D01*
X1923Y5016D01*
X1922Y5014D01*
X1921Y5013D01*
X1917Y5008D01*
X1913Y5001D01*
X1910Y4994D01*
X1908Y4988D01*
X1905Y4982D01*
X1904Y4977D01*
X1903Y4975D01*
X1903Y4974D01*
X1902Y4973D01*
Y4973D01*
X1862Y4984D01*
X1865Y4996D01*
X1870Y5007D01*
X1874Y5017D01*
X1878Y5024D01*
X1882Y5031D01*
X1883Y5034D01*
X1885Y5035D01*
X1886Y5037D01*
X1887Y5039D01*
X1888Y5039D01*
Y5039D01*
X1894Y5047D01*
X1902Y5054D01*
X1910Y5059D01*
X1917Y5064D01*
X1924Y5068D01*
X1927Y5069D01*
X1929Y5070D01*
X1931Y5071D01*
X1933Y5072D01*
X1934Y5073D01*
X1934D01*
X1946Y5076D01*
X1957Y5080D01*
X1968Y5082D01*
X1979Y5084D01*
X1983Y5084D01*
X1987Y5084D01*
X1991D01*
X1994Y5085D01*
X2001D01*
X2010Y5084D01*
D02*
G37*
G36*
X2709D02*
X2721Y5083D01*
X2732Y5081D01*
X2741Y5079D01*
X2745Y5078D01*
X2749Y5077D01*
X2752Y5076D01*
X2754Y5075D01*
X2757Y5074D01*
X2758Y5073D01*
X2759Y5073D01*
X2759D01*
X2769Y5068D01*
X2778Y5063D01*
X2785Y5057D01*
X2791Y5052D01*
X2795Y5047D01*
X2799Y5043D01*
X2801Y5040D01*
X2802Y5039D01*
Y5039D01*
X2807Y5031D01*
X2810Y5022D01*
X2813Y5014D01*
X2814Y5007D01*
X2815Y5000D01*
X2816Y4995D01*
X2816Y4994D01*
Y4992D01*
Y4991D01*
Y4991D01*
X2816Y4983D01*
X2814Y4975D01*
X2813Y4967D01*
X2810Y4961D01*
X2808Y4956D01*
X2807Y4952D01*
X2805Y4949D01*
X2805Y4949D01*
Y4949D01*
X2800Y4942D01*
X2794Y4936D01*
X2788Y4931D01*
X2782Y4926D01*
X2777Y4922D01*
X2773Y4919D01*
X2771Y4919D01*
X2769Y4918D01*
X2769Y4917D01*
X2769D01*
X2765Y4916D01*
X2760Y4913D01*
X2751Y4910D01*
X2739Y4906D01*
X2729Y4903D01*
X2719Y4900D01*
X2715Y4899D01*
X2711Y4897D01*
X2708Y4897D01*
X2706Y4896D01*
X2704Y4896D01*
X2703D01*
X2695Y4893D01*
X2687Y4892D01*
X2680Y4890D01*
X2674Y4889D01*
X2668Y4887D01*
X2664Y4886D01*
X2659Y4885D01*
X2656Y4883D01*
X2652Y4882D01*
X2650Y4882D01*
X2647Y4881D01*
X2646Y4880D01*
X2644Y4880D01*
X2643Y4879D01*
X2635Y4876D01*
X2629Y4873D01*
X2624Y4870D01*
X2620Y4867D01*
X2616Y4864D01*
X2614Y4862D01*
X2613Y4860D01*
X2612Y4860D01*
X2609Y4855D01*
X2607Y4850D01*
X2605Y4845D01*
X2604Y4841D01*
X2603Y4837D01*
X2603Y4834D01*
Y4833D01*
Y4832D01*
X2603Y4826D01*
X2604Y4821D01*
X2606Y4816D01*
X2608Y4811D01*
X2609Y4808D01*
X2611Y4805D01*
X2612Y4803D01*
X2612Y4803D01*
X2616Y4798D01*
X2621Y4794D01*
X2626Y4790D01*
X2631Y4787D01*
X2635Y4785D01*
X2639Y4783D01*
X2641Y4782D01*
X2642Y4782D01*
X2642D01*
X2650Y4779D01*
X2657Y4777D01*
X2665Y4776D01*
X2672Y4775D01*
X2678Y4775D01*
X2683Y4774D01*
X2687D01*
X2698Y4775D01*
X2707Y4776D01*
X2716Y4777D01*
X2724Y4779D01*
X2730Y4781D01*
X2733Y4782D01*
X2735Y4783D01*
X2737Y4783D01*
X2738Y4784D01*
X2739Y4784D01*
X2739D01*
X2747Y4788D01*
X2754Y4792D01*
X2760Y4797D01*
X2765Y4801D01*
X2768Y4805D01*
X2771Y4808D01*
X2773Y4810D01*
X2773Y4811D01*
X2777Y4817D01*
X2780Y4824D01*
X2782Y4831D01*
X2784Y4838D01*
X2785Y4844D01*
X2786Y4848D01*
Y4850D01*
X2787Y4852D01*
Y4852D01*
Y4853D01*
X2829Y4849D01*
X2828Y4837D01*
X2826Y4825D01*
X2823Y4815D01*
X2819Y4806D01*
X2818Y4802D01*
X2816Y4798D01*
X2814Y4796D01*
X2813Y4793D01*
X2812Y4791D01*
X2811Y4789D01*
X2810Y4789D01*
Y4788D01*
X2803Y4779D01*
X2795Y4770D01*
X2788Y4763D01*
X2780Y4758D01*
X2773Y4753D01*
X2769Y4751D01*
X2767Y4750D01*
X2765Y4749D01*
X2763Y4748D01*
X2762Y4748D01*
X2762D01*
X2750Y4743D01*
X2737Y4740D01*
X2724Y4737D01*
X2712Y4736D01*
X2706Y4736D01*
X2701Y4735D01*
X2696Y4735D01*
X2692D01*
X2689Y4734D01*
X2685D01*
X2672Y4735D01*
X2659Y4736D01*
X2648Y4739D01*
X2639Y4741D01*
X2635Y4742D01*
X2631Y4744D01*
X2628Y4744D01*
X2625Y4745D01*
X2623Y4746D01*
X2621Y4747D01*
X2620Y4748D01*
X2620D01*
X2610Y4753D01*
X2601Y4759D01*
X2593Y4765D01*
X2587Y4771D01*
X2582Y4776D01*
X2578Y4781D01*
X2577Y4782D01*
X2576Y4784D01*
X2575Y4784D01*
Y4785D01*
X2570Y4793D01*
X2566Y4803D01*
X2564Y4811D01*
X2561Y4819D01*
X2560Y4826D01*
X2560Y4828D01*
Y4831D01*
X2560Y4833D01*
Y4834D01*
Y4835D01*
Y4835D01*
X2560Y4845D01*
X2562Y4854D01*
X2564Y4863D01*
X2567Y4870D01*
X2570Y4875D01*
X2572Y4880D01*
X2573Y4881D01*
X2574Y4882D01*
X2574Y4883D01*
Y4883D01*
X2580Y4891D01*
X2587Y4898D01*
X2594Y4904D01*
X2601Y4909D01*
X2608Y4913D01*
X2613Y4916D01*
X2615Y4917D01*
X2616Y4918D01*
X2617Y4918D01*
X2618D01*
X2622Y4920D01*
X2627Y4922D01*
X2632Y4923D01*
X2638Y4926D01*
X2650Y4929D01*
X2663Y4932D01*
X2669Y4934D01*
X2674Y4935D01*
X2679Y4937D01*
X2684Y4938D01*
X2687Y4938D01*
X2691Y4939D01*
X2692Y4940D01*
X2693D01*
X2702Y4942D01*
X2711Y4944D01*
X2719Y4946D01*
X2726Y4949D01*
X2732Y4951D01*
X2738Y4953D01*
X2743Y4955D01*
X2747Y4957D01*
X2750Y4958D01*
X2753Y4959D01*
X2755Y4961D01*
X2757Y4962D01*
X2758Y4962D01*
X2759Y4963D01*
X2760Y4964D01*
X2765Y4968D01*
X2768Y4973D01*
X2770Y4978D01*
X2771Y4983D01*
X2772Y4987D01*
X2773Y4990D01*
Y4993D01*
Y4994D01*
X2772Y5001D01*
X2770Y5008D01*
X2767Y5014D01*
X2764Y5020D01*
X2760Y5024D01*
X2758Y5027D01*
X2755Y5029D01*
X2754Y5030D01*
X2751Y5032D01*
X2747Y5035D01*
X2737Y5039D01*
X2728Y5041D01*
X2718Y5043D01*
X2709Y5044D01*
X2706Y5044D01*
X2702Y5045D01*
X2688D01*
X2682Y5044D01*
X2676Y5043D01*
X2670Y5042D01*
X2665Y5041D01*
X2660Y5039D01*
X2655Y5038D01*
X2651Y5037D01*
X2648Y5035D01*
X2645Y5034D01*
X2642Y5032D01*
X2640Y5031D01*
X2639Y5030D01*
X2638Y5029D01*
X2637Y5028D01*
X2630Y5022D01*
X2624Y5014D01*
X2620Y5006D01*
X2617Y4998D01*
X2615Y4991D01*
X2614Y4988D01*
X2614Y4986D01*
X2613Y4983D01*
X2613Y4982D01*
Y4981D01*
Y4980D01*
X2570Y4983D01*
X2571Y4994D01*
X2573Y5004D01*
X2575Y5013D01*
X2579Y5021D01*
X2582Y5028D01*
X2583Y5030D01*
X2584Y5032D01*
X2585Y5034D01*
X2586Y5035D01*
X2586Y5036D01*
Y5036D01*
X2593Y5045D01*
X2600Y5052D01*
X2607Y5058D01*
X2615Y5063D01*
X2621Y5067D01*
X2626Y5070D01*
X2628Y5071D01*
X2630Y5072D01*
X2631Y5073D01*
X2631D01*
X2642Y5076D01*
X2653Y5080D01*
X2665Y5082D01*
X2675Y5084D01*
X2679Y5084D01*
X2684Y5084D01*
X2687D01*
X2691Y5085D01*
X2697D01*
X2709Y5084D01*
D02*
G37*
G36*
X2479Y4740D02*
X2226D01*
Y4780D01*
X2434D01*
Y4896D01*
X2247D01*
Y4936D01*
X2434D01*
Y5039D01*
X2234D01*
Y5079D01*
X2479D01*
Y4740D01*
D02*
G37*
G36*
X1048D02*
X1003D01*
Y4890D01*
X945D01*
X940Y4890D01*
X936D01*
X932Y4890D01*
X929Y4889D01*
X928D01*
X927Y4889D01*
X926D01*
X919Y4886D01*
X915Y4885D01*
X912Y4883D01*
X910Y4882D01*
X908Y4880D01*
X906Y4880D01*
X906Y4879D01*
X902Y4876D01*
X898Y4873D01*
X894Y4869D01*
X891Y4865D01*
X887Y4862D01*
X885Y4859D01*
X884Y4857D01*
X883Y4856D01*
X878Y4850D01*
X872Y4842D01*
X867Y4835D01*
X862Y4827D01*
X857Y4821D01*
X855Y4818D01*
X854Y4815D01*
X852Y4813D01*
X851Y4811D01*
X850Y4811D01*
Y4810D01*
X806Y4740D01*
X749D01*
X808Y4832D01*
X815Y4841D01*
X821Y4850D01*
X828Y4858D01*
X833Y4864D01*
X839Y4870D01*
X842Y4874D01*
X845Y4876D01*
X845Y4877D01*
X846D01*
X850Y4880D01*
X854Y4883D01*
X862Y4889D01*
X866Y4891D01*
X869Y4893D01*
X872Y4893D01*
X872Y4894D01*
X864Y4895D01*
X855Y4897D01*
X848Y4899D01*
X841Y4901D01*
X834Y4904D01*
X828Y4907D01*
X823Y4909D01*
X818Y4912D01*
X814Y4915D01*
X810Y4917D01*
X807Y4919D01*
X805Y4921D01*
X803Y4923D01*
X801Y4924D01*
X801Y4925D01*
X800Y4925D01*
X796Y4930D01*
X792Y4935D01*
X789Y4940D01*
X786Y4945D01*
X783Y4955D01*
X780Y4965D01*
X778Y4973D01*
X778Y4977D01*
X777Y4980D01*
X777Y4983D01*
Y4984D01*
Y4986D01*
Y4986D01*
X777Y4996D01*
X779Y5006D01*
X781Y5015D01*
X784Y5022D01*
X786Y5028D01*
X789Y5033D01*
X790Y5035D01*
X790Y5036D01*
X791Y5037D01*
Y5037D01*
X797Y5045D01*
X803Y5052D01*
X809Y5058D01*
X815Y5062D01*
X820Y5066D01*
X825Y5068D01*
X827Y5069D01*
X828Y5069D01*
X828Y5070D01*
X829D01*
X833Y5072D01*
X839Y5073D01*
X850Y5075D01*
X861Y5077D01*
X872Y5078D01*
X877Y5078D01*
X882Y5079D01*
X886D01*
X890Y5079D01*
X1048D01*
Y4740D01*
D02*
G37*
G36*
X2681Y3867D02*
X2689Y3866D01*
X2695Y3865D01*
X2702Y3864D01*
X2705Y3862D01*
X2708Y3862D01*
X2709Y3861D01*
X2716Y3859D01*
X2723Y3856D01*
X2729Y3854D01*
X2733Y3851D01*
X2737Y3850D01*
X2740Y3848D01*
X2742Y3847D01*
X2742Y3846D01*
X2748Y3842D01*
X2753Y3837D01*
X2757Y3832D01*
X2761Y3828D01*
X2764Y3823D01*
X2766Y3820D01*
X2767Y3818D01*
X2767Y3817D01*
X2771Y3811D01*
X2773Y3804D01*
X2775Y3798D01*
X2776Y3792D01*
X2776Y3787D01*
X2777Y3783D01*
Y3780D01*
Y3779D01*
X2776Y3771D01*
X2775Y3763D01*
X2774Y3756D01*
X2771Y3750D01*
X2769Y3745D01*
X2767Y3741D01*
X2766Y3739D01*
X2766Y3738D01*
X2761Y3732D01*
X2756Y3726D01*
X2750Y3721D01*
X2745Y3717D01*
X2740Y3714D01*
X2736Y3712D01*
X2733Y3710D01*
X2732Y3710D01*
X2728Y3707D01*
X2722Y3706D01*
X2717Y3703D01*
X2711Y3701D01*
X2698Y3697D01*
X2684Y3693D01*
X2672Y3690D01*
X2667Y3688D01*
X2662Y3687D01*
X2659Y3686D01*
X2656Y3685D01*
X2654Y3684D01*
X2653D01*
X2645Y3683D01*
X2639Y3680D01*
X2632Y3679D01*
X2627Y3677D01*
X2622Y3675D01*
X2617Y3674D01*
X2614Y3673D01*
X2611Y3672D01*
X2605Y3670D01*
X2602Y3668D01*
X2600Y3668D01*
X2600Y3667D01*
X2595Y3663D01*
X2591Y3658D01*
X2588Y3654D01*
X2586Y3650D01*
X2585Y3646D01*
X2584Y3642D01*
Y3640D01*
Y3640D01*
X2585Y3633D01*
X2587Y3626D01*
X2590Y3620D01*
X2593Y3615D01*
X2596Y3611D01*
X2599Y3608D01*
X2601Y3606D01*
X2602Y3606D01*
X2609Y3601D01*
X2618Y3597D01*
X2627Y3595D01*
X2635Y3593D01*
X2643Y3592D01*
X2649Y3591D01*
X2655D01*
X2668Y3592D01*
X2679Y3594D01*
X2688Y3596D01*
X2697Y3600D01*
X2703Y3602D01*
X2707Y3605D01*
X2710Y3607D01*
X2711Y3607D01*
X2717Y3614D01*
X2723Y3622D01*
X2727Y3629D01*
X2730Y3637D01*
X2732Y3644D01*
X2733Y3650D01*
X2734Y3652D01*
X2734Y3653D01*
Y3654D01*
Y3655D01*
X2786Y3646D01*
X2784Y3637D01*
X2782Y3629D01*
X2779Y3622D01*
X2776Y3614D01*
X2773Y3608D01*
X2770Y3602D01*
X2766Y3596D01*
X2763Y3591D01*
X2759Y3587D01*
X2756Y3583D01*
X2754Y3580D01*
X2751Y3577D01*
X2749Y3575D01*
X2747Y3574D01*
X2747Y3573D01*
X2746Y3573D01*
X2740Y3568D01*
X2733Y3565D01*
X2719Y3559D01*
X2703Y3554D01*
X2689Y3552D01*
X2682Y3551D01*
X2675Y3549D01*
X2670Y3549D01*
X2665D01*
X2660Y3548D01*
X2655D01*
X2642Y3549D01*
X2629Y3550D01*
X2618Y3552D01*
X2609Y3554D01*
X2601Y3557D01*
X2595Y3559D01*
X2593Y3559D01*
X2591Y3560D01*
X2591Y3560D01*
X2590D01*
X2580Y3565D01*
X2572Y3571D01*
X2564Y3577D01*
X2557Y3583D01*
X2553Y3588D01*
X2549Y3592D01*
X2547Y3595D01*
X2546Y3596D01*
X2541Y3604D01*
X2538Y3613D01*
X2535Y3622D01*
X2533Y3629D01*
X2532Y3636D01*
X2531Y3641D01*
Y3644D01*
Y3645D01*
Y3645D01*
X2532Y3655D01*
X2533Y3663D01*
X2535Y3670D01*
X2537Y3677D01*
X2540Y3682D01*
X2541Y3686D01*
X2543Y3689D01*
X2544Y3689D01*
X2549Y3696D01*
X2555Y3701D01*
X2560Y3706D01*
X2566Y3710D01*
X2571Y3713D01*
X2574Y3715D01*
X2577Y3716D01*
X2578Y3717D01*
X2583Y3718D01*
X2588Y3721D01*
X2599Y3724D01*
X2612Y3728D01*
X2625Y3732D01*
X2636Y3735D01*
X2642Y3736D01*
X2646Y3738D01*
X2649Y3739D01*
X2653Y3740D01*
X2654Y3740D01*
X2655D01*
X2661Y3742D01*
X2667Y3744D01*
X2673Y3745D01*
X2678Y3747D01*
X2682Y3748D01*
X2686Y3749D01*
X2692Y3751D01*
X2697Y3752D01*
X2699Y3753D01*
X2700Y3754D01*
X2701D01*
X2705Y3756D01*
X2710Y3758D01*
X2713Y3760D01*
X2716Y3762D01*
X2718Y3765D01*
X2720Y3766D01*
X2720Y3767D01*
X2721Y3767D01*
X2723Y3771D01*
X2724Y3774D01*
X2726Y3779D01*
Y3782D01*
X2727Y3784D01*
Y3785D01*
Y3785D01*
X2726Y3791D01*
X2725Y3796D01*
X2722Y3801D01*
X2719Y3805D01*
X2717Y3809D01*
X2714Y3811D01*
X2713Y3812D01*
X2712Y3813D01*
X2705Y3817D01*
X2698Y3820D01*
X2689Y3822D01*
X2681Y3823D01*
X2673Y3824D01*
X2667Y3825D01*
X2661D01*
X2650Y3824D01*
X2640Y3823D01*
X2632Y3821D01*
X2626Y3818D01*
X2620Y3816D01*
X2617Y3813D01*
X2614Y3812D01*
X2614Y3811D01*
X2608Y3806D01*
X2604Y3800D01*
X2600Y3794D01*
X2597Y3788D01*
X2595Y3783D01*
X2594Y3779D01*
X2593Y3776D01*
Y3775D01*
X2543Y3782D01*
X2545Y3793D01*
X2548Y3802D01*
X2550Y3810D01*
X2554Y3816D01*
X2556Y3822D01*
X2558Y3826D01*
X2560Y3828D01*
X2561Y3829D01*
X2566Y3835D01*
X2573Y3841D01*
X2579Y3846D01*
X2586Y3850D01*
X2592Y3853D01*
X2597Y3856D01*
X2600Y3857D01*
X2601Y3857D01*
X2601D01*
X2612Y3861D01*
X2622Y3864D01*
X2633Y3865D01*
X2643Y3867D01*
X2651Y3867D01*
X2655D01*
X2658Y3868D01*
X2673D01*
X2681Y3867D01*
D02*
G37*
G36*
X944Y3555D02*
X885D01*
Y3614D01*
X944D01*
Y3555D01*
D02*
G37*
G36*
X387Y3867D02*
X396Y3866D01*
X406Y3865D01*
X415Y3862D01*
X423Y3860D01*
X432Y3857D01*
X439Y3854D01*
X445Y3851D01*
X451Y3848D01*
X457Y3845D01*
X461Y3842D01*
X465Y3839D01*
X468Y3837D01*
X471Y3835D01*
X472Y3834D01*
X472Y3834D01*
X481Y3826D01*
X488Y3817D01*
X494Y3807D01*
X499Y3797D01*
X504Y3787D01*
X508Y3776D01*
X511Y3766D01*
X513Y3755D01*
X515Y3746D01*
X516Y3737D01*
X517Y3729D01*
X519Y3722D01*
Y3716D01*
X519Y3712D01*
Y3709D01*
Y3708D01*
X519Y3694D01*
X517Y3680D01*
X515Y3668D01*
X513Y3657D01*
X510Y3646D01*
X506Y3636D01*
X503Y3628D01*
X499Y3619D01*
X495Y3612D01*
X492Y3606D01*
X489Y3601D01*
X486Y3597D01*
X483Y3593D01*
X481Y3591D01*
X480Y3590D01*
X479Y3589D01*
X472Y3582D01*
X464Y3576D01*
X455Y3570D01*
X446Y3565D01*
X438Y3562D01*
X429Y3558D01*
X421Y3556D01*
X413Y3553D01*
X405Y3552D01*
X398Y3551D01*
X392Y3549D01*
X387Y3549D01*
X382D01*
X379Y3548D01*
X376D01*
X361Y3549D01*
X347Y3551D01*
X335Y3554D01*
X324Y3558D01*
X315Y3561D01*
X311Y3563D01*
X308Y3564D01*
X306Y3565D01*
X304Y3567D01*
X303Y3567D01*
X302D01*
X290Y3575D01*
X280Y3583D01*
X271Y3592D01*
X264Y3600D01*
X258Y3608D01*
X254Y3614D01*
X252Y3616D01*
X251Y3618D01*
X251Y3619D01*
Y3619D01*
X247Y3626D01*
X245Y3633D01*
X240Y3648D01*
X237Y3664D01*
X235Y3679D01*
X234Y3685D01*
X234Y3692D01*
X233Y3697D01*
X233Y3702D01*
Y3707D01*
Y3710D01*
Y3712D01*
Y3712D01*
X233Y3725D01*
X234Y3738D01*
X236Y3750D01*
X239Y3761D01*
X242Y3771D01*
X245Y3780D01*
X249Y3789D01*
X252Y3796D01*
X256Y3803D01*
X260Y3809D01*
X263Y3815D01*
X267Y3818D01*
X269Y3822D01*
X271Y3824D01*
X272Y3826D01*
X273Y3826D01*
X280Y3833D01*
X289Y3840D01*
X297Y3845D01*
X306Y3850D01*
X314Y3854D01*
X323Y3857D01*
X332Y3861D01*
X339Y3863D01*
X347Y3865D01*
X354Y3866D01*
X360Y3867D01*
X366Y3867D01*
X370Y3868D01*
X376D01*
X387Y3867D01*
D02*
G37*
G36*
X2913Y4371D02*
X2843D01*
Y4174D01*
X2795D01*
Y4371D01*
X2725D01*
Y4411D01*
X2913D01*
Y4371D01*
D02*
G37*
G36*
X2695Y4174D02*
X2651D01*
Y4360D01*
X2604Y4174D01*
X2558D01*
X2511Y4360D01*
X2511Y4174D01*
X2466D01*
Y4411D01*
X2538D01*
X2581Y4249D01*
X2623Y4411D01*
X2695D01*
Y4174D01*
D02*
G37*
G36*
X4126Y4122D02*
Y4111D01*
X4127Y4101D01*
X4127Y4093D01*
X4128Y4087D01*
X4129Y4082D01*
X4130Y4079D01*
X4130Y4076D01*
X4131Y4076D01*
X4133Y4071D01*
X4136Y4066D01*
X4138Y4063D01*
X4142Y4059D01*
X4145Y4056D01*
X4146Y4055D01*
X4148Y4054D01*
X4149Y4053D01*
X4154Y4050D01*
X4159Y4048D01*
X4165Y4047D01*
X4169Y4046D01*
X4174Y4045D01*
X4177Y4045D01*
X4180D01*
X4189Y4045D01*
X4197Y4047D01*
X4203Y4050D01*
X4209Y4053D01*
X4213Y4055D01*
X4216Y4058D01*
X4219Y4060D01*
X4219Y4060D01*
X4222Y4064D01*
X4224Y4067D01*
X4227Y4075D01*
X4230Y4085D01*
X4232Y4094D01*
X4233Y4103D01*
X4233Y4107D01*
X4234Y4111D01*
X4234Y4113D01*
Y4115D01*
Y4117D01*
Y4117D01*
X4278Y4111D01*
Y4101D01*
X4278Y4092D01*
X4276Y4084D01*
X4275Y4075D01*
X4273Y4068D01*
X4271Y4062D01*
X4269Y4055D01*
X4267Y4050D01*
X4264Y4045D01*
X4262Y4041D01*
X4260Y4037D01*
X4258Y4035D01*
X4256Y4032D01*
X4255Y4031D01*
X4254Y4030D01*
X4254Y4029D01*
X4249Y4025D01*
X4243Y4020D01*
X4238Y4017D01*
X4232Y4014D01*
X4225Y4011D01*
X4219Y4008D01*
X4207Y4005D01*
X4202Y4004D01*
X4197Y4003D01*
X4192Y4003D01*
X4188Y4002D01*
X4185Y4002D01*
X4180D01*
X4168Y4002D01*
X4157Y4004D01*
X4148Y4006D01*
X4140Y4008D01*
X4133Y4010D01*
X4128Y4013D01*
X4126Y4014D01*
X4125Y4014D01*
X4124Y4015D01*
X4124D01*
X4115Y4020D01*
X4108Y4027D01*
X4102Y4033D01*
X4097Y4039D01*
X4093Y4045D01*
X4090Y4049D01*
X4089Y4051D01*
X4089Y4052D01*
X4089Y4053D01*
Y4053D01*
X4087Y4058D01*
X4085Y4064D01*
X4082Y4075D01*
X4080Y4087D01*
X4079Y4098D01*
X4078Y4103D01*
X4078Y4109D01*
Y4113D01*
X4077Y4117D01*
Y4120D01*
Y4122D01*
Y4124D01*
Y4124D01*
Y4373D01*
X4126D01*
Y4122D01*
D02*
G37*
G36*
X871Y4278D02*
X879Y4277D01*
X888Y4275D01*
X896Y4274D01*
X903Y4272D01*
X910Y4269D01*
X916Y4266D01*
X922Y4264D01*
X927Y4261D01*
X932Y4258D01*
X935Y4255D01*
X939Y4254D01*
X942Y4252D01*
X944Y4250D01*
X945Y4249D01*
X945Y4249D01*
X952Y4242D01*
X958Y4234D01*
X964Y4226D01*
X968Y4217D01*
X972Y4208D01*
X975Y4199D01*
X978Y4190D01*
X980Y4181D01*
X982Y4173D01*
X983Y4165D01*
X984Y4158D01*
X985Y4152D01*
Y4147D01*
X985Y4143D01*
Y4141D01*
Y4140D01*
X985Y4128D01*
X984Y4116D01*
X982Y4106D01*
X980Y4096D01*
X977Y4086D01*
X974Y4078D01*
X972Y4071D01*
X968Y4064D01*
X965Y4057D01*
X962Y4052D01*
X959Y4048D01*
X956Y4044D01*
X954Y4041D01*
X953Y4039D01*
X952Y4038D01*
X951Y4037D01*
X945Y4031D01*
X937Y4026D01*
X930Y4021D01*
X923Y4017D01*
X915Y4014D01*
X908Y4011D01*
X901Y4008D01*
X894Y4007D01*
X887Y4005D01*
X881Y4004D01*
X876Y4003D01*
X871Y4003D01*
X867D01*
X864Y4002D01*
X862D01*
X849Y4003D01*
X837Y4005D01*
X826Y4008D01*
X817Y4010D01*
X809Y4013D01*
X806Y4015D01*
X803Y4016D01*
X801Y4017D01*
X800Y4018D01*
X799Y4018D01*
X798D01*
X788Y4025D01*
X779Y4032D01*
X771Y4040D01*
X765Y4047D01*
X760Y4054D01*
X756Y4059D01*
X755Y4061D01*
X754Y4062D01*
X754Y4063D01*
Y4064D01*
X751Y4069D01*
X748Y4075D01*
X745Y4089D01*
X742Y4102D01*
X740Y4115D01*
X739Y4121D01*
X739Y4126D01*
X738Y4131D01*
X738Y4135D01*
Y4139D01*
Y4141D01*
Y4143D01*
Y4144D01*
X738Y4155D01*
X739Y4166D01*
X741Y4176D01*
X743Y4186D01*
X746Y4195D01*
X749Y4203D01*
X752Y4210D01*
X755Y4217D01*
X758Y4222D01*
X762Y4227D01*
X764Y4232D01*
X767Y4236D01*
X769Y4238D01*
X771Y4241D01*
X772Y4242D01*
X773Y4242D01*
X779Y4248D01*
X786Y4254D01*
X793Y4259D01*
X801Y4263D01*
X809Y4266D01*
X816Y4269D01*
X823Y4272D01*
X830Y4274D01*
X837Y4275D01*
X843Y4276D01*
X848Y4277D01*
X853Y4278D01*
X857Y4278D01*
X862D01*
X871Y4278D01*
D02*
G37*
G36*
X686Y4008D02*
X641D01*
Y4373D01*
X686D01*
Y4008D01*
D02*
G37*
G36*
X204Y4277D02*
X215Y4275D01*
X226Y4273D01*
X235Y4270D01*
X242Y4266D01*
X245Y4265D01*
X248Y4264D01*
X250Y4262D01*
X251Y4262D01*
X252Y4261D01*
X252D01*
X261Y4254D01*
X270Y4245D01*
X276Y4237D01*
X282Y4229D01*
X286Y4222D01*
X288Y4219D01*
X290Y4217D01*
X290Y4214D01*
X291Y4213D01*
X292Y4212D01*
Y4211D01*
X297Y4199D01*
X300Y4187D01*
X302Y4175D01*
X304Y4164D01*
X305Y4160D01*
Y4155D01*
X305Y4151D01*
X306Y4148D01*
Y4145D01*
Y4143D01*
Y4142D01*
Y4141D01*
X305Y4131D01*
X304Y4122D01*
X303Y4112D01*
X301Y4103D01*
X299Y4095D01*
X296Y4087D01*
X293Y4080D01*
X290Y4074D01*
X288Y4068D01*
X285Y4062D01*
X283Y4058D01*
X280Y4054D01*
X279Y4051D01*
X277Y4049D01*
X276Y4047D01*
X276Y4047D01*
X270Y4040D01*
X263Y4034D01*
X257Y4029D01*
X250Y4025D01*
X243Y4021D01*
X236Y4017D01*
X229Y4015D01*
X222Y4013D01*
X216Y4011D01*
X210Y4010D01*
X205Y4009D01*
X200Y4008D01*
X196D01*
X194Y4008D01*
X191D01*
X183Y4008D01*
X176Y4009D01*
X168Y4011D01*
X161Y4013D01*
X149Y4019D01*
X143Y4022D01*
X138Y4026D01*
X134Y4028D01*
X129Y4032D01*
X126Y4035D01*
X123Y4037D01*
X121Y4039D01*
X119Y4041D01*
X119Y4042D01*
X118Y4043D01*
Y4035D01*
Y4028D01*
Y4021D01*
X119Y4016D01*
Y4010D01*
X119Y4006D01*
Y4001D01*
X119Y3998D01*
X120Y3995D01*
Y3992D01*
X121Y3989D01*
X121Y3986D01*
Y3986D01*
X124Y3978D01*
X128Y3971D01*
X131Y3965D01*
X135Y3960D01*
X138Y3956D01*
X141Y3953D01*
X143Y3951D01*
X144Y3951D01*
X151Y3947D01*
X159Y3943D01*
X167Y3941D01*
X175Y3940D01*
X182Y3939D01*
X187Y3938D01*
X192D01*
X203Y3939D01*
X212Y3940D01*
X219Y3942D01*
X226Y3945D01*
X231Y3947D01*
X235Y3949D01*
X237Y3950D01*
X238Y3951D01*
X242Y3955D01*
X245Y3960D01*
X248Y3964D01*
X250Y3970D01*
X251Y3974D01*
X252Y3977D01*
X253Y3979D01*
Y3980D01*
X297Y3987D01*
Y3979D01*
X296Y3971D01*
X294Y3965D01*
X293Y3959D01*
X290Y3953D01*
X288Y3948D01*
X286Y3943D01*
X283Y3939D01*
X280Y3935D01*
X278Y3932D01*
X275Y3929D01*
X273Y3926D01*
X271Y3925D01*
X270Y3923D01*
X269Y3923D01*
X269Y3922D01*
X263Y3919D01*
X257Y3915D01*
X244Y3910D01*
X232Y3906D01*
X219Y3904D01*
X214Y3903D01*
X209Y3902D01*
X204Y3902D01*
X200D01*
X197Y3901D01*
X192D01*
X178Y3902D01*
X165Y3903D01*
X153Y3906D01*
X144Y3909D01*
X139Y3910D01*
X136Y3912D01*
X133Y3913D01*
X130Y3914D01*
X128Y3915D01*
X127Y3916D01*
X126Y3916D01*
X125D01*
X116Y3922D01*
X107Y3929D01*
X100Y3936D01*
X95Y3942D01*
X90Y3948D01*
X88Y3953D01*
X87Y3955D01*
X86Y3956D01*
X85Y3957D01*
Y3957D01*
X83Y3962D01*
X81Y3968D01*
X79Y3975D01*
X78Y3981D01*
X76Y3996D01*
X74Y4010D01*
X73Y4017D01*
X73Y4023D01*
Y4029D01*
X72Y4034D01*
Y4038D01*
Y4041D01*
Y4044D01*
Y4044D01*
Y4273D01*
X114D01*
Y4240D01*
X119Y4246D01*
X126Y4253D01*
X132Y4258D01*
X138Y4262D01*
X145Y4266D01*
X152Y4269D01*
X158Y4272D01*
X164Y4274D01*
X169Y4275D01*
X175Y4276D01*
X179Y4277D01*
X183Y4278D01*
X186D01*
X189Y4278D01*
X191D01*
X204Y4277D01*
D02*
G37*
G36*
X474Y4278D02*
X482Y4277D01*
X490Y4275D01*
X498Y4274D01*
X506Y4272D01*
X513Y4269D01*
X519Y4266D01*
X525Y4264D01*
X530Y4261D01*
X535Y4258D01*
X538Y4255D01*
X542Y4254D01*
X545Y4252D01*
X546Y4250D01*
X547Y4249D01*
X548Y4249D01*
X555Y4242D01*
X561Y4234D01*
X566Y4226D01*
X571Y4217D01*
X575Y4208D01*
X578Y4199D01*
X581Y4190D01*
X583Y4181D01*
X585Y4173D01*
X586Y4165D01*
X587Y4158D01*
X588Y4152D01*
Y4147D01*
X588Y4143D01*
Y4141D01*
Y4140D01*
X588Y4128D01*
X587Y4116D01*
X585Y4106D01*
X583Y4096D01*
X580Y4086D01*
X577Y4078D01*
X575Y4071D01*
X571Y4064D01*
X568Y4057D01*
X565Y4052D01*
X562Y4048D01*
X559Y4044D01*
X557Y4041D01*
X556Y4039D01*
X555Y4038D01*
X554Y4037D01*
X547Y4031D01*
X540Y4026D01*
X533Y4021D01*
X526Y4017D01*
X518Y4014D01*
X511Y4011D01*
X504Y4008D01*
X497Y4007D01*
X490Y4005D01*
X484Y4004D01*
X479Y4003D01*
X474Y4003D01*
X470D01*
X467Y4002D01*
X465D01*
X452Y4003D01*
X440Y4005D01*
X429Y4008D01*
X420Y4010D01*
X412Y4013D01*
X409Y4015D01*
X406Y4016D01*
X404Y4017D01*
X403Y4018D01*
X402Y4018D01*
X401D01*
X391Y4025D01*
X382Y4032D01*
X374Y4040D01*
X368Y4047D01*
X363Y4054D01*
X359Y4059D01*
X358Y4061D01*
X357Y4062D01*
X356Y4063D01*
Y4064D01*
X354Y4069D01*
X351Y4075D01*
X347Y4089D01*
X345Y4102D01*
X343Y4115D01*
X342Y4121D01*
X342Y4126D01*
X341Y4131D01*
X341Y4135D01*
Y4139D01*
Y4141D01*
Y4143D01*
Y4144D01*
X341Y4155D01*
X342Y4166D01*
X344Y4176D01*
X346Y4186D01*
X349Y4195D01*
X352Y4203D01*
X355Y4210D01*
X358Y4217D01*
X361Y4222D01*
X365Y4227D01*
X367Y4232D01*
X370Y4236D01*
X372Y4238D01*
X374Y4241D01*
X375Y4242D01*
X375Y4242D01*
X382Y4248D01*
X389Y4254D01*
X396Y4259D01*
X404Y4263D01*
X412Y4266D01*
X419Y4269D01*
X426Y4272D01*
X433Y4274D01*
X440Y4275D01*
X446Y4276D01*
X451Y4277D01*
X456Y4278D01*
X460Y4278D01*
X465D01*
X474Y4278D01*
D02*
G37*
G36*
X1138D02*
X1148Y4276D01*
X1156Y4274D01*
X1164Y4272D01*
X1172Y4268D01*
X1179Y4264D01*
X1185Y4261D01*
X1191Y4256D01*
X1196Y4252D01*
X1200Y4248D01*
X1203Y4245D01*
X1207Y4241D01*
X1209Y4239D01*
X1211Y4236D01*
X1211Y4235D01*
X1212Y4235D01*
Y4273D01*
X1252D01*
Y4008D01*
X1208D01*
Y4152D01*
X1207Y4161D01*
X1207Y4169D01*
X1206Y4177D01*
X1204Y4184D01*
X1203Y4190D01*
X1201Y4196D01*
X1199Y4201D01*
X1197Y4206D01*
X1195Y4209D01*
X1194Y4212D01*
X1192Y4215D01*
X1191Y4217D01*
X1189Y4219D01*
X1188Y4220D01*
X1187Y4221D01*
X1179Y4227D01*
X1171Y4232D01*
X1162Y4235D01*
X1154Y4237D01*
X1148Y4238D01*
X1142Y4239D01*
X1140Y4239D01*
X1137D01*
X1131Y4239D01*
X1125Y4238D01*
X1120Y4236D01*
X1116Y4235D01*
X1112Y4234D01*
X1109Y4232D01*
X1107Y4231D01*
X1107Y4231D01*
X1102Y4227D01*
X1098Y4224D01*
X1095Y4220D01*
X1092Y4217D01*
X1090Y4214D01*
X1089Y4211D01*
X1088Y4209D01*
Y4209D01*
X1086Y4203D01*
X1085Y4197D01*
X1084Y4190D01*
X1083Y4184D01*
Y4178D01*
X1082Y4173D01*
Y4171D01*
Y4170D01*
Y4169D01*
Y4169D01*
Y4008D01*
X1038D01*
Y4170D01*
Y4181D01*
X1038Y4190D01*
X1039Y4198D01*
X1039Y4204D01*
X1040Y4208D01*
X1040Y4211D01*
X1040Y4213D01*
Y4214D01*
X1042Y4221D01*
X1044Y4227D01*
X1047Y4233D01*
X1049Y4237D01*
X1051Y4242D01*
X1053Y4245D01*
X1054Y4246D01*
X1054Y4247D01*
X1059Y4252D01*
X1063Y4256D01*
X1068Y4260D01*
X1073Y4263D01*
X1078Y4266D01*
X1081Y4268D01*
X1083Y4269D01*
X1084Y4269D01*
X1092Y4272D01*
X1099Y4274D01*
X1107Y4276D01*
X1114Y4277D01*
X1120Y4278D01*
X1124Y4278D01*
X1128D01*
X1138Y4278D01*
D02*
G37*
G36*
X1696D02*
X1708Y4276D01*
X1719Y4273D01*
X1728Y4270D01*
X1736Y4267D01*
X1740Y4266D01*
X1742Y4264D01*
X1744Y4264D01*
X1746Y4263D01*
X1747Y4262D01*
X1747D01*
X1757Y4255D01*
X1766Y4248D01*
X1774Y4240D01*
X1780Y4232D01*
X1784Y4225D01*
X1788Y4219D01*
X1789Y4217D01*
X1790Y4215D01*
X1790Y4214D01*
Y4214D01*
X1795Y4201D01*
X1799Y4188D01*
X1801Y4176D01*
X1802Y4164D01*
X1803Y4159D01*
Y4154D01*
X1804Y4150D01*
X1804Y4146D01*
Y4143D01*
Y4141D01*
Y4140D01*
Y4139D01*
X1804Y4127D01*
X1803Y4116D01*
X1801Y4105D01*
X1799Y4095D01*
X1797Y4086D01*
X1794Y4078D01*
X1791Y4070D01*
X1788Y4064D01*
X1785Y4057D01*
X1782Y4052D01*
X1779Y4048D01*
X1777Y4044D01*
X1774Y4041D01*
X1773Y4039D01*
X1772Y4038D01*
X1771Y4037D01*
X1765Y4031D01*
X1758Y4026D01*
X1751Y4021D01*
X1744Y4017D01*
X1737Y4014D01*
X1730Y4011D01*
X1723Y4008D01*
X1716Y4007D01*
X1709Y4005D01*
X1704Y4004D01*
X1698Y4003D01*
X1694Y4003D01*
X1690D01*
X1687Y4002D01*
X1685D01*
X1676Y4003D01*
X1669Y4003D01*
X1655Y4006D01*
X1643Y4010D01*
X1637Y4013D01*
X1632Y4015D01*
X1628Y4017D01*
X1623Y4019D01*
X1620Y4022D01*
X1617Y4024D01*
X1615Y4025D01*
X1613Y4027D01*
X1612Y4027D01*
X1612Y4027D01*
X1607Y4033D01*
X1601Y4038D01*
X1597Y4044D01*
X1593Y4049D01*
X1587Y4061D01*
X1582Y4073D01*
X1580Y4078D01*
X1578Y4083D01*
X1577Y4087D01*
X1576Y4091D01*
X1575Y4094D01*
X1575Y4097D01*
X1574Y4098D01*
Y4099D01*
X1619Y4105D01*
X1621Y4093D01*
X1624Y4083D01*
X1628Y4074D01*
X1632Y4067D01*
X1635Y4062D01*
X1638Y4058D01*
X1640Y4056D01*
X1641Y4055D01*
X1648Y4050D01*
X1656Y4046D01*
X1663Y4043D01*
X1670Y4041D01*
X1676Y4040D01*
X1681Y4040D01*
X1683Y4039D01*
X1685D01*
X1691Y4040D01*
X1697Y4040D01*
X1707Y4043D01*
X1716Y4047D01*
X1724Y4051D01*
X1730Y4055D01*
X1734Y4059D01*
X1737Y4062D01*
X1738Y4063D01*
X1738Y4063D01*
X1742Y4068D01*
X1745Y4074D01*
X1750Y4085D01*
X1753Y4098D01*
X1756Y4111D01*
X1756Y4117D01*
X1757Y4122D01*
X1758Y4127D01*
Y4132D01*
X1758Y4135D01*
Y4138D01*
Y4140D01*
Y4141D01*
X1758Y4150D01*
X1757Y4159D01*
X1756Y4167D01*
X1755Y4175D01*
X1753Y4181D01*
X1752Y4188D01*
X1750Y4193D01*
X1748Y4198D01*
X1746Y4203D01*
X1744Y4207D01*
X1742Y4210D01*
X1741Y4212D01*
X1739Y4215D01*
X1738Y4216D01*
X1737Y4217D01*
Y4217D01*
X1733Y4221D01*
X1729Y4225D01*
X1724Y4228D01*
X1720Y4231D01*
X1711Y4236D01*
X1702Y4238D01*
X1695Y4240D01*
X1691Y4240D01*
X1688Y4241D01*
X1686Y4241D01*
X1683D01*
X1675Y4241D01*
X1667Y4239D01*
X1661Y4237D01*
X1655Y4235D01*
X1651Y4232D01*
X1648Y4230D01*
X1645Y4228D01*
X1645Y4227D01*
X1639Y4222D01*
X1635Y4216D01*
X1631Y4209D01*
X1628Y4203D01*
X1625Y4197D01*
X1624Y4192D01*
X1623Y4190D01*
Y4189D01*
X1622Y4188D01*
Y4188D01*
X1579Y4195D01*
X1582Y4209D01*
X1588Y4221D01*
X1593Y4232D01*
X1600Y4241D01*
X1602Y4244D01*
X1605Y4247D01*
X1608Y4250D01*
X1610Y4253D01*
X1612Y4254D01*
X1613Y4255D01*
X1614Y4256D01*
X1614Y4256D01*
X1620Y4260D01*
X1625Y4264D01*
X1637Y4269D01*
X1648Y4273D01*
X1659Y4275D01*
X1665Y4276D01*
X1669Y4277D01*
X1673Y4278D01*
X1677D01*
X1680Y4278D01*
X1684D01*
X1696Y4278D01*
D02*
G37*
G36*
X1977D02*
X1986Y4277D01*
X1995Y4275D01*
X2004Y4273D01*
X2011Y4270D01*
X2019Y4266D01*
X2026Y4263D01*
X2032Y4260D01*
X2037Y4256D01*
X2042Y4253D01*
X2046Y4250D01*
X2049Y4247D01*
X2052Y4245D01*
X2054Y4243D01*
X2055Y4242D01*
X2056Y4241D01*
X2062Y4234D01*
X2067Y4226D01*
X2071Y4218D01*
X2076Y4209D01*
X2079Y4201D01*
X2081Y4192D01*
X2084Y4184D01*
X2085Y4176D01*
X2087Y4168D01*
X2088Y4161D01*
X2089Y4154D01*
X2089Y4149D01*
Y4144D01*
X2090Y4141D01*
Y4139D01*
Y4138D01*
X2089Y4126D01*
X2088Y4115D01*
X2086Y4105D01*
X2085Y4095D01*
X2082Y4086D01*
X2079Y4078D01*
X2076Y4071D01*
X2073Y4064D01*
X2070Y4058D01*
X2066Y4053D01*
X2064Y4048D01*
X2061Y4045D01*
X2059Y4042D01*
X2057Y4040D01*
X2057Y4038D01*
X2056Y4038D01*
X2049Y4032D01*
X2042Y4026D01*
X2035Y4021D01*
X2027Y4017D01*
X2019Y4014D01*
X2012Y4011D01*
X2004Y4008D01*
X1997Y4007D01*
X1990Y4005D01*
X1984Y4004D01*
X1978Y4003D01*
X1973Y4003D01*
X1970D01*
X1966Y4002D01*
X1964D01*
X1955Y4003D01*
X1947Y4003D01*
X1933Y4006D01*
X1926Y4008D01*
X1920Y4009D01*
X1914Y4011D01*
X1909Y4014D01*
X1904Y4016D01*
X1900Y4017D01*
X1896Y4019D01*
X1894Y4021D01*
X1891Y4023D01*
X1890Y4024D01*
X1889Y4025D01*
X1888D01*
X1878Y4034D01*
X1870Y4044D01*
X1863Y4055D01*
X1857Y4065D01*
X1853Y4074D01*
X1851Y4078D01*
X1850Y4081D01*
X1849Y4084D01*
X1848Y4086D01*
X1848Y4087D01*
Y4088D01*
X1895Y4094D01*
X1898Y4084D01*
X1903Y4075D01*
X1908Y4068D01*
X1912Y4062D01*
X1916Y4058D01*
X1919Y4055D01*
X1921Y4053D01*
X1922Y4052D01*
X1929Y4048D01*
X1936Y4045D01*
X1943Y4043D01*
X1949Y4041D01*
X1955Y4040D01*
X1960Y4039D01*
X1964D01*
X1970Y4040D01*
X1976Y4040D01*
X1987Y4043D01*
X1996Y4046D01*
X2004Y4051D01*
X2010Y4055D01*
X2016Y4059D01*
X2017Y4060D01*
X2018Y4061D01*
X2019Y4062D01*
X2019Y4062D01*
X2023Y4067D01*
X2027Y4072D01*
X2032Y4082D01*
X2037Y4093D01*
X2040Y4104D01*
X2042Y4113D01*
X2042Y4118D01*
X2043Y4122D01*
X2043Y4124D01*
X2044Y4127D01*
Y4128D01*
Y4129D01*
X1847D01*
X1846Y4134D01*
Y4138D01*
Y4140D01*
Y4141D01*
X1847Y4152D01*
X1848Y4164D01*
X1849Y4174D01*
X1851Y4184D01*
X1854Y4193D01*
X1857Y4201D01*
X1860Y4209D01*
X1863Y4216D01*
X1866Y4222D01*
X1869Y4227D01*
X1872Y4232D01*
X1875Y4236D01*
X1876Y4238D01*
X1878Y4240D01*
X1879Y4242D01*
X1880Y4242D01*
X1886Y4248D01*
X1893Y4254D01*
X1900Y4259D01*
X1908Y4263D01*
X1915Y4266D01*
X1922Y4269D01*
X1929Y4272D01*
X1936Y4274D01*
X1942Y4275D01*
X1948Y4276D01*
X1953Y4277D01*
X1958Y4278D01*
X1962Y4278D01*
X1967D01*
X1977Y4278D01*
D02*
G37*
G36*
X2408Y4330D02*
X2288D01*
Y4008D01*
X2239D01*
Y4330D01*
X2119D01*
Y4373D01*
X2408D01*
Y4330D01*
D02*
G37*
G36*
X-71Y4008D02*
X-69Y4003D01*
X-67Y4000D01*
X-67Y3998D01*
X-66Y3997D01*
X-64Y3992D01*
X-63Y3988D01*
X-60Y3980D01*
X-58Y3975D01*
X-56Y3970D01*
X-54Y3967D01*
X-53Y3965D01*
X-52Y3964D01*
Y3963D01*
X-48Y3957D01*
X-43Y3953D01*
X-41Y3951D01*
X-39Y3950D01*
X-38Y3950D01*
X-38D01*
X-34Y3948D01*
X-31Y3947D01*
X-23Y3945D01*
X-19D01*
X-16Y3944D01*
X-14D01*
X-5Y3945D01*
X-1Y3946D01*
X3Y3947D01*
X6Y3947D01*
X9Y3948D01*
X11Y3949D01*
X11D01*
X6Y3907D01*
X1Y3905D01*
X-5Y3903D01*
X-10Y3903D01*
X-14Y3902D01*
X-17Y3902D01*
X-20Y3901D01*
X-23D01*
X-30Y3902D01*
X-37Y3903D01*
X-43Y3904D01*
X-49Y3906D01*
X-53Y3908D01*
X-56Y3910D01*
X-59Y3911D01*
X-59Y3912D01*
X-65Y3916D01*
X-70Y3921D01*
X-75Y3926D01*
X-79Y3932D01*
X-82Y3936D01*
X-85Y3941D01*
X-86Y3943D01*
X-87Y3944D01*
X-89Y3947D01*
X-91Y3951D01*
X-94Y3960D01*
X-99Y3970D01*
X-103Y3980D01*
X-106Y3989D01*
X-108Y3993D01*
X-109Y3997D01*
X-110Y3999D01*
X-111Y4002D01*
X-112Y4003D01*
Y4004D01*
X-212Y4273D01*
X-167D01*
X-111Y4118D01*
X-107Y4107D01*
X-103Y4096D01*
X-100Y4086D01*
X-97Y4077D01*
X-95Y4070D01*
X-94Y4066D01*
X-93Y4064D01*
X-93Y4061D01*
X-92Y4060D01*
X-92Y4059D01*
Y4058D01*
X-89Y4070D01*
X-85Y4082D01*
X-82Y4092D01*
X-79Y4101D01*
X-77Y4109D01*
X-76Y4112D01*
X-75Y4114D01*
X-74Y4117D01*
X-73Y4118D01*
X-73Y4119D01*
Y4120D01*
X-17Y4273D01*
X30D01*
X-71Y4008D01*
D02*
G37*
G36*
X3549Y5043D02*
X3335Y5328D01*
X3549Y5612D01*
Y5043D01*
D02*
G37*
G36*
X8842Y4533D02*
X8453Y4922D01*
X8842D01*
Y4533D01*
D02*
G37*
G36*
X3830Y4008D02*
X3602D01*
Y4051D01*
X3782D01*
Y4373D01*
X3830D01*
Y4008D01*
D02*
G37*
G36*
X3323Y4278D02*
X3332Y4276D01*
X3341Y4274D01*
X3349Y4272D01*
X3357Y4268D01*
X3363Y4264D01*
X3369Y4261D01*
X3375Y4256D01*
X3380Y4252D01*
X3385Y4248D01*
X3388Y4245D01*
X3391Y4241D01*
X3394Y4239D01*
X3395Y4236D01*
X3396Y4235D01*
X3396Y4235D01*
Y4273D01*
X3437D01*
Y4008D01*
X3392D01*
Y4152D01*
X3392Y4161D01*
X3391Y4169D01*
X3390Y4177D01*
X3389Y4184D01*
X3387Y4190D01*
X3386Y4196D01*
X3384Y4201D01*
X3382Y4206D01*
X3380Y4209D01*
X3378Y4212D01*
X3377Y4215D01*
X3375Y4217D01*
X3374Y4219D01*
X3373Y4220D01*
X3372Y4221D01*
X3364Y4227D01*
X3355Y4232D01*
X3347Y4235D01*
X3339Y4237D01*
X3332Y4238D01*
X3327Y4239D01*
X3325Y4239D01*
X3322D01*
X3316Y4239D01*
X3310Y4238D01*
X3304Y4236D01*
X3300Y4235D01*
X3296Y4234D01*
X3293Y4232D01*
X3291Y4231D01*
X3291Y4231D01*
X3286Y4227D01*
X3282Y4224D01*
X3279Y4220D01*
X3277Y4217D01*
X3275Y4214D01*
X3273Y4211D01*
X3272Y4209D01*
Y4209D01*
X3271Y4203D01*
X3269Y4197D01*
X3268Y4190D01*
X3267Y4184D01*
Y4178D01*
X3267Y4173D01*
Y4171D01*
Y4170D01*
Y4169D01*
Y4169D01*
Y4008D01*
X3222D01*
Y4170D01*
Y4181D01*
X3223Y4190D01*
X3223Y4198D01*
X3224Y4204D01*
X3224Y4208D01*
X3225Y4211D01*
X3225Y4213D01*
Y4214D01*
X3227Y4221D01*
X3229Y4227D01*
X3231Y4233D01*
X3233Y4237D01*
X3235Y4242D01*
X3237Y4245D01*
X3238Y4246D01*
X3239Y4247D01*
X3243Y4252D01*
X3248Y4256D01*
X3253Y4260D01*
X3257Y4263D01*
X3262Y4266D01*
X3265Y4268D01*
X3268Y4269D01*
X3269Y4269D01*
X3276Y4272D01*
X3284Y4274D01*
X3291Y4276D01*
X3298Y4277D01*
X3304Y4278D01*
X3309Y4278D01*
X3313D01*
X3323Y4278D01*
D02*
G37*
G36*
X3550Y4008D02*
X3506D01*
Y4273D01*
X3550D01*
Y4008D01*
D02*
G37*
G36*
Y4322D02*
X3506D01*
Y4373D01*
X3550D01*
Y4322D01*
D02*
G37*
G36*
X1536Y4008D02*
X1491D01*
Y4152D01*
X1491Y4163D01*
X1490Y4173D01*
X1489Y4182D01*
X1487Y4188D01*
X1487Y4194D01*
X1485Y4198D01*
X1485Y4200D01*
X1484Y4201D01*
X1481Y4207D01*
X1477Y4213D01*
X1473Y4218D01*
X1468Y4222D01*
X1465Y4225D01*
X1462Y4227D01*
X1460Y4229D01*
X1459Y4229D01*
X1452Y4233D01*
X1446Y4236D01*
X1439Y4237D01*
X1434Y4238D01*
X1429Y4239D01*
X1425Y4240D01*
X1422D01*
X1412Y4239D01*
X1404Y4237D01*
X1397Y4235D01*
X1391Y4232D01*
X1387Y4229D01*
X1383Y4226D01*
X1381Y4225D01*
X1381Y4224D01*
X1376Y4217D01*
X1372Y4210D01*
X1370Y4202D01*
X1368Y4194D01*
X1367Y4187D01*
X1366Y4183D01*
X1366Y4181D01*
Y4179D01*
Y4177D01*
Y4176D01*
Y4175D01*
Y4008D01*
X1321D01*
Y4175D01*
X1322Y4189D01*
X1323Y4201D01*
X1324Y4211D01*
X1326Y4219D01*
X1328Y4226D01*
X1329Y4231D01*
X1330Y4234D01*
X1331Y4235D01*
X1335Y4242D01*
X1340Y4248D01*
X1345Y4254D01*
X1350Y4258D01*
X1354Y4262D01*
X1358Y4264D01*
X1361Y4266D01*
X1362Y4266D01*
X1362D01*
X1370Y4270D01*
X1379Y4273D01*
X1387Y4275D01*
X1395Y4277D01*
X1402Y4278D01*
X1408Y4278D01*
X1412D01*
X1421Y4278D01*
X1429Y4277D01*
X1438Y4275D01*
X1445Y4273D01*
X1452Y4270D01*
X1458Y4267D01*
X1464Y4264D01*
X1470Y4260D01*
X1475Y4256D01*
X1479Y4253D01*
X1483Y4250D01*
X1486Y4247D01*
X1488Y4245D01*
X1490Y4243D01*
X1491Y4242D01*
X1491Y4242D01*
Y4373D01*
X1536D01*
Y4008D01*
D02*
G37*
G36*
X3153D02*
X3109D01*
Y4112D01*
X3077Y4143D01*
X2989Y4008D01*
X2934D01*
X3045Y4174D01*
X2944Y4273D01*
X3003D01*
X3109Y4165D01*
Y4373D01*
X3153D01*
Y4008D01*
D02*
G37*
G36*
X4022Y4118D02*
X3884D01*
Y4163D01*
X4022D01*
Y4118D01*
D02*
G37*
%LPC*%
G36*
X1969Y4241D02*
X1966D01*
X1960Y4241D01*
X1954Y4240D01*
X1943Y4237D01*
X1933Y4233D01*
X1925Y4228D01*
X1919Y4223D01*
X1914Y4219D01*
X1913Y4217D01*
X1912Y4216D01*
X1911Y4216D01*
Y4215D01*
X1906Y4208D01*
X1902Y4200D01*
X1899Y4192D01*
X1897Y4184D01*
X1895Y4177D01*
X1895Y4174D01*
Y4171D01*
X1894Y4169D01*
X1894Y4167D01*
Y4166D01*
Y4166D01*
X2041D01*
X2040Y4178D01*
X2037Y4188D01*
X2033Y4198D01*
X2029Y4206D01*
X2025Y4212D01*
X2022Y4217D01*
X2019Y4219D01*
X2018Y4220D01*
X2014Y4224D01*
X2010Y4227D01*
X2001Y4232D01*
X1992Y4236D01*
X1984Y4239D01*
X1977Y4240D01*
X1974Y4241D01*
X1971D01*
X1969Y4241D01*
D02*
G37*
G36*
X1003Y5042D02*
X889D01*
X883Y5041D01*
X877Y5040D01*
X872Y5039D01*
X866Y5038D01*
X862Y5037D01*
X858Y5035D01*
X854Y5034D01*
X848Y5031D01*
X844Y5028D01*
X842Y5027D01*
X841Y5026D01*
X835Y5020D01*
X831Y5013D01*
X828Y5006D01*
X825Y5000D01*
X824Y4994D01*
X824Y4990D01*
X823Y4988D01*
Y4987D01*
Y4987D01*
Y4986D01*
X824Y4980D01*
X824Y4975D01*
X826Y4969D01*
X828Y4965D01*
X829Y4961D01*
X831Y4958D01*
X832Y4956D01*
X832Y4956D01*
X836Y4951D01*
X840Y4946D01*
X845Y4943D01*
X849Y4940D01*
X853Y4938D01*
X856Y4937D01*
X858Y4936D01*
X859Y4935D01*
X866Y4933D01*
X873Y4932D01*
X882Y4931D01*
X889Y4930D01*
X896Y4930D01*
X899Y4929D01*
X1003D01*
Y5042D01*
D02*
G37*
G36*
X191Y4241D02*
X188D01*
X182Y4241D01*
X177Y4240D01*
X167Y4237D01*
X158Y4234D01*
X150Y4229D01*
X145Y4224D01*
X140Y4220D01*
X137Y4217D01*
X136Y4217D01*
Y4217D01*
X132Y4212D01*
X129Y4206D01*
X123Y4195D01*
X119Y4182D01*
X117Y4171D01*
X116Y4165D01*
X115Y4160D01*
X115Y4155D01*
Y4151D01*
X114Y4148D01*
Y4146D01*
Y4144D01*
Y4143D01*
Y4134D01*
X115Y4126D01*
X116Y4118D01*
X118Y4110D01*
X119Y4103D01*
X121Y4097D01*
X123Y4092D01*
X125Y4087D01*
X127Y4083D01*
X128Y4079D01*
X130Y4076D01*
X132Y4074D01*
X133Y4071D01*
X134Y4070D01*
X135Y4069D01*
X135Y4069D01*
X139Y4065D01*
X143Y4061D01*
X147Y4058D01*
X152Y4055D01*
X161Y4051D01*
X169Y4048D01*
X176Y4046D01*
X179Y4046D01*
X182Y4045D01*
X184Y4045D01*
X187D01*
X193Y4045D01*
X198Y4046D01*
X208Y4049D01*
X217Y4053D01*
X225Y4057D01*
X231Y4061D01*
X235Y4065D01*
X238Y4068D01*
X239Y4068D01*
X239Y4069D01*
X243Y4074D01*
X246Y4079D01*
X251Y4091D01*
X254Y4103D01*
X257Y4116D01*
X258Y4122D01*
X259Y4127D01*
X259Y4132D01*
Y4136D01*
X260Y4140D01*
Y4142D01*
Y4144D01*
Y4145D01*
X259Y4153D01*
X259Y4161D01*
X258Y4169D01*
X256Y4176D01*
X255Y4182D01*
X253Y4188D01*
X251Y4194D01*
X249Y4198D01*
X247Y4203D01*
X245Y4207D01*
X243Y4209D01*
X242Y4212D01*
X241Y4214D01*
X240Y4216D01*
X239Y4216D01*
Y4217D01*
X235Y4221D01*
X231Y4225D01*
X226Y4228D01*
X222Y4231D01*
X214Y4235D01*
X205Y4238D01*
X198Y4240D01*
X193Y4241D01*
X191Y4241D01*
D02*
G37*
G36*
X2028Y3825D02*
X2025D01*
X2018Y3824D01*
X2012Y3824D01*
X2001Y3821D01*
X1990Y3816D01*
X1982Y3811D01*
X1975Y3805D01*
X1969Y3801D01*
X1966Y3798D01*
X1965Y3797D01*
Y3796D01*
X1961Y3791D01*
X1957Y3784D01*
X1950Y3771D01*
X1946Y3757D01*
X1943Y3744D01*
X1942Y3737D01*
X1941Y3731D01*
X1940Y3725D01*
Y3721D01*
X1940Y3717D01*
Y3714D01*
Y3712D01*
Y3712D01*
Y3701D01*
X1941Y3691D01*
X1942Y3682D01*
X1944Y3673D01*
X1945Y3666D01*
X1947Y3658D01*
X1950Y3652D01*
X1952Y3646D01*
X1954Y3641D01*
X1956Y3637D01*
X1958Y3634D01*
X1960Y3631D01*
X1962Y3628D01*
X1963Y3626D01*
X1963Y3626D01*
X1964Y3625D01*
X1968Y3620D01*
X1973Y3617D01*
X1978Y3613D01*
X1984Y3609D01*
X1994Y3604D01*
X2003Y3601D01*
X2011Y3600D01*
X2015Y3599D01*
X2018Y3598D01*
X2021Y3598D01*
X2024D01*
X2031Y3598D01*
X2037Y3599D01*
X2049Y3602D01*
X2059Y3607D01*
X2068Y3612D01*
X2075Y3617D01*
X2080Y3621D01*
X2083Y3624D01*
X2084Y3625D01*
X2084Y3625D01*
X2089Y3631D01*
X2092Y3637D01*
X2098Y3651D01*
X2102Y3666D01*
X2105Y3680D01*
X2106Y3686D01*
X2107Y3693D01*
X2107Y3699D01*
Y3703D01*
X2108Y3708D01*
Y3711D01*
Y3713D01*
Y3713D01*
X2107Y3723D01*
X2107Y3733D01*
X2106Y3741D01*
X2104Y3750D01*
X2103Y3757D01*
X2100Y3764D01*
X2098Y3770D01*
X2096Y3776D01*
X2094Y3780D01*
X2092Y3785D01*
X2089Y3788D01*
X2088Y3791D01*
X2086Y3794D01*
X2085Y3795D01*
X2084Y3796D01*
Y3796D01*
X2079Y3801D01*
X2075Y3806D01*
X2070Y3810D01*
X2065Y3813D01*
X2055Y3818D01*
X2045Y3822D01*
X2037Y3823D01*
X2031Y3824D01*
X2028Y3825D01*
D02*
G37*
G36*
X1362D02*
X1359D01*
X1352Y3824D01*
X1345Y3824D01*
X1332Y3820D01*
X1321Y3816D01*
X1312Y3810D01*
X1304Y3804D01*
X1299Y3800D01*
X1297Y3798D01*
X1296Y3796D01*
X1295Y3795D01*
Y3795D01*
X1289Y3787D01*
X1285Y3778D01*
X1281Y3768D01*
X1279Y3759D01*
X1277Y3751D01*
X1276Y3747D01*
Y3744D01*
X1275Y3741D01*
X1275Y3739D01*
Y3738D01*
Y3738D01*
X1446D01*
X1444Y3752D01*
X1441Y3764D01*
X1436Y3775D01*
X1432Y3784D01*
X1427Y3791D01*
X1423Y3796D01*
X1421Y3800D01*
X1419Y3801D01*
X1415Y3805D01*
X1410Y3809D01*
X1400Y3815D01*
X1389Y3819D01*
X1380Y3822D01*
X1372Y3824D01*
X1368Y3824D01*
X1365D01*
X1362Y3825D01*
D02*
G37*
G36*
X2347D02*
X2344D01*
X2337Y3824D01*
X2330Y3824D01*
X2317Y3820D01*
X2306Y3816D01*
X2297Y3810D01*
X2290Y3804D01*
X2284Y3800D01*
X2282Y3798D01*
X2281Y3796D01*
X2280Y3795D01*
Y3795D01*
X2274Y3787D01*
X2270Y3778D01*
X2266Y3768D01*
X2264Y3759D01*
X2262Y3751D01*
X2261Y3747D01*
Y3744D01*
X2260Y3741D01*
X2260Y3739D01*
Y3738D01*
Y3738D01*
X2431D01*
X2429Y3752D01*
X2426Y3764D01*
X2422Y3775D01*
X2417Y3784D01*
X2412Y3791D01*
X2408Y3796D01*
X2406Y3800D01*
X2404Y3801D01*
X2400Y3805D01*
X2395Y3809D01*
X2385Y3815D01*
X2374Y3819D01*
X2365Y3822D01*
X2357Y3824D01*
X2353Y3824D01*
X2350D01*
X2347Y3825D01*
D02*
G37*
G36*
X1700D02*
X1697D01*
X1690Y3824D01*
X1684Y3824D01*
X1672Y3821D01*
X1662Y3816D01*
X1653Y3811D01*
X1647Y3805D01*
X1641Y3801D01*
X1638Y3798D01*
X1637Y3797D01*
Y3796D01*
X1632Y3791D01*
X1628Y3784D01*
X1622Y3771D01*
X1617Y3757D01*
X1615Y3744D01*
X1614Y3737D01*
X1612Y3731D01*
X1612Y3725D01*
Y3721D01*
X1611Y3717D01*
Y3714D01*
Y3712D01*
Y3712D01*
Y3701D01*
X1612Y3691D01*
X1614Y3682D01*
X1615Y3673D01*
X1617Y3666D01*
X1619Y3658D01*
X1621Y3652D01*
X1623Y3646D01*
X1626Y3641D01*
X1628Y3637D01*
X1630Y3634D01*
X1632Y3631D01*
X1633Y3628D01*
X1635Y3626D01*
X1635Y3626D01*
X1636Y3625D01*
X1640Y3620D01*
X1645Y3617D01*
X1650Y3613D01*
X1655Y3609D01*
X1665Y3604D01*
X1675Y3601D01*
X1683Y3600D01*
X1687Y3599D01*
X1690Y3598D01*
X1692Y3598D01*
X1696D01*
X1702Y3598D01*
X1709Y3599D01*
X1720Y3602D01*
X1731Y3607D01*
X1740Y3612D01*
X1747Y3617D01*
X1752Y3621D01*
X1755Y3624D01*
X1755Y3625D01*
X1756Y3625D01*
X1760Y3631D01*
X1764Y3637D01*
X1770Y3651D01*
X1774Y3666D01*
X1777Y3680D01*
X1778Y3686D01*
X1779Y3693D01*
X1779Y3699D01*
Y3703D01*
X1780Y3708D01*
Y3711D01*
Y3713D01*
Y3713D01*
X1779Y3723D01*
X1779Y3733D01*
X1778Y3741D01*
X1776Y3750D01*
X1774Y3757D01*
X1772Y3764D01*
X1770Y3770D01*
X1768Y3776D01*
X1765Y3780D01*
X1763Y3785D01*
X1761Y3788D01*
X1759Y3791D01*
X1758Y3794D01*
X1757Y3795D01*
X1755Y3796D01*
Y3796D01*
X1751Y3801D01*
X1746Y3806D01*
X1741Y3810D01*
X1736Y3813D01*
X1726Y3818D01*
X1717Y3822D01*
X1709Y3823D01*
X1702Y3824D01*
X1700Y3825D01*
D02*
G37*
G36*
X865Y4241D02*
X862D01*
X856Y4241D01*
X850Y4240D01*
X839Y4237D01*
X830Y4233D01*
X821Y4228D01*
X815Y4224D01*
X810Y4219D01*
X809Y4218D01*
X807Y4217D01*
X807Y4216D01*
X806Y4216D01*
X803Y4211D01*
X799Y4205D01*
X793Y4193D01*
X789Y4181D01*
X787Y4169D01*
X786Y4163D01*
X785Y4158D01*
X784Y4154D01*
Y4150D01*
X784Y4146D01*
Y4144D01*
Y4142D01*
Y4141D01*
Y4132D01*
X785Y4123D01*
X786Y4115D01*
X787Y4108D01*
X789Y4101D01*
X791Y4094D01*
X793Y4089D01*
X795Y4084D01*
X797Y4079D01*
X799Y4075D01*
X801Y4072D01*
X803Y4069D01*
X804Y4067D01*
X805Y4066D01*
X806Y4065D01*
X806Y4065D01*
X811Y4060D01*
X815Y4056D01*
X820Y4053D01*
X824Y4050D01*
X834Y4045D01*
X842Y4043D01*
X850Y4041D01*
X853Y4040D01*
X856Y4040D01*
X859Y4039D01*
X862D01*
X868Y4040D01*
X874Y4040D01*
X885Y4043D01*
X894Y4047D01*
X902Y4052D01*
X908Y4056D01*
X914Y4061D01*
X915Y4062D01*
X917Y4064D01*
X917Y4064D01*
X917Y4065D01*
X921Y4070D01*
X925Y4075D01*
X930Y4087D01*
X934Y4100D01*
X936Y4112D01*
X937Y4117D01*
X938Y4123D01*
X939Y4128D01*
Y4132D01*
X939Y4135D01*
Y4138D01*
Y4140D01*
Y4140D01*
X939Y4149D01*
X938Y4158D01*
X937Y4166D01*
X936Y4173D01*
X934Y4180D01*
X932Y4187D01*
X930Y4192D01*
X928Y4197D01*
X926Y4202D01*
X925Y4206D01*
X923Y4208D01*
X921Y4211D01*
X919Y4213D01*
X918Y4215D01*
X917Y4216D01*
Y4216D01*
X913Y4220D01*
X908Y4225D01*
X904Y4228D01*
X899Y4231D01*
X890Y4235D01*
X881Y4238D01*
X874Y4240D01*
X870Y4240D01*
X868Y4241D01*
X865Y4241D01*
D02*
G37*
G36*
X468D02*
X465D01*
X459Y4241D01*
X453Y4240D01*
X442Y4237D01*
X432Y4233D01*
X424Y4228D01*
X418Y4224D01*
X413Y4219D01*
X412Y4218D01*
X410Y4217D01*
X410Y4216D01*
X409Y4216D01*
X405Y4211D01*
X402Y4205D01*
X396Y4193D01*
X392Y4181D01*
X390Y4169D01*
X389Y4163D01*
X388Y4158D01*
X387Y4154D01*
Y4150D01*
X387Y4146D01*
Y4144D01*
Y4142D01*
Y4141D01*
Y4132D01*
X388Y4123D01*
X389Y4115D01*
X390Y4108D01*
X392Y4101D01*
X394Y4094D01*
X396Y4089D01*
X398Y4084D01*
X400Y4079D01*
X402Y4075D01*
X404Y4072D01*
X406Y4069D01*
X407Y4067D01*
X408Y4066D01*
X409Y4065D01*
X409Y4065D01*
X413Y4060D01*
X418Y4056D01*
X422Y4053D01*
X427Y4050D01*
X437Y4045D01*
X445Y4043D01*
X453Y4041D01*
X456Y4040D01*
X459Y4040D01*
X461Y4039D01*
X465D01*
X471Y4040D01*
X477Y4040D01*
X488Y4043D01*
X497Y4047D01*
X505Y4052D01*
X511Y4056D01*
X517Y4061D01*
X518Y4062D01*
X519Y4064D01*
X520Y4064D01*
X520Y4065D01*
X524Y4070D01*
X527Y4075D01*
X533Y4087D01*
X537Y4100D01*
X539Y4112D01*
X540Y4117D01*
X541Y4123D01*
X542Y4128D01*
Y4132D01*
X542Y4135D01*
Y4138D01*
Y4140D01*
Y4140D01*
X542Y4149D01*
X541Y4158D01*
X540Y4166D01*
X539Y4173D01*
X537Y4180D01*
X535Y4187D01*
X533Y4192D01*
X531Y4197D01*
X529Y4202D01*
X527Y4206D01*
X526Y4208D01*
X524Y4211D01*
X522Y4213D01*
X521Y4215D01*
X520Y4216D01*
Y4216D01*
X516Y4220D01*
X511Y4225D01*
X507Y4228D01*
X502Y4231D01*
X493Y4235D01*
X484Y4238D01*
X477Y4240D01*
X473Y4240D01*
X470Y4241D01*
X468Y4241D01*
D02*
G37*
G36*
X380Y3825D02*
X376D01*
X369Y3824D01*
X362Y3824D01*
X350Y3821D01*
X339Y3816D01*
X329Y3810D01*
X322Y3805D01*
X316Y3800D01*
X314Y3798D01*
X313Y3796D01*
X312Y3796D01*
X312Y3795D01*
X307Y3790D01*
X303Y3783D01*
X297Y3769D01*
X292Y3755D01*
X289Y3741D01*
X288Y3735D01*
X287Y3729D01*
X286Y3724D01*
Y3719D01*
X286Y3715D01*
Y3712D01*
Y3710D01*
Y3710D01*
Y3699D01*
X287Y3689D01*
X288Y3679D01*
X290Y3670D01*
X292Y3662D01*
X294Y3655D01*
X296Y3648D01*
X299Y3642D01*
X301Y3637D01*
X303Y3633D01*
X306Y3629D01*
X308Y3626D01*
X310Y3624D01*
X311Y3622D01*
X311Y3621D01*
X312Y3620D01*
X317Y3615D01*
X322Y3611D01*
X327Y3607D01*
X333Y3603D01*
X344Y3598D01*
X354Y3595D01*
X362Y3593D01*
X366Y3592D01*
X369Y3592D01*
X372Y3591D01*
X376D01*
X383Y3592D01*
X390Y3592D01*
X402Y3596D01*
X413Y3601D01*
X423Y3606D01*
X430Y3611D01*
X436Y3616D01*
X438Y3618D01*
X439Y3619D01*
X440Y3620D01*
X440Y3620D01*
X445Y3626D01*
X449Y3633D01*
X455Y3646D01*
X460Y3661D01*
X462Y3675D01*
X464Y3681D01*
X465Y3688D01*
X465Y3694D01*
Y3699D01*
X466Y3702D01*
Y3705D01*
Y3707D01*
Y3708D01*
X465Y3718D01*
X465Y3729D01*
X464Y3738D01*
X462Y3746D01*
X460Y3755D01*
X457Y3762D01*
X455Y3768D01*
X453Y3774D01*
X451Y3779D01*
X449Y3784D01*
X446Y3787D01*
X444Y3790D01*
X443Y3793D01*
X442Y3795D01*
X440Y3795D01*
Y3796D01*
X435Y3801D01*
X430Y3806D01*
X425Y3810D01*
X420Y3813D01*
X409Y3818D01*
X399Y3821D01*
X390Y3823D01*
X386Y3824D01*
X383Y3824D01*
X380Y3825D01*
D02*
G37*
%LPD*%
D30*
X6960Y6220D02*
X7900D01*
X6720Y5550D02*
Y5690D01*
X6960Y5020D02*
X7900D01*
X8140Y5550D02*
Y5690D01*
X5228Y1556D02*
Y1802D01*
Y1998D02*
Y2244D01*
X4932Y1556D02*
Y1802D01*
Y1998D02*
Y2244D01*
X5228D01*
X4932Y1556D02*
X5228D01*
X4938D02*
Y1802D01*
Y1998D02*
Y2244D01*
X4642Y1556D02*
Y1802D01*
Y1998D02*
Y2244D01*
X4938D01*
X4642Y1556D02*
X4938D01*
X5038Y596D02*
Y842D01*
Y1038D02*
Y1284D01*
X4742Y596D02*
Y842D01*
Y1038D02*
Y1284D01*
X5038D01*
X4742Y596D02*
X5038D01*
X6348Y616D02*
Y862D01*
Y1058D02*
Y1304D01*
X6052Y616D02*
Y862D01*
Y1058D02*
Y1304D01*
X6348D01*
X6052Y616D02*
X6348D01*
X6698D02*
Y862D01*
Y1058D02*
Y1304D01*
X6402Y616D02*
Y862D01*
Y1058D02*
Y1304D01*
X6698D01*
X6402Y616D02*
X6698D01*
X8926Y4372D02*
X9172D01*
X9368D02*
X9614D01*
X8926Y4668D02*
X9172D01*
X9368D02*
X9614D01*
Y4372D02*
Y4668D01*
X8926Y4372D02*
Y4668D01*
X9871Y1632D02*
X10117D01*
X10314D02*
X10560D01*
X9871Y1928D02*
X10117D01*
X10314D02*
X10560D01*
Y1632D02*
Y1928D01*
X9871Y1632D02*
Y1928D01*
Y1952D02*
X10117D01*
X10314D02*
X10560D01*
X9871Y2248D02*
X10117D01*
X10314D02*
X10560D01*
Y1952D02*
Y2248D01*
X9871Y1952D02*
Y2248D01*
X8776Y212D02*
X9022D01*
X9218D02*
X9464D01*
X8776Y508D02*
X9022D01*
X9218D02*
X9464D01*
Y212D02*
Y508D01*
X8776Y212D02*
Y508D01*
X8922Y1778D02*
Y2034D01*
Y1326D02*
Y1582D01*
X9198Y1778D02*
Y2034D01*
Y1326D02*
Y1582D01*
X8922Y1326D02*
X9198D01*
X8922Y2034D02*
X9198D01*
X4942Y2898D02*
Y3154D01*
Y2446D02*
Y2702D01*
X5218Y2898D02*
Y3154D01*
Y2446D02*
Y2702D01*
X4942Y2446D02*
X5218D01*
X4942Y3154D02*
X5218D01*
X8078Y1278D02*
X8334D01*
X7626D02*
X7882D01*
X8078Y1002D02*
X8334D01*
X7626D02*
X7882D01*
X7626D02*
Y1278D01*
X8334Y1002D02*
Y1278D01*
X5218Y3636D02*
Y3892D01*
Y4088D02*
Y4344D01*
X4942Y3636D02*
Y3892D01*
Y4088D02*
Y4344D01*
X5218D01*
X4942Y3636D02*
X5218D01*
X5713Y5007D02*
X6107D01*
X5713Y5933D02*
X6107D01*
X5713Y5568D02*
Y5933D01*
Y5007D02*
Y5372D01*
X6107Y5568D02*
Y5933D01*
Y5007D02*
Y5372D01*
X6378Y5016D02*
Y5272D01*
Y5468D02*
Y5724D01*
X6102Y5016D02*
Y5272D01*
Y5468D02*
Y5724D01*
X6378D01*
X6102Y5016D02*
X6378D01*
X4983Y4997D02*
X5377D01*
X4983Y5923D02*
X5377D01*
X4983Y5558D02*
Y5923D01*
Y4997D02*
Y5362D01*
X5377Y5558D02*
Y5923D01*
Y4997D02*
Y5362D01*
X6658Y5266D02*
Y5522D01*
Y5718D02*
Y5974D01*
X6382Y5266D02*
Y5522D01*
Y5718D02*
Y5974D01*
X6658D01*
X6382Y5266D02*
X6658D01*
X8202Y5718D02*
Y5974D01*
Y5266D02*
Y5522D01*
X8478Y5718D02*
Y5974D01*
Y5266D02*
Y5522D01*
X8202Y5266D02*
X8478D01*
X8202Y5974D02*
X8478D01*
X10553Y3776D02*
Y4032D01*
Y4228D02*
Y4484D01*
X10277Y3776D02*
Y4032D01*
Y4228D02*
Y4484D01*
X10553D01*
X10277Y3776D02*
X10553D01*
X9883Y3777D02*
X10277D01*
X9883Y4703D02*
X10277D01*
X9883Y4338D02*
Y4703D01*
Y3777D02*
Y4142D01*
X10277Y4338D02*
Y4703D01*
Y3777D02*
Y4142D01*
X8916Y4682D02*
X9172D01*
X9368D02*
X9624D01*
X8916Y4958D02*
X9172D01*
X9368D02*
X9624D01*
Y4682D02*
Y4958D01*
X8916Y4682D02*
Y4958D01*
X8458Y498D02*
X8714D01*
X8006D02*
X8262D01*
X8458Y222D02*
X8714D01*
X8006D02*
X8262D01*
X8006D02*
Y498D01*
X8714Y222D02*
Y498D01*
X9433Y5803D02*
Y6197D01*
X8507Y5803D02*
Y6197D01*
Y5803D02*
X8872D01*
X9068D02*
X9433D01*
X8507Y6197D02*
X8872D01*
X9068D02*
X9433D01*
D32*
X5208Y2208D02*
X4958D01*
Y2083D01*
X4999Y2042D01*
X5083D01*
X5124Y2083D01*
Y2208D01*
Y2125D02*
X5208Y2042D01*
Y1958D02*
Y1875D01*
Y1917D01*
X4958D01*
X4999Y1958D01*
X5208Y1625D02*
X4958D01*
X5083Y1750D01*
Y1584D01*
X7708Y5698D02*
X7541Y5448D01*
Y5698D02*
X7708Y5448D01*
X7458Y5657D02*
X7416Y5698D01*
X7333D01*
X7291Y5657D01*
Y5615D01*
X7333Y5573D01*
X7374D01*
X7333D01*
X7291Y5532D01*
Y5490D01*
X7333Y5448D01*
X7416D01*
X7458Y5490D01*
X7398Y3278D02*
Y3070D01*
X7356Y3028D01*
X7273D01*
X7231Y3070D01*
Y3278D01*
X7148Y3237D02*
X7106Y3278D01*
X7023D01*
X6981Y3237D01*
Y3195D01*
X7023Y3153D01*
X7064D01*
X7023D01*
X6981Y3112D01*
Y3070D01*
X7023Y3028D01*
X7106D01*
X7148Y3070D01*
X6328Y1168D02*
X6078D01*
Y1043D01*
X6119Y1002D01*
X6203D01*
X6244Y1043D01*
Y1168D01*
Y1085D02*
X6328Y1002D01*
X6078Y918D02*
Y752D01*
X6119D01*
X6286Y918D01*
X6328D01*
X6678Y1168D02*
X6428D01*
Y1043D01*
X6469Y1002D01*
X6553D01*
X6594Y1043D01*
Y1168D01*
Y1085D02*
X6678Y1002D01*
X6428Y752D02*
X6469Y835D01*
X6553Y918D01*
X6636D01*
X6678Y877D01*
Y793D01*
X6636Y752D01*
X6594D01*
X6553Y793D01*
Y918D01*
X9478Y4398D02*
Y4648D01*
X9353D01*
X9311Y4607D01*
Y4523D01*
X9353Y4482D01*
X9478D01*
X9394D02*
X9311Y4398D01*
X9061Y4648D02*
X9228D01*
Y4523D01*
X9144Y4565D01*
X9103D01*
X9061Y4523D01*
Y4440D01*
X9103Y4398D01*
X9186D01*
X9228Y4440D01*
X9328Y238D02*
Y488D01*
X9203D01*
X9161Y447D01*
Y363D01*
X9203Y322D01*
X9328D01*
X9244D02*
X9161Y238D01*
X8911D02*
X9078D01*
X8911Y405D01*
Y447D01*
X8953Y488D01*
X9036D01*
X9078Y447D01*
X10078Y3268D02*
Y3018D01*
X9953D01*
X9911Y3060D01*
Y3227D01*
X9953Y3268D01*
X10078D01*
X9661Y3018D02*
X9828D01*
X9661Y3185D01*
Y3227D01*
X9703Y3268D01*
X9786D01*
X9828Y3227D01*
X4999Y2962D02*
X4958Y3003D01*
Y3087D01*
X4999Y3128D01*
X5166D01*
X5208Y3087D01*
Y3003D01*
X5166Y2962D01*
X4999Y2878D02*
X4958Y2837D01*
Y2753D01*
X4999Y2712D01*
X5041D01*
X5083Y2753D01*
Y2795D01*
Y2753D01*
X5124Y2712D01*
X5166D01*
X5208Y2753D01*
Y2837D01*
X5166Y2878D01*
X4958Y2462D02*
X4999Y2545D01*
X5083Y2629D01*
X5166D01*
X5208Y2587D01*
Y2504D01*
X5166Y2462D01*
X5124D01*
X5083Y2504D01*
Y2629D01*
X8151Y1227D02*
X8193Y1268D01*
X8276D01*
X8318Y1227D01*
Y1060D01*
X8276Y1018D01*
X8193D01*
X8151Y1060D01*
X8068Y1227D02*
X8026Y1268D01*
X7943D01*
X7901Y1227D01*
Y1185D01*
X7943Y1143D01*
X7984D01*
X7943D01*
X7901Y1102D01*
Y1060D01*
X7943Y1018D01*
X8026D01*
X8068Y1060D01*
X7651Y1018D02*
X7818D01*
X7651Y1185D01*
Y1227D01*
X7693Y1268D01*
X7776D01*
X7818Y1227D01*
X5166Y3865D02*
X5207Y3823D01*
Y3740D01*
X5166Y3698D01*
X4999D01*
X4958Y3740D01*
Y3823D01*
X4999Y3865D01*
X5166Y3948D02*
X5207Y3990D01*
Y4073D01*
X5166Y4115D01*
X5124D01*
X5082Y4073D01*
Y4032D01*
Y4073D01*
X5041Y4115D01*
X4999D01*
X4958Y4073D01*
Y3990D01*
X4999Y3948D01*
X4958Y4198D02*
Y4281D01*
Y4240D01*
X5207D01*
X5166Y4198D01*
X9411Y4907D02*
X9453Y4948D01*
X9536D01*
X9578Y4907D01*
Y4740D01*
X9536Y4698D01*
X9453D01*
X9411Y4740D01*
X9328Y4698D02*
X9244D01*
X9286D01*
Y4948D01*
X9328Y4907D01*
X9119Y4740D02*
X9078Y4698D01*
X8994D01*
X8953Y4740D01*
Y4907D01*
X8994Y4948D01*
X9078D01*
X9119Y4907D01*
Y4865D01*
X9078Y4823D01*
X8953D01*
X5266Y5295D02*
X5307Y5253D01*
Y5170D01*
X5266Y5128D01*
X5099D01*
X5058Y5170D01*
Y5253D01*
X5099Y5295D01*
X5058Y5545D02*
Y5378D01*
X5224Y5545D01*
X5266D01*
X5307Y5503D01*
Y5420D01*
X5266Y5378D01*
X5307Y5795D02*
Y5628D01*
X5182D01*
X5224Y5711D01*
Y5753D01*
X5182Y5795D01*
X5099D01*
X5058Y5753D01*
Y5670D01*
X5099Y5628D01*
X6326Y5205D02*
X6367Y5163D01*
Y5080D01*
X6326Y5038D01*
X6159D01*
X6118Y5080D01*
Y5163D01*
X6159Y5205D01*
X6118Y5455D02*
Y5288D01*
X6284Y5455D01*
X6326D01*
X6367Y5413D01*
Y5330D01*
X6326Y5288D01*
X6367Y5705D02*
X6326Y5621D01*
X6242Y5538D01*
X6159D01*
X6118Y5580D01*
Y5663D01*
X6159Y5705D01*
X6201D01*
X6242Y5663D01*
Y5538D01*
X8426Y5455D02*
X8467Y5413D01*
Y5330D01*
X8426Y5288D01*
X8259D01*
X8218Y5330D01*
Y5413D01*
X8259Y5455D01*
X8218Y5705D02*
Y5538D01*
X8384Y5705D01*
X8426D01*
X8467Y5663D01*
Y5580D01*
X8426Y5538D01*
X8218Y5955D02*
Y5788D01*
X8384Y5955D01*
X8426D01*
X8467Y5913D01*
Y5830D01*
X8426Y5788D01*
X5996Y5305D02*
X6037Y5263D01*
Y5180D01*
X5996Y5138D01*
X5829D01*
X5788Y5180D01*
Y5263D01*
X5829Y5305D01*
X5788Y5555D02*
Y5388D01*
X5954Y5555D01*
X5996D01*
X6037Y5513D01*
Y5430D01*
X5996Y5388D01*
X6037Y5638D02*
Y5805D01*
X5996D01*
X5829Y5638D01*
X5788D01*
X6606Y5455D02*
X6647Y5413D01*
Y5330D01*
X6606Y5288D01*
X6439D01*
X6398Y5330D01*
Y5413D01*
X6439Y5455D01*
X6398Y5705D02*
Y5538D01*
X6564Y5705D01*
X6606D01*
X6647Y5663D01*
Y5580D01*
X6606Y5538D01*
Y5788D02*
X6647Y5830D01*
Y5913D01*
X6606Y5955D01*
X6564D01*
X6522Y5913D01*
Y5871D01*
Y5913D01*
X6481Y5955D01*
X6439D01*
X6398Y5913D01*
Y5830D01*
X6439Y5788D01*
X9146Y1515D02*
X9187Y1473D01*
Y1390D01*
X9146Y1348D01*
X8979D01*
X8938Y1390D01*
Y1473D01*
X8979Y1515D01*
X9146Y1598D02*
X9187Y1640D01*
Y1723D01*
X9146Y1765D01*
X9104D01*
X9062Y1723D01*
Y1682D01*
Y1723D01*
X9021Y1765D01*
X8979D01*
X8938Y1723D01*
Y1640D01*
X8979Y1598D01*
Y1848D02*
X8938Y1890D01*
Y1973D01*
X8979Y2015D01*
X9146D01*
X9187Y1973D01*
Y1890D01*
X9146Y1848D01*
X9104D01*
X9062Y1890D01*
Y2015D01*
X10329Y4252D02*
X10288Y4293D01*
Y4377D01*
X10329Y4418D01*
X10496D01*
X10538Y4377D01*
Y4293D01*
X10496Y4252D01*
X10538Y4002D02*
Y4168D01*
X10371Y4002D01*
X10329D01*
X10288Y4043D01*
Y4127D01*
X10329Y4168D01*
X10538Y3919D02*
Y3835D01*
Y3877D01*
X10288D01*
X10329Y3919D01*
X9999Y4402D02*
X9958Y4443D01*
Y4527D01*
X9999Y4568D01*
X10166D01*
X10208Y4527D01*
Y4443D01*
X10166Y4402D01*
X10208Y4152D02*
Y4318D01*
X10041Y4152D01*
X9999D01*
X9958Y4193D01*
Y4277D01*
X9999Y4318D01*
Y4069D02*
X9958Y4027D01*
Y3944D01*
X9999Y3902D01*
X10166D01*
X10208Y3944D01*
Y4027D01*
X10166Y4069D01*
X9999D01*
X8501Y447D02*
X8543Y488D01*
X8626D01*
X8668Y447D01*
Y280D01*
X8626Y238D01*
X8543D01*
X8501Y280D01*
X8418Y238D02*
X8334D01*
X8376D01*
Y488D01*
X8418Y447D01*
X8209Y488D02*
X8043D01*
Y447D01*
X8209Y280D01*
Y238D01*
X9111Y6087D02*
X9153Y6128D01*
X9236D01*
X9278Y6087D01*
Y5920D01*
X9236Y5878D01*
X9153D01*
X9111Y5920D01*
X9028Y5878D02*
X8944D01*
X8986D01*
Y6128D01*
X9028Y6087D01*
X8653Y6128D02*
X8819D01*
Y6003D01*
X8736Y6045D01*
X8694D01*
X8653Y6003D01*
Y5920D01*
X8694Y5878D01*
X8778D01*
X8819Y5920D01*
X10428Y1978D02*
Y2228D01*
X10303D01*
X10261Y2187D01*
Y2103D01*
X10303Y2062D01*
X10428D01*
X10344D02*
X10261Y1978D01*
X10178Y2187D02*
X10136Y2228D01*
X10053D01*
X10011Y2187D01*
Y2145D01*
X10053Y2103D01*
X10094D01*
X10053D01*
X10011Y2062D01*
Y2020D01*
X10053Y1978D01*
X10136D01*
X10178Y2020D01*
X10428Y1658D02*
Y1908D01*
X10303D01*
X10261Y1867D01*
Y1783D01*
X10303Y1742D01*
X10428D01*
X10344D02*
X10261Y1658D01*
X10053D02*
Y1908D01*
X10178Y1783D01*
X10011D01*
X5018Y1248D02*
X4768D01*
Y1123D01*
X4809Y1082D01*
X4893D01*
X4934Y1123D01*
Y1248D01*
Y1165D02*
X5018Y1082D01*
Y998D02*
Y915D01*
Y957D01*
X4768D01*
X4809Y998D01*
X5018Y624D02*
Y790D01*
X4851Y624D01*
X4809D01*
X4768Y665D01*
Y749D01*
X4809Y790D01*
X4918Y2208D02*
X4668D01*
Y2083D01*
X4709Y2042D01*
X4793D01*
X4834Y2083D01*
Y2208D01*
Y2125D02*
X4918Y2042D01*
Y1958D02*
Y1875D01*
Y1917D01*
X4668D01*
X4709Y1958D01*
Y1750D02*
X4668Y1709D01*
Y1625D01*
X4709Y1584D01*
X4751D01*
X4793Y1625D01*
Y1667D01*
Y1625D01*
X4834Y1584D01*
X4876D01*
X4918Y1625D01*
Y1709D01*
X4876Y1750D01*
D33*
X590Y4654D02*
G03*
X670Y4574I80J0D01*
G01*
Y6084D02*
G03*
X590Y6004I0J-80D01*
G01*
X3670D02*
G03*
X3590Y6084I-80J0D01*
G01*
Y4574D02*
G03*
X3670Y4654I0J80D01*
G01*
X590Y4655D02*
Y5997D01*
X670Y6084D02*
X3590D01*
X670Y4574D02*
X3590Y4574D01*
X3670Y4655D02*
Y5997D01*
X2820Y1940D02*
Y1540D01*
X2553D01*
X2420D02*
Y1807D01*
X2287Y1940D01*
X2154Y1807D01*
Y1540D01*
Y1740D01*
X2420D01*
X2020Y1940D02*
Y1540D01*
X1820D01*
X1754Y1607D01*
Y1673D01*
X1820Y1740D01*
X2020D01*
X1820D01*
X1754Y1807D01*
Y1873D01*
X1820Y1940D01*
X2020D01*
X1354D02*
X1620D01*
Y1540D01*
X1354D01*
X1620Y1740D02*
X1487D01*
X1221Y1940D02*
Y1540D01*
X954D01*
D49*
X9147Y4863D02*
G03*
X9147Y4863I-49J0D01*
G01*
X10556Y2736D02*
G03*
X10556Y2736I-49J0D01*
G01*
D51*
X938Y3106D02*
G03*
X544Y2712I0J-394D01*
G01*
X3300D02*
G03*
X2906Y3106I-394J0D01*
G01*
Y350D02*
G03*
X3300Y744I0J394D01*
G01*
X544D02*
G03*
X938Y350I394J0D01*
G01*
X8453Y4922D02*
X8842Y4533D01*
Y1378D02*
Y4922D01*
X5298Y1378D02*
Y4922D01*
X8842D01*
X5298Y1378D02*
X8842D01*
X9208Y2864D02*
Y3416D01*
X10389Y2864D02*
Y3416D01*
X5792Y5431D02*
Y5509D01*
X6028Y5431D02*
Y5509D01*
X5062Y5421D02*
Y5499D01*
X5298Y5421D02*
Y5499D01*
X9962Y4201D02*
Y4279D01*
X10198Y4201D02*
Y4279D01*
X8931Y5882D02*
X9009D01*
X8931Y6118D02*
X9009D01*
X544Y744D02*
Y2712D01*
X938Y3106D02*
X2906D01*
X3300Y744D02*
Y2712D01*
X938Y350D02*
X2906D01*
D80*
X3098Y5326D02*
X3491Y4802D01*
X3098Y5326D02*
X3493Y5852D01*
X2881Y5429D02*
X3207Y5852D01*
X2882Y5229D02*
X3210Y4802D01*
X779Y5429D02*
X2881D01*
X779Y5229D02*
X2882D01*
M02*
