%FSLAX24Y24*%
%MOIN*%
G70*
G01*
G75*
G04 Layer_Color=128*
%ADD10R,0.0335X0.0256*%
%ADD11R,0.0177X0.0177*%
%ADD12R,0.0571X0.0217*%
%ADD13R,0.0571X0.0217*%
%ADD14R,0.0709X0.0394*%
G04:AMPARAMS|DCode=15|XSize=47.2mil|YSize=43.3mil|CornerRadius=0mil|HoleSize=0mil|Usage=FLASHONLY|Rotation=45.000|XOffset=0mil|YOffset=0mil|HoleType=Round|Shape=Rectangle|*
%AMROTATEDRECTD15*
4,1,4,-0.0014,-0.0320,-0.0320,-0.0014,0.0014,0.0320,0.0320,0.0014,-0.0014,-0.0320,0.0*
%
%ADD15ROTATEDRECTD15*%

%ADD16R,0.1850X0.1850*%
%ADD17O,0.0079X0.0256*%
%ADD18O,0.0256X0.0079*%
%ADD19R,0.0394X0.0394*%
%ADD20R,0.0236X0.0217*%
%ADD21R,0.0217X0.0236*%
%ADD22R,0.0256X0.0197*%
%ADD23R,0.0197X0.0256*%
%ADD24C,0.0394*%
%ADD25R,0.0197X0.0236*%
%ADD26R,0.0236X0.0197*%
%ADD27R,0.0315X0.0295*%
G04:AMPARAMS|DCode=28|XSize=19.7mil|YSize=23.6mil|CornerRadius=0mil|HoleSize=0mil|Usage=FLASHONLY|Rotation=45.000|XOffset=0mil|YOffset=0mil|HoleType=Round|Shape=Rectangle|*
%AMROTATEDRECTD28*
4,1,4,0.0014,-0.0153,-0.0153,0.0014,-0.0014,0.0153,0.0153,-0.0014,0.0014,-0.0153,0.0*
%
%ADD28ROTATEDRECTD28*%

%ADD29R,0.0787X0.0394*%
%ADD30C,0.0060*%
%ADD31C,0.0100*%
%ADD32C,0.0050*%
%ADD33C,0.0080*%
%ADD34C,0.0070*%
%ADD35C,0.0090*%
%ADD36C,0.0390*%
%ADD37O,0.1260X0.0709*%
%ADD38C,0.0433*%
%ADD39C,0.0200*%
%ADD40C,0.0197*%
%ADD41C,0.0118*%
%ADD42R,0.0472X0.0433*%
%ADD43C,0.0138*%
%ADD44C,0.0310*%
%ADD45R,0.0236X0.0335*%
%ADD46R,0.0394X0.0335*%
%ADD47R,0.0295X0.0315*%
%ADD48C,0.0039*%
%ADD49C,0.0098*%
%ADD50C,0.0059*%
%ADD51C,0.0079*%
%ADD52R,0.0395X0.0316*%
%ADD53R,0.0237X0.0237*%
%ADD54R,0.0631X0.0277*%
%ADD55R,0.0631X0.0277*%
%ADD56R,0.0769X0.0454*%
G04:AMPARAMS|DCode=57|XSize=53.2mil|YSize=49.3mil|CornerRadius=0mil|HoleSize=0mil|Usage=FLASHONLY|Rotation=45.000|XOffset=0mil|YOffset=0mil|HoleType=Round|Shape=Rectangle|*
%AMROTATEDRECTD57*
4,1,4,-0.0014,-0.0363,-0.0363,-0.0014,0.0014,0.0363,0.0363,0.0014,-0.0014,-0.0363,0.0*
%
%ADD57ROTATEDRECTD57*%

%ADD58R,0.1910X0.1910*%
%ADD59O,0.0139X0.0316*%
%ADD60O,0.0316X0.0139*%
%ADD61R,0.0296X0.0277*%
%ADD62R,0.0277X0.0296*%
%ADD63R,0.0316X0.0257*%
%ADD64R,0.0257X0.0316*%
%ADD65C,0.0787*%
%ADD66R,0.0257X0.0296*%
%ADD67R,0.0296X0.0257*%
%ADD68R,0.0375X0.0355*%
G04:AMPARAMS|DCode=69|XSize=25.7mil|YSize=29.6mil|CornerRadius=0mil|HoleSize=0mil|Usage=FLASHONLY|Rotation=45.000|XOffset=0mil|YOffset=0mil|HoleType=Round|Shape=Rectangle|*
%AMROTATEDRECTD69*
4,1,4,0.0014,-0.0196,-0.0196,0.0014,-0.0014,0.0196,0.0196,-0.0014,0.0014,-0.0196,0.0*
%
%ADD69ROTATEDRECTD69*%

%ADD70R,0.0847X0.0454*%
%ADD71C,0.0450*%
%ADD72O,0.1320X0.0769*%
%ADD73C,0.0493*%
%ADD74R,0.0532X0.0493*%
%ADD75C,0.0198*%
%ADD76C,0.0370*%
%ADD77R,0.0296X0.0395*%
%ADD78R,0.0454X0.0395*%
%ADD79R,0.0355X0.0375*%
D20*
X9467Y4520D02*
D03*
X9073D02*
D03*
X10412Y1780D02*
D03*
X10019D02*
D03*
X10412Y2100D02*
D03*
X10019D02*
D03*
X9317Y360D02*
D03*
X8923D02*
D03*
D21*
X5080Y2097D02*
D03*
Y1703D02*
D03*
X4790Y2097D02*
D03*
Y1703D02*
D03*
X4890Y1137D02*
D03*
Y743D02*
D03*
X6200Y1157D02*
D03*
Y763D02*
D03*
X6550Y1157D02*
D03*
Y763D02*
D03*
D25*
X9060Y1877D02*
D03*
Y1483D02*
D03*
X5080Y2997D02*
D03*
Y2603D02*
D03*
Y3793D02*
D03*
Y4187D02*
D03*
X6240Y5173D02*
D03*
Y5567D02*
D03*
X6520Y5423D02*
D03*
Y5817D02*
D03*
X8340Y5817D02*
D03*
Y5423D02*
D03*
X10415Y3933D02*
D03*
Y4327D02*
D03*
D26*
X8177Y1140D02*
D03*
X7783D02*
D03*
X9073Y4820D02*
D03*
X9467D02*
D03*
X8557Y360D02*
D03*
X8163D02*
D03*
D27*
X5910Y5204D02*
D03*
Y5736D02*
D03*
X5180Y5194D02*
D03*
Y5726D02*
D03*
X10080Y3974D02*
D03*
Y4506D02*
D03*
D42*
X6960Y5269D02*
D03*
Y5971D02*
D03*
X7900Y5269D02*
D03*
Y5971D02*
D03*
D43*
X8487Y4567D02*
D03*
X8172D02*
D03*
X7857D02*
D03*
X7542D02*
D03*
X7227D02*
D03*
X6913D02*
D03*
X6598D02*
D03*
X6283D02*
D03*
X5968D02*
D03*
X5653D02*
D03*
X8487Y4252D02*
D03*
X8172D02*
D03*
X7857D02*
D03*
X7542D02*
D03*
X7227D02*
D03*
X6913D02*
D03*
X6598D02*
D03*
X6283D02*
D03*
X5968D02*
D03*
X5653D02*
D03*
X8487Y3937D02*
D03*
X8172D02*
D03*
X7857D02*
D03*
X7542D02*
D03*
X7227D02*
D03*
X6913D02*
D03*
X6598D02*
D03*
X6283D02*
D03*
X5968D02*
D03*
X5653D02*
D03*
X8487Y3622D02*
D03*
X8172D02*
D03*
X7857D02*
D03*
X7542D02*
D03*
X7227D02*
D03*
X6913D02*
D03*
X6598D02*
D03*
X6283D02*
D03*
X5968D02*
D03*
X5653D02*
D03*
X8487Y3307D02*
D03*
X8172D02*
D03*
X7857D02*
D03*
X7542D02*
D03*
X7227D02*
D03*
X6913D02*
D03*
X6598D02*
D03*
X6283D02*
D03*
X5968D02*
D03*
X5653D02*
D03*
X8487Y2993D02*
D03*
X8172D02*
D03*
X7857D02*
D03*
X7542D02*
D03*
X7227D02*
D03*
X6913D02*
D03*
X6598D02*
D03*
X6283D02*
D03*
X5968D02*
D03*
X5653D02*
D03*
X8487Y2678D02*
D03*
X8172D02*
D03*
X7857D02*
D03*
X7542D02*
D03*
X7227D02*
D03*
X6913D02*
D03*
X6598D02*
D03*
X6283D02*
D03*
X5968D02*
D03*
X5653D02*
D03*
X8487Y2363D02*
D03*
X8172D02*
D03*
X7857D02*
D03*
X7542D02*
D03*
X7227D02*
D03*
X6913D02*
D03*
X6598D02*
D03*
X6283D02*
D03*
X5968D02*
D03*
X5653D02*
D03*
X8487Y2048D02*
D03*
X8172D02*
D03*
X7857D02*
D03*
X7542D02*
D03*
X7227D02*
D03*
X6913D02*
D03*
X6598D02*
D03*
X6283D02*
D03*
X5968D02*
D03*
X5653D02*
D03*
X8487Y1733D02*
D03*
X8172D02*
D03*
X7857D02*
D03*
X7542D02*
D03*
X7227D02*
D03*
X6913D02*
D03*
X6598D02*
D03*
X6283D02*
D03*
X5968D02*
D03*
X5653D02*
D03*
D45*
X10172Y3544D02*
D03*
X9424D02*
D03*
Y2736D02*
D03*
D46*
X10093D02*
D03*
D47*
X9236Y6000D02*
D03*
X8704D02*
D03*
M02*
