%FSLAX24Y24*%
%MOIN*%
G70*
G01*
G75*
G04 Layer_Physical_Order=3*
G04 Layer_Color=16440176*
%ADD10R,0.0335X0.0256*%
%ADD11R,0.0177X0.0177*%
%ADD12R,0.0571X0.0217*%
%ADD13R,0.0571X0.0217*%
%ADD14R,0.0709X0.0394*%
G04:AMPARAMS|DCode=15|XSize=47.2mil|YSize=43.3mil|CornerRadius=0mil|HoleSize=0mil|Usage=FLASHONLY|Rotation=45.000|XOffset=0mil|YOffset=0mil|HoleType=Round|Shape=Rectangle|*
%AMROTATEDRECTD15*
4,1,4,-0.0014,-0.0320,-0.0320,-0.0014,0.0014,0.0320,0.0320,0.0014,-0.0014,-0.0320,0.0*
%
%ADD15ROTATEDRECTD15*%

%ADD16R,0.1850X0.1850*%
%ADD17O,0.0079X0.0256*%
%ADD18O,0.0256X0.0079*%
%ADD19R,0.0394X0.0394*%
%ADD20R,0.0236X0.0217*%
%ADD21R,0.0217X0.0236*%
%ADD22R,0.0256X0.0197*%
%ADD23R,0.0197X0.0256*%
%ADD24C,0.0394*%
%ADD25R,0.0197X0.0236*%
%ADD26R,0.0236X0.0197*%
%ADD27R,0.0315X0.0295*%
G04:AMPARAMS|DCode=28|XSize=19.7mil|YSize=23.6mil|CornerRadius=0mil|HoleSize=0mil|Usage=FLASHONLY|Rotation=45.000|XOffset=0mil|YOffset=0mil|HoleType=Round|Shape=Rectangle|*
%AMROTATEDRECTD28*
4,1,4,0.0014,-0.0153,-0.0153,0.0014,-0.0014,0.0153,0.0153,-0.0014,0.0014,-0.0153,0.0*
%
%ADD28ROTATEDRECTD28*%

%ADD29R,0.0787X0.0394*%
%ADD30C,0.0060*%
%ADD31C,0.0100*%
%ADD32C,0.0050*%
%ADD33C,0.0080*%
%ADD34C,0.0070*%
%ADD35C,0.0090*%
%ADD36C,0.0390*%
%ADD37O,0.1260X0.0709*%
%ADD38C,0.0433*%
%ADD39C,0.0200*%
%ADD40C,0.0197*%
%ADD41C,0.0118*%
G36*
X3550Y6140D02*
X6600D01*
Y6189D01*
X8811D01*
X8855Y6174D01*
X8874Y6150D01*
X8873Y6143D01*
X8871Y6120D01*
X8873Y6097D01*
X8877Y6074D01*
X8885Y6052D01*
X8895Y6031D01*
X8908Y6011D01*
X8924Y5994D01*
X8941Y5978D01*
X8961Y5965D01*
X8982Y5955D01*
X9004Y5947D01*
X9027Y5943D01*
X9050Y5941D01*
X9073Y5943D01*
X9096Y5947D01*
X9118Y5955D01*
X9139Y5965D01*
X9159Y5978D01*
X9176Y5994D01*
X9192Y6011D01*
X9205Y6031D01*
X9215Y6052D01*
X9223Y6074D01*
X9227Y6097D01*
X9229Y6120D01*
X9227Y6143D01*
X9226Y6150D01*
X9245Y6174D01*
X9289Y6189D01*
X9768D01*
X10633Y5324D01*
Y1005D01*
X10259Y631D01*
X10220Y662D01*
X10236Y688D01*
X10254Y722D01*
X10268Y757D01*
X10280Y793D01*
X10288Y830D01*
X10293Y868D01*
X10295Y906D01*
X10293Y943D01*
X10288Y981D01*
X10280Y1018D01*
X10268Y1054D01*
X10254Y1089D01*
X10236Y1123D01*
X10216Y1155D01*
X10193Y1185D01*
X10167Y1213D01*
X10139Y1239D01*
X10109Y1261D01*
X10121Y1310D01*
X10122Y1310D01*
X10145Y1318D01*
X10166Y1328D01*
X10185Y1341D01*
X10203Y1357D01*
X10218Y1374D01*
X10231Y1394D01*
X10241Y1415D01*
X10249Y1437D01*
X10253Y1460D01*
X10255Y1483D01*
X10253Y1506D01*
X10249Y1529D01*
X10241Y1552D01*
X10231Y1573D01*
X10218Y1592D01*
X10203Y1610D01*
X10185Y1625D01*
X10166Y1638D01*
X10145Y1648D01*
X10122Y1656D01*
X10100Y1660D01*
X10076Y1662D01*
X10053Y1660D01*
X10030Y1656D01*
X10008Y1648D01*
X9987Y1638D01*
X9967Y1625D01*
X9950Y1610D01*
X9934Y1592D01*
X9921Y1573D01*
X9911Y1552D01*
X9904Y1529D01*
X9899Y1506D01*
X9897Y1483D01*
X9899Y1460D01*
X9904Y1437D01*
X9911Y1415D01*
X9921Y1394D01*
X9930Y1380D01*
X9904Y1338D01*
X9898Y1339D01*
X9860Y1340D01*
X9309D01*
X9271Y1339D01*
X9233Y1334D01*
X9196Y1325D01*
X9160Y1314D01*
X9125Y1300D01*
X9091Y1282D01*
X9059Y1262D01*
X9029Y1239D01*
X9001Y1213D01*
X8976Y1185D01*
X8953Y1155D01*
X8932Y1123D01*
X8915Y1089D01*
X8900Y1054D01*
X8889Y1018D01*
X8881Y981D01*
X8876Y943D01*
X8874Y906D01*
X8876Y868D01*
X8881Y830D01*
X8881Y828D01*
X8834Y811D01*
X8825Y829D01*
X8812Y849D01*
X8796Y866D01*
X8779Y882D01*
X8759Y895D01*
X8738Y905D01*
X8716Y913D01*
X8693Y917D01*
X8670Y919D01*
X8647Y917D01*
X8624Y913D01*
X8602Y905D01*
X8581Y895D01*
X8561Y882D01*
X8553Y875D01*
X8503Y879D01*
X8497Y887D01*
X8499Y910D01*
X8497Y933D01*
X8493Y956D01*
X8485Y978D01*
X8475Y999D01*
X8462Y1019D01*
X8446Y1036D01*
X8429Y1052D01*
X8409Y1065D01*
X8388Y1075D01*
X8366Y1083D01*
X8343Y1087D01*
X8320Y1089D01*
X8297Y1087D01*
X8274Y1083D01*
X8252Y1075D01*
X8231Y1065D01*
X8211Y1052D01*
X8194Y1036D01*
X8178Y1019D01*
X8165Y999D01*
X8155Y978D01*
X8147Y956D01*
X8143Y933D01*
X8141Y910D01*
X8143Y887D01*
X8147Y864D01*
X8155Y842D01*
X8165Y821D01*
X8178Y801D01*
X8194Y784D01*
X8211Y768D01*
X8231Y755D01*
X8252Y745D01*
X8274Y737D01*
X8297Y733D01*
X8320Y731D01*
X8343Y733D01*
X8366Y737D01*
X8388Y745D01*
X8409Y755D01*
X8429Y768D01*
X8437Y775D01*
X8487Y771D01*
X8493Y763D01*
X8491Y740D01*
X8493Y717D01*
X8497Y694D01*
X8505Y672D01*
X8515Y651D01*
X8528Y631D01*
X8544Y614D01*
X8561Y598D01*
X8581Y585D01*
X8602Y575D01*
X8624Y567D01*
X8647Y563D01*
X8670Y561D01*
X8693Y563D01*
X8716Y567D01*
X8738Y575D01*
X8759Y585D01*
X8779Y598D01*
X8796Y614D01*
X8812Y631D01*
X8825Y651D01*
X8835Y672D01*
X8843Y694D01*
X8847Y717D01*
X8849Y740D01*
X8848Y758D01*
X8897Y768D01*
X8900Y757D01*
X8915Y722D01*
X8932Y688D01*
X8953Y656D01*
X8976Y626D01*
X9001Y598D01*
X9029Y572D01*
X9059Y549D01*
X9091Y529D01*
X9125Y512D01*
X9160Y497D01*
X9196Y486D01*
X9233Y477D01*
X9271Y472D01*
X9309Y471D01*
X9860D01*
X9898Y472D01*
X9935Y477D01*
X9972Y486D01*
X10009Y497D01*
X10044Y512D01*
X10077Y529D01*
X10104Y546D01*
X10135Y507D01*
X9738Y110D01*
X5479D01*
X5395Y152D01*
X5403Y174D01*
X5407Y197D01*
X5409Y220D01*
X5407Y243D01*
X5403Y266D01*
X5395Y288D01*
X5385Y309D01*
X5372Y329D01*
X5356Y346D01*
X5339Y362D01*
X5319Y375D01*
X5298Y385D01*
X5276Y393D01*
X5253Y397D01*
X5230Y399D01*
X5207Y397D01*
X5184Y393D01*
X5162Y385D01*
X5141Y375D01*
X5121Y362D01*
X5104Y346D01*
X5088Y329D01*
X5075Y309D01*
X5065Y288D01*
X5057Y266D01*
X5053Y243D01*
X5051Y220D01*
X5053Y197D01*
X5057Y174D01*
X5065Y152D01*
X4981Y110D01*
X4597D01*
X4592Y115D01*
X4571Y154D01*
X4575Y161D01*
X4585Y182D01*
X4593Y204D01*
X4597Y227D01*
X4599Y250D01*
X4597Y273D01*
X4593Y296D01*
X4585Y318D01*
X4575Y339D01*
X4562Y359D01*
X4546Y376D01*
X4529Y392D01*
X4509Y405D01*
X4488Y415D01*
X4466Y423D01*
X4443Y427D01*
X4420Y429D01*
X4397Y427D01*
X4374Y423D01*
X4352Y415D01*
X4331Y405D01*
X4311Y392D01*
X4294Y376D01*
X4278Y359D01*
X4265Y339D01*
X4255Y318D01*
X4247Y296D01*
X4243Y273D01*
X4241Y250D01*
X4243Y227D01*
X4247Y204D01*
X4255Y182D01*
X4265Y161D01*
X4269Y154D01*
X4248Y115D01*
X4243Y110D01*
X2378D01*
X2358Y156D01*
X2365Y164D01*
X2390Y197D01*
X2412Y232D01*
X2432Y269D01*
X2447Y307D01*
X2460Y347D01*
X2469Y387D01*
X2474Y428D01*
X2476Y470D01*
X2474Y512D01*
X2469Y553D01*
X2460Y593D01*
X2447Y633D01*
X2432Y671D01*
X2412Y708D01*
X2390Y743D01*
X2365Y776D01*
X2337Y807D01*
X2306Y835D01*
X2273Y860D01*
X2238Y882D01*
X2201Y902D01*
X2163Y917D01*
X2123Y930D01*
X2083Y939D01*
X2042Y944D01*
X2000Y946D01*
X1958Y944D01*
X1917Y939D01*
X1877Y930D01*
X1837Y917D01*
X1799Y902D01*
X1762Y882D01*
X1727Y860D01*
X1705Y843D01*
X1671Y860D01*
X1660Y872D01*
Y6190D01*
X3550D01*
Y6140D01*
D02*
G37*
G36*
X6507Y8640D02*
X6493Y8633D01*
X6468Y8615D01*
X6445Y8595D01*
X6425Y8572D01*
X6407Y8547D01*
X6392Y8520D01*
X6380Y8491D01*
X6371Y8461D01*
X6366Y8431D01*
X6365Y8400D01*
X6366Y8369D01*
X6371Y8339D01*
X6380Y8309D01*
X6392Y8280D01*
X6407Y8253D01*
X6425Y8228D01*
X6445Y8205D01*
X6468Y8185D01*
X6493Y8167D01*
X6520Y8152D01*
X6549Y8140D01*
X6579Y8131D01*
X6609Y8126D01*
X6640Y8125D01*
X6671Y8126D01*
X6701Y8131D01*
X6731Y8140D01*
X6760Y8152D01*
X6764Y8154D01*
X6804Y8124D01*
X6801Y8113D01*
X6796Y8072D01*
X6794Y8030D01*
X6796Y7988D01*
X6801Y7947D01*
X6810Y7907D01*
X6823Y7867D01*
X6767Y7844D01*
X6760Y7848D01*
X6731Y7860D01*
X6701Y7869D01*
X6671Y7874D01*
X6640Y7875D01*
X6609Y7874D01*
X6579Y7869D01*
X6549Y7860D01*
X6520Y7848D01*
X6493Y7833D01*
X6468Y7815D01*
X6445Y7795D01*
X6425Y7772D01*
X6407Y7747D01*
X6392Y7720D01*
X6380Y7691D01*
X6371Y7661D01*
X6366Y7631D01*
X6365Y7600D01*
X6366Y7569D01*
X6371Y7539D01*
X6380Y7509D01*
X6392Y7480D01*
X6407Y7453D01*
X6425Y7428D01*
X6445Y7405D01*
X6468Y7385D01*
X6493Y7367D01*
X6498Y7364D01*
X6503Y7307D01*
X6486Y7303D01*
X6470Y7296D01*
X6455Y7287D01*
X6442Y7276D01*
X6431Y7263D01*
X6422Y7248D01*
X6415Y7232D01*
X6411Y7215D01*
X6410Y7198D01*
Y6760D01*
X3830D01*
Y7199D01*
X3829Y7216D01*
X3825Y7233D01*
X3818Y7249D01*
X3830Y7291D01*
D01*
X3830Y7291D01*
X3853Y7293D01*
X3876Y7297D01*
X3898Y7305D01*
X3919Y7315D01*
X3936Y7326D01*
X3984Y7313D01*
X3985Y7311D01*
X3998Y7291D01*
X4014Y7274D01*
X4031Y7258D01*
X4051Y7245D01*
X4072Y7235D01*
X4081Y7232D01*
X4091Y7183D01*
X4084Y7176D01*
X4068Y7159D01*
X4055Y7139D01*
X4045Y7118D01*
X4037Y7096D01*
X4033Y7073D01*
X4031Y7050D01*
X4033Y7027D01*
X4037Y7004D01*
X4045Y6982D01*
X4055Y6961D01*
X4068Y6941D01*
X4084Y6924D01*
X4101Y6908D01*
X4121Y6895D01*
X4142Y6885D01*
X4164Y6877D01*
X4187Y6873D01*
X4210Y6871D01*
X4233Y6873D01*
X4256Y6877D01*
X4278Y6885D01*
X4299Y6895D01*
X4319Y6908D01*
X4336Y6924D01*
X4352Y6941D01*
X4365Y6961D01*
X4375Y6982D01*
X4383Y7004D01*
X4387Y7027D01*
X4389Y7050D01*
X4387Y7073D01*
X4383Y7096D01*
X4375Y7118D01*
X4365Y7139D01*
X4352Y7159D01*
X4336Y7176D01*
X4319Y7192D01*
X4299Y7205D01*
X4278Y7215D01*
X4269Y7218D01*
X4259Y7267D01*
X4266Y7274D01*
X4282Y7291D01*
X4295Y7311D01*
X4305Y7332D01*
X4313Y7354D01*
X4317Y7377D01*
X4319Y7400D01*
X4317Y7423D01*
X4313Y7446D01*
X4305Y7468D01*
X4295Y7489D01*
X4282Y7509D01*
X4266Y7526D01*
X4249Y7542D01*
X4229Y7555D01*
X4208Y7565D01*
X4186Y7573D01*
X4163Y7577D01*
X4140Y7579D01*
X4117Y7577D01*
X4094Y7573D01*
X4072Y7565D01*
X4051Y7555D01*
X4034Y7544D01*
X3986Y7557D01*
X3985Y7559D01*
X3972Y7579D01*
X3956Y7596D01*
X3939Y7612D01*
X3919Y7625D01*
X3898Y7635D01*
X3876Y7643D01*
X3853Y7647D01*
X3830Y7649D01*
X3807Y7647D01*
X3784Y7643D01*
X3762Y7635D01*
X3741Y7625D01*
X3721Y7612D01*
D01*
Y7612D01*
X3721Y7612D01*
X3693Y7616D01*
X3692Y7619D01*
X3676Y7636D01*
X3659Y7652D01*
X3639Y7665D01*
X3618Y7675D01*
X3615Y7676D01*
X3625Y7725D01*
X3640Y7725D01*
X3671Y7726D01*
X3701Y7731D01*
X3731Y7740D01*
X3760Y7752D01*
X3787Y7767D01*
X3812Y7785D01*
X3835Y7805D01*
X3855Y7828D01*
X3873Y7853D01*
X3888Y7880D01*
X3900Y7909D01*
X3909Y7939D01*
X3914Y7969D01*
X3915Y8000D01*
X3914Y8031D01*
X3909Y8061D01*
X3900Y8091D01*
X3888Y8120D01*
X3873Y8147D01*
X3855Y8172D01*
X3835Y8195D01*
X3812Y8215D01*
X3787Y8233D01*
X3760Y8248D01*
X3731Y8260D01*
X3701Y8269D01*
X3671Y8274D01*
X3640Y8275D01*
X3625Y8275D01*
X3615Y8324D01*
X3618Y8325D01*
X3639Y8335D01*
X3659Y8348D01*
X3676Y8364D01*
X3692Y8381D01*
X3705Y8401D01*
X3715Y8422D01*
X3723Y8444D01*
X3727Y8467D01*
X3729Y8490D01*
X3727Y8513D01*
X3723Y8536D01*
X3715Y8558D01*
X3705Y8579D01*
X3692Y8599D01*
X3676Y8616D01*
X3659Y8632D01*
X3645Y8641D01*
X3657Y8681D01*
X3661Y8689D01*
X3939D01*
X3968Y8648D01*
X3967Y8646D01*
X3963Y8623D01*
X3961Y8600D01*
X3963Y8577D01*
X3967Y8554D01*
X3975Y8532D01*
X3985Y8511D01*
X3998Y8491D01*
X4014Y8474D01*
X4031Y8458D01*
X4051Y8445D01*
X4072Y8435D01*
X4094Y8427D01*
X4117Y8423D01*
X4140Y8421D01*
X4163Y8423D01*
X4186Y8427D01*
X4208Y8435D01*
X4229Y8445D01*
X4249Y8458D01*
X4266Y8474D01*
X4282Y8491D01*
X4295Y8511D01*
X4305Y8532D01*
X4313Y8554D01*
X4317Y8577D01*
X4319Y8600D01*
X4317Y8623D01*
X4313Y8646D01*
X4312Y8648D01*
X4341Y8689D01*
X4439D01*
X4468Y8648D01*
X4467Y8646D01*
X4463Y8623D01*
X4461Y8600D01*
X4463Y8577D01*
X4467Y8554D01*
X4475Y8532D01*
X4485Y8511D01*
X4498Y8491D01*
X4514Y8474D01*
X4531Y8458D01*
X4551Y8445D01*
X4572Y8435D01*
X4594Y8427D01*
X4617Y8423D01*
X4640Y8421D01*
X4663Y8423D01*
X4686Y8427D01*
X4708Y8435D01*
X4729Y8445D01*
X4749Y8458D01*
X4766Y8474D01*
X4782Y8491D01*
X4795Y8511D01*
X4805Y8532D01*
X4813Y8554D01*
X4817Y8577D01*
X4819Y8600D01*
X4817Y8623D01*
X4813Y8646D01*
X4812Y8648D01*
X4841Y8689D01*
X5439D01*
X5468Y8648D01*
X5467Y8646D01*
X5463Y8623D01*
X5461Y8600D01*
X5463Y8577D01*
X5467Y8554D01*
X5475Y8532D01*
X5485Y8511D01*
X5498Y8491D01*
X5514Y8474D01*
X5531Y8458D01*
X5551Y8445D01*
X5572Y8435D01*
X5594Y8427D01*
X5617Y8423D01*
X5640Y8421D01*
X5663Y8423D01*
X5686Y8427D01*
X5708Y8435D01*
X5729Y8445D01*
X5749Y8458D01*
X5766Y8474D01*
X5782Y8491D01*
X5795Y8511D01*
X5805Y8532D01*
X5813Y8554D01*
X5817Y8577D01*
X5819Y8600D01*
X5817Y8623D01*
X5813Y8646D01*
X5812Y8648D01*
X5841Y8689D01*
X5913D01*
X5958Y8667D01*
X5971Y8648D01*
X5967Y8636D01*
X5963Y8613D01*
X5961Y8590D01*
X5963Y8567D01*
X5967Y8544D01*
X5975Y8522D01*
X5985Y8501D01*
X5998Y8481D01*
X6014Y8464D01*
X6031Y8448D01*
X6051Y8435D01*
X6072Y8425D01*
X6094Y8417D01*
X6117Y8413D01*
X6140Y8411D01*
X6163Y8413D01*
X6186Y8417D01*
X6208Y8425D01*
X6229Y8435D01*
X6249Y8448D01*
X6266Y8464D01*
X6282Y8481D01*
X6295Y8501D01*
X6305Y8522D01*
X6313Y8544D01*
X6317Y8567D01*
X6319Y8590D01*
X6317Y8613D01*
X6313Y8636D01*
X6309Y8648D01*
X6322Y8667D01*
X6367Y8689D01*
X6494D01*
X6507Y8640D01*
D02*
G37*
%LPC*%
G36*
X10306Y2559D02*
X10283Y2557D01*
X10260Y2553D01*
X10238Y2545D01*
X10217Y2535D01*
X10197Y2522D01*
X10180Y2506D01*
X10164Y2489D01*
X10151Y2469D01*
X10141Y2448D01*
X10134Y2426D01*
X10129Y2403D01*
X10127Y2380D01*
X10129Y2357D01*
X10134Y2334D01*
X10141Y2312D01*
X10151Y2291D01*
X10164Y2271D01*
X10180Y2254D01*
X10197Y2238D01*
X10217Y2225D01*
X10238Y2215D01*
X10260Y2207D01*
X10283Y2203D01*
X10306Y2201D01*
X10330Y2203D01*
X10352Y2207D01*
X10375Y2215D01*
X10396Y2225D01*
X10415Y2238D01*
X10433Y2254D01*
X10448Y2271D01*
X10461Y2291D01*
X10471Y2312D01*
X10479Y2334D01*
X10483Y2357D01*
X10485Y2380D01*
X10483Y2403D01*
X10479Y2426D01*
X10471Y2448D01*
X10461Y2469D01*
X10448Y2489D01*
X10433Y2506D01*
X10415Y2522D01*
X10396Y2535D01*
X10375Y2545D01*
X10352Y2553D01*
X10330Y2557D01*
X10306Y2559D01*
D02*
G37*
G36*
X7070Y2699D02*
X7047Y2697D01*
X7024Y2693D01*
X7002Y2685D01*
X6981Y2675D01*
X6961Y2662D01*
X6944Y2646D01*
X6928Y2629D01*
X6915Y2609D01*
X6905Y2588D01*
X6897Y2566D01*
X6893Y2543D01*
X6891Y2520D01*
X6893Y2497D01*
X6897Y2474D01*
X6905Y2452D01*
X6915Y2431D01*
X6928Y2411D01*
X6944Y2394D01*
X6961Y2378D01*
X6981Y2365D01*
X7002Y2355D01*
X7024Y2347D01*
X7047Y2343D01*
X7070Y2341D01*
X7093Y2343D01*
X7116Y2347D01*
X7138Y2355D01*
X7159Y2365D01*
X7179Y2378D01*
X7196Y2394D01*
X7212Y2411D01*
X7225Y2431D01*
X7235Y2452D01*
X7243Y2474D01*
X7247Y2497D01*
X7249Y2520D01*
X7247Y2543D01*
X7243Y2566D01*
X7235Y2588D01*
X7225Y2609D01*
X7212Y2629D01*
X7196Y2646D01*
X7179Y2662D01*
X7159Y2675D01*
X7138Y2685D01*
X7116Y2693D01*
X7093Y2697D01*
X7070Y2699D01*
D02*
G37*
G36*
X9050Y2619D02*
X9027Y2617D01*
X9004Y2613D01*
X8982Y2605D01*
X8961Y2595D01*
X8941Y2582D01*
X8924Y2566D01*
X8908Y2549D01*
X8895Y2529D01*
X8885Y2508D01*
X8877Y2486D01*
X8873Y2463D01*
X8871Y2440D01*
X8873Y2417D01*
X8877Y2394D01*
X8885Y2372D01*
X8895Y2351D01*
X8908Y2331D01*
X8924Y2314D01*
X8934Y2305D01*
Y2296D01*
X8918Y2279D01*
X8905Y2259D01*
X8895Y2238D01*
X8887Y2216D01*
X8883Y2193D01*
X8881Y2170D01*
X8883Y2147D01*
X8887Y2124D01*
X8895Y2102D01*
X8905Y2081D01*
X8918Y2061D01*
X8934Y2044D01*
X8951Y2028D01*
X8971Y2015D01*
X8992Y2005D01*
X9014Y1997D01*
X9037Y1993D01*
X9060Y1991D01*
X9083Y1993D01*
X9106Y1997D01*
X9128Y2005D01*
X9149Y2015D01*
X9169Y2028D01*
X9186Y2044D01*
X9202Y2061D01*
X9215Y2081D01*
X9225Y2102D01*
X9233Y2124D01*
X9237Y2147D01*
X9239Y2170D01*
X9237Y2193D01*
X9233Y2216D01*
X9225Y2238D01*
X9215Y2259D01*
X9202Y2279D01*
X9186Y2296D01*
X9176Y2305D01*
Y2314D01*
X9192Y2331D01*
X9205Y2351D01*
X9215Y2372D01*
X9223Y2394D01*
X9227Y2417D01*
X9229Y2440D01*
X9227Y2463D01*
X9223Y2486D01*
X9215Y2508D01*
X9205Y2529D01*
X9192Y2549D01*
X9176Y2566D01*
X9159Y2582D01*
X9139Y2595D01*
X9118Y2605D01*
X9096Y2613D01*
X9073Y2617D01*
X9050Y2619D01*
D02*
G37*
G36*
X8015Y2384D02*
X7992Y2382D01*
X7969Y2378D01*
X7946Y2370D01*
X7925Y2360D01*
X7906Y2347D01*
X7888Y2332D01*
X7873Y2314D01*
X7860Y2295D01*
X7850Y2274D01*
X7842Y2251D01*
X7838Y2228D01*
X7836Y2205D01*
X7838Y2182D01*
X7842Y2159D01*
X7850Y2137D01*
X7860Y2116D01*
X7873Y2096D01*
X7888Y2079D01*
X7906Y2063D01*
X7925Y2050D01*
X7946Y2040D01*
X7969Y2032D01*
X7992Y2028D01*
X8015Y2026D01*
X8038Y2028D01*
X8061Y2032D01*
X8083Y2040D01*
X8104Y2050D01*
X8124Y2063D01*
X8141Y2079D01*
X8157Y2096D01*
X8170Y2116D01*
X8180Y2137D01*
X8188Y2159D01*
X8192Y2182D01*
X8194Y2205D01*
X8192Y2228D01*
X8188Y2251D01*
X8180Y2274D01*
X8170Y2295D01*
X8157Y2314D01*
X8141Y2332D01*
X8124Y2347D01*
X8104Y2360D01*
X8083Y2370D01*
X8061Y2378D01*
X8038Y2382D01*
X8015Y2384D01*
D02*
G37*
G36*
X9500Y3359D02*
X9477Y3357D01*
X9454Y3353D01*
X9432Y3345D01*
X9411Y3335D01*
X9391Y3322D01*
X9374Y3306D01*
X9358Y3289D01*
X9345Y3269D01*
X9335Y3248D01*
X9327Y3226D01*
X9323Y3203D01*
X9321Y3180D01*
X9323Y3157D01*
X9327Y3134D01*
X9335Y3112D01*
X9345Y3091D01*
X9358Y3071D01*
X9374Y3054D01*
X9391Y3038D01*
X9411Y3025D01*
X9432Y3015D01*
X9454Y3007D01*
X9477Y3003D01*
X9500Y3001D01*
X9523Y3003D01*
X9546Y3007D01*
X9568Y3015D01*
X9589Y3025D01*
X9609Y3038D01*
X9626Y3054D01*
X9642Y3071D01*
X9655Y3091D01*
X9665Y3112D01*
X9673Y3134D01*
X9677Y3157D01*
X9679Y3180D01*
X9677Y3203D01*
X9673Y3226D01*
X9665Y3248D01*
X9655Y3269D01*
X9642Y3289D01*
X9626Y3306D01*
X9609Y3322D01*
X9589Y3335D01*
X9568Y3345D01*
X9546Y3353D01*
X9523Y3357D01*
X9500Y3359D01*
D02*
G37*
G36*
X7700Y3329D02*
X7677Y3327D01*
X7654Y3323D01*
X7632Y3315D01*
X7611Y3305D01*
X7591Y3292D01*
X7574Y3276D01*
X7567Y3270D01*
X7517D01*
X7511Y3276D01*
X7494Y3292D01*
X7474Y3305D01*
X7453Y3315D01*
X7431Y3323D01*
X7408Y3327D01*
X7385Y3329D01*
X7362Y3327D01*
X7339Y3323D01*
X7317Y3315D01*
X7296Y3305D01*
X7276Y3292D01*
X7259Y3276D01*
X7243Y3259D01*
X7230Y3239D01*
X7220Y3218D01*
X7212Y3196D01*
X7208Y3173D01*
X7206Y3150D01*
X7208Y3127D01*
X7212Y3104D01*
X7220Y3082D01*
X7230Y3061D01*
X7243Y3041D01*
X7259Y3024D01*
X7276Y3008D01*
X7296Y2995D01*
X7317Y2985D01*
X7339Y2977D01*
X7362Y2973D01*
X7385Y2971D01*
X7408Y2973D01*
X7431Y2977D01*
X7453Y2985D01*
X7474Y2995D01*
X7494Y3008D01*
X7511Y3024D01*
X7517Y3031D01*
X7567D01*
X7574Y3024D01*
X7591Y3008D01*
X7611Y2995D01*
X7632Y2985D01*
X7654Y2977D01*
X7677Y2973D01*
X7700Y2971D01*
X7723Y2973D01*
X7746Y2977D01*
X7768Y2985D01*
X7789Y2995D01*
X7809Y3008D01*
X7826Y3024D01*
X7842Y3041D01*
X7855Y3061D01*
X7865Y3082D01*
X7873Y3104D01*
X7877Y3127D01*
X7879Y3150D01*
X7877Y3173D01*
X7873Y3196D01*
X7865Y3218D01*
X7855Y3239D01*
X7842Y3259D01*
X7826Y3276D01*
X7809Y3292D01*
X7789Y3305D01*
X7768Y3315D01*
X7746Y3323D01*
X7723Y3327D01*
X7700Y3329D01*
D02*
G37*
G36*
X6448Y3014D02*
X6424Y3012D01*
X6401Y3008D01*
X6379Y3000D01*
X6358Y2990D01*
X6339Y2977D01*
X6321Y2961D01*
X6306Y2944D01*
X6293Y2924D01*
X6283Y2903D01*
X6275Y2881D01*
X6270Y2858D01*
X6269Y2835D01*
X6270Y2812D01*
X6275Y2789D01*
X6283Y2767D01*
X6293Y2746D01*
X6306Y2726D01*
X6321Y2709D01*
X6339Y2693D01*
X6358Y2680D01*
X6379Y2670D01*
X6401Y2662D01*
X6424Y2658D01*
X6448Y2656D01*
X6471Y2658D01*
X6494Y2662D01*
X6516Y2670D01*
X6537Y2680D01*
X6557Y2693D01*
X6574Y2709D01*
X6590Y2726D01*
X6603Y2746D01*
X6613Y2767D01*
X6620Y2789D01*
X6625Y2812D01*
X6627Y2835D01*
X6625Y2858D01*
X6620Y2881D01*
X6613Y2903D01*
X6603Y2924D01*
X6590Y2944D01*
X6574Y2961D01*
X6557Y2977D01*
X6537Y2990D01*
X6516Y3000D01*
X6494Y3008D01*
X6471Y3012D01*
X6448Y3014D01*
D02*
G37*
G36*
X8890Y3289D02*
X8867Y3287D01*
X8844Y3283D01*
X8822Y3275D01*
X8801Y3265D01*
X8781Y3252D01*
X8764Y3236D01*
X8748Y3219D01*
X8735Y3199D01*
X8725Y3178D01*
X8717Y3156D01*
X8713Y3133D01*
X8711Y3110D01*
X8713Y3087D01*
X8717Y3064D01*
X8725Y3042D01*
X8735Y3021D01*
X8748Y3001D01*
X8764Y2984D01*
X8781Y2968D01*
X8801Y2955D01*
X8822Y2945D01*
X8844Y2937D01*
X8867Y2933D01*
X8890Y2931D01*
X8913Y2933D01*
X8936Y2937D01*
X8958Y2945D01*
X8979Y2955D01*
X8999Y2968D01*
X9016Y2984D01*
X9032Y3001D01*
X9045Y3021D01*
X9055Y3042D01*
X9063Y3064D01*
X9067Y3087D01*
X9069Y3110D01*
X9067Y3133D01*
X9063Y3156D01*
X9055Y3178D01*
X9045Y3199D01*
X9032Y3219D01*
X9016Y3236D01*
X8999Y3252D01*
X8979Y3265D01*
X8958Y3275D01*
X8936Y3283D01*
X8913Y3287D01*
X8890Y3289D01*
D02*
G37*
G36*
X4710Y1569D02*
X4687Y1567D01*
X4664Y1563D01*
X4642Y1555D01*
X4621Y1545D01*
X4601Y1532D01*
X4584Y1516D01*
X4568Y1499D01*
X4555Y1479D01*
X4545Y1458D01*
X4537Y1436D01*
X4533Y1413D01*
X4531Y1390D01*
X4533Y1367D01*
X4537Y1344D01*
X4545Y1322D01*
X4555Y1301D01*
X4568Y1281D01*
X4584Y1264D01*
X4601Y1248D01*
X4621Y1235D01*
X4642Y1225D01*
X4664Y1217D01*
X4687Y1213D01*
X4710Y1211D01*
X4733Y1213D01*
X4756Y1217D01*
X4778Y1225D01*
X4799Y1235D01*
X4819Y1248D01*
X4836Y1264D01*
X4852Y1281D01*
X4865Y1301D01*
X4875Y1322D01*
X4883Y1344D01*
X4887Y1367D01*
X4889Y1390D01*
X4887Y1413D01*
X4883Y1436D01*
X4875Y1458D01*
X4865Y1479D01*
X4852Y1499D01*
X4836Y1516D01*
X4819Y1532D01*
X4799Y1545D01*
X4778Y1555D01*
X4756Y1563D01*
X4733Y1567D01*
X4710Y1569D01*
D02*
G37*
G36*
X8380Y1599D02*
X8357Y1597D01*
X8334Y1593D01*
X8312Y1585D01*
X8291Y1575D01*
X8271Y1562D01*
X8254Y1546D01*
X8238Y1529D01*
X8225Y1509D01*
X8215Y1488D01*
X8207Y1466D01*
X8203Y1443D01*
X8201Y1420D01*
X8203Y1397D01*
X8207Y1374D01*
X8215Y1352D01*
X8225Y1331D01*
X8238Y1311D01*
X8254Y1294D01*
X8271Y1278D01*
X8291Y1265D01*
X8312Y1255D01*
X8334Y1247D01*
X8357Y1243D01*
X8380Y1241D01*
X8403Y1243D01*
X8426Y1247D01*
X8448Y1255D01*
X8469Y1265D01*
X8489Y1278D01*
X8506Y1294D01*
X8522Y1311D01*
X8535Y1331D01*
X8545Y1352D01*
X8553Y1374D01*
X8557Y1397D01*
X8559Y1420D01*
X8557Y1443D01*
X8553Y1466D01*
X8545Y1488D01*
X8535Y1509D01*
X8522Y1529D01*
X8506Y1546D01*
X8489Y1562D01*
X8469Y1575D01*
X8448Y1585D01*
X8426Y1593D01*
X8403Y1597D01*
X8380Y1599D01*
D02*
G37*
G36*
X5300Y809D02*
X5277Y807D01*
X5254Y803D01*
X5232Y795D01*
X5211Y785D01*
X5191Y772D01*
X5174Y756D01*
X5158Y739D01*
X5145Y719D01*
X5135Y698D01*
X5127Y676D01*
X5123Y653D01*
X5121Y630D01*
X5123Y607D01*
X5127Y584D01*
X5135Y562D01*
X5145Y541D01*
X5158Y521D01*
X5174Y504D01*
X5191Y488D01*
X5211Y475D01*
X5232Y465D01*
X5254Y457D01*
X5277Y453D01*
X5300Y451D01*
X5323Y453D01*
X5346Y457D01*
X5368Y465D01*
X5389Y475D01*
X5409Y488D01*
X5426Y504D01*
X5442Y521D01*
X5455Y541D01*
X5465Y562D01*
X5473Y584D01*
X5477Y607D01*
X5479Y630D01*
X5477Y653D01*
X5473Y676D01*
X5465Y698D01*
X5455Y719D01*
X5442Y739D01*
X5426Y756D01*
X5409Y772D01*
X5389Y785D01*
X5368Y795D01*
X5346Y803D01*
X5323Y807D01*
X5300Y809D01*
D02*
G37*
G36*
X4640Y1079D02*
X4617Y1077D01*
X4594Y1073D01*
X4572Y1065D01*
X4551Y1055D01*
X4531Y1042D01*
X4514Y1026D01*
X4498Y1009D01*
X4485Y989D01*
X4475Y968D01*
X4467Y946D01*
X4463Y923D01*
X4461Y900D01*
X4463Y877D01*
X4467Y854D01*
X4475Y832D01*
X4485Y811D01*
X4498Y791D01*
X4514Y774D01*
X4531Y758D01*
X4551Y745D01*
X4572Y735D01*
X4594Y727D01*
X4617Y723D01*
X4640Y721D01*
X4663Y723D01*
X4686Y727D01*
X4708Y735D01*
X4729Y745D01*
X4749Y758D01*
X4766Y774D01*
X4782Y791D01*
X4795Y811D01*
X4805Y832D01*
X4813Y854D01*
X4817Y877D01*
X4819Y900D01*
X4817Y923D01*
X4813Y946D01*
X4805Y968D01*
X4795Y989D01*
X4782Y1009D01*
X4766Y1026D01*
X4749Y1042D01*
X4729Y1055D01*
X4708Y1065D01*
X4686Y1073D01*
X4663Y1077D01*
X4640Y1079D01*
D02*
G37*
G36*
X9584Y2561D02*
X9551Y2559D01*
X9518Y2553D01*
X9486Y2544D01*
X9455Y2531D01*
X9426Y2515D01*
X9399Y2496D01*
X9374Y2474D01*
X9352Y2449D01*
X9333Y2422D01*
X9317Y2393D01*
X9304Y2362D01*
X9295Y2330D01*
X9289Y2297D01*
X9287Y2264D01*
X9289Y2231D01*
X9295Y2198D01*
X9304Y2166D01*
X9317Y2135D01*
X9333Y2106D01*
X9352Y2079D01*
X9374Y2054D01*
X9399Y2032D01*
X9426Y2012D01*
X9455Y1996D01*
X9486Y1983D01*
X9518Y1974D01*
X9551Y1969D01*
X9584Y1967D01*
X9617Y1969D01*
X9650Y1974D01*
X9651Y1974D01*
X9672Y1929D01*
X9661Y1922D01*
X9644Y1906D01*
X9628Y1889D01*
X9615Y1869D01*
X9605Y1848D01*
X9597Y1826D01*
X9593Y1803D01*
X9591Y1780D01*
X9593Y1757D01*
X9597Y1734D01*
X9605Y1712D01*
X9615Y1691D01*
X9628Y1671D01*
X9644Y1654D01*
X9661Y1638D01*
X9681Y1625D01*
X9702Y1615D01*
X9724Y1607D01*
X9747Y1603D01*
X9770Y1601D01*
X9793Y1603D01*
X9816Y1607D01*
X9838Y1615D01*
X9859Y1625D01*
X9879Y1638D01*
X9896Y1654D01*
X9912Y1671D01*
X9925Y1691D01*
X9935Y1712D01*
X9943Y1734D01*
X9947Y1757D01*
X9949Y1780D01*
X9947Y1803D01*
X9943Y1826D01*
X9935Y1848D01*
X9925Y1869D01*
X9912Y1889D01*
X9896Y1906D01*
X9879Y1922D01*
X9859Y1935D01*
X9838Y1945D01*
X9816Y1953D01*
X9793Y1957D01*
X9770Y1959D01*
X9747Y1957D01*
X9744Y1957D01*
X9727Y2004D01*
X9742Y2012D01*
X9769Y2032D01*
X9794Y2054D01*
X9816Y2079D01*
X9836Y2106D01*
X9852Y2135D01*
X9865Y2166D01*
X9874Y2198D01*
X9879Y2231D01*
X9881Y2264D01*
X9879Y2297D01*
X9874Y2330D01*
X9865Y2362D01*
X9852Y2393D01*
X9836Y2422D01*
X9816Y2449D01*
X9794Y2474D01*
X9769Y2496D01*
X9742Y2515D01*
X9713Y2531D01*
X9682Y2544D01*
X9650Y2553D01*
X9617Y2559D01*
X9584Y2561D01*
D02*
G37*
G36*
X4450Y2449D02*
X4427Y2447D01*
X4404Y2443D01*
X4382Y2435D01*
X4361Y2425D01*
X4341Y2412D01*
X4324Y2396D01*
X4308Y2379D01*
X4295Y2359D01*
X4285Y2338D01*
X4277Y2316D01*
X4273Y2293D01*
X4271Y2270D01*
X4273Y2247D01*
X4277Y2224D01*
X4285Y2202D01*
X4295Y2181D01*
X4308Y2161D01*
X4324Y2144D01*
X4341Y2128D01*
X4361Y2115D01*
X4375Y2108D01*
X4367Y2086D01*
X4363Y2063D01*
X4361Y2040D01*
X4363Y2017D01*
X4367Y1994D01*
X4375Y1972D01*
X4385Y1951D01*
X4398Y1931D01*
X4414Y1914D01*
X4431Y1898D01*
X4451Y1885D01*
X4472Y1875D01*
X4494Y1867D01*
X4517Y1863D01*
X4540Y1861D01*
X4563Y1863D01*
X4586Y1867D01*
X4608Y1875D01*
X4629Y1885D01*
X4649Y1898D01*
X4666Y1914D01*
X4682Y1931D01*
X4695Y1951D01*
X4705Y1972D01*
X4713Y1994D01*
X4717Y2017D01*
X4719Y2040D01*
X4717Y2063D01*
X4713Y2086D01*
X4705Y2108D01*
X4695Y2129D01*
X4682Y2149D01*
X4666Y2166D01*
X4649Y2182D01*
X4629Y2195D01*
X4615Y2202D01*
X4623Y2224D01*
X4627Y2247D01*
X4629Y2270D01*
X4627Y2293D01*
X4623Y2316D01*
X4615Y2338D01*
X4605Y2359D01*
X4592Y2379D01*
X4576Y2396D01*
X4559Y2412D01*
X4539Y2425D01*
X4518Y2435D01*
X4496Y2443D01*
X4473Y2447D01*
X4450Y2449D01*
D02*
G37*
G36*
X2860Y4800D02*
X1840D01*
Y1360D01*
X2860D01*
Y4800D01*
D02*
G37*
G36*
X7380Y1589D02*
X7357Y1587D01*
X7334Y1583D01*
X7312Y1575D01*
X7291Y1565D01*
X7271Y1552D01*
X7254Y1536D01*
X7238Y1519D01*
X7219Y1532D01*
X7219Y1532D01*
Y1532D01*
X7199Y1545D01*
X7178Y1555D01*
X7156Y1563D01*
X7133Y1567D01*
X7110Y1569D01*
X7087Y1567D01*
X7064Y1563D01*
X7042Y1555D01*
X7021Y1545D01*
X7001Y1532D01*
X6994Y1525D01*
X6976Y1526D01*
X6959Y1542D01*
X6939Y1555D01*
X6918Y1565D01*
X6896Y1573D01*
X6873Y1577D01*
X6850Y1579D01*
X6827Y1577D01*
X6804Y1573D01*
X6782Y1565D01*
X6761Y1555D01*
X6741Y1542D01*
X6724Y1526D01*
X6708Y1509D01*
X6695Y1489D01*
X6685Y1468D01*
X6677Y1446D01*
X6673Y1423D01*
X6671Y1400D01*
X6673Y1377D01*
X6677Y1354D01*
X6685Y1332D01*
X6695Y1311D01*
X6708Y1291D01*
X6724Y1274D01*
X6741Y1258D01*
X6761Y1245D01*
X6782Y1235D01*
X6804Y1227D01*
X6827Y1223D01*
X6850Y1221D01*
X6873Y1223D01*
X6896Y1227D01*
X6918Y1235D01*
X6919Y1235D01*
X6957Y1202D01*
X6950Y1183D01*
X6946Y1160D01*
X6944Y1137D01*
X6946Y1114D01*
X6950Y1091D01*
X6958Y1068D01*
X6968Y1047D01*
X6981Y1028D01*
X6997Y1010D01*
X7014Y995D01*
X7034Y982D01*
X7055Y972D01*
X7077Y964D01*
X7100Y960D01*
X7123Y958D01*
X7146Y960D01*
X7169Y964D01*
X7192Y972D01*
X7213Y982D01*
X7232Y995D01*
X7250Y1010D01*
X7265Y1028D01*
X7278Y1047D01*
X7288Y1068D01*
X7296Y1091D01*
X7300Y1114D01*
X7302Y1137D01*
X7300Y1160D01*
X7296Y1183D01*
X7288Y1205D01*
X7324Y1241D01*
X7334Y1237D01*
X7357Y1233D01*
X7380Y1231D01*
X7403Y1233D01*
X7426Y1237D01*
X7448Y1245D01*
X7469Y1255D01*
X7489Y1268D01*
X7506Y1284D01*
X7522Y1301D01*
X7535Y1321D01*
X7545Y1342D01*
X7553Y1364D01*
X7557Y1387D01*
X7559Y1410D01*
X7557Y1433D01*
X7553Y1456D01*
X7545Y1478D01*
X7535Y1499D01*
X7522Y1519D01*
X7506Y1536D01*
X7489Y1552D01*
X7469Y1565D01*
X7448Y1575D01*
X7426Y1583D01*
X7403Y1587D01*
X7380Y1589D01*
D02*
G37*
G36*
X9129Y3729D02*
X9105Y3727D01*
X9082Y3723D01*
X9060Y3715D01*
X9039Y3705D01*
X9020Y3692D01*
X9002Y3676D01*
X8987Y3659D01*
X8974Y3639D01*
X8964Y3618D01*
X8956Y3596D01*
X8951Y3573D01*
X8950Y3550D01*
X8951Y3527D01*
X8956Y3504D01*
X8964Y3482D01*
X8974Y3461D01*
X8987Y3441D01*
X9002Y3424D01*
X9020Y3408D01*
X9039Y3395D01*
X9060Y3385D01*
X9082Y3377D01*
X9105Y3373D01*
X9129Y3371D01*
X9152Y3373D01*
X9175Y3377D01*
X9197Y3385D01*
X9218Y3395D01*
X9238Y3408D01*
X9255Y3424D01*
X9271Y3441D01*
X9284Y3461D01*
X9294Y3482D01*
X9301Y3504D01*
X9306Y3527D01*
X9308Y3550D01*
X9306Y3573D01*
X9301Y3596D01*
X9294Y3618D01*
X9284Y3639D01*
X9271Y3659D01*
X9255Y3676D01*
X9238Y3692D01*
X9218Y3705D01*
X9197Y3715D01*
X9175Y3723D01*
X9152Y3727D01*
X9129Y3729D01*
D02*
G37*
G36*
X4700Y5839D02*
X4677Y5837D01*
X4654Y5833D01*
X4632Y5825D01*
X4611Y5815D01*
X4591Y5802D01*
X4574Y5786D01*
X4558Y5769D01*
X4545Y5749D01*
X4535Y5728D01*
X4527Y5706D01*
X4523Y5683D01*
X4521Y5660D01*
X4523Y5637D01*
X4527Y5614D01*
X4535Y5592D01*
X4545Y5571D01*
X4558Y5551D01*
X4574Y5534D01*
X4591Y5518D01*
X4611Y5505D01*
X4632Y5495D01*
X4654Y5487D01*
X4677Y5483D01*
X4700Y5481D01*
X4723Y5483D01*
X4746Y5487D01*
X4768Y5495D01*
X4789Y5505D01*
X4809Y5518D01*
X4826Y5534D01*
X4842Y5551D01*
X4855Y5571D01*
X4865Y5592D01*
X4873Y5614D01*
X4877Y5637D01*
X4879Y5660D01*
X4877Y5683D01*
X4873Y5706D01*
X4865Y5728D01*
X4855Y5749D01*
X4842Y5769D01*
X4826Y5786D01*
X4809Y5802D01*
X4789Y5815D01*
X4768Y5825D01*
X4746Y5833D01*
X4723Y5837D01*
X4700Y5839D01*
D02*
G37*
G36*
X4230Y5859D02*
X4207Y5857D01*
X4184Y5853D01*
X4162Y5845D01*
X4141Y5835D01*
X4121Y5822D01*
X4104Y5806D01*
X4088Y5789D01*
X4075Y5769D01*
X4065Y5748D01*
X4057Y5726D01*
X4053Y5703D01*
X4051Y5680D01*
X4053Y5657D01*
X4057Y5634D01*
X4065Y5612D01*
X4075Y5591D01*
X4088Y5571D01*
X4104Y5554D01*
X4121Y5538D01*
X4141Y5525D01*
X4162Y5515D01*
X4184Y5507D01*
X4207Y5503D01*
X4230Y5501D01*
X4253Y5503D01*
X4276Y5507D01*
X4298Y5515D01*
X4319Y5525D01*
X4339Y5538D01*
X4356Y5554D01*
X4372Y5571D01*
X4385Y5591D01*
X4395Y5612D01*
X4403Y5634D01*
X4407Y5657D01*
X4409Y5680D01*
X4407Y5703D01*
X4403Y5726D01*
X4395Y5748D01*
X4385Y5769D01*
X4372Y5789D01*
X4356Y5806D01*
X4339Y5822D01*
X4319Y5835D01*
X4298Y5845D01*
X4276Y5853D01*
X4253Y5857D01*
X4230Y5859D01*
D02*
G37*
G36*
X9860Y5828D02*
X9309D01*
X9271Y5827D01*
X9233Y5822D01*
X9196Y5814D01*
X9160Y5802D01*
X9125Y5788D01*
X9091Y5770D01*
X9059Y5750D01*
X9029Y5727D01*
X9001Y5701D01*
X8976Y5673D01*
X8953Y5643D01*
X8932Y5611D01*
X8915Y5577D01*
X8900Y5542D01*
X8889Y5506D01*
X8881Y5469D01*
X8876Y5432D01*
X8874Y5394D01*
X8876Y5356D01*
X8881Y5318D01*
X8889Y5281D01*
X8900Y5245D01*
X8915Y5210D01*
X8932Y5176D01*
X8953Y5144D01*
X8976Y5114D01*
X9001Y5086D01*
X9029Y5061D01*
X9059Y5038D01*
X9091Y5017D01*
X9125Y5000D01*
X9160Y4985D01*
X9196Y4974D01*
X9233Y4966D01*
X9271Y4961D01*
X9309Y4959D01*
X9860D01*
X9898Y4961D01*
X9935Y4966D01*
X9972Y4974D01*
X10009Y4985D01*
X10044Y5000D01*
X10077Y5017D01*
X10109Y5038D01*
X10139Y5061D01*
X10167Y5086D01*
X10193Y5114D01*
X10216Y5144D01*
X10236Y5176D01*
X10254Y5210D01*
X10268Y5245D01*
X10280Y5281D01*
X10288Y5318D01*
X10293Y5356D01*
X10295Y5394D01*
X10293Y5432D01*
X10288Y5469D01*
X10280Y5506D01*
X10268Y5542D01*
X10254Y5577D01*
X10236Y5611D01*
X10216Y5643D01*
X10193Y5673D01*
X10167Y5701D01*
X10139Y5727D01*
X10109Y5750D01*
X10077Y5770D01*
X10044Y5788D01*
X10009Y5802D01*
X9972Y5814D01*
X9935Y5822D01*
X9898Y5827D01*
X9860Y5828D01*
D02*
G37*
G36*
X5600Y5769D02*
X5577Y5767D01*
X5554Y5763D01*
X5532Y5755D01*
X5511Y5745D01*
X5491Y5732D01*
X5474Y5716D01*
X5458Y5699D01*
X5445Y5679D01*
X5435Y5658D01*
X5427Y5636D01*
X5423Y5613D01*
X5421Y5590D01*
X5423Y5567D01*
X5427Y5544D01*
X5435Y5522D01*
X5445Y5501D01*
X5458Y5481D01*
X5474Y5464D01*
X5491Y5448D01*
X5511Y5435D01*
X5532Y5425D01*
X5554Y5417D01*
X5577Y5413D01*
X5600Y5411D01*
X5623Y5413D01*
X5646Y5417D01*
X5668Y5425D01*
X5689Y5435D01*
X5709Y5448D01*
X5726Y5464D01*
X5742Y5481D01*
X5755Y5501D01*
X5765Y5522D01*
X5773Y5544D01*
X5777Y5567D01*
X5779Y5590D01*
X5777Y5613D01*
X5773Y5636D01*
X5765Y5658D01*
X5755Y5679D01*
X5742Y5699D01*
X5726Y5716D01*
X5709Y5732D01*
X5689Y5745D01*
X5668Y5755D01*
X5646Y5763D01*
X5623Y5767D01*
X5600Y5769D01*
D02*
G37*
G36*
X5640Y7579D02*
X5617Y7577D01*
X5594Y7573D01*
X5572Y7565D01*
X5551Y7555D01*
X5531Y7542D01*
X5514Y7526D01*
X5498Y7509D01*
X5485Y7489D01*
X5475Y7468D01*
X5467Y7446D01*
X5463Y7423D01*
X5461Y7400D01*
X5463Y7377D01*
X5467Y7354D01*
X5475Y7332D01*
X5485Y7311D01*
X5498Y7291D01*
X5514Y7274D01*
X5531Y7258D01*
X5551Y7245D01*
X5572Y7235D01*
X5594Y7227D01*
X5617Y7223D01*
X5640Y7221D01*
X5663Y7223D01*
X5686Y7227D01*
X5708Y7235D01*
X5729Y7245D01*
X5749Y7258D01*
X5766Y7274D01*
X5782Y7291D01*
X5795Y7311D01*
X5805Y7332D01*
X5813Y7354D01*
X5817Y7377D01*
X5819Y7400D01*
X5817Y7423D01*
X5813Y7446D01*
X5805Y7468D01*
X5795Y7489D01*
X5782Y7509D01*
X5766Y7526D01*
X5749Y7542D01*
X5729Y7555D01*
X5708Y7565D01*
X5686Y7573D01*
X5663Y7577D01*
X5640Y7579D01*
D02*
G37*
G36*
X5140Y7579D02*
X5117Y7577D01*
X5094Y7573D01*
X5072Y7565D01*
X5051Y7555D01*
X5031Y7542D01*
X5014Y7526D01*
X4998Y7509D01*
X4985Y7489D01*
X4975Y7468D01*
X4967Y7446D01*
X4963Y7423D01*
X4961Y7400D01*
X4963Y7377D01*
X4967Y7354D01*
X4975Y7332D01*
X4985Y7311D01*
X4998Y7291D01*
X5014Y7274D01*
X5031Y7258D01*
X5051Y7245D01*
X5072Y7235D01*
X5094Y7227D01*
X5117Y7223D01*
X5140Y7221D01*
X5163Y7223D01*
X5186Y7227D01*
X5208Y7235D01*
X5229Y7245D01*
X5249Y7258D01*
X5266Y7274D01*
X5282Y7291D01*
X5295Y7311D01*
X5305Y7332D01*
X5313Y7354D01*
X5317Y7377D01*
X5319Y7400D01*
X5317Y7423D01*
X5313Y7446D01*
X5305Y7468D01*
X5295Y7489D01*
X5282Y7509D01*
X5266Y7526D01*
X5249Y7542D01*
X5229Y7555D01*
X5208Y7565D01*
X5186Y7573D01*
X5163Y7577D01*
X5140Y7579D01*
D02*
G37*
G36*
X3350Y6089D02*
X3327Y6087D01*
X3304Y6083D01*
X3282Y6075D01*
X3261Y6065D01*
X3241Y6052D01*
X3224Y6036D01*
X3208Y6019D01*
X3195Y5999D01*
X3185Y5978D01*
X3177Y5956D01*
X3173Y5933D01*
X3171Y5910D01*
X3173Y5887D01*
X3177Y5864D01*
X3185Y5842D01*
X3195Y5821D01*
X3208Y5801D01*
X3224Y5784D01*
X3241Y5768D01*
X3261Y5755D01*
X3282Y5745D01*
X3304Y5737D01*
X3304Y5737D01*
D01*
X3305Y5708D01*
X3297Y5686D01*
X3293Y5663D01*
X3291Y5640D01*
X3293Y5617D01*
X3297Y5594D01*
X3305Y5572D01*
X3315Y5551D01*
X3328Y5531D01*
X3344Y5514D01*
X3361Y5498D01*
X3381Y5485D01*
X3402Y5475D01*
X3424Y5467D01*
X3447Y5463D01*
X3470Y5461D01*
X3493Y5463D01*
X3516Y5467D01*
X3538Y5475D01*
X3559Y5485D01*
X3579Y5498D01*
X3596Y5514D01*
X3612Y5531D01*
X3612Y5531D01*
X3631Y5535D01*
X3652Y5525D01*
X3674Y5517D01*
X3697Y5513D01*
X3720Y5511D01*
X3743Y5513D01*
X3766Y5517D01*
X3788Y5525D01*
X3809Y5535D01*
X3829Y5548D01*
X3846Y5564D01*
X3862Y5581D01*
X3875Y5601D01*
X3885Y5622D01*
X3893Y5644D01*
X3897Y5667D01*
X3899Y5690D01*
X3897Y5713D01*
X3893Y5736D01*
X3885Y5758D01*
X3875Y5779D01*
X3862Y5799D01*
X3846Y5816D01*
X3829Y5832D01*
X3809Y5845D01*
X3788Y5855D01*
X3766Y5863D01*
X3743Y5867D01*
X3720Y5869D01*
X3697Y5867D01*
X3674Y5863D01*
X3652Y5855D01*
X3631Y5845D01*
X3611Y5832D01*
X3594Y5816D01*
X3578Y5799D01*
X3578Y5799D01*
X3559Y5795D01*
X3538Y5805D01*
X3516Y5813D01*
X3515Y5842D01*
X3523Y5864D01*
X3527Y5887D01*
X3529Y5910D01*
X3527Y5933D01*
X3523Y5956D01*
X3515Y5978D01*
X3505Y5999D01*
X3492Y6019D01*
X3476Y6036D01*
X3459Y6052D01*
X3439Y6065D01*
X3418Y6075D01*
X3396Y6083D01*
X3373Y6087D01*
X3350Y6089D01*
D02*
G37*
G36*
X4950Y7169D02*
X4927Y7167D01*
X4904Y7163D01*
X4882Y7155D01*
X4861Y7145D01*
X4841Y7132D01*
X4824Y7116D01*
X4808Y7099D01*
X4795Y7079D01*
X4785Y7058D01*
X4777Y7036D01*
X4773Y7013D01*
X4771Y6990D01*
X4773Y6967D01*
X4777Y6944D01*
X4785Y6922D01*
X4795Y6901D01*
X4808Y6881D01*
X4824Y6864D01*
X4841Y6848D01*
X4861Y6835D01*
X4882Y6825D01*
X4904Y6817D01*
X4927Y6813D01*
X4950Y6811D01*
X4973Y6813D01*
X4996Y6817D01*
X5018Y6825D01*
X5039Y6835D01*
X5059Y6848D01*
X5076Y6864D01*
X5092Y6881D01*
X5105Y6901D01*
X5115Y6922D01*
X5123Y6944D01*
X5127Y6967D01*
X5129Y6990D01*
X5127Y7013D01*
X5123Y7036D01*
X5115Y7058D01*
X5105Y7079D01*
X5092Y7099D01*
X5076Y7116D01*
X5059Y7132D01*
X5039Y7145D01*
X5018Y7155D01*
X4996Y7163D01*
X4973Y7167D01*
X4950Y7169D01*
D02*
G37*
G36*
X6575Y5183D02*
X6552Y5181D01*
X6529Y5177D01*
X6507Y5169D01*
X6486Y5159D01*
X6466Y5146D01*
X6449Y5130D01*
X6433Y5113D01*
X6420Y5093D01*
X6410Y5072D01*
X6403Y5050D01*
X6398Y5027D01*
X6396Y5004D01*
X6398Y4980D01*
X6403Y4958D01*
X6410Y4935D01*
X6410Y4935D01*
X6402Y4925D01*
X6381Y4915D01*
X6361Y4902D01*
X6344Y4886D01*
X6328Y4869D01*
X6315Y4849D01*
X6305Y4828D01*
X6297Y4806D01*
X6293Y4783D01*
X6291Y4760D01*
X6293Y4737D01*
X6297Y4714D01*
X6305Y4692D01*
X6315Y4671D01*
X6328Y4651D01*
X6344Y4634D01*
X6361Y4618D01*
X6381Y4605D01*
X6402Y4595D01*
X6424Y4587D01*
X6447Y4583D01*
X6470Y4581D01*
X6493Y4583D01*
X6516Y4587D01*
X6538Y4595D01*
X6559Y4605D01*
X6579Y4618D01*
X6596Y4634D01*
X6612Y4651D01*
X6625Y4671D01*
X6627Y4675D01*
X6677Y4678D01*
X6688Y4661D01*
X6704Y4644D01*
X6721Y4628D01*
X6741Y4615D01*
X6762Y4605D01*
X6784Y4597D01*
X6807Y4593D01*
X6830Y4591D01*
X6853Y4593D01*
X6876Y4597D01*
X6898Y4605D01*
X6919Y4615D01*
X6939Y4628D01*
X6956Y4644D01*
X6972Y4661D01*
X6985Y4681D01*
X6995Y4702D01*
X7003Y4724D01*
X7005Y4725D01*
X7017Y4723D01*
X7040Y4721D01*
X7063Y4723D01*
X7086Y4727D01*
X7108Y4735D01*
X7129Y4745D01*
X7149Y4758D01*
X7166Y4774D01*
X7182Y4791D01*
X7195Y4811D01*
X7205Y4832D01*
X7213Y4854D01*
X7217Y4877D01*
X7219Y4900D01*
X7217Y4923D01*
X7213Y4946D01*
X7205Y4968D01*
X7195Y4989D01*
X7182Y5009D01*
X7166Y5026D01*
X7149Y5042D01*
X7129Y5055D01*
X7108Y5065D01*
X7086Y5073D01*
X7063Y5077D01*
X7040Y5079D01*
X7017Y5077D01*
X6994Y5073D01*
X6972Y5065D01*
X6951Y5055D01*
X6931Y5042D01*
X6914Y5026D01*
X6898Y5009D01*
X6885Y4989D01*
X6875Y4968D01*
X6867Y4946D01*
X6867Y4945D01*
X6853Y4947D01*
X6830Y4949D01*
X6807Y4947D01*
X6788Y4943D01*
X6752Y4979D01*
X6753Y4980D01*
X6754Y5004D01*
X6753Y5027D01*
X6748Y5050D01*
X6740Y5072D01*
X6730Y5093D01*
X6717Y5113D01*
X6702Y5130D01*
X6684Y5146D01*
X6665Y5159D01*
X6644Y5169D01*
X6622Y5177D01*
X6599Y5181D01*
X6575Y5183D01*
D02*
G37*
G36*
X7070Y3959D02*
X7047Y3957D01*
X7024Y3953D01*
X7002Y3945D01*
X6981Y3935D01*
X6961Y3922D01*
X6944Y3906D01*
X6928Y3889D01*
X6915Y3869D01*
X6905Y3848D01*
X6897Y3826D01*
X6893Y3803D01*
X6891Y3780D01*
X6893Y3757D01*
X6897Y3734D01*
X6905Y3711D01*
X6915Y3691D01*
X6928Y3671D01*
X6944Y3653D01*
X6950Y3647D01*
Y3597D01*
X6944Y3591D01*
X6938Y3585D01*
X6888D01*
X6881Y3591D01*
X6864Y3607D01*
X6844Y3620D01*
X6823Y3630D01*
X6801Y3638D01*
X6778Y3642D01*
X6755Y3644D01*
X6732Y3642D01*
X6709Y3638D01*
X6687Y3630D01*
X6666Y3620D01*
X6646Y3607D01*
X6629Y3591D01*
X6613Y3574D01*
X6600Y3554D01*
X6590Y3533D01*
X6582Y3511D01*
X6578Y3488D01*
X6576Y3465D01*
X6578Y3442D01*
X6582Y3419D01*
X6590Y3397D01*
X6600Y3376D01*
X6613Y3356D01*
X6629Y3339D01*
X6646Y3323D01*
X6666Y3310D01*
X6687Y3300D01*
X6709Y3292D01*
X6732Y3288D01*
X6755Y3286D01*
X6778Y3288D01*
X6801Y3292D01*
X6823Y3300D01*
X6844Y3310D01*
X6864Y3323D01*
X6881Y3339D01*
X6888Y3345D01*
X6938D01*
X6944Y3339D01*
X6961Y3323D01*
X6981Y3310D01*
X7002Y3300D01*
X7024Y3292D01*
X7047Y3288D01*
X7070Y3286D01*
X7093Y3288D01*
X7116Y3292D01*
X7138Y3300D01*
X7159Y3310D01*
X7179Y3323D01*
X7196Y3339D01*
X7212Y3356D01*
X7225Y3376D01*
X7235Y3397D01*
X7243Y3419D01*
X7247Y3442D01*
X7249Y3465D01*
X7247Y3488D01*
X7243Y3511D01*
X7235Y3533D01*
X7225Y3554D01*
X7212Y3574D01*
X7196Y3591D01*
X7190Y3597D01*
Y3647D01*
X7196Y3653D01*
X7212Y3671D01*
X7225Y3691D01*
X7235Y3711D01*
X7243Y3734D01*
X7247Y3757D01*
X7249Y3780D01*
X7247Y3803D01*
X7243Y3826D01*
X7235Y3848D01*
X7225Y3869D01*
X7212Y3889D01*
X7196Y3906D01*
X7179Y3922D01*
X7159Y3935D01*
X7138Y3945D01*
X7116Y3953D01*
X7093Y3957D01*
X7070Y3959D01*
D02*
G37*
G36*
X8645Y4294D02*
X8621Y4292D01*
X8599Y4288D01*
X8576Y4280D01*
X8555Y4270D01*
X8536Y4257D01*
X8518Y4241D01*
X8503Y4224D01*
X8490Y4204D01*
X8480Y4183D01*
X8472Y4161D01*
X8468Y4138D01*
X8466Y4115D01*
X8468Y4092D01*
X8472Y4069D01*
X8480Y4046D01*
X8490Y4025D01*
X8503Y4006D01*
X8518Y3988D01*
X8536Y3973D01*
X8555Y3960D01*
X8576Y3950D01*
X8599Y3942D01*
X8621Y3938D01*
X8645Y3936D01*
X8668Y3938D01*
X8691Y3942D01*
X8713Y3950D01*
X8737Y3944D01*
X8737Y3944D01*
X8737D01*
X8745Y3922D01*
X8755Y3901D01*
X8768Y3881D01*
X8784Y3864D01*
X8801Y3848D01*
X8821Y3835D01*
X8842Y3825D01*
X8864Y3817D01*
X8887Y3813D01*
X8910Y3811D01*
X8933Y3813D01*
X8956Y3817D01*
X8978Y3825D01*
X8999Y3835D01*
X9019Y3848D01*
X9036Y3864D01*
X9052Y3881D01*
X9065Y3901D01*
X9075Y3922D01*
X9083Y3944D01*
X9087Y3967D01*
X9089Y3990D01*
X9087Y4013D01*
X9083Y4036D01*
X9075Y4058D01*
X9065Y4079D01*
X9052Y4099D01*
X9036Y4116D01*
X9019Y4132D01*
X8999Y4145D01*
X8978Y4155D01*
X8956Y4163D01*
X8933Y4167D01*
X8910Y4169D01*
X8887Y4167D01*
X8864Y4163D01*
X8842Y4155D01*
X8818Y4161D01*
D01*
X8810Y4183D01*
X8800Y4204D01*
X8787Y4224D01*
X8771Y4241D01*
X8754Y4257D01*
X8734Y4270D01*
X8713Y4280D01*
X8691Y4288D01*
X8668Y4292D01*
X8645Y4294D01*
D02*
G37*
G36*
X9584Y4332D02*
X9551Y4331D01*
X9518Y4325D01*
X9486Y4316D01*
X9455Y4303D01*
X9426Y4287D01*
X9399Y4268D01*
X9374Y4245D01*
X9352Y4221D01*
X9333Y4193D01*
X9317Y4164D01*
X9304Y4134D01*
X9295Y4102D01*
X9289Y4069D01*
X9287Y4035D01*
X9289Y4002D01*
X9295Y3969D01*
X9304Y3937D01*
X9317Y3907D01*
X9333Y3877D01*
X9352Y3850D01*
X9374Y3825D01*
X9399Y3803D01*
X9426Y3784D01*
X9455Y3768D01*
X9486Y3755D01*
X9518Y3746D01*
X9551Y3740D01*
X9584Y3738D01*
X9617Y3740D01*
X9655Y3718D01*
X9647Y3696D01*
X9643Y3673D01*
X9641Y3650D01*
X9643Y3627D01*
X9647Y3604D01*
X9655Y3582D01*
X9665Y3561D01*
X9678Y3541D01*
X9694Y3524D01*
X9711Y3508D01*
X9731Y3495D01*
X9752Y3485D01*
X9774Y3477D01*
X9797Y3473D01*
X9820Y3471D01*
X9843Y3473D01*
X9866Y3477D01*
X9888Y3485D01*
X9909Y3495D01*
X9929Y3508D01*
X9946Y3524D01*
X9962Y3541D01*
X9975Y3561D01*
X9985Y3582D01*
X9993Y3604D01*
X9997Y3627D01*
X9999Y3650D01*
X9997Y3673D01*
X9993Y3696D01*
X9985Y3718D01*
X9975Y3739D01*
X9962Y3759D01*
X9946Y3776D01*
X9929Y3792D01*
X9909Y3805D01*
X9888Y3815D01*
X9866Y3823D01*
X9851Y3826D01*
X9832Y3872D01*
X9836Y3877D01*
X9852Y3907D01*
X9865Y3937D01*
X9874Y3969D01*
X9879Y4002D01*
X9881Y4035D01*
X9879Y4069D01*
X9874Y4102D01*
X9865Y4134D01*
X9852Y4164D01*
X9836Y4193D01*
X9816Y4221D01*
X9794Y4245D01*
X9769Y4268D01*
X9742Y4287D01*
X9713Y4303D01*
X9682Y4316D01*
X9650Y4325D01*
X9617Y4331D01*
X9584Y4332D01*
D02*
G37*
G36*
X6140Y3939D02*
X6117Y3937D01*
X6094Y3933D01*
X6072Y3925D01*
X6051Y3915D01*
X6031Y3902D01*
X6014Y3887D01*
X5998Y3869D01*
X5985Y3849D01*
X5975Y3829D01*
X5967Y3806D01*
X5963Y3783D01*
X5961Y3760D01*
X5963Y3737D01*
X5967Y3714D01*
X5975Y3692D01*
X5985Y3671D01*
X5998Y3651D01*
X6013Y3635D01*
X6010Y3588D01*
X5988Y3567D01*
X5952Y3579D01*
X5936Y3596D01*
X5919Y3612D01*
X5899Y3625D01*
X5878Y3635D01*
X5856Y3643D01*
X5833Y3647D01*
X5810Y3649D01*
X5787Y3647D01*
X5764Y3643D01*
X5742Y3635D01*
X5721Y3625D01*
X5701Y3612D01*
X5684Y3596D01*
X5668Y3579D01*
X5655Y3559D01*
X5645Y3538D01*
X5637Y3516D01*
X5633Y3493D01*
X5631Y3470D01*
X5633Y3447D01*
X5637Y3424D01*
X5645Y3402D01*
X5655Y3381D01*
X5668Y3361D01*
X5684Y3344D01*
X5701Y3328D01*
X5721Y3315D01*
X5742Y3305D01*
X5764Y3297D01*
X5787Y3293D01*
X5810Y3291D01*
X5833Y3293D01*
X5856Y3297D01*
X5878Y3305D01*
X5899Y3315D01*
X5919Y3328D01*
X5936Y3344D01*
X5952Y3361D01*
X5952Y3361D01*
Y3361D01*
X5992Y3348D01*
X6007Y3331D01*
X6003Y3281D01*
X5999Y3276D01*
X5983Y3259D01*
X5970Y3239D01*
X5960Y3218D01*
X5952Y3196D01*
X5948Y3173D01*
X5946Y3150D01*
X5948Y3127D01*
X5952Y3104D01*
X5960Y3082D01*
X5970Y3061D01*
X5983Y3041D01*
X5999Y3024D01*
X6016Y3008D01*
X6036Y2995D01*
X6057Y2985D01*
X6079Y2977D01*
X6102Y2973D01*
X6125Y2971D01*
X6148Y2973D01*
X6171Y2977D01*
X6194Y2985D01*
X6215Y2995D01*
X6234Y3008D01*
X6252Y3024D01*
X6267Y3041D01*
X6280Y3061D01*
X6290Y3082D01*
X6298Y3104D01*
X6302Y3127D01*
X6304Y3150D01*
X6302Y3173D01*
X6298Y3196D01*
X6290Y3218D01*
X6280Y3239D01*
X6267Y3259D01*
X6252Y3276D01*
X6255Y3326D01*
X6260Y3330D01*
X6276Y3348D01*
X6289Y3367D01*
X6299Y3388D01*
X6306Y3410D01*
X6311Y3433D01*
X6313Y3456D01*
X6311Y3480D01*
X6306Y3503D01*
X6299Y3525D01*
X6289Y3546D01*
X6276Y3565D01*
X6261Y3582D01*
X6264Y3632D01*
X6267Y3634D01*
X6282Y3651D01*
X6295Y3671D01*
X6305Y3692D01*
X6313Y3714D01*
X6317Y3737D01*
X6319Y3760D01*
X6317Y3783D01*
X6313Y3806D01*
X6305Y3829D01*
X6295Y3849D01*
X6282Y3869D01*
X6267Y3887D01*
X6249Y3902D01*
X6230Y3915D01*
X6209Y3925D01*
X6186Y3933D01*
X6163Y3937D01*
X6140Y3939D01*
D02*
G37*
G36*
X7709Y4572D02*
X7686Y4570D01*
X7663Y4566D01*
X7641Y4558D01*
X7620Y4548D01*
X7600Y4535D01*
X7583Y4520D01*
X7567Y4502D01*
X7554Y4483D01*
X7544Y4462D01*
X7536Y4439D01*
X7532Y4416D01*
X7530Y4393D01*
X7532Y4370D01*
X7536Y4347D01*
X7544Y4325D01*
X7554Y4304D01*
X7567Y4284D01*
X7583Y4267D01*
X7600Y4251D01*
X7620Y4238D01*
X7641Y4228D01*
X7663Y4220D01*
X7686Y4216D01*
X7709Y4214D01*
X7732Y4216D01*
X7755Y4220D01*
X7777Y4228D01*
X7798Y4238D01*
X7818Y4251D01*
X7835Y4267D01*
X7851Y4284D01*
X7864Y4304D01*
X7874Y4325D01*
X7882Y4347D01*
X7886Y4370D01*
X7888Y4393D01*
X7886Y4416D01*
X7882Y4439D01*
X7874Y4462D01*
X7864Y4483D01*
X7851Y4502D01*
X7835Y4520D01*
X7818Y4535D01*
X7798Y4548D01*
X7777Y4558D01*
X7755Y4566D01*
X7732Y4570D01*
X7709Y4572D01*
D02*
G37*
G36*
X10316Y4982D02*
X10293Y4981D01*
X10270Y4976D01*
X10248Y4969D01*
X10227Y4958D01*
X10208Y4945D01*
X10190Y4930D01*
X10175Y4912D01*
X10162Y4893D01*
X10151Y4872D01*
X10144Y4850D01*
X10139Y4827D01*
X10138Y4804D01*
X10139Y4780D01*
X10144Y4757D01*
X10151Y4735D01*
X10162Y4714D01*
X10175Y4695D01*
X10190Y4677D01*
X10208Y4662D01*
X10227Y4649D01*
X10248Y4638D01*
X10270Y4631D01*
X10293Y4626D01*
X10316Y4625D01*
X10340Y4626D01*
X10363Y4631D01*
X10385Y4638D01*
X10406Y4649D01*
X10425Y4662D01*
X10443Y4677D01*
X10458Y4695D01*
X10471Y4714D01*
X10482Y4735D01*
X10489Y4757D01*
X10494Y4780D01*
X10495Y4804D01*
X10494Y4827D01*
X10489Y4850D01*
X10482Y4872D01*
X10471Y4893D01*
X10458Y4912D01*
X10443Y4930D01*
X10425Y4945D01*
X10406Y4958D01*
X10385Y4969D01*
X10363Y4976D01*
X10340Y4981D01*
X10316Y4982D01*
D02*
G37*
G36*
X5810Y4266D02*
X5787Y4264D01*
X5764Y4260D01*
X5742Y4252D01*
X5721Y4242D01*
X5701Y4229D01*
X5684Y4214D01*
X5668Y4196D01*
X5655Y4177D01*
X5645Y4156D01*
X5637Y4133D01*
X5633Y4111D01*
X5631Y4087D01*
X5633Y4064D01*
X5637Y4041D01*
X5645Y4019D01*
X5655Y3998D01*
X5668Y3978D01*
X5684Y3961D01*
X5701Y3945D01*
X5721Y3932D01*
X5742Y3922D01*
X5764Y3914D01*
X5787Y3910D01*
X5810Y3908D01*
X5834Y3910D01*
X5856Y3914D01*
X5879Y3922D01*
X5900Y3932D01*
X5919Y3945D01*
X5937Y3961D01*
X5952Y3978D01*
X5965Y3998D01*
X5975Y4019D01*
X5983Y4041D01*
X5987Y4064D01*
X5989Y4087D01*
X5987Y4111D01*
X5983Y4133D01*
X5975Y4156D01*
X5965Y4177D01*
X5952Y4196D01*
X5937Y4214D01*
X5919Y4229D01*
X5900Y4242D01*
X5879Y4252D01*
X5856Y4260D01*
X5834Y4264D01*
X5810Y4266D01*
D02*
G37*
G36*
X7385Y4274D02*
X7362Y4272D01*
X7339Y4268D01*
X7317Y4260D01*
X7296Y4250D01*
X7276Y4237D01*
X7259Y4221D01*
X7243Y4204D01*
X7230Y4184D01*
X7220Y4163D01*
X7212Y4141D01*
X7208Y4118D01*
X7206Y4095D01*
X7208Y4072D01*
X7212Y4049D01*
X7220Y4026D01*
X7230Y4005D01*
X7243Y3986D01*
X7259Y3968D01*
X7276Y3953D01*
X7296Y3940D01*
X7317Y3930D01*
X7339Y3922D01*
X7362Y3918D01*
X7385Y3916D01*
X7408Y3918D01*
X7431Y3922D01*
X7453Y3930D01*
X7474Y3940D01*
X7494Y3953D01*
X7511Y3968D01*
X7527Y3986D01*
X7540Y4005D01*
X7550Y4026D01*
X7558Y4049D01*
X7562Y4072D01*
X7564Y4095D01*
X7562Y4118D01*
X7558Y4141D01*
X7550Y4163D01*
X7540Y4184D01*
X7527Y4204D01*
X7511Y4221D01*
X7494Y4237D01*
X7474Y4250D01*
X7453Y4260D01*
X7431Y4268D01*
X7408Y4272D01*
X7385Y4274D01*
D02*
G37*
%LPD*%
D40*
X3561Y4439D02*
D03*
X4034D02*
D03*
X4506D02*
D03*
X4979D02*
D03*
X3561Y3966D02*
D03*
X4034D02*
D03*
X4506D02*
D03*
X3561Y3494D02*
D03*
X4034D02*
D03*
X4506D02*
D03*
X4979D02*
D03*
X3561Y3021D02*
D03*
X4034D02*
D03*
X4506D02*
D03*
X7540Y4790D02*
D03*
X6240Y1480D02*
D03*
X4470Y6970D02*
D03*
X6200Y6900D02*
D03*
X7870Y200D02*
D03*
X7069Y4094D02*
D03*
X6124Y2204D02*
D03*
X8640Y3150D02*
D03*
X7810Y1420D02*
D03*
X7350Y5610D02*
D03*
X5330Y2660D02*
D03*
X3140Y4840D02*
D03*
X2750Y4950D02*
D03*
X2160Y5870D02*
D03*
X8670Y4890D02*
D03*
X9870Y3160D02*
D03*
X9360Y1730D02*
D03*
X10474Y1050D02*
D03*
X5910Y610D02*
D03*
X5480Y250D02*
D03*
X4460Y1580D02*
D03*
X4390Y750D02*
D03*
X4510Y1180D02*
D03*
X3930Y250D02*
D03*
X2860Y240D02*
D03*
X2710Y820D02*
D03*
X1760Y960D02*
D03*
X2980Y1500D02*
D03*
X3260Y1800D02*
D03*
X7384Y2834D02*
D03*
X6370Y6120D02*
D03*
X5448Y4784D02*
D03*
X6124Y1889D02*
D03*
X7709Y4086D02*
D03*
X2070Y5250D02*
D03*
X2380D02*
D03*
X6530Y7980D02*
D03*
X5140Y8600D02*
D03*
X9260Y4250D02*
D03*
X10060Y4890D02*
D03*
X8760Y2360D02*
D03*
X1740Y2990D02*
D03*
X3940Y5200D02*
D03*
D41*
X8570Y5760D02*
D03*
X5380Y3980D02*
D03*
X8160Y180D02*
D03*
X2500Y6060D02*
D03*
X3060Y5730D02*
D03*
X3740Y6110D02*
D03*
X5183Y5480D02*
D03*
X5490Y6110D02*
D03*
X5890Y6060D02*
D03*
X5910Y5500D02*
D03*
X6520Y5220D02*
D03*
X7490Y6060D02*
D03*
X7900Y5640D02*
D03*
X8330Y6090D02*
D03*
X6764Y2844D02*
D03*
X9270Y140D02*
D03*
X8150Y570D02*
D03*
X8006Y1584D02*
D03*
X6240Y5809D02*
D03*
X7280Y5240D02*
D03*
X7030Y5600D02*
D03*
X8023Y4401D02*
D03*
Y3456D02*
D03*
X7061Y2826D02*
D03*
X7376Y3456D02*
D03*
X10574Y5220D02*
D03*
X10410Y4600D02*
D03*
X4830Y5910D02*
D03*
M02*
