M48
;Layer_Color=9474304
;FILE_FORMAT=2:4
INCH,TZ
;TYPE=PLATED
T1F00S00C0.0118
T2F00S00C0.0354
T3F00S00C0.0472
;TYPE=NON_PLATED
T4F00S00C0.0551
%
T01
X2790Y270
Y2600
Y4400
X3400Y4660
X5080Y3823
X5864Y2810
X6860Y2808
X6864Y2040
X8200Y1900
X8500Y3800
X7680Y3823
X8300Y4600
X9900
X10150Y3830
X10414Y4063
X10634Y4276
X11150Y3790
X11480Y3999
X12650Y3880
X12410Y4410
X12900Y4803
X12840Y5197
X13900
X14360Y5340
X14810
X16000Y5200
X15900Y4090
X15150Y4030
X13900Y4000
X14150Y2320
X15150
X15970Y2419
X16530
X16970
X17150Y2150
X16750Y2149
X17730Y2219
X18032
X18240Y2439
X18640Y2350
X19100Y2999
X19410Y3400
X19380Y5160
X18700Y5252
X18200Y4860
Y4000
X17100
X17190Y5430
X16900Y5600
X11700
X10650Y5400
X10650Y2509
Y2149
X11150
X11650
X12150Y2170
X12650Y2330
X13150Y2440
X12650Y870
X13260Y270
X14650Y600
X15340Y270
X16300Y600
X17420Y270
X18150Y840
X19020Y1510
X11180Y270
X10140Y867
Y2260
X9100Y270
X7020
X4940
X7440Y5501
X20080Y3950
X21460Y3950
X21580Y5210
X20760Y2220
X21580Y270
X19620
X20500Y7200
X20900Y7600
X21580Y7460
Y9490
X21100Y9600
X20780Y9540
X21580Y11450
X21500Y13600
X20260Y13650
X20230Y13320
X20090Y12860
X19550Y12620
X20200Y14850
X19500Y15590
X19020Y14590
X17650Y13509
Y13151
X17150
X17150Y13509
X16660Y13509
X16650Y13149
X16150
Y13509
X15630Y13320
X15150Y13509
X14150Y13320
X12650
X12150Y13509
X11650Y13400
X11150
X10640
X10150Y13350
Y11450
X10500Y10600
X10100Y9500
X11500
X12900
X14000
X14440Y9410
Y8200
X15150Y7470
X13600Y7500
X12900Y8000
X12700Y7000
X12190Y6970
Y6200
X11500Y7200
X11700Y8000
X8700Y7400
X7290Y7430
X6540Y7360
X6049Y7941
Y8414
X5576
Y7941
X5104
Y8414
Y8886
Y9359
X4631
Y8886
Y8414
Y7941
X4320Y7000
X3940Y6400
X5410Y6460
X5330Y5731
X6930Y6540
X7290Y6600
X7650Y6520
X7790Y9600
X7350Y9570
X7390Y9970
X6540Y10030
X6049Y9359
X5576
Y8886
X6049
X6350Y11500
X6400Y12850
X7100Y12200
X8500Y12800
X8600Y11200
X9170Y11740
X8500Y9500
X12400Y11250
X13740
X17200Y11290
X17760Y10770
X18060Y11690
X18330Y11520
X19130Y11445
X19399Y9030
X17430Y9280
X17220Y8300
X18060Y7790
X17020Y6180
X19390Y6270
X13900Y5840
X13260Y15590
X11180
X9100
X7020
X7390Y14600
X7700
X4940Y15590
X15340
X17420Y15580
X2790Y15600
Y13600
Y12600
Y11400
Y10190
X3680Y10190
X2790Y7950
Y6130
X3550Y5750
T02
X21360Y6961
Y7961
Y8961
X21360Y14260
Y15260
X16500Y11030
X15500
Y10030
Y9030
X16500
Y8030
X15500
Y7030
X16500
Y10030
T03
X6354Y2036
Y2824
T04
X8550Y2330
X19250
Y13330
X8550
M30
