G75*
%MOIN*%
%OFA0B0*%
%FSLAX25Y25*%
%IPPOS*%
%LPD*%
%AMOC8*
5,1,8,0,0,1.08239X$1,22.5*
%
%ADD10C,0.00000*%
%ADD11R,0.05954X0.03041*%
%ADD12R,0.03750X0.03750*%
%ADD13C,0.06600*%
%ADD14R,0.05718X0.04143*%
%ADD15R,0.03750X0.03356*%
%ADD16R,0.03946X0.02372*%
%ADD17R,0.05718X0.01489*%
%ADD18R,0.18946X0.18946*%
%ADD19R,0.01489X0.05718*%
%ADD20R,0.22600X0.08900*%
%ADD21C,0.04362*%
D10*
X0001500Y0001500D02*
X0119610Y0001500D01*
X0119610Y0080240D01*
X0001500Y0080240D01*
X0001500Y0001500D01*
D11*
X0107248Y0060122D03*
X0107248Y0072720D03*
D12*
X0079768Y0062602D03*
X0079768Y0056697D03*
X0065319Y0061067D03*
X0059413Y0061067D03*
X0054059Y0061264D03*
X0048154Y0061264D03*
X0042524Y0061264D03*
X0036618Y0061264D03*
X0078665Y0045673D03*
X0084571Y0045673D03*
X0087366Y0038154D03*
X0081461Y0038154D03*
X0074098Y0027012D03*
X0068193Y0027012D03*
X0068075Y0022248D03*
X0073980Y0022248D03*
X0103705Y0039807D03*
X0109610Y0039807D03*
X0109492Y0049846D03*
X0103587Y0049846D03*
X0105634Y0022287D03*
X0111539Y0022287D03*
X0111382Y0011854D03*
X0105476Y0011854D03*
X0012012Y0021382D03*
X0012012Y0027287D03*
D13*
X0009335Y0014028D02*
X0009335Y0008028D01*
X0019335Y0008028D02*
X0019335Y0014028D01*
X0029335Y0014028D02*
X0029335Y0008028D01*
X0029098Y0069642D02*
X0029098Y0075642D01*
X0019098Y0075642D02*
X0019098Y0069642D01*
X0009098Y0069642D02*
X0009098Y0075642D01*
D14*
X0009217Y0044571D03*
X0017484Y0044571D03*
X0014098Y0034531D03*
X0005831Y0034531D03*
X0066972Y0036894D03*
X0075240Y0036894D03*
X0089965Y0042406D03*
X0098232Y0042406D03*
X0088862Y0026854D03*
X0080594Y0026854D03*
D15*
X0095673Y0016421D03*
X0095673Y0010909D03*
X0051972Y0010870D03*
X0044138Y0012445D03*
X0051972Y0016382D03*
X0044138Y0006933D03*
D16*
X0073469Y0004728D03*
X0073469Y0009650D03*
X0073469Y0014571D03*
X0084886Y0014571D03*
X0084886Y0009650D03*
X0084886Y0004728D03*
D17*
X0056461Y0030949D03*
X0056461Y0032524D03*
X0056461Y0034098D03*
X0056461Y0035673D03*
X0056461Y0037248D03*
X0056461Y0038823D03*
X0056461Y0040398D03*
X0056461Y0041972D03*
X0056461Y0043547D03*
X0056461Y0045122D03*
X0056461Y0046697D03*
X0056461Y0048272D03*
X0031500Y0048272D03*
X0031500Y0046697D03*
X0031500Y0045122D03*
X0031500Y0043547D03*
X0031500Y0041972D03*
X0031500Y0040398D03*
X0031500Y0038823D03*
X0031500Y0037248D03*
X0031500Y0035673D03*
X0031500Y0034098D03*
X0031500Y0032524D03*
X0031500Y0030949D03*
D18*
X0043980Y0039610D03*
D19*
X0043193Y0027130D03*
X0044768Y0027130D03*
X0046343Y0027130D03*
X0047917Y0027130D03*
X0049492Y0027130D03*
X0051067Y0027130D03*
X0052642Y0027130D03*
X0041618Y0027130D03*
X0040043Y0027130D03*
X0038469Y0027130D03*
X0036894Y0027130D03*
X0035319Y0027130D03*
X0035319Y0052091D03*
X0036894Y0052091D03*
X0038469Y0052091D03*
X0040043Y0052091D03*
X0041618Y0052091D03*
X0043193Y0052091D03*
X0044768Y0052091D03*
X0046343Y0052091D03*
X0047917Y0052091D03*
X0049492Y0052091D03*
X0051067Y0052091D03*
X0052642Y0052091D03*
D20*
X0047564Y0071736D03*
X0084964Y0071736D03*
D21*
X0097563Y0061343D03*
X0097366Y0022169D03*
X0092248Y0006028D03*
X0025122Y0026264D03*
X0019531Y0022169D03*
X0006067Y0028232D03*
X0023469Y0056933D03*
M02*
