G75*
%MOIN*%
%OFA0B0*%
%FSLAX25Y25*%
%IPPOS*%
%LPD*%
%AMOC8*
5,1,8,0,0,1.08239X$1,22.5*
%
%ADD10C,0.00000*%
%ADD11R,0.05354X0.02441*%
%ADD12R,0.03150X0.03150*%
%ADD13C,0.06000*%
%ADD14R,0.05118X0.03543*%
%ADD15R,0.03150X0.02756*%
%ADD16R,0.03346X0.01772*%
%ADD17R,0.05118X0.00889*%
%ADD18R,0.18346X0.18346*%
%ADD19R,0.00889X0.05118*%
%ADD20R,0.22000X0.08300*%
%ADD21C,0.00600*%
%ADD22C,0.03762*%
%ADD23C,0.01000*%
%ADD24C,0.01200*%
D10*
X0001500Y0001500D02*
X0119610Y0001500D01*
X0119610Y0080240D01*
X0001500Y0080240D01*
X0001500Y0001500D01*
D11*
X0107248Y0060122D03*
X0107248Y0072720D03*
D12*
X0079768Y0062602D03*
X0079768Y0056697D03*
X0065319Y0061067D03*
X0059413Y0061067D03*
X0054059Y0061264D03*
X0048154Y0061264D03*
X0042524Y0061264D03*
X0036618Y0061264D03*
X0078665Y0045673D03*
X0084571Y0045673D03*
X0087366Y0038154D03*
X0081461Y0038154D03*
X0074098Y0027012D03*
X0068193Y0027012D03*
X0068075Y0022248D03*
X0073980Y0022248D03*
X0103705Y0039807D03*
X0109610Y0039807D03*
X0109492Y0049846D03*
X0103587Y0049846D03*
X0105634Y0022287D03*
X0111539Y0022287D03*
X0111382Y0011854D03*
X0105476Y0011854D03*
X0012012Y0021382D03*
X0012012Y0027287D03*
D13*
X0009335Y0014028D02*
X0009335Y0008028D01*
X0019335Y0008028D02*
X0019335Y0014028D01*
X0029335Y0014028D02*
X0029335Y0008028D01*
X0029098Y0069642D02*
X0029098Y0075642D01*
X0019098Y0075642D02*
X0019098Y0069642D01*
X0009098Y0069642D02*
X0009098Y0075642D01*
D14*
X0009217Y0044571D03*
X0017484Y0044571D03*
X0014098Y0034531D03*
X0005831Y0034531D03*
X0066972Y0036894D03*
X0075240Y0036894D03*
X0089965Y0042406D03*
X0098232Y0042406D03*
X0088862Y0026854D03*
X0080594Y0026854D03*
D15*
X0095673Y0016421D03*
X0095673Y0010909D03*
X0051972Y0010870D03*
X0044138Y0012445D03*
X0051972Y0016382D03*
X0044138Y0006933D03*
D16*
X0073469Y0004728D03*
X0073469Y0009650D03*
X0073469Y0014571D03*
X0084886Y0014571D03*
X0084886Y0009650D03*
X0084886Y0004728D03*
D17*
X0056461Y0030949D03*
X0056461Y0032524D03*
X0056461Y0034098D03*
X0056461Y0035673D03*
X0056461Y0037248D03*
X0056461Y0038823D03*
X0056461Y0040398D03*
X0056461Y0041972D03*
X0056461Y0043547D03*
X0056461Y0045122D03*
X0056461Y0046697D03*
X0056461Y0048272D03*
X0031500Y0048272D03*
X0031500Y0046697D03*
X0031500Y0045122D03*
X0031500Y0043547D03*
X0031500Y0041972D03*
X0031500Y0040398D03*
X0031500Y0038823D03*
X0031500Y0037248D03*
X0031500Y0035673D03*
X0031500Y0034098D03*
X0031500Y0032524D03*
X0031500Y0030949D03*
D18*
X0043980Y0039610D03*
D19*
X0043193Y0027130D03*
X0044768Y0027130D03*
X0046343Y0027130D03*
X0047917Y0027130D03*
X0049492Y0027130D03*
X0051067Y0027130D03*
X0052642Y0027130D03*
X0041618Y0027130D03*
X0040043Y0027130D03*
X0038469Y0027130D03*
X0036894Y0027130D03*
X0035319Y0027130D03*
X0035319Y0052091D03*
X0036894Y0052091D03*
X0038469Y0052091D03*
X0040043Y0052091D03*
X0041618Y0052091D03*
X0043193Y0052091D03*
X0044768Y0052091D03*
X0046343Y0052091D03*
X0047917Y0052091D03*
X0049492Y0052091D03*
X0051067Y0052091D03*
X0052642Y0052091D03*
D20*
X0047564Y0071736D03*
X0084964Y0071736D03*
D21*
X0084900Y0071700D01*
X0071100Y0071700D01*
X0060900Y0061500D01*
X0059700Y0061500D01*
X0059413Y0061067D01*
X0055043Y0056697D01*
X0053705Y0056697D01*
X0052500Y0055492D01*
X0052500Y0052500D01*
X0052642Y0052091D01*
X0051067Y0052091D02*
X0051067Y0058350D01*
X0048154Y0061264D01*
X0047700Y0061500D01*
X0047700Y0071700D01*
X0047564Y0071736D01*
X0042524Y0061264D02*
X0042900Y0060900D01*
X0047700Y0056100D01*
X0048300Y0056100D01*
X0049500Y0054900D01*
X0049500Y0052500D01*
X0049492Y0052091D01*
X0056461Y0048272D02*
X0056618Y0048114D01*
X0061776Y0048114D01*
X0069761Y0056100D01*
X0079500Y0056100D01*
X0079768Y0056697D01*
X0080100Y0056100D01*
X0080100Y0056675D01*
X0085161Y0061736D01*
X0097169Y0061736D01*
X0097563Y0061343D01*
X0102287Y0066067D01*
X0108390Y0066067D01*
X0115083Y0059374D01*
X0115083Y0029846D01*
X0112720Y0027484D01*
X0110949Y0027484D01*
X0105752Y0022287D01*
X0105634Y0022287D01*
X0105900Y0022021D01*
X0105900Y0012300D01*
X0105476Y0011854D01*
X0105300Y0011700D01*
X0104700Y0011100D01*
X0095700Y0011100D01*
X0095673Y0010909D01*
X0095100Y0010500D01*
X0085500Y0010500D01*
X0084900Y0009900D01*
X0084886Y0009650D01*
X0084300Y0009900D01*
X0082500Y0011700D01*
X0071100Y0011700D01*
X0070500Y0011100D01*
X0052500Y0011100D01*
X0051972Y0010870D01*
X0052500Y0010500D01*
X0045900Y0003900D01*
X0007500Y0003900D01*
X0005100Y0006300D01*
X0005100Y0018900D01*
X0011700Y0025500D01*
X0011700Y0026700D01*
X0012012Y0027287D01*
X0011067Y0028232D01*
X0006067Y0028232D01*
X0005831Y0028469D01*
X0005831Y0034531D01*
X0005700Y0035100D01*
X0004500Y0036300D01*
X0004500Y0059700D01*
X0008700Y0063900D01*
X0008700Y0072300D01*
X0009098Y0072642D01*
X0018900Y0072300D02*
X0019098Y0072642D01*
X0018900Y0072300D02*
X0005700Y0059100D01*
X0005700Y0042300D01*
X0009300Y0038700D01*
X0009300Y0033300D01*
X0011100Y0031500D01*
X0017100Y0031500D01*
X0018300Y0032700D01*
X0031500Y0032700D01*
X0031500Y0032524D01*
X0031500Y0033900D02*
X0031500Y0034098D01*
X0031500Y0033900D02*
X0022500Y0033900D01*
X0013500Y0042900D01*
X0013500Y0057300D01*
X0028500Y0072300D01*
X0029098Y0072642D01*
X0023469Y0056933D02*
X0026894Y0053508D01*
X0026894Y0049098D01*
X0027720Y0048272D01*
X0031500Y0048272D01*
X0031500Y0046697D02*
X0031500Y0046500D01*
X0028500Y0046500D01*
X0026700Y0044700D01*
X0017700Y0044700D01*
X0017484Y0044571D01*
X0013500Y0039900D02*
X0009300Y0044100D01*
X0009217Y0044571D01*
X0013500Y0039900D02*
X0013500Y0035100D01*
X0014098Y0034531D01*
X0018302Y0030900D02*
X0016500Y0029098D01*
X0013823Y0029098D01*
X0012012Y0027287D01*
X0011700Y0027300D01*
X0011700Y0027599D01*
X0018302Y0030900D02*
X0031500Y0030900D01*
X0031500Y0030949D01*
X0035280Y0027248D02*
X0035280Y0023469D01*
X0035240Y0023429D01*
X0027602Y0023429D01*
X0024295Y0026736D01*
X0024335Y0026697D02*
X0027563Y0023469D01*
X0035319Y0023469D01*
X0035319Y0027130D01*
X0030900Y0018300D02*
X0017100Y0018300D01*
X0009900Y0011100D01*
X0009335Y0011028D01*
X0019413Y0022169D02*
X0049138Y0022169D01*
X0051067Y0024098D01*
X0051067Y0027130D01*
X0052500Y0026700D02*
X0052642Y0027130D01*
X0052500Y0026700D02*
X0052500Y0023700D01*
X0044700Y0015900D01*
X0033300Y0015900D01*
X0030900Y0018300D01*
X0044700Y0015900D02*
X0044700Y0012900D01*
X0044138Y0012445D01*
X0051972Y0016382D02*
X0060358Y0024768D01*
X0060358Y0029807D01*
X0059265Y0030900D01*
X0056100Y0030900D01*
X0056461Y0030949D01*
X0056461Y0032524D02*
X0056700Y0032700D01*
X0059434Y0032700D01*
X0062169Y0029965D01*
X0062169Y0025476D01*
X0064925Y0022720D01*
X0064925Y0020875D01*
X0069300Y0016500D01*
X0082500Y0016500D01*
X0084300Y0014700D01*
X0084886Y0014571D01*
X0084900Y0014700D01*
X0086100Y0015900D01*
X0095100Y0015900D01*
X0095673Y0016421D01*
X0097366Y0022169D02*
X0097287Y0022248D01*
X0073980Y0022248D01*
X0069217Y0027012D01*
X0068193Y0027012D01*
X0068100Y0029700D02*
X0071100Y0029700D01*
X0073500Y0027300D01*
X0074098Y0027012D01*
X0074100Y0027300D01*
X0080100Y0027300D01*
X0080594Y0026854D01*
X0086100Y0027300D02*
X0079500Y0033900D01*
X0069900Y0033900D01*
X0067500Y0036300D01*
X0066972Y0036894D01*
X0066900Y0036900D01*
X0063300Y0036900D01*
X0059700Y0040500D01*
X0056700Y0040500D01*
X0056461Y0040398D01*
X0056461Y0041972D02*
X0069295Y0041972D01*
X0073350Y0037917D01*
X0074217Y0037917D01*
X0075240Y0036894D01*
X0075300Y0036900D01*
X0076500Y0038100D01*
X0081300Y0038100D01*
X0081461Y0038154D01*
X0087300Y0038100D02*
X0087366Y0038154D01*
X0087900Y0038700D01*
X0087900Y0040500D01*
X0089700Y0042300D01*
X0089965Y0042406D01*
X0087300Y0038100D02*
X0080100Y0045300D01*
X0078900Y0045300D01*
X0078665Y0045673D01*
X0080122Y0050122D02*
X0084571Y0045673D01*
X0080122Y0050122D02*
X0080043Y0050122D01*
X0079453Y0050713D01*
X0072760Y0050713D01*
X0065594Y0043547D01*
X0061736Y0043547D01*
X0060161Y0045122D01*
X0056461Y0045122D01*
X0056657Y0045083D02*
X0060240Y0045083D01*
X0061657Y0043665D01*
X0061736Y0043547D02*
X0056461Y0043547D01*
X0056461Y0046697D02*
X0060358Y0046697D01*
X0061776Y0048114D01*
X0056700Y0048300D02*
X0056461Y0048272D01*
X0056461Y0038823D02*
X0056700Y0038700D01*
X0059700Y0038700D01*
X0063300Y0035100D01*
X0063300Y0034500D01*
X0068100Y0029700D01*
X0063705Y0030831D02*
X0063705Y0026618D01*
X0068075Y0022248D01*
X0072900Y0014700D02*
X0073469Y0014571D01*
X0072900Y0014700D02*
X0053700Y0014700D01*
X0052500Y0015900D01*
X0051972Y0016382D01*
X0052500Y0016500D01*
X0063705Y0030831D02*
X0059965Y0034571D01*
X0059965Y0036539D01*
X0059256Y0037248D01*
X0056461Y0037248D01*
X0086100Y0027300D02*
X0088500Y0027300D01*
X0088862Y0026854D01*
X0109500Y0039900D02*
X0109610Y0039807D01*
X0109500Y0039900D02*
X0109500Y0042300D01*
X0098700Y0042300D01*
X0098232Y0042406D01*
X0109500Y0042300D02*
X0109500Y0049500D01*
X0109492Y0049846D01*
X0108900Y0050100D01*
X0107700Y0051300D01*
X0107700Y0059700D01*
X0107248Y0060122D01*
X0059413Y0061067D02*
X0059100Y0060900D01*
X0006300Y0034500D02*
X0005831Y0034531D01*
X0073469Y0009650D02*
X0079768Y0009650D01*
X0082012Y0007406D01*
X0090673Y0007406D01*
X0090870Y0007209D01*
X0091067Y0007209D01*
X0092248Y0006028D01*
D22*
X0092248Y0006028D03*
X0097366Y0022169D03*
X0097563Y0061343D03*
X0024335Y0026697D03*
X0019413Y0022169D03*
X0006067Y0028232D03*
X0023469Y0056933D03*
D23*
X0026514Y0058415D02*
X0034250Y0058415D01*
X0034122Y0058489D02*
X0034464Y0058291D01*
X0034846Y0058189D01*
X0036331Y0058189D01*
X0036331Y0060976D01*
X0036906Y0060976D01*
X0036906Y0058189D01*
X0038390Y0058189D01*
X0038772Y0058291D01*
X0039114Y0058489D01*
X0039393Y0058768D01*
X0039523Y0058993D01*
X0040327Y0058189D01*
X0043065Y0058189D01*
X0045105Y0056150D01*
X0034253Y0056150D01*
X0033375Y0055271D01*
X0033375Y0050216D01*
X0028694Y0050216D01*
X0028694Y0054253D01*
X0026802Y0056145D01*
X0026850Y0056261D01*
X0026850Y0057606D01*
X0026335Y0058848D01*
X0025384Y0059799D01*
X0024141Y0060314D01*
X0022796Y0060314D01*
X0021553Y0059799D01*
X0020602Y0058848D01*
X0020087Y0057606D01*
X0020087Y0056261D01*
X0020602Y0055018D01*
X0021553Y0054067D01*
X0022796Y0053552D01*
X0024141Y0053552D01*
X0024256Y0053600D01*
X0025094Y0052762D01*
X0025094Y0048353D01*
X0026148Y0047298D01*
X0026450Y0046996D01*
X0025954Y0046500D01*
X0021543Y0046500D01*
X0021543Y0046964D01*
X0020665Y0047843D01*
X0015300Y0047843D01*
X0015300Y0056554D01*
X0025561Y0066815D01*
X0026549Y0065827D01*
X0028203Y0065142D01*
X0029994Y0065142D01*
X0031647Y0065827D01*
X0032913Y0067093D01*
X0033598Y0068747D01*
X0033598Y0076537D01*
X0032913Y0078191D01*
X0032864Y0078240D01*
X0117610Y0078240D01*
X0117610Y0003500D01*
X0088059Y0003500D01*
X0088059Y0006235D01*
X0087180Y0007114D01*
X0082591Y0007114D01*
X0081713Y0006235D01*
X0081713Y0003500D01*
X0076642Y0003500D01*
X0076642Y0006235D01*
X0075763Y0007114D01*
X0071174Y0007114D01*
X0070295Y0006235D01*
X0070295Y0003500D01*
X0048046Y0003500D01*
X0052538Y0007992D01*
X0054169Y0007992D01*
X0055047Y0008871D01*
X0055047Y0009300D01*
X0070295Y0009300D01*
X0070295Y0008566D01*
X0070398Y0008185D01*
X0070595Y0007843D01*
X0070874Y0007563D01*
X0071216Y0007366D01*
X0071598Y0007264D01*
X0073468Y0007264D01*
X0073468Y0009649D01*
X0073469Y0009649D01*
X0073469Y0009650D02*
X0073469Y0009650D01*
X0076642Y0009650D01*
X0076642Y0009900D01*
X0081713Y0009900D01*
X0081713Y0008142D01*
X0082591Y0007264D01*
X0087180Y0007264D01*
X0088059Y0008142D01*
X0088059Y0008700D01*
X0092809Y0008700D01*
X0093477Y0008031D01*
X0097869Y0008031D01*
X0098748Y0008910D01*
X0098748Y0009300D01*
X0102760Y0009300D01*
X0103280Y0008780D01*
X0107673Y0008780D01*
X0108477Y0009584D01*
X0108607Y0009359D01*
X0108886Y0009079D01*
X0109228Y0008882D01*
X0109610Y0008780D01*
X0111094Y0008780D01*
X0111094Y0011567D01*
X0111669Y0011567D01*
X0111669Y0008780D01*
X0113154Y0008780D01*
X0113536Y0008882D01*
X0113878Y0009079D01*
X0114157Y0009359D01*
X0114354Y0009701D01*
X0114457Y0010082D01*
X0114457Y0011567D01*
X0111669Y0011567D01*
X0111669Y0012142D01*
X0111094Y0012142D01*
X0111094Y0014929D01*
X0109610Y0014929D01*
X0109228Y0014827D01*
X0108886Y0014629D01*
X0108607Y0014350D01*
X0108477Y0014125D01*
X0107700Y0014902D01*
X0107700Y0019213D01*
X0107830Y0019213D01*
X0108634Y0020017D01*
X0108764Y0019792D01*
X0109044Y0019512D01*
X0109386Y0019315D01*
X0109767Y0019213D01*
X0111252Y0019213D01*
X0111252Y0022000D01*
X0111827Y0022000D01*
X0111827Y0022575D01*
X0114614Y0022575D01*
X0114614Y0024060D01*
X0114512Y0024441D01*
X0114314Y0024783D01*
X0114035Y0025062D01*
X0113693Y0025260D01*
X0113312Y0025362D01*
X0111827Y0025362D01*
X0111827Y0022575D01*
X0111252Y0022575D01*
X0111252Y0025242D01*
X0111694Y0025684D01*
X0113466Y0025684D01*
X0115828Y0028046D01*
X0116883Y0029101D01*
X0116883Y0060120D01*
X0110190Y0066813D01*
X0109135Y0067867D01*
X0101542Y0067867D01*
X0098351Y0064676D01*
X0098236Y0064724D01*
X0096890Y0064724D01*
X0095648Y0064209D01*
X0094975Y0063536D01*
X0084416Y0063536D01*
X0083361Y0062482D01*
X0082842Y0061963D01*
X0082842Y0062315D01*
X0080055Y0062315D01*
X0080055Y0062890D01*
X0079480Y0062890D01*
X0079480Y0062315D01*
X0076693Y0062315D01*
X0076693Y0060830D01*
X0076795Y0060449D01*
X0076993Y0060107D01*
X0077272Y0059827D01*
X0077497Y0059697D01*
X0076693Y0058893D01*
X0076693Y0057900D01*
X0069016Y0057900D01*
X0061030Y0049914D01*
X0059943Y0049914D01*
X0059641Y0050216D01*
X0054586Y0050216D01*
X0054586Y0051974D01*
X0054587Y0051975D01*
X0054586Y0051976D01*
X0054586Y0054897D01*
X0055789Y0054897D01*
X0058884Y0057992D01*
X0061610Y0057992D01*
X0062414Y0058796D01*
X0062544Y0058571D01*
X0062823Y0058292D01*
X0063165Y0058094D01*
X0063547Y0057992D01*
X0065031Y0057992D01*
X0065031Y0060779D01*
X0065606Y0060779D01*
X0065606Y0057992D01*
X0067091Y0057992D01*
X0067473Y0058094D01*
X0067815Y0058292D01*
X0068094Y0058571D01*
X0068291Y0058913D01*
X0068394Y0059295D01*
X0068394Y0060780D01*
X0065606Y0060780D01*
X0065606Y0061354D01*
X0068394Y0061354D01*
X0068394Y0062839D01*
X0068291Y0063221D01*
X0068094Y0063563D01*
X0067815Y0063842D01*
X0067473Y0064039D01*
X0067091Y0064142D01*
X0066087Y0064142D01*
X0071846Y0069900D01*
X0072464Y0069900D01*
X0072464Y0066965D01*
X0073342Y0066086D01*
X0096585Y0066086D01*
X0097464Y0066965D01*
X0097464Y0076508D01*
X0096585Y0077386D01*
X0073342Y0077386D01*
X0072464Y0076508D01*
X0072464Y0073500D01*
X0070354Y0073500D01*
X0069300Y0072446D01*
X0060996Y0064142D01*
X0057217Y0064142D01*
X0056834Y0063759D01*
X0056834Y0063760D01*
X0056555Y0064039D01*
X0056213Y0064236D01*
X0055831Y0064339D01*
X0054346Y0064339D01*
X0054346Y0061551D01*
X0053772Y0061551D01*
X0053772Y0064339D01*
X0052287Y0064339D01*
X0051905Y0064236D01*
X0051563Y0064039D01*
X0051284Y0063760D01*
X0051154Y0063534D01*
X0050350Y0064339D01*
X0049500Y0064339D01*
X0049500Y0066086D01*
X0059185Y0066086D01*
X0060064Y0066965D01*
X0060064Y0076508D01*
X0059185Y0077386D01*
X0035942Y0077386D01*
X0035064Y0076508D01*
X0035064Y0066965D01*
X0035942Y0066086D01*
X0045900Y0066086D01*
X0045900Y0064281D01*
X0045339Y0063720D01*
X0044720Y0064339D01*
X0040327Y0064339D01*
X0039523Y0063534D01*
X0039393Y0063760D01*
X0039114Y0064039D01*
X0038772Y0064236D01*
X0038390Y0064339D01*
X0036906Y0064339D01*
X0036906Y0061551D01*
X0036331Y0061551D01*
X0036331Y0064339D01*
X0034846Y0064339D01*
X0034464Y0064236D01*
X0034122Y0064039D01*
X0033843Y0063760D01*
X0033646Y0063418D01*
X0033543Y0063036D01*
X0033543Y0061551D01*
X0036331Y0061551D01*
X0036331Y0060976D01*
X0033543Y0060976D01*
X0033543Y0059491D01*
X0033646Y0059110D01*
X0033843Y0058768D01*
X0034122Y0058489D01*
X0033564Y0059414D02*
X0025770Y0059414D01*
X0026850Y0057417D02*
X0043838Y0057417D01*
X0044836Y0056418D02*
X0026850Y0056418D01*
X0027528Y0055420D02*
X0033523Y0055420D01*
X0033375Y0054421D02*
X0028526Y0054421D01*
X0028694Y0053423D02*
X0033375Y0053423D01*
X0033375Y0052424D02*
X0028694Y0052424D01*
X0028694Y0051426D02*
X0033375Y0051426D01*
X0033375Y0050427D02*
X0028694Y0050427D01*
X0025094Y0050427D02*
X0015300Y0050427D01*
X0015300Y0049429D02*
X0025094Y0049429D01*
X0025094Y0048430D02*
X0015300Y0048430D01*
X0015300Y0051426D02*
X0025094Y0051426D01*
X0025094Y0052424D02*
X0015300Y0052424D01*
X0015300Y0053423D02*
X0024433Y0053423D01*
X0021199Y0054421D02*
X0015300Y0054421D01*
X0015300Y0055420D02*
X0020436Y0055420D01*
X0020087Y0056418D02*
X0015300Y0056418D01*
X0016162Y0057417D02*
X0020087Y0057417D01*
X0020423Y0058415D02*
X0017161Y0058415D01*
X0018159Y0059414D02*
X0021167Y0059414D01*
X0019158Y0060412D02*
X0033543Y0060412D01*
X0036331Y0060412D02*
X0036906Y0060412D01*
X0036906Y0059414D02*
X0036331Y0059414D01*
X0036331Y0058415D02*
X0036906Y0058415D01*
X0038987Y0058415D02*
X0040101Y0058415D01*
X0036331Y0061411D02*
X0020156Y0061411D01*
X0021155Y0062409D02*
X0033543Y0062409D01*
X0033643Y0063408D02*
X0022153Y0063408D01*
X0023152Y0064406D02*
X0045900Y0064406D01*
X0045900Y0065405D02*
X0030628Y0065405D01*
X0032224Y0066403D02*
X0035625Y0066403D01*
X0035064Y0067402D02*
X0033041Y0067402D01*
X0033455Y0068400D02*
X0035064Y0068400D01*
X0035064Y0069399D02*
X0033598Y0069399D01*
X0033598Y0070397D02*
X0035064Y0070397D01*
X0035064Y0071396D02*
X0033598Y0071396D01*
X0033598Y0072394D02*
X0035064Y0072394D01*
X0035064Y0073393D02*
X0033598Y0073393D01*
X0033598Y0074391D02*
X0035064Y0074391D01*
X0035064Y0075390D02*
X0033598Y0075390D01*
X0033598Y0076388D02*
X0035064Y0076388D01*
X0033246Y0077387D02*
X0117610Y0077387D01*
X0117610Y0076388D02*
X0097464Y0076388D01*
X0097464Y0075390D02*
X0103898Y0075390D01*
X0103950Y0075441D02*
X0103071Y0074562D01*
X0103071Y0070879D01*
X0103950Y0070000D01*
X0110547Y0070000D01*
X0111425Y0070879D01*
X0111425Y0074562D01*
X0110547Y0075441D01*
X0103950Y0075441D01*
X0103071Y0074391D02*
X0097464Y0074391D01*
X0097464Y0073393D02*
X0103071Y0073393D01*
X0103071Y0072394D02*
X0097464Y0072394D01*
X0097464Y0071396D02*
X0103071Y0071396D01*
X0103552Y0070397D02*
X0097464Y0070397D01*
X0097464Y0069399D02*
X0117610Y0069399D01*
X0117610Y0068400D02*
X0097464Y0068400D01*
X0097464Y0067402D02*
X0101077Y0067402D01*
X0100078Y0066403D02*
X0096902Y0066403D01*
X0099080Y0065405D02*
X0082216Y0065405D01*
X0082264Y0065377D02*
X0081921Y0065575D01*
X0081540Y0065677D01*
X0080055Y0065677D01*
X0080055Y0062890D01*
X0082843Y0062890D01*
X0082843Y0064375D01*
X0082740Y0064756D01*
X0082543Y0065098D01*
X0082264Y0065377D01*
X0082834Y0064406D02*
X0096124Y0064406D01*
X0100896Y0062130D02*
X0100944Y0062015D01*
X0100944Y0060670D01*
X0100429Y0059427D01*
X0099478Y0058476D01*
X0098236Y0057961D01*
X0096890Y0057961D01*
X0095648Y0058476D01*
X0094697Y0059427D01*
X0094486Y0059936D01*
X0085907Y0059936D01*
X0082843Y0056872D01*
X0082843Y0054501D01*
X0081964Y0053622D01*
X0077572Y0053622D01*
X0076894Y0054300D01*
X0070507Y0054300D01*
X0062521Y0046314D01*
X0062038Y0045831D01*
X0063457Y0044411D01*
X0063457Y0043772D01*
X0070041Y0043772D01*
X0073648Y0040165D01*
X0078386Y0040165D01*
X0078386Y0040350D01*
X0079264Y0041228D01*
X0081626Y0041228D01*
X0080256Y0042598D01*
X0076469Y0042598D01*
X0075591Y0043477D01*
X0075591Y0047869D01*
X0076469Y0048748D01*
X0080861Y0048748D01*
X0081666Y0047944D01*
X0081796Y0048169D01*
X0082075Y0048448D01*
X0082417Y0048646D01*
X0082799Y0048748D01*
X0084283Y0048748D01*
X0084283Y0045961D01*
X0084858Y0045961D01*
X0084858Y0048748D01*
X0086343Y0048748D01*
X0086725Y0048646D01*
X0087067Y0048448D01*
X0087346Y0048169D01*
X0087543Y0047827D01*
X0087646Y0047446D01*
X0087646Y0045961D01*
X0084858Y0045961D01*
X0084858Y0045386D01*
X0086493Y0045386D01*
X0086784Y0045677D01*
X0093145Y0045677D01*
X0094024Y0044798D01*
X0094024Y0040013D01*
X0093145Y0039134D01*
X0090441Y0039134D01*
X0090441Y0035957D01*
X0089562Y0035079D01*
X0085170Y0035079D01*
X0084413Y0035835D01*
X0083657Y0035079D01*
X0080867Y0035079D01*
X0081300Y0034646D01*
X0085820Y0030126D01*
X0092043Y0030126D01*
X0092921Y0029247D01*
X0092921Y0024461D01*
X0092043Y0023583D01*
X0085682Y0023583D01*
X0084803Y0024461D01*
X0084803Y0026051D01*
X0084654Y0026201D01*
X0084654Y0024461D01*
X0083775Y0023583D01*
X0077414Y0023583D01*
X0077055Y0023942D01*
X0077055Y0022535D01*
X0075757Y0022535D01*
X0076041Y0022252D01*
X0076041Y0021961D01*
X0077055Y0021961D01*
X0077055Y0020476D01*
X0076953Y0020094D01*
X0076755Y0019752D01*
X0076476Y0019473D01*
X0076134Y0019275D01*
X0075753Y0019173D01*
X0074268Y0019173D01*
X0074268Y0019282D01*
X0073693Y0019282D01*
X0073693Y0019173D01*
X0072208Y0019173D01*
X0071827Y0019275D01*
X0071484Y0019473D01*
X0070571Y0019473D01*
X0070271Y0019173D02*
X0071075Y0019977D01*
X0071205Y0019752D01*
X0071484Y0019473D01*
X0070271Y0019173D02*
X0069172Y0019173D01*
X0070046Y0018300D01*
X0083246Y0018300D01*
X0084589Y0016957D01*
X0084611Y0016957D01*
X0085354Y0017700D01*
X0092598Y0017700D01*
X0092598Y0018421D01*
X0093477Y0019299D01*
X0097869Y0019299D01*
X0098748Y0018421D01*
X0098748Y0014422D01*
X0097991Y0013665D01*
X0098748Y0012909D01*
X0098748Y0012900D01*
X0102402Y0012900D01*
X0102402Y0014050D01*
X0103280Y0014929D01*
X0104100Y0014929D01*
X0104100Y0019213D01*
X0103438Y0019213D01*
X0102559Y0020091D01*
X0102559Y0024484D01*
X0103438Y0025362D01*
X0106281Y0025362D01*
X0109149Y0028230D01*
X0110203Y0029284D01*
X0111975Y0029284D01*
X0113283Y0030592D01*
X0113283Y0058628D01*
X0111425Y0060486D01*
X0111425Y0058280D01*
X0110547Y0057402D01*
X0109500Y0057402D01*
X0109500Y0052921D01*
X0111688Y0052921D01*
X0112567Y0052043D01*
X0112567Y0047650D01*
X0111688Y0046772D01*
X0111300Y0046772D01*
X0111300Y0042882D01*
X0111806Y0042882D01*
X0112685Y0042003D01*
X0112685Y0037611D01*
X0111806Y0036732D01*
X0107414Y0036732D01*
X0106610Y0037537D01*
X0106480Y0037311D01*
X0106201Y0037032D01*
X0105859Y0036835D01*
X0105477Y0036732D01*
X0103992Y0036732D01*
X0103992Y0039520D01*
X0103417Y0039520D01*
X0103417Y0036732D01*
X0101932Y0036732D01*
X0101551Y0036835D01*
X0101209Y0037032D01*
X0100930Y0037311D01*
X0100732Y0037653D01*
X0100630Y0038035D01*
X0100630Y0039134D01*
X0095052Y0039134D01*
X0094173Y0040013D01*
X0094173Y0044798D01*
X0095052Y0045677D01*
X0101413Y0045677D01*
X0102291Y0044798D01*
X0102291Y0044100D01*
X0107700Y0044100D01*
X0107700Y0046772D01*
X0107296Y0046772D01*
X0106492Y0047576D01*
X0106362Y0047351D01*
X0106082Y0047071D01*
X0105740Y0046874D01*
X0105359Y0046772D01*
X0103874Y0046772D01*
X0103874Y0049559D01*
X0103299Y0049559D01*
X0100512Y0049559D01*
X0100512Y0048074D01*
X0100614Y0047693D01*
X0100812Y0047351D01*
X0101091Y0047071D01*
X0101433Y0046874D01*
X0101814Y0046772D01*
X0103299Y0046772D01*
X0103299Y0049559D01*
X0103299Y0050134D01*
X0100512Y0050134D01*
X0100512Y0051619D01*
X0100614Y0052000D01*
X0100812Y0052342D01*
X0101091Y0052622D01*
X0101433Y0052819D01*
X0101814Y0052921D01*
X0103299Y0052921D01*
X0103299Y0050134D01*
X0103874Y0050134D01*
X0103874Y0052921D01*
X0105359Y0052921D01*
X0105740Y0052819D01*
X0105900Y0052727D01*
X0105900Y0057402D01*
X0103950Y0057402D01*
X0103071Y0058280D01*
X0103071Y0061964D01*
X0103950Y0062843D01*
X0109069Y0062843D01*
X0107644Y0064267D01*
X0103033Y0064267D01*
X0100896Y0062130D01*
X0101175Y0062409D02*
X0103516Y0062409D01*
X0103071Y0061411D02*
X0100944Y0061411D01*
X0100837Y0060412D02*
X0103071Y0060412D01*
X0103071Y0059414D02*
X0100416Y0059414D01*
X0099331Y0058415D02*
X0103071Y0058415D01*
X0103934Y0057417D02*
X0083387Y0057417D01*
X0082843Y0056418D02*
X0105900Y0056418D01*
X0105900Y0055420D02*
X0082843Y0055420D01*
X0082763Y0054421D02*
X0105900Y0054421D01*
X0105900Y0053423D02*
X0069630Y0053423D01*
X0068631Y0052424D02*
X0100893Y0052424D01*
X0100512Y0051426D02*
X0067633Y0051426D01*
X0066634Y0050427D02*
X0100512Y0050427D01*
X0100512Y0049429D02*
X0065636Y0049429D01*
X0064637Y0048430D02*
X0076151Y0048430D01*
X0075591Y0047432D02*
X0063639Y0047432D01*
X0062640Y0046433D02*
X0075591Y0046433D01*
X0075591Y0045434D02*
X0062434Y0045434D01*
X0063432Y0044436D02*
X0075591Y0044436D01*
X0075630Y0043437D02*
X0070376Y0043437D01*
X0071374Y0042439D02*
X0080415Y0042439D01*
X0081414Y0041440D02*
X0072373Y0041440D01*
X0073371Y0040442D02*
X0078478Y0040442D01*
X0084027Y0035449D02*
X0084799Y0035449D01*
X0082493Y0033452D02*
X0113283Y0033452D01*
X0113283Y0032454D02*
X0083492Y0032454D01*
X0084490Y0031455D02*
X0113283Y0031455D01*
X0113147Y0030457D02*
X0085489Y0030457D01*
X0081495Y0034451D02*
X0113283Y0034451D01*
X0113283Y0035449D02*
X0089933Y0035449D01*
X0090441Y0036448D02*
X0113283Y0036448D01*
X0113283Y0037446D02*
X0112520Y0037446D01*
X0112685Y0038445D02*
X0113283Y0038445D01*
X0113283Y0039443D02*
X0112685Y0039443D01*
X0112685Y0040442D02*
X0113283Y0040442D01*
X0113283Y0041440D02*
X0112685Y0041440D01*
X0112249Y0042439D02*
X0113283Y0042439D01*
X0113283Y0043437D02*
X0111300Y0043437D01*
X0111300Y0044436D02*
X0113283Y0044436D01*
X0113283Y0045434D02*
X0111300Y0045434D01*
X0111300Y0046433D02*
X0113283Y0046433D01*
X0113283Y0047432D02*
X0112348Y0047432D01*
X0112567Y0048430D02*
X0113283Y0048430D01*
X0113283Y0049429D02*
X0112567Y0049429D01*
X0112567Y0050427D02*
X0113283Y0050427D01*
X0113283Y0051426D02*
X0112567Y0051426D01*
X0112185Y0052424D02*
X0113283Y0052424D01*
X0113283Y0053423D02*
X0109500Y0053423D01*
X0109500Y0054421D02*
X0113283Y0054421D01*
X0113283Y0055420D02*
X0109500Y0055420D01*
X0109500Y0056418D02*
X0113283Y0056418D01*
X0113283Y0057417D02*
X0110562Y0057417D01*
X0111425Y0058415D02*
X0113283Y0058415D01*
X0112497Y0059414D02*
X0111425Y0059414D01*
X0111425Y0060412D02*
X0111499Y0060412D01*
X0114593Y0062409D02*
X0117610Y0062409D01*
X0117610Y0061411D02*
X0115592Y0061411D01*
X0116590Y0060412D02*
X0117610Y0060412D01*
X0117610Y0059414D02*
X0116883Y0059414D01*
X0116883Y0058415D02*
X0117610Y0058415D01*
X0117610Y0057417D02*
X0116883Y0057417D01*
X0116883Y0056418D02*
X0117610Y0056418D01*
X0117610Y0055420D02*
X0116883Y0055420D01*
X0116883Y0054421D02*
X0117610Y0054421D01*
X0117610Y0053423D02*
X0116883Y0053423D01*
X0116883Y0052424D02*
X0117610Y0052424D01*
X0117610Y0051426D02*
X0116883Y0051426D01*
X0116883Y0050427D02*
X0117610Y0050427D01*
X0117610Y0049429D02*
X0116883Y0049429D01*
X0116883Y0048430D02*
X0117610Y0048430D01*
X0117610Y0047432D02*
X0116883Y0047432D01*
X0116883Y0046433D02*
X0117610Y0046433D01*
X0117610Y0045434D02*
X0116883Y0045434D01*
X0116883Y0044436D02*
X0117610Y0044436D01*
X0117610Y0043437D02*
X0116883Y0043437D01*
X0116883Y0042439D02*
X0117610Y0042439D01*
X0117610Y0041440D02*
X0116883Y0041440D01*
X0116883Y0040442D02*
X0117610Y0040442D01*
X0117610Y0039443D02*
X0116883Y0039443D01*
X0116883Y0038445D02*
X0117610Y0038445D01*
X0117610Y0037446D02*
X0116883Y0037446D01*
X0116883Y0036448D02*
X0117610Y0036448D01*
X0117610Y0035449D02*
X0116883Y0035449D01*
X0116883Y0034451D02*
X0117610Y0034451D01*
X0117610Y0033452D02*
X0116883Y0033452D01*
X0116883Y0032454D02*
X0117610Y0032454D01*
X0117610Y0031455D02*
X0116883Y0031455D01*
X0116883Y0030457D02*
X0117610Y0030457D01*
X0117610Y0029458D02*
X0116883Y0029458D01*
X0116242Y0028460D02*
X0117610Y0028460D01*
X0117610Y0027461D02*
X0115243Y0027461D01*
X0114245Y0026463D02*
X0117610Y0026463D01*
X0117610Y0025464D02*
X0111474Y0025464D01*
X0111252Y0024466D02*
X0111827Y0024466D01*
X0111827Y0023467D02*
X0111252Y0023467D01*
X0111827Y0022469D02*
X0117610Y0022469D01*
X0117610Y0023467D02*
X0114614Y0023467D01*
X0114498Y0024466D02*
X0117610Y0024466D01*
X0117610Y0021470D02*
X0114614Y0021470D01*
X0114614Y0022000D02*
X0111827Y0022000D01*
X0111827Y0019213D01*
X0113312Y0019213D01*
X0113693Y0019315D01*
X0114035Y0019512D01*
X0114314Y0019792D01*
X0114512Y0020134D01*
X0114614Y0020515D01*
X0114614Y0022000D01*
X0114603Y0020472D02*
X0117610Y0020472D01*
X0117610Y0019473D02*
X0113967Y0019473D01*
X0111827Y0019473D02*
X0111252Y0019473D01*
X0109111Y0019473D02*
X0108091Y0019473D01*
X0107700Y0018475D02*
X0117610Y0018475D01*
X0117610Y0017476D02*
X0107700Y0017476D01*
X0107700Y0016478D02*
X0117610Y0016478D01*
X0117610Y0015479D02*
X0107700Y0015479D01*
X0108121Y0014481D02*
X0108737Y0014481D01*
X0111094Y0014481D02*
X0111669Y0014481D01*
X0111669Y0014929D02*
X0111669Y0012142D01*
X0114457Y0012142D01*
X0114457Y0013627D01*
X0114354Y0014008D01*
X0114157Y0014350D01*
X0113878Y0014629D01*
X0113536Y0014827D01*
X0113154Y0014929D01*
X0111669Y0014929D01*
X0111669Y0013482D02*
X0111094Y0013482D01*
X0111094Y0012484D02*
X0111669Y0012484D01*
X0111669Y0011485D02*
X0111094Y0011485D01*
X0111094Y0010487D02*
X0111669Y0010487D01*
X0111669Y0009488D02*
X0111094Y0009488D01*
X0108532Y0009488D02*
X0108381Y0009488D01*
X0114232Y0009488D02*
X0117610Y0009488D01*
X0117610Y0008490D02*
X0098327Y0008490D01*
X0093019Y0008490D02*
X0088059Y0008490D01*
X0087408Y0007491D02*
X0117610Y0007491D01*
X0117610Y0006493D02*
X0087802Y0006493D01*
X0088059Y0005494D02*
X0117610Y0005494D01*
X0117610Y0004496D02*
X0088059Y0004496D01*
X0082364Y0007491D02*
X0075937Y0007491D01*
X0076063Y0007563D02*
X0076342Y0007843D01*
X0076539Y0008185D01*
X0076642Y0008566D01*
X0076642Y0009650D01*
X0073469Y0009650D01*
X0073469Y0009649D02*
X0073469Y0007264D01*
X0075339Y0007264D01*
X0075721Y0007366D01*
X0076063Y0007563D01*
X0076621Y0008490D02*
X0081713Y0008490D01*
X0081713Y0009488D02*
X0076642Y0009488D01*
X0073469Y0009488D02*
X0073468Y0009488D01*
X0073468Y0008490D02*
X0073469Y0008490D01*
X0073468Y0007491D02*
X0073469Y0007491D01*
X0071000Y0007491D02*
X0052037Y0007491D01*
X0051038Y0006493D02*
X0070552Y0006493D01*
X0070295Y0005494D02*
X0050040Y0005494D01*
X0049041Y0004496D02*
X0070295Y0004496D01*
X0070316Y0008490D02*
X0054666Y0008490D01*
X0043949Y0007122D02*
X0043949Y0006744D01*
X0041063Y0006744D01*
X0041063Y0005700D01*
X0033199Y0005700D01*
X0033505Y0006300D01*
X0033724Y0006974D01*
X0033835Y0007673D01*
X0033835Y0010528D01*
X0029835Y0010528D01*
X0029835Y0011528D01*
X0033835Y0011528D01*
X0033835Y0014100D01*
X0041063Y0014100D01*
X0041063Y0010446D01*
X0041867Y0009641D01*
X0041642Y0009511D01*
X0041363Y0009232D01*
X0041165Y0008890D01*
X0041063Y0008509D01*
X0041063Y0007122D01*
X0043949Y0007122D01*
X0041063Y0007491D02*
X0033806Y0007491D01*
X0033835Y0008490D02*
X0041063Y0008490D01*
X0041619Y0009488D02*
X0033835Y0009488D01*
X0033835Y0010487D02*
X0041063Y0010487D01*
X0041063Y0011485D02*
X0029835Y0011485D01*
X0028835Y0011485D02*
X0023835Y0011485D01*
X0023835Y0012484D02*
X0024835Y0012484D01*
X0024835Y0011528D02*
X0028835Y0011528D01*
X0028835Y0010528D01*
X0024835Y0010528D01*
X0024835Y0007673D01*
X0024945Y0006974D01*
X0025164Y0006300D01*
X0025470Y0005700D01*
X0023241Y0005700D01*
X0023835Y0007132D01*
X0023835Y0014923D01*
X0023181Y0016500D01*
X0025569Y0016500D01*
X0025486Y0016386D01*
X0025164Y0015755D01*
X0024945Y0015081D01*
X0024835Y0014382D01*
X0024835Y0011528D01*
X0024835Y0010487D02*
X0023835Y0010487D01*
X0023835Y0009488D02*
X0024835Y0009488D01*
X0024835Y0008490D02*
X0023835Y0008490D01*
X0023835Y0007491D02*
X0024864Y0007491D01*
X0025102Y0006493D02*
X0023570Y0006493D01*
X0033567Y0006493D02*
X0041063Y0006493D01*
X0041063Y0012484D02*
X0033835Y0012484D01*
X0033835Y0013482D02*
X0041063Y0013482D01*
X0025552Y0016478D02*
X0023191Y0016478D01*
X0023604Y0015479D02*
X0025075Y0015479D01*
X0024850Y0014481D02*
X0023835Y0014481D01*
X0023835Y0013482D02*
X0024835Y0013482D01*
X0016701Y0020100D02*
X0016354Y0020100D01*
X0012990Y0016736D01*
X0011884Y0017842D01*
X0010762Y0018307D01*
X0011724Y0018307D01*
X0011724Y0021094D01*
X0012299Y0021094D01*
X0012299Y0018307D01*
X0013784Y0018307D01*
X0014166Y0018409D01*
X0014508Y0018607D01*
X0014787Y0018886D01*
X0014984Y0019228D01*
X0015087Y0019610D01*
X0015087Y0021094D01*
X0012299Y0021094D01*
X0012299Y0021669D01*
X0015087Y0021669D01*
X0015087Y0023154D01*
X0014984Y0023536D01*
X0014787Y0023878D01*
X0014508Y0024157D01*
X0014282Y0024287D01*
X0015087Y0025091D01*
X0015087Y0027298D01*
X0017246Y0027298D01*
X0018300Y0028353D01*
X0019047Y0029100D01*
X0028224Y0029100D01*
X0028320Y0029005D01*
X0033375Y0029005D01*
X0033375Y0027130D01*
X0033480Y0027130D01*
X0033480Y0027130D01*
X0033375Y0027130D01*
X0033375Y0025229D01*
X0028348Y0025229D01*
X0025041Y0028536D01*
X0023550Y0028536D01*
X0022495Y0027482D01*
X0022495Y0025991D01*
X0024517Y0023969D01*
X0022327Y0023969D01*
X0022280Y0024085D01*
X0021329Y0025036D01*
X0020086Y0025550D01*
X0018741Y0025550D01*
X0017498Y0025036D01*
X0016547Y0024085D01*
X0016032Y0022842D01*
X0016032Y0021497D01*
X0016547Y0020254D01*
X0016701Y0020100D01*
X0016457Y0020472D02*
X0015087Y0020472D01*
X0016043Y0021470D02*
X0012299Y0021470D01*
X0012299Y0020472D02*
X0011724Y0020472D01*
X0011724Y0019473D02*
X0012299Y0019473D01*
X0012299Y0018475D02*
X0011724Y0018475D01*
X0012250Y0017476D02*
X0013731Y0017476D01*
X0014279Y0018475D02*
X0014729Y0018475D01*
X0015050Y0019473D02*
X0015728Y0019473D01*
X0016032Y0022469D02*
X0015087Y0022469D01*
X0015003Y0023467D02*
X0016291Y0023467D01*
X0016928Y0024466D02*
X0014461Y0024466D01*
X0015087Y0025464D02*
X0018533Y0025464D01*
X0020294Y0025464D02*
X0023022Y0025464D01*
X0022495Y0026463D02*
X0015087Y0026463D01*
X0017408Y0027461D02*
X0022495Y0027461D01*
X0023473Y0028460D02*
X0018407Y0028460D01*
X0021898Y0024466D02*
X0024020Y0024466D01*
X0027114Y0026463D02*
X0033375Y0026463D01*
X0033375Y0027461D02*
X0026116Y0027461D01*
X0025117Y0028460D02*
X0033375Y0028460D01*
X0033375Y0025464D02*
X0028113Y0025464D01*
X0026015Y0047432D02*
X0021076Y0047432D01*
X0036331Y0062409D02*
X0036906Y0062409D01*
X0036906Y0063408D02*
X0036331Y0063408D01*
X0027568Y0065405D02*
X0024150Y0065405D01*
X0025149Y0066403D02*
X0025973Y0066403D01*
X0049500Y0065405D02*
X0062259Y0065405D01*
X0063258Y0066403D02*
X0059502Y0066403D01*
X0060064Y0067402D02*
X0064256Y0067402D01*
X0065255Y0068400D02*
X0060064Y0068400D01*
X0060064Y0069399D02*
X0066253Y0069399D01*
X0067252Y0070397D02*
X0060064Y0070397D01*
X0060064Y0071396D02*
X0068250Y0071396D01*
X0069249Y0072394D02*
X0060064Y0072394D01*
X0060064Y0073393D02*
X0070247Y0073393D01*
X0072464Y0074391D02*
X0060064Y0074391D01*
X0060064Y0075390D02*
X0072464Y0075390D01*
X0072464Y0076388D02*
X0060064Y0076388D01*
X0071344Y0069399D02*
X0072464Y0069399D01*
X0072464Y0068400D02*
X0070346Y0068400D01*
X0069347Y0067402D02*
X0072464Y0067402D01*
X0073025Y0066403D02*
X0068349Y0066403D01*
X0067350Y0065405D02*
X0077319Y0065405D01*
X0077272Y0065377D02*
X0076993Y0065098D01*
X0076795Y0064756D01*
X0076693Y0064375D01*
X0076693Y0062890D01*
X0079480Y0062890D01*
X0079480Y0065677D01*
X0077995Y0065677D01*
X0077614Y0065575D01*
X0077272Y0065377D01*
X0076701Y0064406D02*
X0066352Y0064406D01*
X0068184Y0063408D02*
X0076693Y0063408D01*
X0076693Y0061411D02*
X0068394Y0061411D01*
X0068394Y0062409D02*
X0079480Y0062409D01*
X0080055Y0062409D02*
X0083289Y0062409D01*
X0082843Y0063408D02*
X0084287Y0063408D01*
X0080055Y0063408D02*
X0079480Y0063408D01*
X0079480Y0064406D02*
X0080055Y0064406D01*
X0080055Y0065405D02*
X0079480Y0065405D01*
X0076816Y0060412D02*
X0068394Y0060412D01*
X0068394Y0059414D02*
X0077214Y0059414D01*
X0076693Y0058415D02*
X0067938Y0058415D01*
X0068532Y0057417D02*
X0058309Y0057417D01*
X0057310Y0056418D02*
X0067534Y0056418D01*
X0066535Y0055420D02*
X0056312Y0055420D01*
X0054586Y0054421D02*
X0065537Y0054421D01*
X0064538Y0053423D02*
X0054586Y0053423D01*
X0054586Y0052424D02*
X0063540Y0052424D01*
X0062541Y0051426D02*
X0054586Y0051426D01*
X0054586Y0050427D02*
X0061543Y0050427D01*
X0062033Y0058415D02*
X0062700Y0058415D01*
X0065031Y0058415D02*
X0065606Y0058415D01*
X0065606Y0059414D02*
X0065031Y0059414D01*
X0065031Y0060412D02*
X0065606Y0060412D01*
X0061261Y0064406D02*
X0049500Y0064406D01*
X0053772Y0063408D02*
X0054346Y0063408D01*
X0054346Y0062409D02*
X0053772Y0062409D01*
X0081179Y0048430D02*
X0082057Y0048430D01*
X0084283Y0048430D02*
X0084858Y0048430D01*
X0084858Y0047432D02*
X0084283Y0047432D01*
X0084283Y0046433D02*
X0084858Y0046433D01*
X0084858Y0045434D02*
X0086542Y0045434D01*
X0087646Y0046433D02*
X0107700Y0046433D01*
X0107700Y0045434D02*
X0101655Y0045434D01*
X0102291Y0044436D02*
X0107700Y0044436D01*
X0106636Y0047432D02*
X0106408Y0047432D01*
X0103874Y0047432D02*
X0103299Y0047432D01*
X0103299Y0048430D02*
X0103874Y0048430D01*
X0103874Y0049429D02*
X0103299Y0049429D01*
X0103299Y0050427D02*
X0103874Y0050427D01*
X0103874Y0051426D02*
X0103299Y0051426D01*
X0103299Y0052424D02*
X0103874Y0052424D01*
X0100512Y0048430D02*
X0087085Y0048430D01*
X0087646Y0047432D02*
X0100765Y0047432D01*
X0094809Y0045434D02*
X0093388Y0045434D01*
X0094024Y0044436D02*
X0094173Y0044436D01*
X0094173Y0043437D02*
X0094024Y0043437D01*
X0094024Y0042439D02*
X0094173Y0042439D01*
X0094173Y0041440D02*
X0094024Y0041440D01*
X0094024Y0040442D02*
X0094173Y0040442D01*
X0094742Y0039443D02*
X0093455Y0039443D01*
X0090441Y0038445D02*
X0100630Y0038445D01*
X0100852Y0037446D02*
X0090441Y0037446D01*
X0092710Y0029458D02*
X0112149Y0029458D01*
X0109379Y0028460D02*
X0092921Y0028460D01*
X0092921Y0027461D02*
X0108380Y0027461D01*
X0107382Y0026463D02*
X0092921Y0026463D01*
X0092921Y0025464D02*
X0106383Y0025464D01*
X0102559Y0024466D02*
X0092921Y0024466D01*
X0084803Y0024466D02*
X0084654Y0024466D01*
X0084654Y0025464D02*
X0084803Y0025464D01*
X0077055Y0023467D02*
X0102559Y0023467D01*
X0102559Y0022469D02*
X0075824Y0022469D01*
X0077055Y0021470D02*
X0102559Y0021470D01*
X0102559Y0020472D02*
X0077054Y0020472D01*
X0076476Y0019473D02*
X0103177Y0019473D01*
X0104100Y0018475D02*
X0098694Y0018475D01*
X0098748Y0017476D02*
X0104100Y0017476D01*
X0104100Y0016478D02*
X0098748Y0016478D01*
X0098748Y0015479D02*
X0104100Y0015479D01*
X0102832Y0014481D02*
X0098748Y0014481D01*
X0098175Y0013482D02*
X0102402Y0013482D01*
X0092653Y0018475D02*
X0069871Y0018475D01*
X0071024Y0026724D02*
X0068480Y0026724D01*
X0068480Y0027299D01*
X0070955Y0027299D01*
X0071024Y0027231D01*
X0071024Y0026724D01*
X0084069Y0017476D02*
X0085131Y0017476D01*
X0081970Y0006493D02*
X0076385Y0006493D01*
X0076642Y0005494D02*
X0081713Y0005494D01*
X0081713Y0004496D02*
X0076642Y0004496D01*
X0111252Y0020472D02*
X0111827Y0020472D01*
X0111827Y0021470D02*
X0111252Y0021470D01*
X0114026Y0014481D02*
X0117610Y0014481D01*
X0117610Y0013482D02*
X0114457Y0013482D01*
X0114457Y0012484D02*
X0117610Y0012484D01*
X0117610Y0011485D02*
X0114457Y0011485D01*
X0114457Y0010487D02*
X0117610Y0010487D01*
X0106700Y0037446D02*
X0106558Y0037446D01*
X0103992Y0037446D02*
X0103417Y0037446D01*
X0103417Y0038445D02*
X0103992Y0038445D01*
X0103992Y0039443D02*
X0103417Y0039443D01*
X0095795Y0058415D02*
X0084386Y0058415D01*
X0085384Y0059414D02*
X0094710Y0059414D01*
X0102174Y0063408D02*
X0108503Y0063408D01*
X0111598Y0065405D02*
X0117610Y0065405D01*
X0117610Y0066403D02*
X0110599Y0066403D01*
X0109601Y0067402D02*
X0117610Y0067402D01*
X0117610Y0070397D02*
X0110944Y0070397D01*
X0111425Y0071396D02*
X0117610Y0071396D01*
X0117610Y0072394D02*
X0111425Y0072394D01*
X0111425Y0073393D02*
X0117610Y0073393D01*
X0117610Y0074391D02*
X0111425Y0074391D01*
X0110598Y0075390D02*
X0117610Y0075390D01*
X0117610Y0064406D02*
X0112596Y0064406D01*
X0113595Y0063408D02*
X0117610Y0063408D01*
D24*
X0073941Y0021382D02*
X0073744Y0021382D01*
M02*
