G75*
%MOIN*%
%OFA0B0*%
%FSLAX25Y25*%
%IPPOS*%
%LPD*%
%AMOC8*
5,1,8,0,0,1.08239X$1,22.5*
%
%ADD10C,0.00000*%
%ADD11C,0.70000*%
%ADD12R,0.10000X0.20000*%
%ADD13C,0.06000*%
%ADD14C,0.01000*%
%ADD15C,0.03762*%
D10*
X0001500Y0001500D02*
X0119610Y0001500D01*
X0119610Y0080240D01*
X0001500Y0080240D01*
X0001500Y0001500D01*
D11*
X0061500Y0041500D03*
D12*
X0016500Y0041500D03*
X0106500Y0041500D03*
D13*
X0029335Y0014028D02*
X0029335Y0008028D01*
X0019335Y0008028D02*
X0019335Y0014028D01*
X0009335Y0014028D02*
X0009335Y0008028D01*
X0009098Y0069642D02*
X0009098Y0075642D01*
X0019098Y0075642D02*
X0019098Y0069642D01*
X0029098Y0069642D02*
X0029098Y0075642D01*
D14*
X0032813Y0077387D02*
X0056873Y0077387D01*
X0057944Y0077600D02*
X0050970Y0076213D01*
X0044400Y0073491D01*
X0038488Y0069541D01*
X0033858Y0064911D01*
X0031032Y0064911D01*
X0030996Y0065000D01*
X0030296Y0065700D01*
X0031421Y0066166D01*
X0032574Y0067319D01*
X0033198Y0068826D01*
X0033198Y0076457D01*
X0032574Y0077964D01*
X0032298Y0078240D01*
X0117610Y0078240D01*
X0117610Y0003500D01*
X0097907Y0003500D01*
X0098858Y0003894D01*
X0099697Y0004733D01*
X0100150Y0005828D01*
X0100150Y0007014D01*
X0099697Y0008110D01*
X0098858Y0008949D01*
X0097762Y0009402D01*
X0096576Y0009402D01*
X0096070Y0009193D01*
X0088158Y0017105D01*
X0089541Y0018488D01*
X0093491Y0024400D01*
X0096213Y0030970D01*
X0097600Y0037944D01*
X0097600Y0045056D01*
X0096639Y0049888D01*
X0097472Y0050721D01*
X0097561Y0050684D01*
X0098747Y0050684D01*
X0099842Y0051138D01*
X0100400Y0051696D01*
X0100400Y0031044D01*
X0101044Y0030400D01*
X0101086Y0030400D01*
X0098600Y0028510D01*
X0098156Y0028694D01*
X0096970Y0028694D01*
X0095874Y0028240D01*
X0095036Y0027401D01*
X0094582Y0026306D01*
X0094582Y0025120D01*
X0095036Y0024024D01*
X0095874Y0023185D01*
X0096970Y0022731D01*
X0098156Y0022731D01*
X0099252Y0023185D01*
X0100090Y0024024D01*
X0100544Y0025120D01*
X0100544Y0025969D01*
X0106375Y0030400D01*
X0111956Y0030400D01*
X0112600Y0031044D01*
X0112600Y0051956D01*
X0111956Y0052600D01*
X0109005Y0052600D01*
X0109005Y0053185D01*
X0109106Y0053337D01*
X0109005Y0053827D01*
X0109005Y0054328D01*
X0108877Y0054457D01*
X0108840Y0054635D01*
X0108422Y0054911D01*
X0108068Y0055265D01*
X0107886Y0055265D01*
X0099954Y0060504D01*
X0099954Y0061148D01*
X0099500Y0062244D01*
X0098853Y0062891D01*
X0099332Y0062692D01*
X0100518Y0062692D01*
X0101614Y0063146D01*
X0102452Y0063985D01*
X0102906Y0065080D01*
X0102906Y0066266D01*
X0102452Y0067362D01*
X0101614Y0068200D01*
X0100518Y0068654D01*
X0099332Y0068654D01*
X0098237Y0068200D01*
X0097398Y0067362D01*
X0097361Y0067273D01*
X0086780Y0067273D01*
X0084512Y0069541D01*
X0078600Y0073491D01*
X0072030Y0076213D01*
X0065056Y0077600D01*
X0057944Y0077600D01*
X0051853Y0076388D02*
X0033198Y0076388D01*
X0033198Y0075390D02*
X0048983Y0075390D01*
X0046573Y0074391D02*
X0033198Y0074391D01*
X0033198Y0073393D02*
X0044253Y0073393D01*
X0042758Y0072394D02*
X0033198Y0072394D01*
X0033198Y0071396D02*
X0041264Y0071396D01*
X0039770Y0070397D02*
X0033198Y0070397D01*
X0033198Y0069399D02*
X0038346Y0069399D01*
X0037347Y0068400D02*
X0033022Y0068400D01*
X0032608Y0067402D02*
X0036349Y0067402D01*
X0035350Y0066403D02*
X0031658Y0066403D01*
X0030591Y0065405D02*
X0034352Y0065405D01*
X0039689Y0063311D02*
X0061500Y0041500D01*
X0085988Y0041500D01*
X0098154Y0053665D01*
X0100866Y0052424D02*
X0100868Y0052424D01*
X0100864Y0052420D02*
X0101135Y0053072D01*
X0101135Y0054258D01*
X0100681Y0055354D01*
X0099842Y0056193D01*
X0098747Y0056646D01*
X0097561Y0056646D01*
X0096465Y0056193D01*
X0095626Y0055354D01*
X0095231Y0054400D01*
X0093491Y0058600D01*
X0089834Y0064073D01*
X0097361Y0064073D01*
X0097398Y0063985D01*
X0098045Y0063338D01*
X0097565Y0063536D01*
X0096379Y0063536D01*
X0095284Y0063082D01*
X0094445Y0062244D01*
X0093991Y0061148D01*
X0093991Y0059962D01*
X0094445Y0058866D01*
X0095284Y0058028D01*
X0096379Y0057574D01*
X0097565Y0057574D01*
X0098191Y0057833D01*
X0105806Y0052805D01*
X0105806Y0052600D01*
X0101044Y0052600D01*
X0100864Y0052420D01*
X0101135Y0053423D02*
X0104870Y0053423D01*
X0103358Y0054421D02*
X0101067Y0054421D01*
X0100615Y0055420D02*
X0101846Y0055420D01*
X0100334Y0056418D02*
X0099298Y0056418D01*
X0098822Y0057417D02*
X0093981Y0057417D01*
X0093568Y0058415D02*
X0094896Y0058415D01*
X0094219Y0059414D02*
X0092948Y0059414D01*
X0092280Y0060412D02*
X0093991Y0060412D01*
X0094100Y0061411D02*
X0091613Y0061411D01*
X0090946Y0062409D02*
X0094611Y0062409D01*
X0096069Y0063408D02*
X0090279Y0063408D01*
X0085673Y0065673D02*
X0061500Y0041500D01*
X0052799Y0032799D01*
X0029059Y0032799D01*
X0019610Y0023350D01*
X0019610Y0020791D01*
X0020004Y0020398D01*
X0020004Y0020358D01*
X0029335Y0011028D01*
X0033435Y0011485D02*
X0036693Y0011485D01*
X0035695Y0012484D02*
X0033435Y0012484D01*
X0033435Y0013482D02*
X0034696Y0013482D01*
X0033698Y0014481D02*
X0033435Y0014481D01*
X0033435Y0014744D02*
X0044538Y0003640D01*
X0048345Y0003640D01*
X0048382Y0003551D01*
X0048434Y0003500D01*
X0003500Y0003500D01*
X0003500Y0078240D01*
X0005899Y0078240D01*
X0005623Y0077964D01*
X0004998Y0076457D01*
X0004998Y0068826D01*
X0005623Y0067319D01*
X0006776Y0066166D01*
X0008283Y0065542D01*
X0009914Y0065542D01*
X0011421Y0066166D01*
X0012486Y0067231D01*
X0014900Y0064945D01*
X0014900Y0052600D01*
X0011044Y0052600D01*
X0010400Y0051956D01*
X0010400Y0031044D01*
X0011044Y0030400D01*
X0015948Y0030400D01*
X0015114Y0029567D01*
X0014661Y0028471D01*
X0014661Y0027285D01*
X0015114Y0026189D01*
X0015953Y0025351D01*
X0017049Y0024897D01*
X0018235Y0024897D01*
X0019330Y0025351D01*
X0020169Y0026189D01*
X0020206Y0026278D01*
X0020275Y0026278D01*
X0018947Y0024950D01*
X0018010Y0024013D01*
X0018010Y0022620D01*
X0017477Y0022086D01*
X0017023Y0020991D01*
X0017023Y0019805D01*
X0017477Y0018709D01*
X0018193Y0017993D01*
X0017012Y0017503D01*
X0015859Y0016350D01*
X0015235Y0014843D01*
X0015235Y0007212D01*
X0015859Y0005705D01*
X0017012Y0004552D01*
X0018519Y0003928D01*
X0020150Y0003928D01*
X0021657Y0004552D01*
X0022810Y0005705D01*
X0023435Y0007212D01*
X0023435Y0014665D01*
X0025235Y0012865D01*
X0025235Y0007212D01*
X0025859Y0005705D01*
X0027012Y0004552D01*
X0028519Y0003928D01*
X0030150Y0003928D01*
X0031657Y0004552D01*
X0032810Y0005705D01*
X0033435Y0007212D01*
X0033435Y0014744D01*
X0030051Y0018128D02*
X0028519Y0018128D01*
X0027012Y0017503D01*
X0026067Y0016558D01*
X0022937Y0019688D01*
X0022985Y0019805D01*
X0022985Y0020991D01*
X0022531Y0022086D01*
X0021693Y0022925D01*
X0021519Y0022997D01*
X0023371Y0024848D01*
X0023322Y0024731D01*
X0023322Y0023545D01*
X0023776Y0022449D01*
X0024614Y0021611D01*
X0025710Y0021157D01*
X0026896Y0021157D01*
X0026985Y0021193D01*
X0030051Y0018128D01*
X0029704Y0018475D02*
X0024150Y0018475D01*
X0023152Y0019473D02*
X0028705Y0019473D01*
X0027706Y0020472D02*
X0022985Y0020472D01*
X0022786Y0021470D02*
X0024953Y0021470D01*
X0023768Y0022469D02*
X0022149Y0022469D01*
X0021990Y0023467D02*
X0023354Y0023467D01*
X0023322Y0024466D02*
X0022988Y0024466D01*
X0019461Y0025464D02*
X0019444Y0025464D01*
X0018463Y0024466D02*
X0003500Y0024466D01*
X0003500Y0023467D02*
X0018010Y0023467D01*
X0017859Y0022469D02*
X0003500Y0022469D01*
X0003500Y0021470D02*
X0017222Y0021470D01*
X0017023Y0020472D02*
X0003500Y0020472D01*
X0003500Y0019473D02*
X0017160Y0019473D01*
X0017711Y0018475D02*
X0003500Y0018475D01*
X0003500Y0017476D02*
X0006985Y0017476D01*
X0007012Y0017503D02*
X0005859Y0016350D01*
X0005235Y0014843D01*
X0005235Y0007212D01*
X0005859Y0005705D01*
X0007012Y0004552D01*
X0008519Y0003928D01*
X0010150Y0003928D01*
X0011657Y0004552D01*
X0012810Y0005705D01*
X0013435Y0007212D01*
X0013435Y0014843D01*
X0012810Y0016350D01*
X0011657Y0017503D01*
X0010150Y0018128D01*
X0008519Y0018128D01*
X0007012Y0017503D01*
X0005986Y0016478D02*
X0003500Y0016478D01*
X0003500Y0015479D02*
X0005498Y0015479D01*
X0005235Y0014481D02*
X0003500Y0014481D01*
X0003500Y0013482D02*
X0005235Y0013482D01*
X0005235Y0012484D02*
X0003500Y0012484D01*
X0003500Y0011485D02*
X0005235Y0011485D01*
X0005235Y0010487D02*
X0003500Y0010487D01*
X0003500Y0009488D02*
X0005235Y0009488D01*
X0005235Y0008490D02*
X0003500Y0008490D01*
X0003500Y0007491D02*
X0005235Y0007491D01*
X0005533Y0006493D02*
X0003500Y0006493D01*
X0003500Y0005494D02*
X0006070Y0005494D01*
X0007148Y0004496D02*
X0003500Y0004496D01*
X0011521Y0004496D02*
X0017148Y0004496D01*
X0016070Y0005494D02*
X0012599Y0005494D01*
X0013137Y0006493D02*
X0015533Y0006493D01*
X0015235Y0007491D02*
X0013435Y0007491D01*
X0013435Y0008490D02*
X0015235Y0008490D01*
X0015235Y0009488D02*
X0013435Y0009488D01*
X0013435Y0010487D02*
X0015235Y0010487D01*
X0015235Y0011485D02*
X0013435Y0011485D01*
X0013435Y0012484D02*
X0015235Y0012484D01*
X0015235Y0013482D02*
X0013435Y0013482D01*
X0013435Y0014481D02*
X0015235Y0014481D01*
X0015498Y0015479D02*
X0013171Y0015479D01*
X0012683Y0016478D02*
X0015986Y0016478D01*
X0016985Y0017476D02*
X0011684Y0017476D01*
X0015839Y0025464D02*
X0003500Y0025464D01*
X0003500Y0026463D02*
X0015001Y0026463D01*
X0014661Y0027461D02*
X0003500Y0027461D01*
X0003500Y0028460D02*
X0014661Y0028460D01*
X0015070Y0029458D02*
X0003500Y0029458D01*
X0003500Y0030457D02*
X0010988Y0030457D01*
X0010400Y0031455D02*
X0003500Y0031455D01*
X0003500Y0032454D02*
X0010400Y0032454D01*
X0010400Y0033452D02*
X0003500Y0033452D01*
X0003500Y0034451D02*
X0010400Y0034451D01*
X0010400Y0035449D02*
X0003500Y0035449D01*
X0003500Y0036448D02*
X0010400Y0036448D01*
X0010400Y0037446D02*
X0003500Y0037446D01*
X0003500Y0038445D02*
X0010400Y0038445D01*
X0010400Y0039443D02*
X0003500Y0039443D01*
X0003500Y0040442D02*
X0010400Y0040442D01*
X0010400Y0041440D02*
X0003500Y0041440D01*
X0003500Y0042439D02*
X0010400Y0042439D01*
X0010400Y0043437D02*
X0003500Y0043437D01*
X0003500Y0044436D02*
X0010400Y0044436D01*
X0010400Y0045434D02*
X0003500Y0045434D01*
X0003500Y0046433D02*
X0010400Y0046433D01*
X0010400Y0047432D02*
X0003500Y0047432D01*
X0003500Y0048430D02*
X0010400Y0048430D01*
X0010400Y0049429D02*
X0003500Y0049429D01*
X0003500Y0050427D02*
X0010400Y0050427D01*
X0010400Y0051426D02*
X0003500Y0051426D01*
X0003500Y0052424D02*
X0010868Y0052424D01*
X0014900Y0053423D02*
X0003500Y0053423D01*
X0003500Y0054421D02*
X0014900Y0054421D01*
X0014900Y0055420D02*
X0003500Y0055420D01*
X0003500Y0056418D02*
X0014900Y0056418D01*
X0014900Y0057417D02*
X0003500Y0057417D01*
X0003500Y0058415D02*
X0014900Y0058415D01*
X0014900Y0059414D02*
X0003500Y0059414D01*
X0003500Y0060412D02*
X0014900Y0060412D01*
X0014900Y0061411D02*
X0003500Y0061411D01*
X0003500Y0062409D02*
X0014900Y0062409D01*
X0014900Y0063408D02*
X0003500Y0063408D01*
X0003500Y0064406D02*
X0014900Y0064406D01*
X0014415Y0065405D02*
X0003500Y0065405D01*
X0003500Y0066403D02*
X0006539Y0066403D01*
X0005588Y0067402D02*
X0003500Y0067402D01*
X0003500Y0068400D02*
X0005175Y0068400D01*
X0004998Y0069399D02*
X0003500Y0069399D01*
X0003500Y0070397D02*
X0004998Y0070397D01*
X0004998Y0071396D02*
X0003500Y0071396D01*
X0003500Y0072394D02*
X0004998Y0072394D01*
X0004998Y0073393D02*
X0003500Y0073393D01*
X0003500Y0074391D02*
X0004998Y0074391D01*
X0004998Y0075390D02*
X0003500Y0075390D01*
X0003500Y0076388D02*
X0004998Y0076388D01*
X0005383Y0077387D02*
X0003500Y0077387D01*
X0009098Y0072642D02*
X0016500Y0065634D01*
X0016500Y0041500D01*
X0024557Y0041440D02*
X0025400Y0041440D01*
X0025400Y0040442D02*
X0024557Y0040442D01*
X0024557Y0039443D02*
X0025400Y0039443D01*
X0025400Y0038445D02*
X0024557Y0038445D01*
X0025400Y0037944D02*
X0026485Y0032488D01*
X0024557Y0030560D01*
X0024557Y0050524D01*
X0025120Y0050291D01*
X0026306Y0050291D01*
X0026454Y0050352D01*
X0025400Y0045056D01*
X0025400Y0037944D01*
X0025499Y0037446D02*
X0024557Y0037446D01*
X0024557Y0036448D02*
X0025698Y0036448D01*
X0025896Y0035449D02*
X0024557Y0035449D01*
X0024557Y0034451D02*
X0026095Y0034451D01*
X0026294Y0033452D02*
X0024557Y0033452D01*
X0024557Y0032454D02*
X0026451Y0032454D01*
X0025452Y0031455D02*
X0024557Y0031455D01*
X0022957Y0030043D02*
X0022957Y0051697D01*
X0021776Y0052878D01*
X0021776Y0053075D01*
X0019413Y0055437D01*
X0019413Y0072327D01*
X0019098Y0072642D01*
X0014998Y0072394D02*
X0013198Y0072394D01*
X0013198Y0071396D02*
X0014998Y0071396D01*
X0014998Y0070397D02*
X0013796Y0070397D01*
X0013198Y0070963D02*
X0013198Y0076457D01*
X0012574Y0077964D01*
X0012298Y0078240D01*
X0015899Y0078240D01*
X0015623Y0077964D01*
X0014998Y0076457D01*
X0014998Y0069259D01*
X0013198Y0070963D01*
X0014851Y0069399D02*
X0014998Y0069399D01*
X0013360Y0066403D02*
X0011658Y0066403D01*
X0013198Y0073393D02*
X0014998Y0073393D01*
X0014998Y0074391D02*
X0013198Y0074391D01*
X0013198Y0075390D02*
X0014998Y0075390D01*
X0014998Y0076388D02*
X0013198Y0076388D01*
X0012813Y0077387D02*
X0015383Y0077387D01*
X0022298Y0078240D02*
X0025899Y0078240D01*
X0025623Y0077964D01*
X0024998Y0076457D01*
X0024998Y0070974D01*
X0023198Y0069276D01*
X0023198Y0076457D01*
X0022574Y0077964D01*
X0022298Y0078240D01*
X0022813Y0077387D02*
X0025383Y0077387D01*
X0024998Y0076388D02*
X0023198Y0076388D01*
X0023198Y0075390D02*
X0024998Y0075390D01*
X0024998Y0074391D02*
X0023198Y0074391D01*
X0023198Y0073393D02*
X0024998Y0073393D01*
X0024998Y0072394D02*
X0023198Y0072394D01*
X0023198Y0071396D02*
X0024998Y0071396D01*
X0024387Y0070397D02*
X0023198Y0070397D01*
X0023198Y0069399D02*
X0023328Y0069399D01*
X0025703Y0067239D02*
X0026776Y0066166D01*
X0027173Y0066001D01*
X0026780Y0065838D01*
X0025941Y0065000D01*
X0025487Y0063904D01*
X0025487Y0062718D01*
X0025941Y0061622D01*
X0026780Y0060784D01*
X0027876Y0060330D01*
X0029061Y0060330D01*
X0030157Y0060784D01*
X0030996Y0061622D01*
X0031032Y0061711D01*
X0031587Y0061711D01*
X0029509Y0058600D01*
X0028071Y0055129D01*
X0027401Y0055799D01*
X0027313Y0055836D01*
X0027313Y0056493D01*
X0023769Y0060037D01*
X0023769Y0065416D01*
X0025703Y0067239D01*
X0026539Y0066403D02*
X0024816Y0066403D01*
X0023769Y0065405D02*
X0026346Y0065405D01*
X0025695Y0064406D02*
X0023769Y0064406D01*
X0023769Y0063408D02*
X0025487Y0063408D01*
X0025615Y0062409D02*
X0023769Y0062409D01*
X0023769Y0061411D02*
X0026153Y0061411D01*
X0027677Y0060412D02*
X0023769Y0060412D01*
X0024392Y0059414D02*
X0030052Y0059414D01*
X0029432Y0058415D02*
X0025391Y0058415D01*
X0026389Y0057417D02*
X0029019Y0057417D01*
X0028605Y0056418D02*
X0027313Y0056418D01*
X0025713Y0055831D02*
X0022169Y0059374D01*
X0022169Y0066106D01*
X0029098Y0072642D01*
X0028469Y0063311D02*
X0039689Y0063311D01*
X0031387Y0061411D02*
X0030784Y0061411D01*
X0030720Y0060412D02*
X0029260Y0060412D01*
X0025713Y0055831D02*
X0025713Y0053272D01*
X0027781Y0055420D02*
X0028191Y0055420D01*
X0023753Y0055528D02*
X0021507Y0057774D01*
X0021013Y0058267D01*
X0021013Y0056100D01*
X0022883Y0054230D01*
X0023185Y0054960D01*
X0023753Y0055528D01*
X0023645Y0055420D02*
X0021694Y0055420D01*
X0022692Y0054421D02*
X0022962Y0054421D01*
X0019988Y0052600D02*
X0018100Y0052600D01*
X0018100Y0054488D01*
X0019988Y0052600D01*
X0019165Y0053423D02*
X0018100Y0053423D01*
X0018100Y0054421D02*
X0018167Y0054421D01*
X0021013Y0056418D02*
X0022862Y0056418D01*
X0021864Y0057417D02*
X0021013Y0057417D01*
X0024557Y0050427D02*
X0024790Y0050427D01*
X0024557Y0049429D02*
X0026270Y0049429D01*
X0026071Y0048430D02*
X0024557Y0048430D01*
X0024557Y0047432D02*
X0025873Y0047432D01*
X0025674Y0046433D02*
X0024557Y0046433D01*
X0024557Y0045434D02*
X0025475Y0045434D01*
X0025400Y0044436D02*
X0024557Y0044436D01*
X0024557Y0043437D02*
X0025400Y0043437D01*
X0025400Y0042439D02*
X0024557Y0042439D01*
X0021051Y0030400D02*
X0019336Y0030400D01*
X0020169Y0029567D01*
X0020183Y0029532D01*
X0021051Y0030400D01*
X0022957Y0030043D02*
X0020791Y0027878D01*
X0017642Y0027878D01*
X0025593Y0027070D02*
X0027580Y0029057D01*
X0029509Y0024400D01*
X0031935Y0020768D01*
X0029248Y0023456D01*
X0029284Y0023545D01*
X0029284Y0024731D01*
X0028830Y0025826D01*
X0027992Y0026665D01*
X0026896Y0027119D01*
X0025710Y0027119D01*
X0025593Y0027070D01*
X0025984Y0027461D02*
X0028241Y0027461D01*
X0028194Y0026463D02*
X0028654Y0026463D01*
X0028980Y0025464D02*
X0029068Y0025464D01*
X0029284Y0024466D02*
X0029481Y0024466D01*
X0029252Y0023467D02*
X0030132Y0023467D01*
X0030235Y0022469D02*
X0030799Y0022469D01*
X0031233Y0021470D02*
X0031466Y0021470D01*
X0026303Y0024138D02*
X0045201Y0005240D01*
X0050909Y0005240D01*
X0053722Y0006240D02*
X0057944Y0005400D01*
X0065056Y0005400D01*
X0072030Y0006787D01*
X0078600Y0009509D01*
X0084512Y0013459D01*
X0085895Y0014842D01*
X0094188Y0006549D01*
X0094188Y0005828D01*
X0094642Y0004733D01*
X0095481Y0003894D01*
X0096432Y0003500D01*
X0053385Y0003500D01*
X0053437Y0003551D01*
X0053891Y0004647D01*
X0053891Y0005833D01*
X0053722Y0006240D01*
X0053891Y0005494D02*
X0057472Y0005494D01*
X0053828Y0004496D02*
X0094879Y0004496D01*
X0094327Y0005494D02*
X0065528Y0005494D01*
X0070548Y0006493D02*
X0094188Y0006493D01*
X0093246Y0007491D02*
X0073729Y0007491D01*
X0076140Y0008490D02*
X0092248Y0008490D01*
X0091249Y0009488D02*
X0078550Y0009488D01*
X0080063Y0010487D02*
X0090251Y0010487D01*
X0089252Y0011485D02*
X0081558Y0011485D01*
X0083052Y0012484D02*
X0088254Y0012484D01*
X0087255Y0013482D02*
X0084535Y0013482D01*
X0085534Y0014481D02*
X0086257Y0014481D01*
X0088785Y0016478D02*
X0117610Y0016478D01*
X0117610Y0017476D02*
X0088529Y0017476D01*
X0089528Y0018475D02*
X0117610Y0018475D01*
X0117610Y0019473D02*
X0090199Y0019473D01*
X0090866Y0020472D02*
X0117610Y0020472D01*
X0117610Y0021470D02*
X0091534Y0021470D01*
X0092201Y0022469D02*
X0117610Y0022469D01*
X0117610Y0023467D02*
X0099534Y0023467D01*
X0100273Y0024466D02*
X0117610Y0024466D01*
X0117610Y0025464D02*
X0100544Y0025464D01*
X0101194Y0026463D02*
X0117610Y0026463D01*
X0117610Y0027461D02*
X0102508Y0027461D01*
X0103822Y0028460D02*
X0117610Y0028460D01*
X0117610Y0029458D02*
X0105136Y0029458D01*
X0100988Y0030457D02*
X0096000Y0030457D01*
X0096309Y0031455D02*
X0100400Y0031455D01*
X0100400Y0032454D02*
X0096508Y0032454D01*
X0096706Y0033452D02*
X0100400Y0033452D01*
X0100400Y0034451D02*
X0096905Y0034451D01*
X0097104Y0035449D02*
X0100400Y0035449D01*
X0100400Y0036448D02*
X0097302Y0036448D01*
X0097501Y0037446D02*
X0100400Y0037446D01*
X0100400Y0038445D02*
X0097600Y0038445D01*
X0097600Y0039443D02*
X0100400Y0039443D01*
X0100400Y0040442D02*
X0097600Y0040442D01*
X0097600Y0041440D02*
X0100400Y0041440D01*
X0100400Y0042439D02*
X0097600Y0042439D01*
X0097600Y0043437D02*
X0100400Y0043437D01*
X0100400Y0044436D02*
X0097600Y0044436D01*
X0097525Y0045434D02*
X0100400Y0045434D01*
X0100400Y0046433D02*
X0097326Y0046433D01*
X0097127Y0047432D02*
X0100400Y0047432D01*
X0100400Y0048430D02*
X0096929Y0048430D01*
X0096730Y0049429D02*
X0100400Y0049429D01*
X0100400Y0050427D02*
X0097178Y0050427D01*
X0100130Y0051426D02*
X0100400Y0051426D01*
X0095240Y0054421D02*
X0095222Y0054421D01*
X0094809Y0055420D02*
X0095692Y0055420D01*
X0094395Y0056418D02*
X0097009Y0056418D01*
X0101604Y0059414D02*
X0117610Y0059414D01*
X0117610Y0060412D02*
X0100092Y0060412D01*
X0099845Y0061411D02*
X0117610Y0061411D01*
X0117610Y0062409D02*
X0099334Y0062409D01*
X0097975Y0063408D02*
X0097876Y0063408D01*
X0096972Y0060555D02*
X0107406Y0053665D01*
X0107406Y0037130D01*
X0107406Y0033193D01*
X0097563Y0025713D01*
X0094853Y0024466D02*
X0093519Y0024466D01*
X0092868Y0023467D02*
X0095592Y0023467D01*
X0094582Y0025464D02*
X0093932Y0025464D01*
X0094346Y0026463D02*
X0094647Y0026463D01*
X0094759Y0027461D02*
X0095096Y0027461D01*
X0095173Y0028460D02*
X0096405Y0028460D01*
X0095587Y0029458D02*
X0099847Y0029458D01*
X0107406Y0037130D02*
X0106500Y0038035D01*
X0106500Y0041500D01*
X0112600Y0041440D02*
X0117610Y0041440D01*
X0117610Y0040442D02*
X0112600Y0040442D01*
X0112600Y0039443D02*
X0117610Y0039443D01*
X0117610Y0038445D02*
X0112600Y0038445D01*
X0112600Y0037446D02*
X0117610Y0037446D01*
X0117610Y0036448D02*
X0112600Y0036448D01*
X0112600Y0035449D02*
X0117610Y0035449D01*
X0117610Y0034451D02*
X0112600Y0034451D01*
X0112600Y0033452D02*
X0117610Y0033452D01*
X0117610Y0032454D02*
X0112600Y0032454D01*
X0112600Y0031455D02*
X0117610Y0031455D01*
X0117610Y0030457D02*
X0112012Y0030457D01*
X0112600Y0042439D02*
X0117610Y0042439D01*
X0117610Y0043437D02*
X0112600Y0043437D01*
X0112600Y0044436D02*
X0117610Y0044436D01*
X0117610Y0045434D02*
X0112600Y0045434D01*
X0112600Y0046433D02*
X0117610Y0046433D01*
X0117610Y0047432D02*
X0112600Y0047432D01*
X0112600Y0048430D02*
X0117610Y0048430D01*
X0117610Y0049429D02*
X0112600Y0049429D01*
X0112600Y0050427D02*
X0117610Y0050427D01*
X0117610Y0051426D02*
X0112600Y0051426D01*
X0112132Y0052424D02*
X0117610Y0052424D01*
X0117610Y0053423D02*
X0109088Y0053423D01*
X0108912Y0054421D02*
X0117610Y0054421D01*
X0117610Y0055420D02*
X0107653Y0055420D01*
X0106140Y0056418D02*
X0117610Y0056418D01*
X0117610Y0057417D02*
X0104628Y0057417D01*
X0103116Y0058415D02*
X0117610Y0058415D01*
X0117610Y0063408D02*
X0101876Y0063408D01*
X0102627Y0064406D02*
X0117610Y0064406D01*
X0117610Y0065405D02*
X0102906Y0065405D01*
X0102850Y0066403D02*
X0117610Y0066403D01*
X0117610Y0067402D02*
X0102413Y0067402D01*
X0101132Y0068400D02*
X0117610Y0068400D01*
X0117610Y0069399D02*
X0084654Y0069399D01*
X0085653Y0068400D02*
X0098719Y0068400D01*
X0097438Y0067402D02*
X0086651Y0067402D01*
X0085673Y0065673D02*
X0099925Y0065673D01*
X0083230Y0070397D02*
X0117610Y0070397D01*
X0117610Y0071396D02*
X0081736Y0071396D01*
X0080242Y0072394D02*
X0117610Y0072394D01*
X0117610Y0073393D02*
X0078747Y0073393D01*
X0076427Y0074391D02*
X0117610Y0074391D01*
X0117610Y0075390D02*
X0074017Y0075390D01*
X0071147Y0076388D02*
X0117610Y0076388D01*
X0117610Y0077387D02*
X0066127Y0077387D01*
X0061500Y0041500D02*
X0095988Y0007012D01*
X0097169Y0006421D01*
X0100150Y0006493D02*
X0117610Y0006493D01*
X0117610Y0005494D02*
X0100012Y0005494D01*
X0099459Y0004496D02*
X0117610Y0004496D01*
X0117610Y0007491D02*
X0099953Y0007491D01*
X0099317Y0008490D02*
X0117610Y0008490D01*
X0117610Y0009488D02*
X0095775Y0009488D01*
X0094776Y0010487D02*
X0117610Y0010487D01*
X0117610Y0011485D02*
X0093778Y0011485D01*
X0092779Y0012484D02*
X0117610Y0012484D01*
X0117610Y0013482D02*
X0091781Y0013482D01*
X0090782Y0014481D02*
X0117610Y0014481D01*
X0117610Y0015479D02*
X0089784Y0015479D01*
X0049040Y0007587D02*
X0048382Y0006929D01*
X0048345Y0006840D01*
X0045864Y0006840D01*
X0040768Y0011935D01*
X0044400Y0009509D01*
X0049040Y0007587D01*
X0048944Y0007491D02*
X0045213Y0007491D01*
X0044214Y0008490D02*
X0046860Y0008490D01*
X0044450Y0009488D02*
X0043216Y0009488D01*
X0042937Y0010487D02*
X0042217Y0010487D01*
X0041442Y0011485D02*
X0041219Y0011485D01*
X0038690Y0009488D02*
X0033435Y0009488D01*
X0033435Y0008490D02*
X0039689Y0008490D01*
X0040687Y0007491D02*
X0033435Y0007491D01*
X0033137Y0006493D02*
X0041686Y0006493D01*
X0042684Y0005494D02*
X0032599Y0005494D01*
X0031521Y0004496D02*
X0043683Y0004496D01*
X0037692Y0010487D02*
X0033435Y0010487D01*
X0025533Y0006493D02*
X0023137Y0006493D01*
X0022599Y0005494D02*
X0026070Y0005494D01*
X0027148Y0004496D02*
X0021521Y0004496D01*
X0023435Y0007491D02*
X0025235Y0007491D01*
X0025235Y0008490D02*
X0023435Y0008490D01*
X0023435Y0009488D02*
X0025235Y0009488D01*
X0025235Y0010487D02*
X0023435Y0010487D01*
X0023435Y0011485D02*
X0025235Y0011485D01*
X0025235Y0012484D02*
X0023435Y0012484D01*
X0023435Y0013482D02*
X0024617Y0013482D01*
X0023619Y0014481D02*
X0023435Y0014481D01*
X0025149Y0017476D02*
X0026985Y0017476D01*
X0026982Y0028460D02*
X0027827Y0028460D01*
D15*
X0026303Y0024138D03*
X0020004Y0020398D03*
X0017642Y0027878D03*
X0050909Y0005240D03*
X0097169Y0006421D03*
X0097563Y0025713D03*
X0098154Y0053665D03*
X0096972Y0060555D03*
X0099925Y0065673D03*
X0028469Y0063311D03*
X0025713Y0053272D03*
M02*
