G75*
%MOIN*%
%OFA0B0*%
%FSLAX25Y25*%
%IPPOS*%
%LPD*%
%AMOC8*
5,1,8,0,0,1.08239X$1,22.5*
%
%ADD10C,0.00000*%
%ADD11C,0.00300*%
%ADD12C,0.00200*%
%ADD13C,0.00600*%
%ADD14C,0.00500*%
%ADD15C,0.00400*%
D10*
X0001500Y0001500D02*
X0119610Y0001500D01*
X0119610Y0080240D01*
X0001500Y0080240D01*
X0001500Y0001500D01*
D11*
X0057752Y0051453D02*
X0059204Y0051453D01*
X0059687Y0051937D01*
X0059687Y0052421D01*
X0059204Y0052904D01*
X0057752Y0052904D01*
X0059204Y0052904D02*
X0059687Y0053388D01*
X0059687Y0053872D01*
X0059204Y0054356D01*
X0057752Y0054356D01*
X0057752Y0051453D01*
X0060699Y0051453D02*
X0061666Y0051453D01*
X0061183Y0051453D02*
X0061183Y0054356D01*
X0060699Y0054356D01*
X0062663Y0053388D02*
X0062663Y0051937D01*
X0063147Y0051453D01*
X0064598Y0051453D01*
X0064598Y0053388D01*
X0065610Y0052904D02*
X0066093Y0053388D01*
X0067061Y0053388D01*
X0067545Y0052904D01*
X0067545Y0052421D01*
X0065610Y0052421D01*
X0065610Y0052904D02*
X0065610Y0051937D01*
X0066093Y0051453D01*
X0067061Y0051453D01*
X0068556Y0051453D02*
X0068556Y0054356D01*
X0070491Y0051453D01*
X0070491Y0054356D01*
X0071503Y0053388D02*
X0071987Y0053388D01*
X0071987Y0051453D01*
X0072470Y0051453D02*
X0071503Y0051453D01*
X0073467Y0051453D02*
X0073467Y0053388D01*
X0074918Y0053388D01*
X0075402Y0052904D01*
X0075402Y0051453D01*
X0076414Y0051937D02*
X0076897Y0051453D01*
X0078349Y0051453D01*
X0076414Y0051937D02*
X0076414Y0052904D01*
X0076897Y0053388D01*
X0078349Y0053388D01*
X0071987Y0054356D02*
X0071987Y0054839D01*
D12*
X0078403Y0050408D02*
X0078403Y0048940D01*
X0078770Y0048573D01*
X0079504Y0048573D01*
X0079871Y0048940D01*
X0080613Y0048573D02*
X0082081Y0048573D01*
X0081347Y0048573D02*
X0081347Y0050775D01*
X0080613Y0050041D01*
X0079871Y0050408D02*
X0079504Y0050775D01*
X0078770Y0050775D01*
X0078403Y0050408D01*
X0082823Y0050041D02*
X0083557Y0050775D01*
X0083557Y0048573D01*
X0082823Y0048573D02*
X0084291Y0048573D01*
X0093805Y0047463D02*
X0093805Y0045261D01*
X0095273Y0045261D01*
X0096015Y0045628D02*
X0096382Y0045261D01*
X0097116Y0045261D01*
X0097483Y0045628D01*
X0097483Y0046362D01*
X0097116Y0046729D01*
X0096749Y0046729D01*
X0096015Y0046362D01*
X0096015Y0047463D01*
X0097483Y0047463D01*
X0103325Y0046581D02*
X0103325Y0045113D01*
X0103692Y0044746D01*
X0104425Y0044746D01*
X0104792Y0045113D01*
X0105534Y0044746D02*
X0107002Y0044746D01*
X0106268Y0044746D02*
X0106268Y0046948D01*
X0105534Y0046214D01*
X0104792Y0046581D02*
X0104425Y0046948D01*
X0103692Y0046948D01*
X0103325Y0046581D01*
X0107744Y0046581D02*
X0108111Y0046948D01*
X0108845Y0046948D01*
X0109212Y0046581D01*
X0109212Y0046214D01*
X0107744Y0044746D01*
X0109212Y0044746D01*
X0108963Y0036909D02*
X0109330Y0036542D01*
X0109330Y0036175D01*
X0108963Y0035808D01*
X0109330Y0035441D01*
X0109330Y0035074D01*
X0108963Y0034707D01*
X0108229Y0034707D01*
X0107862Y0035074D01*
X0107120Y0034707D02*
X0105653Y0034707D01*
X0106386Y0034707D02*
X0106386Y0036909D01*
X0105653Y0036175D01*
X0104911Y0036542D02*
X0104544Y0036909D01*
X0103810Y0036909D01*
X0103443Y0036542D01*
X0103443Y0035074D01*
X0103810Y0034707D01*
X0104544Y0034707D01*
X0104911Y0035074D01*
X0107862Y0036542D02*
X0108229Y0036909D01*
X0108963Y0036909D01*
X0108963Y0035808D02*
X0108596Y0035808D01*
X0088112Y0031545D02*
X0088112Y0031178D01*
X0087745Y0030811D01*
X0088112Y0030444D01*
X0088112Y0030077D01*
X0087745Y0029710D01*
X0087012Y0029710D01*
X0086645Y0030077D01*
X0085903Y0029710D02*
X0084435Y0029710D01*
X0084435Y0031912D01*
X0084142Y0033054D02*
X0084142Y0035255D01*
X0083408Y0034521D01*
X0082666Y0034888D02*
X0082299Y0035255D01*
X0081566Y0035255D01*
X0081199Y0034888D01*
X0081199Y0033421D01*
X0081566Y0033054D01*
X0082299Y0033054D01*
X0082666Y0033421D01*
X0083408Y0033054D02*
X0084876Y0033054D01*
X0085618Y0033421D02*
X0087086Y0034888D01*
X0087086Y0033421D01*
X0086719Y0033054D01*
X0085985Y0033054D01*
X0085618Y0033421D01*
X0085618Y0034888D01*
X0085985Y0035255D01*
X0086719Y0035255D01*
X0087086Y0034888D01*
X0087012Y0031912D02*
X0087745Y0031912D01*
X0088112Y0031545D01*
X0087745Y0030811D02*
X0087378Y0030811D01*
X0086645Y0031545D02*
X0087012Y0031912D01*
X0074123Y0039750D02*
X0074123Y0041951D01*
X0073022Y0040851D01*
X0074490Y0040851D01*
X0072281Y0039750D02*
X0070813Y0039750D01*
X0070813Y0041951D01*
X0070137Y0032114D02*
X0069403Y0032114D01*
X0069036Y0031747D01*
X0069036Y0030279D01*
X0069403Y0029912D01*
X0070137Y0029912D01*
X0070504Y0030279D01*
X0071246Y0030279D02*
X0071613Y0029912D01*
X0072347Y0029912D01*
X0072714Y0030279D01*
X0072714Y0031747D01*
X0072347Y0032114D01*
X0071613Y0032114D01*
X0071246Y0031747D01*
X0071246Y0031380D01*
X0071613Y0031013D01*
X0072714Y0031013D01*
X0070504Y0031747D02*
X0070137Y0032114D01*
X0070019Y0019350D02*
X0069285Y0019350D01*
X0068918Y0018983D01*
X0068918Y0017515D01*
X0069285Y0017148D01*
X0070019Y0017148D01*
X0070386Y0017515D01*
X0071128Y0018249D02*
X0072595Y0018249D01*
X0072228Y0019350D02*
X0071128Y0018249D01*
X0070386Y0018983D02*
X0070019Y0019350D01*
X0072228Y0019350D02*
X0072228Y0017148D01*
X0069527Y0015855D02*
X0069527Y0014387D01*
X0069527Y0015488D02*
X0068059Y0015488D01*
X0068059Y0015855D02*
X0068059Y0014387D01*
X0067317Y0014754D02*
X0067317Y0016222D01*
X0066950Y0016589D01*
X0065849Y0016589D01*
X0065849Y0014387D01*
X0066950Y0014387D01*
X0067317Y0014754D01*
X0068059Y0015855D02*
X0068793Y0016589D01*
X0069527Y0015855D01*
X0065107Y0016222D02*
X0064740Y0016589D01*
X0064006Y0016589D01*
X0063639Y0016222D01*
X0063639Y0015855D01*
X0064006Y0015488D01*
X0064740Y0015488D01*
X0065107Y0015121D01*
X0065107Y0014754D01*
X0064740Y0014387D01*
X0064006Y0014387D01*
X0063639Y0014754D01*
X0057072Y0014827D02*
X0057072Y0014093D01*
X0056705Y0013726D01*
X0057072Y0012984D02*
X0056338Y0012250D01*
X0056338Y0012617D02*
X0056338Y0011516D01*
X0057072Y0011516D02*
X0054871Y0011516D01*
X0054871Y0012617D01*
X0055238Y0012984D01*
X0055972Y0012984D01*
X0056338Y0012617D01*
X0055238Y0013726D02*
X0054871Y0014093D01*
X0054871Y0014827D01*
X0055238Y0015194D01*
X0055605Y0015194D01*
X0055972Y0014827D01*
X0056338Y0015194D01*
X0056705Y0015194D01*
X0057072Y0014827D01*
X0055972Y0014827D02*
X0055972Y0014460D01*
X0041238Y0011257D02*
X0041238Y0009789D01*
X0039770Y0011257D01*
X0039403Y0011257D01*
X0039036Y0010890D01*
X0039036Y0010156D01*
X0039403Y0009789D01*
X0039403Y0009047D02*
X0040137Y0009047D01*
X0040504Y0008680D01*
X0040504Y0007579D01*
X0041238Y0007579D02*
X0039036Y0007579D01*
X0039036Y0008680D01*
X0039403Y0009047D01*
X0040504Y0008313D02*
X0041238Y0009047D01*
X0009112Y0022592D02*
X0009112Y0023326D01*
X0008745Y0023693D01*
X0008745Y0024435D02*
X0009112Y0024802D01*
X0009112Y0025536D01*
X0008745Y0025903D01*
X0008378Y0025903D01*
X0008011Y0025536D01*
X0008011Y0025169D01*
X0008011Y0025536D02*
X0007644Y0025903D01*
X0007277Y0025903D01*
X0006910Y0025536D01*
X0006910Y0024802D01*
X0007277Y0024435D01*
X0007277Y0023693D02*
X0006910Y0023326D01*
X0006910Y0022592D01*
X0007277Y0022225D01*
X0008745Y0022225D01*
X0009112Y0022592D01*
X0009671Y0037387D02*
X0011139Y0037387D01*
X0011881Y0037387D02*
X0013349Y0038855D01*
X0013349Y0039222D01*
X0012982Y0039589D01*
X0012248Y0039589D01*
X0011881Y0039222D01*
X0011881Y0037387D02*
X0013349Y0037387D01*
X0009671Y0037387D02*
X0009671Y0039589D01*
X0013057Y0047427D02*
X0014525Y0047427D01*
X0015267Y0047427D02*
X0016734Y0047427D01*
X0016001Y0047427D02*
X0016001Y0049629D01*
X0015267Y0048895D01*
X0013057Y0049629D02*
X0013057Y0047427D01*
X0037461Y0064531D02*
X0037828Y0064164D01*
X0038562Y0064164D01*
X0038929Y0064531D01*
X0039671Y0064531D02*
X0040038Y0064164D01*
X0040772Y0064164D01*
X0041139Y0064531D01*
X0041139Y0064898D01*
X0040772Y0065265D01*
X0039671Y0065265D01*
X0039671Y0064531D01*
X0039671Y0065265D02*
X0040405Y0065999D01*
X0041139Y0066366D01*
X0038929Y0065999D02*
X0038562Y0066366D01*
X0037828Y0066366D01*
X0037461Y0065999D01*
X0037461Y0064531D01*
X0048996Y0064531D02*
X0049363Y0064164D01*
X0050097Y0064164D01*
X0050464Y0064531D01*
X0051206Y0064531D02*
X0051206Y0064898D01*
X0051573Y0065265D01*
X0052307Y0065265D01*
X0052674Y0064898D01*
X0052674Y0064531D01*
X0052307Y0064164D01*
X0051573Y0064164D01*
X0051206Y0064531D01*
X0051573Y0065265D02*
X0051206Y0065632D01*
X0051206Y0065999D01*
X0051573Y0066366D01*
X0052307Y0066366D01*
X0052674Y0065999D01*
X0052674Y0065632D01*
X0052307Y0065265D01*
X0050464Y0065999D02*
X0050097Y0066366D01*
X0049363Y0066366D01*
X0048996Y0065999D01*
X0048996Y0064531D01*
X0060256Y0064334D02*
X0060623Y0063967D01*
X0061357Y0063967D01*
X0061724Y0064334D01*
X0062466Y0064334D02*
X0062466Y0063967D01*
X0062466Y0064334D02*
X0063934Y0065802D01*
X0063934Y0066169D01*
X0062466Y0066169D01*
X0061724Y0065802D02*
X0061357Y0066169D01*
X0060623Y0066169D01*
X0060256Y0065802D01*
X0060256Y0064334D01*
X0082666Y0061218D02*
X0082666Y0059750D01*
X0083767Y0059750D01*
X0083400Y0060484D01*
X0083400Y0060851D01*
X0083767Y0061218D01*
X0084501Y0061218D01*
X0084868Y0060851D01*
X0084868Y0060117D01*
X0084501Y0059750D01*
X0084501Y0059008D02*
X0084868Y0058641D01*
X0084868Y0057907D01*
X0084501Y0057540D01*
X0083033Y0057540D01*
X0082666Y0057907D01*
X0082666Y0058641D01*
X0083033Y0059008D01*
X0114946Y0062255D02*
X0115680Y0062989D01*
X0117148Y0062989D01*
X0117148Y0063731D02*
X0114946Y0063731D01*
X0117148Y0065199D01*
X0114946Y0065199D01*
X0114946Y0065941D02*
X0114946Y0067409D01*
X0114946Y0066675D02*
X0117148Y0066675D01*
X0117148Y0068151D02*
X0114946Y0068151D01*
X0114946Y0069619D01*
X0114946Y0070361D02*
X0117148Y0071829D01*
X0114946Y0071829D01*
X0114946Y0072571D02*
X0117148Y0074039D01*
X0114946Y0074039D01*
X0115680Y0074781D02*
X0114946Y0075514D01*
X0115680Y0076248D01*
X0117148Y0076248D01*
X0116047Y0076248D02*
X0116047Y0074781D01*
X0115680Y0074781D02*
X0117148Y0074781D01*
X0117148Y0072571D02*
X0114946Y0072571D01*
X0114946Y0070361D02*
X0117148Y0070361D01*
X0117148Y0069619D02*
X0117148Y0068151D01*
X0116047Y0068151D02*
X0116047Y0068885D01*
X0116047Y0062989D02*
X0116047Y0061521D01*
X0115680Y0061521D02*
X0114946Y0062255D01*
X0115680Y0061521D02*
X0117148Y0061521D01*
X0109421Y0019389D02*
X0109421Y0017187D01*
X0108687Y0017187D02*
X0110155Y0017187D01*
X0108687Y0018655D02*
X0109421Y0019389D01*
X0107945Y0019022D02*
X0107578Y0019389D01*
X0106844Y0019389D01*
X0106477Y0019022D01*
X0106477Y0017554D01*
X0106844Y0017187D01*
X0107578Y0017187D01*
X0107945Y0017554D01*
X0100773Y0014866D02*
X0098571Y0014866D01*
X0099672Y0013765D01*
X0099672Y0015233D01*
X0099672Y0013023D02*
X0098938Y0013023D01*
X0098571Y0012656D01*
X0098571Y0011555D01*
X0100773Y0011555D01*
X0100039Y0011555D02*
X0100039Y0012656D01*
X0099672Y0013023D01*
X0100039Y0012289D02*
X0100773Y0013023D01*
X0106319Y0008589D02*
X0106319Y0007121D01*
X0106686Y0006754D01*
X0107420Y0006754D01*
X0107787Y0007121D01*
X0108529Y0006754D02*
X0109997Y0008222D01*
X0109997Y0008589D01*
X0109630Y0008956D01*
X0108896Y0008956D01*
X0108529Y0008589D01*
X0107787Y0008589D02*
X0107420Y0008956D01*
X0106686Y0008956D01*
X0106319Y0008589D01*
X0108529Y0006754D02*
X0109997Y0006754D01*
X0088944Y0016191D02*
X0087476Y0016191D01*
X0087476Y0018392D01*
X0086734Y0018025D02*
X0086368Y0018392D01*
X0085634Y0018392D01*
X0085267Y0018025D01*
X0085267Y0016558D01*
X0085634Y0016191D01*
X0086368Y0016191D01*
X0086734Y0016558D01*
X0084525Y0016558D02*
X0084158Y0016191D01*
X0083424Y0016191D01*
X0083057Y0016558D01*
X0083424Y0017291D02*
X0084158Y0017291D01*
X0084525Y0016925D01*
X0084525Y0016558D01*
X0083424Y0017291D02*
X0083057Y0017658D01*
X0083057Y0018025D01*
X0083424Y0018392D01*
X0084158Y0018392D01*
X0084525Y0018025D01*
X0079077Y0015100D02*
X0078710Y0015467D01*
X0078343Y0015467D01*
X0077976Y0015100D01*
X0077976Y0013999D01*
X0078710Y0013999D01*
X0079077Y0014366D01*
X0079077Y0015100D01*
X0077976Y0013999D02*
X0077242Y0014733D01*
X0076875Y0015467D01*
X0077242Y0013257D02*
X0078710Y0011790D01*
X0079077Y0012156D01*
X0079077Y0012890D01*
X0078710Y0013257D01*
X0077242Y0013257D01*
X0076875Y0012890D01*
X0076875Y0012156D01*
X0077242Y0011790D01*
X0078710Y0011790D01*
X0078710Y0011048D02*
X0077242Y0011048D01*
X0078710Y0009580D01*
X0079077Y0009947D01*
X0079077Y0010681D01*
X0078710Y0011048D01*
X0077242Y0011048D02*
X0076875Y0010681D01*
X0076875Y0009947D01*
X0077242Y0009580D01*
X0078710Y0009580D01*
X0077242Y0008838D02*
X0078710Y0007370D01*
X0079077Y0007370D01*
X0079077Y0006630D02*
X0079077Y0005896D01*
X0079077Y0006263D02*
X0076875Y0006263D01*
X0076875Y0005896D02*
X0076875Y0006630D01*
X0076875Y0007370D02*
X0076875Y0008838D01*
X0077242Y0008838D01*
X0077242Y0005155D02*
X0076875Y0004788D01*
X0076875Y0004054D01*
X0077242Y0003687D01*
X0077609Y0003687D01*
X0077976Y0004054D01*
X0077976Y0004788D01*
X0078343Y0005155D01*
X0078710Y0005155D01*
X0079077Y0004788D01*
X0079077Y0004054D01*
X0078710Y0003687D01*
D13*
X0034335Y0008528D02*
X0034335Y0013528D01*
X0031835Y0016028D01*
X0026835Y0016028D01*
X0024335Y0013528D01*
X0021835Y0016028D01*
X0016835Y0016028D01*
X0014335Y0013528D01*
X0011835Y0016028D01*
X0006835Y0016028D01*
X0004335Y0013528D01*
X0004335Y0008528D01*
X0006835Y0006028D01*
X0011835Y0006028D01*
X0014335Y0008528D01*
X0016835Y0006028D01*
X0021835Y0006028D01*
X0024335Y0008528D01*
X0026835Y0006028D01*
X0031835Y0006028D01*
X0034335Y0008528D01*
X0031598Y0067642D02*
X0026598Y0067642D01*
X0024098Y0070142D01*
X0021598Y0067642D01*
X0016598Y0067642D01*
X0014098Y0070142D01*
X0011598Y0067642D01*
X0006598Y0067642D01*
X0004098Y0070142D01*
X0004098Y0075142D01*
X0006598Y0077642D01*
X0011598Y0077642D01*
X0014098Y0075142D01*
X0016598Y0077642D01*
X0021598Y0077642D01*
X0024098Y0075142D01*
X0026598Y0077642D01*
X0031598Y0077642D01*
X0034098Y0075142D01*
X0034098Y0070142D01*
X0031598Y0067642D01*
D14*
X0032170Y0051420D02*
X0034460Y0051420D01*
X0032170Y0051420D02*
X0032170Y0049120D01*
X0033506Y0049256D02*
X0033508Y0049273D01*
X0033513Y0049290D01*
X0033523Y0049305D01*
X0033535Y0049318D01*
X0033549Y0049328D01*
X0033565Y0049334D01*
X0033583Y0049337D01*
X0033600Y0049336D01*
X0033617Y0049331D01*
X0033632Y0049323D01*
X0033646Y0049312D01*
X0033656Y0049298D01*
X0033664Y0049282D01*
X0033668Y0049265D01*
X0033668Y0049247D01*
X0033664Y0049230D01*
X0033656Y0049214D01*
X0033646Y0049200D01*
X0033632Y0049189D01*
X0033617Y0049181D01*
X0033600Y0049176D01*
X0033583Y0049175D01*
X0033565Y0049178D01*
X0033549Y0049184D01*
X0033535Y0049194D01*
X0033523Y0049207D01*
X0033513Y0049222D01*
X0033508Y0049239D01*
X0033506Y0049256D01*
X0053500Y0051430D02*
X0055790Y0051430D01*
X0055790Y0049120D01*
X0055790Y0030090D02*
X0055790Y0027800D01*
X0053490Y0027800D01*
X0034460Y0027800D02*
X0032170Y0027800D01*
X0032170Y0030100D01*
D15*
X0062998Y0071936D02*
X0062998Y0074238D01*
X0064533Y0075773D01*
X0064533Y0076540D01*
X0066068Y0075005D02*
X0067602Y0076540D01*
X0067602Y0071936D01*
X0066068Y0071936D02*
X0069137Y0071936D01*
X0062998Y0074238D02*
X0061464Y0075773D01*
X0061464Y0076540D01*
M02*
